<svg width="24" height="24" viewBox="0 0 24 24" fill="none" xmlns="http://www.w3.org/2000/svg">
<path d="M11.88 5.67694C12.4321 5.67714 12.88 6.12479 12.88 6.67694L12.879 11.7668L16.4718 15.3605L16.5411 15.4367C16.8611 15.8295 16.8378 16.4086 16.4718 16.7746C16.0812 17.1648 15.4481 17.165 15.0577 16.7746L11.172 12.8889C10.9844 12.7013 10.879 12.4461 10.879 12.1808L10.88 6.67694C10.88 6.12467 11.3277 5.6769 11.88 5.67694Z" fill="black"/>
<path d="M12.0001 1.83319C17.6148 1.83337 22.1661 6.38544 22.1661 12.0002C22.1659 17.6148 17.6148 22.166 12.0001 22.1662C6.38533 22.1662 1.83327 17.6149 1.8331 12.0002C1.83313 6.38535 6.38525 1.83321 12.0001 1.83319ZM12.0001 3.83319C7.48982 3.83321 3.83313 7.48991 3.8331 12.0002C3.83327 16.5103 7.4899 20.1662 12.0001 20.1662C16.5102 20.166 20.1659 16.5102 20.1661 12.0002C20.1661 7.49001 16.5103 3.83337 12.0001 3.83319Z" fill="black"/>
<path d="M4.91904 0.186705C5.36845 -0.134302 5.99256 -0.0302849 6.31357 0.419127C6.63445 0.868527 6.5305 1.49268 6.08114 1.81366L2.58114 4.31366C2.13178 4.63463 1.50765 4.53052 1.18661 4.08124C0.865604 3.63182 0.969623 3.00771 1.41904 2.6867L4.91904 0.186705Z" fill="black"/>
<path d="M17.6866 0.419127C18.0076 -0.0302858 18.6317 -0.134304 19.0811 0.186705L22.5811 2.6867L22.6612 2.75018C23.0418 3.08495 23.1145 3.65992 22.8136 4.08124C22.5126 4.50247 21.945 4.62061 21.505 4.36932L21.419 4.31366L17.919 1.81366C17.4696 1.49266 17.3656 0.868536 17.6866 0.419127Z" fill="black"/>
</svg>
