<svg width="24" height="24" viewBox="0 0 24 24" fill="none" xmlns="http://www.w3.org/2000/svg">
<path d="M8.92943 2H11.0706C12.4247 1.99997 13.5413 1.99994 14.4251 2.11876C15.3529 2.2435 16.1723 2.51547 16.8284 3.17158C17.4845 3.82769 17.7565 4.64711 17.8813 5.57494C18.0001 6.4587 18 7.57531 18 8.92943V11.0706C18 11.4665 18 11.8421 17.9971 12.1975C16.8979 11.9076 15.9733 11.6781 15.1671 11.5326C14.0534 11.3317 13.0965 11.2771 12.132 11.4611C11.4014 11.6004 10.6936 11.8396 10.0282 12.1718C9.14969 12.6105 8.42203 13.2342 7.65833 14.0694C6.91229 14.8853 6.08766 15.9538 5.03947 17.312L4.73091 17.7118C4.14635 17.5467 3.6207 17.2776 3.17158 16.8284C2.51547 16.1723 2.2435 15.3529 2.11876 14.4251C1.99994 13.5413 1.99997 12.4248 2 11.0707V8.92943C1.99997 7.57536 1.99994 6.45868 2.11876 5.57494C2.2435 4.64711 2.51547 3.82769 3.17158 3.17158C3.82769 2.51547 4.64711 2.2435 5.57494 2.11876C6.45868 1.99994 7.57536 1.99997 8.92943 2ZM7.75 9.5C8.71649 9.5 9.5 8.71649 9.5 7.75C9.5 6.78351 8.71649 6 7.75 6C6.78351 6 6 6.78351 6 7.75C6 8.71649 6.78351 9.5 7.75 9.5Z" fill="black"/>
<path d="M7.04725 17.9844C7.61363 18 8.24082 18 8.92943 18H11.0706C12.4247 18 13.5413 18.0001 14.4251 17.8813C15.3529 17.7565 16.1723 17.4845 16.8284 16.8284C17.4845 16.1723 17.7565 15.3529 17.8813 14.4251C17.8893 14.3651 17.8968 14.3041 17.9038 14.242C16.6191 13.8999 15.6375 13.6498 14.8121 13.5009C13.8323 13.3241 13.1423 13.3044 12.5067 13.4257C11.9563 13.5307 11.423 13.7108 10.9217 13.9612C10.3428 14.2502 9.80613 14.6844 9.13429 15.4191C8.55026 16.0578 7.8995 16.8829 7.04725 17.9844Z" fill="black"/>
<path d="M22 9C22 8.44772 21.5523 8 21 8C20.4477 8 20 8.44772 20 9C20 11.8567 19.9979 13.8986 19.7892 15.4504C19.5845 16.9734 19.1974 17.8736 18.5355 18.5355C17.8736 19.1974 16.9734 19.5845 15.4504 19.7892C13.8986 19.9979 11.8567 20 9 20H8C7.44772 20 7 20.4477 7 21C7 21.5523 7.44772 22 8 22H9.07593C11.84 22 14.0164 22 15.7169 21.7714C17.4617 21.5368 18.8543 21.0452 19.9497 19.9497C21.0452 18.8543 21.5368 17.4617 21.7714 15.7169C22 14.0164 22 11.84 22 9.07593V9Z" fill="black"/>
</svg>
