<svg width="24" height="24" viewBox="0 0 24 24" fill="none" xmlns="http://www.w3.org/2000/svg">
<path d="M24 17.391V21.9091L14.5996 16.9285C14.5996 16.9285 12.7848 19.1759 10.9383 20.1617C9.09179 21.1474 6.97374 21.7486 4.67466 21.1474C2.3801 20.5412 0.750834 18.9049 1.03143 15.8788C1.31203 12.8526 4.23114 11.8176 6.61168 11.8176C8.99223 11.8176 13.518 13.5426 13.518 13.5426C13.518 13.5426 13.8981 12.5914 14.2693 11.5071C14.4804 10.8682 14.632 10.2077 14.7218 9.53573H5.09103V8.47117H9.77066V6.41104L3.93696 6.4554V5.10005H9.77066V2H12.8346V5.10005H19.0892V6.44554L12.8346 6.49482V8.42188L17.9985 8.47117C17.855 9.51047 17.6045 10.5289 17.2517 11.5071C16.9275 12.5393 16.5026 13.5307 15.9845 14.4643L24 17.391ZM12.3368 15.6865C12.3368 15.6865 8.45366 13.2666 5.57981 13.4687L5.58886 13.4786C2.71501 13.6757 2.01804 15.0902 2.01804 16.3864C2.01804 17.6826 2.71048 19.4914 6.09122 19.4914C9.47196 19.4914 12.3368 15.6865 12.3368 15.6865Z" fill="black" fill-opacity="0.85"/>
</svg>
