<svg width="24" height="24" viewBox="0 0 24 24" fill="none" xmlns="http://www.w3.org/2000/svg">
<path d="M5.86832 6.00391L7.54561 8.93916C8.90726 8.33541 10.4144 8 12 8C13.4307 8 14.7975 8.27309 16.0512 8.76999L17.6318 6.00391L19.3683 6.99618L17.8376 9.67501C20.6456 11.4367 22.6012 14.4317 22.9457 17.9012C22.9736 18.1822 22.8813 18.4619 22.6918 18.6713C22.5022 18.8806 22.233 19 21.9506 19H2.04932C1.76691 19 1.49767 18.8806 1.30811 18.6713C1.11854 18.4619 1.02631 18.1822 1.05421 17.9012C1.38361 14.5835 3.18625 11.6997 5.79873 9.91326L4.13184 6.99618L5.86832 6.00391ZM7.5 15.5C8.05228 15.5 8.5 15.0523 8.5 14.5C8.5 13.9477 8.05228 13.5 7.5 13.5C6.94772 13.5 6.5 13.9477 6.5 14.5C6.5 15.0523 6.94772 15.5 7.5 15.5ZM17.5 14.5C17.5 13.9477 17.0523 13.5 16.5 13.5C15.9477 13.5 15.5 13.9477 15.5 14.5C15.5 15.0523 15.9477 15.5 16.5 15.5C17.0523 15.5 17.5 15.0523 17.5 14.5Z" fill="black"/>
</svg>
