<svg width="24" height="24" viewBox="0 0 24 24" fill="none" xmlns="http://www.w3.org/2000/svg">
<path d="M11.7935 3.87439C11.0599 2.3879 8.94017 2.3879 8.20655 3.87439L6.39703 7.54088L2.35082 8.12883C0.710379 8.3672 0.0553584 10.3831 1.24239 11.5402L4.17026 14.3942L3.47908 18.424C3.19886 20.0578 4.91372 21.3038 6.38098 20.5324L10 18.6297L13.6191 20.5324C15.0863 21.3038 16.8012 20.0578 16.521 18.424L15.8298 14.3942L18.7576 11.5402C19.9447 10.3831 19.2897 8.3672 17.6492 8.12883L13.603 7.54088L11.7935 3.87439ZM8.1905 8.42601L10 4.75952L11.8095 8.42601C12.1009 9.0163 12.664 9.42543 13.3154 9.52009L17.3616 10.108L14.4338 12.962C13.9624 13.4215 13.7473 14.0835 13.8586 14.7323L14.5497 18.7621L10.9307 16.8595C10.3481 16.5532 9.65199 16.5532 9.06934 16.8595L5.4503 18.7621L6.14147 14.7323C6.25275 14.0835 6.03765 13.4215 5.56628 12.962L2.63842 10.108L6.68462 9.52009C7.33604 9.42543 7.89918 9.0163 8.1905 8.42601Z" fill="black"/>
<path d="M17 4C16.4477 4 16 4.44772 16 5C16 5.55228 16.4477 6 17 6H22C22.5523 6 23 5.55228 23 5C23 4.44772 22.5523 4 22 4H17Z" fill="black"/>
<path d="M20 12C20 11.4477 20.4477 11 21 11H22C22.5523 11 23 11.4477 23 12C23 12.5523 22.5523 13 22 13H21C20.4477 13 20 12.5523 20 12Z" fill="black"/>
<path d="M19 18C18.4477 18 18 18.4477 18 19C18 19.5523 18.4477 20 19 20H22C22.5523 20 23 19.5523 23 19C23 18.4477 22.5523 18 22 18H19Z" fill="black"/>
</svg>
