<svg width="24" height="24" viewBox="0 0 24 24" fill="none" xmlns="http://www.w3.org/2000/svg">
<path d="M20.6476 3.28366C20.1805 2.81644 19.7775 2.41349 19.4152 2.11803C19.0309 1.80474 18.6089 1.54046 18.0853 1.43631C17.6989 1.35945 17.3011 1.35945 16.9147 1.43631C16.3911 1.54046 15.9691 1.80474 15.5848 2.11803C15.2225 2.4135 14.8196 2.81643 14.3524 3.28367L14.2837 3.35234C13.8164 3.81953 13.4135 4.22243 13.1181 4.58482C12.8048 4.96907 12.5405 5.39107 12.4363 5.91471C12.3595 6.30111 12.3595 6.69886 12.4363 7.08525C12.5405 7.60889 12.8048 8.03089 13.1181 8.41515C13.4135 8.77752 13.8164 9.18041 14.2836 9.64759L14.3524 9.71631C14.8196 10.1835 15.2225 10.5865 15.5848 10.8819C15.9691 11.1952 16.3911 11.4595 16.9147 11.5637C17.3011 11.6405 17.6989 11.6405 18.0853 11.5637C18.6089 11.4595 19.0309 11.1952 19.4152 10.8819C19.7775 10.5865 20.1804 10.1836 20.6476 9.71634L20.7163 9.64762C21.1836 9.18042 21.5865 8.77753 21.882 8.41515C22.1952 8.03089 22.4595 7.60889 22.5637 7.08525C22.6405 6.69886 22.6405 6.30111 22.5637 5.91471C22.4595 5.39107 22.1952 4.96907 21.882 4.58482C21.5865 4.22244 21.1836 3.81954 20.7163 3.35235L20.6476 3.28366ZM17.6951 3.39788C17.7665 3.41208 17.8903 3.45526 18.1513 3.66811C18.4254 3.89157 18.7565 4.22095 19.2678 4.73222C19.779 5.24348 20.1084 5.57457 20.3319 5.84864C20.5447 6.1097 20.5879 6.2335 20.6021 6.30489C20.6277 6.43369 20.6277 6.56627 20.6021 6.69507C20.5879 6.76647 20.5447 6.89026 20.3319 7.15132C20.1084 7.4254 19.779 7.75648 19.2678 8.26775C18.7565 8.77902 18.4254 9.10839 18.1513 9.33185C17.8903 9.5447 17.7665 9.58789 17.6951 9.60209C17.5663 9.62771 17.4337 9.62771 17.3049 9.60209C17.2335 9.58789 17.1097 9.5447 16.8487 9.33185C16.5746 9.10839 16.2435 8.77902 15.7322 8.26775C15.221 7.75648 14.8916 7.4254 14.6681 7.15132C14.4553 6.89026 14.4121 6.76647 14.3979 6.69507C14.3723 6.56627 14.3723 6.43369 14.3979 6.30489C14.4121 6.2335 14.4553 6.1097 14.6681 5.84864C14.8916 5.57457 15.221 5.24348 15.7322 4.73222C16.2435 4.22095 16.5746 3.89157 16.8487 3.66811C17.1097 3.45526 17.2335 3.41208 17.3049 3.39788C17.4337 3.37226 17.5663 3.37226 17.6951 3.39788Z" fill="black"/>
<path d="M6.45145 1.99997C5.7907 1.99994 5.22089 1.99992 4.75572 2.04724C4.26248 2.09742 3.77721 2.20895 3.33329 2.50556C3.00572 2.72444 2.72447 3.00569 2.5056 3.33326C2.20898 3.77718 2.09745 4.26245 2.04727 4.75569C1.99995 5.22085 1.99997 5.79064 2 6.45137V6.54853C1.99997 7.20926 1.99995 7.77909 2.04727 8.24425C2.09745 8.73749 2.20898 9.22276 2.5056 9.66668C2.72447 9.99425 3.00572 10.2755 3.33329 10.4944C3.77721 10.791 4.26248 10.9025 4.75572 10.9527C5.22089 11 5.79069 11 6.45143 11H6.54858C7.20932 11 7.77912 11 8.24429 10.9527C8.73753 10.9025 9.22279 10.791 9.66672 10.4944C9.99429 10.2755 10.2755 9.99425 10.4944 9.66668C10.791 9.22276 10.9026 8.73749 10.9527 8.24425C11.0001 7.77909 11 7.20929 11 6.54854V6.4514C11 5.79066 11.0001 5.22086 10.9527 4.75569C10.9026 4.26245 10.791 3.77718 10.4944 3.33326C10.2755 3.00569 9.99429 2.72444 9.66672 2.50556C9.22279 2.20895 8.73753 2.09742 8.24429 2.04724C7.77912 1.99992 7.20931 1.99994 6.54856 1.99997H6.45145ZM4.44443 4.1685C4.50496 4.12806 4.62303 4.07106 4.95813 4.03697C5.30995 4.00118 5.77696 3.99997 6.5 3.99997C7.22305 3.99997 7.69006 4.00118 8.04187 4.03697C8.37698 4.07106 8.49505 4.12806 8.55557 4.1685C8.66476 4.24146 8.75852 4.33521 8.83147 4.4444C8.87192 4.50493 8.92892 4.623 8.96301 4.9581C8.9988 5.30992 9 5.77693 9 6.49997C9 7.22302 8.9988 7.69003 8.96301 8.04184C8.92892 8.37695 8.87192 8.49502 8.83147 8.55554C8.75852 8.66473 8.66476 8.75848 8.55557 8.83144C8.49505 8.87189 8.37698 8.92889 8.04187 8.96297C7.69006 8.99876 7.22305 8.99997 6.5 8.99997C5.77696 8.99997 5.30995 8.99876 4.95813 8.96297C4.62303 8.92889 4.50496 8.87189 4.44443 8.83144C4.33524 8.75848 4.24149 8.66473 4.16853 8.55554C4.12809 8.49502 4.07109 8.37695 4.037 8.04184C4.00121 7.69003 4 7.22302 4 6.49997C4 5.77693 4.00121 5.30992 4.037 4.9581C4.07109 4.623 4.12809 4.50493 4.16853 4.4444C4.24149 4.33521 4.33524 4.24146 4.44443 4.1685Z" fill="black"/>
<path d="M6.45145 13C5.7907 12.9999 5.22089 12.9999 4.75572 13.0472C4.26248 13.0974 3.77721 13.2089 3.33329 13.5056C3.00572 13.7244 2.72447 14.0057 2.5056 14.3333C2.20898 14.7772 2.09745 15.2625 2.04727 15.7557C1.99995 16.2209 1.99997 16.7906 2 17.4514V17.5485C1.99997 18.2093 1.99995 18.7791 2.04727 19.2443C2.09745 19.7375 2.20898 20.2228 2.5056 20.6667C2.72447 20.9943 3.00572 21.2755 3.33329 21.4944C3.77721 21.791 4.26248 21.9025 4.75572 21.9527C5.22089 22 5.79069 22 6.45143 22H6.54858C7.20932 22 7.77912 22 8.24429 21.9527C8.73753 21.9025 9.22279 21.791 9.66672 21.4944C9.99429 21.2755 10.2755 20.9943 10.4944 20.6667C10.791 20.2228 10.9026 19.7375 10.9527 19.2443C11.0001 18.7791 11 18.2093 11 17.5485V17.4514C11 16.7907 11.0001 16.2209 10.9527 15.7557C10.9026 15.2625 10.791 14.7772 10.4944 14.3333C10.2755 14.0057 9.99429 13.7244 9.66672 13.5056C9.22279 13.2089 8.73753 13.0974 8.24429 13.0472C7.77912 12.9999 7.20931 12.9999 6.54856 13H6.45145ZM4.44443 15.1685C4.50496 15.1281 4.62303 15.0711 4.95813 15.037C5.30995 15.0012 5.77696 15 6.5 15C7.22305 15 7.69006 15.0012 8.04187 15.037C8.37698 15.0711 8.49505 15.1281 8.55557 15.1685C8.66476 15.2415 8.75852 15.3352 8.83147 15.4444C8.87192 15.5049 8.92892 15.623 8.96301 15.9581C8.9988 16.3099 9 16.7769 9 17.5C9 18.223 8.9988 18.69 8.96301 19.0418C8.92892 19.3769 8.87192 19.495 8.83147 19.5555C8.75852 19.6647 8.66476 19.7585 8.55557 19.8314C8.49505 19.8719 8.37698 19.9289 8.04187 19.963C7.69006 19.9988 7.22305 20 6.5 20C5.77696 20 5.30995 19.9988 4.95813 19.963C4.62303 19.9289 4.50496 19.8719 4.44443 19.8314C4.33524 19.7585 4.24149 19.6647 4.16853 19.5555C4.12809 19.495 4.07109 19.3769 4.037 19.0418C4.00121 18.69 4 18.223 4 17.5C4 16.7769 4.00121 16.3099 4.037 15.9581C4.07109 15.623 4.12809 15.5049 4.16853 15.4444C4.24149 15.3352 4.33524 15.2415 4.44443 15.1685Z" fill="black"/>
<path d="M17.4514 13H17.5486C18.2093 12.9999 18.7791 12.9999 19.2443 13.0472C19.7375 13.0974 20.2228 13.2089 20.6667 13.5056C20.9943 13.7244 21.2755 14.0057 21.4944 14.3333C21.791 14.7772 21.9026 15.2625 21.9527 15.7557C22.0001 16.2209 22 16.7907 22 17.4514V17.5485C22 18.2093 22.0001 18.7791 21.9527 19.2443C21.9026 19.7375 21.791 20.2228 21.4944 20.6667C21.2755 20.9943 20.9943 21.2755 20.6667 21.4944C20.2228 21.791 19.7375 21.9025 19.2443 21.9527C18.7791 22 18.2093 22 17.5486 22H17.4514C16.7907 22 16.2209 22 15.7557 21.9527C15.2625 21.9025 14.7772 21.791 14.3333 21.4944C14.0057 21.2755 13.7245 20.9943 13.5056 20.6667C13.209 20.2228 13.0974 19.7375 13.0473 19.2443C13 18.7791 13 18.2093 13 17.5485V17.4514C13 16.7907 13 16.2209 13.0473 15.7557C13.0974 15.2625 13.209 14.7772 13.5056 14.3333C13.7245 14.0057 14.0057 13.7244 14.3333 13.5056C14.7772 13.2089 15.2625 13.0974 15.7557 13.0472C16.2209 12.9999 16.7907 12.9999 17.4514 13ZM15.9581 15.037C15.623 15.0711 15.505 15.1281 15.4444 15.1685C15.3352 15.2415 15.2415 15.3352 15.1685 15.4444C15.1281 15.5049 15.0711 15.623 15.037 15.9581C15.0012 16.3099 15 16.7769 15 17.5C15 18.223 15.0012 18.69 15.037 19.0418C15.0711 19.3769 15.1281 19.495 15.1685 19.5555C15.2415 19.6647 15.3352 19.7585 15.4444 19.8314C15.505 19.8719 15.623 19.9289 15.9581 19.963C16.3099 19.9988 16.777 20 17.5 20C18.223 20 18.6901 19.9988 19.0419 19.963C19.377 19.9289 19.495 19.8719 19.5556 19.8314C19.6648 19.7585 19.7585 19.6647 19.8315 19.5555C19.8719 19.495 19.9289 19.3769 19.963 19.0418C19.9988 18.69 20 18.223 20 17.5C20 16.7769 19.9988 16.3099 19.963 15.9581C19.9289 15.623 19.8719 15.5049 19.8315 15.4444C19.7585 15.3352 19.6648 15.2415 19.5556 15.1685C19.495 15.1281 19.377 15.0711 19.0419 15.037C18.6901 15.0012 18.223 15 17.5 15C16.777 15 16.3099 15.0012 15.9581 15.037Z" fill="black"/>
</svg>
