<svg width="38" height="38" viewBox="0 0 38 38" fill="none" xmlns="http://www.w3.org/2000/svg">
<g filter="url(#filter0_d_90_20103)">
<path d="M30 19C30 25.0751 25.0751 30 19 30C12.9249 30 8 25.0751 8 19C8 12.9249 12.9249 8 19 8C25.0751 8 30 12.9249 30 19Z" fill="white" fill-opacity="0.85" shape-rendering="crispEdges"/>
</g>
<path d="M19 29C13.4772 29 9 24.5228 9 19C9 13.4772 13.4772 9 19 9C24.5228 9 29 13.4772 29 19C29 24.5228 24.5228 29 19 29ZM19 30C25.0751 30 30 25.0751 30 19C30 12.9249 25.0751 8 19 8C12.9249 8 8 12.9249 8 19C8 25.0751 12.9249 30 19 30Z" fill="black" fill-opacity="0.12"/>
<path d="M20.3134 23.5L16.5475 19.7208C16.1508 19.3227 16.1508 18.6773 16.5475 18.2792L20.3134 14.5L21.75 15.9417L18.7025 19L21.75 22.0583L20.3134 23.5Z" fill="black"/>
<defs>
<filter id="filter0_d_90_20103" x="0" y="0" width="38" height="38" filterUnits="userSpaceOnUse" color-interpolation-filters="sRGB">
<feFlood flood-opacity="0" result="BackgroundImageFix"/>
<feColorMatrix in="SourceAlpha" type="matrix" values="0 0 0 0 0 0 0 0 0 0 0 0 0 0 0 0 0 0 127 0" result="hardAlpha"/>
<feOffset/>
<feGaussianBlur stdDeviation="4"/>
<feComposite in2="hardAlpha" operator="out"/>
<feColorMatrix type="matrix" values="0 0 0 0 0 0 0 0 0 0 0 0 0 0 0 0 0 0 0.04 0"/>
<feBlend mode="normal" in2="BackgroundImageFix" result="effect1_dropShadow_90_20103"/>
<feBlend mode="normal" in="SourceGraphic" in2="effect1_dropShadow_90_20103" result="shape"/>
</filter>
</defs>
</svg>
