<svg width="24" height="24" viewBox="0 0 24 24" fill="none" xmlns="http://www.w3.org/2000/svg">
<path fill-rule="evenodd" clip-rule="evenodd" d="M13.0732 2H10.9268C9.10339 1.99997 7.63362 1.99995 6.47767 2.15537C5.27752 2.31672 4.26702 2.66191 3.46447 3.46447C2.66191 4.26702 2.31672 5.27752 2.15537 6.47767C1.99995 7.63362 1.99997 9.10337 2 10.9268V13.0732C1.99997 14.8966 1.99995 16.3664 2.15537 17.5223C2.31672 18.7225 2.66191 19.733 3.46447 20.5355C4.26702 21.3381 5.27752 21.6833 6.47767 21.8446C7.63363 22.0001 9.1034 22 10.9269 22H13.0731C14.8966 22 16.3664 22.0001 17.5223 21.8446C18.7225 21.6833 19.733 21.3381 20.5355 20.5355C21.3381 19.733 21.6833 18.7225 21.8446 17.5223C22.0001 16.3664 22 14.8966 22 13.0731V10.9269C22 9.1034 22.0001 7.63363 21.8446 6.47767C21.6833 5.27752 21.3381 4.26702 20.5355 3.46447C19.733 2.66191 18.7225 2.31672 17.5223 2.15537C16.3664 1.99995 14.8966 1.99997 13.0732 2ZM4.87868 4.87868C5.2477 4.50966 5.7658 4.26907 6.74416 4.13753C7.7513 4.00213 9.08611 4 11 4H13C14.9139 4 16.2487 4.00213 17.2558 4.13753C18.2342 4.26907 18.7523 4.50966 19.1213 4.87868C19.4903 5.2477 19.7309 5.7658 19.8625 6.74416C19.9979 7.7513 20 9.08611 20 11V13C20 14.9139 19.9979 16.2487 19.8625 17.2558C19.7309 18.2342 19.4903 18.7523 19.1213 19.1213C18.7523 19.4903 18.2342 19.7309 17.2558 19.8625C16.6437 19.9448 15.9106 19.9778 15 19.9911V15.9268C15 14.1034 15.0001 12.6336 14.8446 11.4777C14.6833 10.2775 14.3381 9.26702 13.5355 8.46447C12.733 7.66191 11.7225 7.31672 10.5223 7.15537C9.36638 6.99995 7.89662 6.99997 6.07317 7L4.10669 7C4.11612 6.9124 4.12637 6.82717 4.13753 6.74416C4.26907 5.76579 4.50966 5.2477 4.87868 4.87868ZM4.0089 9C4.00033 9.58769 4 10.2493 4 11V13C4 14.9139 4.00213 16.2487 4.13753 17.2558C4.26907 18.2342 4.50966 18.7523 4.87868 19.1213C5.2477 19.4903 5.76579 19.7309 6.74416 19.8625C7.7513 19.9979 9.08611 20 11 20H13L13 16C13 14.0861 12.9979 12.7513 12.8625 11.7442C12.7309 10.7658 12.4903 10.2477 12.1213 9.87868C11.7523 9.50966 11.2342 9.26907 10.2558 9.13753C9.24871 9.00213 7.91389 9 6 9H4.0089Z" fill="black"/>
</svg>
