<svg width="24" height="24" viewBox="0 0 24 24" fill="none" xmlns="http://www.w3.org/2000/svg">
<path d="M12 1C8.96273 1 6.21136 2.23232 4.22183 4.22182C2.23233 6.21135 1 8.96273 1 12C1 15.0373 2.23231 17.7886 4.22182 19.7782C6.21135 21.7677 8.96273 23 12 23C15.0373 23 17.7886 21.7677 19.7782 19.7782C21.7677 17.7886 23 15.0373 23 12C23 8.96273 21.7677 6.21136 19.7782 4.22183C17.7886 2.23232 15.0373 1 12 1ZM12 18C11.1716 18 10.5 17.3284 10.5 16.5C10.5 15.6716 11.1716 15 12 15C12.8284 15 13.5 15.6716 13.5 16.5C13.5 17.3284 12.8284 18 12 18ZM13 7V12C13 12.5523 12.5523 13 12 13C11.4477 13 11 12.5523 11 12V7C11 6.44772 11.4477 6 12 6C12.5523 6 13 6.44772 13 7Z" fill="black"/>
</svg>
