<svg width="24" height="24" viewBox="0 0 24 24" fill="none" xmlns="http://www.w3.org/2000/svg">
<path d="M8 8.5V11.5C8 11.8466 8.17945 12.1684 8.47427 12.3507C8.76909 12.5329 9.13723 12.5494 9.44721 12.3944L12 11.118L14.5528 12.3944C14.8628 12.5494 15.2309 12.5329 15.5257 12.3507C15.8205 12.1684 16 11.8466 16 11.5V8.5H14V9.88197L12.4472 9.10557C12.1657 8.96481 11.8343 8.96481 11.5528 9.10557L10 9.88197V8.5H8Z" fill="black"/>
<path d="M3 10C3 5.02942 7.02942 1 12 1C16.9706 1 21 5.02942 21 10C21 13.6045 18.8814 16.712 15.8244 18.1491L15.5348 21.6246C15.47 22.4022 14.82 23 14.04 23H9.96013C9.18021 23 8.53008 22.4023 8.46533 21.6246L8.17567 18.1491C5.11863 16.7121 3 13.6045 3 10ZM12 3C8.13398 3 5 6.13398 5 10C5 12.9132 6.7799 15.413 9.31488 16.4668H14.6851C17.2201 15.413 19 12.9132 19 10C19 6.13398 15.866 3 12 3ZM10.2091 18.4668L10.4202 21H13.5799L13.791 18.4668H10.2091Z" fill="black"/>
</svg>
