<svg width="24" height="24" viewBox="0 0 24 24" fill="none" xmlns="http://www.w3.org/2000/svg">
<path d="M10.9964 1.9999H13.0036C13.5302 1.99929 13.9906 1.99876 14.413 2.12425C15.0627 2.3173 15.6278 2.72466 16.0164 3.27997C16.269 3.64094 16.4141 4.07792 16.5801 4.57763L16.6154 4.68376C16.6691 4.845 16.6975 4.92917 16.7212 4.98929L16.7238 4.99582L16.7308 4.99622C16.7953 4.99966 16.8841 4.99999 17.0541 4.99999H18C18.5523 4.99999 19 5.4477 19 5.99999C19 6.55227 18.5523 6.99999 18 6.99999H17.0541L16.9862 7.00014C16.7416 7.00095 16.4366 7.00197 16.1511 6.91714C15.718 6.78845 15.3412 6.51687 15.0821 6.14667C14.9114 5.90267 14.8159 5.61298 14.7393 5.38073L14.718 5.31621C14.4956 4.64917 14.441 4.51693 14.3778 4.42665C14.2483 4.24154 14.0599 4.10576 13.8433 4.04141C13.7377 4.01002 13.5949 3.99999 12.8918 3.99999H11.1082C10.4051 3.99999 10.2623 4.01002 10.1567 4.04141C9.94013 4.10576 9.75173 4.24154 9.6222 4.42665C9.55902 4.51693 9.50437 4.64917 9.28202 5.31621L9.18733 5.60029C9.17745 5.62997 9.16523 5.66668 9.15196 5.70209C8.86873 6.45753 8.15935 6.96882 7.35311 6.99862C7.31533 7.00002 7.27665 7 7.24538 6.99999L7.23661 6.99999C7.00568 6.99999 6.92445 7.00026 6.86068 7.00322C5.31334 7.07516 4.07518 8.31332 4.00324 9.86066C4.00027 9.92444 4 10.0057 4 10.2366V13.5C4 15.1682 4.00164 16.3315 4.10658 17.2193C4.20892 18.0851 4.39744 18.5577 4.68097 18.9032C4.80563 19.0551 4.94492 19.1944 5.09682 19.319C5.4423 19.6025 5.91492 19.7911 6.78068 19.8934C7.66851 19.9984 8.83177 20 10.5 20H13.5625C15.2002 20 16.3422 19.9984 17.2149 19.897C18.0663 19.7981 18.5327 19.6158 18.8746 19.3422C19.0472 19.204 19.204 19.0472 19.3422 18.8746C19.6158 18.5327 19.7982 18.0663 19.897 17.2149C19.9984 16.3422 20 15.2002 20 13.5625C20 13.0102 20.4477 12.5625 21 12.5625C21.5523 12.5625 22 13.0102 22 13.5625V13.6247C22 15.1856 22 16.444 21.8837 17.4457C21.7633 18.4819 21.5071 19.3703 20.9037 20.1243C20.6734 20.412 20.412 20.6734 20.1243 20.9037C19.3703 21.5071 18.4819 21.7633 17.4457 21.8837C16.444 22 15.1856 22 13.6247 22H10.4366C8.8467 22 7.56489 22 6.54591 21.8796C5.49133 21.7549 4.58891 21.4895 3.82804 20.865C3.57487 20.6573 3.34272 20.4251 3.13495 20.172C2.51052 19.4111 2.24506 18.5087 2.12041 17.4541C1.99996 16.4351 1.99998 15.1533 2 13.5634L2 10.2092C1.99999 10.0159 1.99998 9.88425 2.0054 9.76778C2.12529 7.18888 4.18889 5.12528 6.7678 5.00538C6.88426 4.99997 7.01587 4.99997 7.20919 4.99999L7.23661 4.99999L7.27792 4.99992L7.27919 4.99991L7.2796 4.99871L7.29272 4.95954L7.41993 4.57765C7.58586 4.07793 7.73096 3.64095 7.98357 3.27997C8.37216 2.72466 8.93734 2.3173 9.58704 2.12425C10.0094 1.99876 10.4698 1.99929 10.9964 1.9999Z" fill="black"/>
<path d="M8 13C8 10.7909 9.79088 9 12 9C14.2091 9 16 10.7909 16 13C16 15.2091 14.2091 17 12 17C9.79088 17 8 15.2091 8 13ZM12 11C10.8954 11 10 11.8954 10 13C10 14.1046 10.8954 15 12 15C13.1046 15 14 14.1046 14 13C14 11.8954 13.1046 11 12 11Z" fill="black"/>
<path d="M20.5 10.5C21.3284 10.5 22 9.82843 22 9C22 8.17157 21.3284 7.5 20.5 7.5C19.6716 7.5 19 8.17157 19 9C19 9.82843 19.6716 10.5 20.5 10.5Z" fill="black"/>
</svg>
