<svg width="24" height="24" viewBox="0 0 24 24" fill="none" xmlns="http://www.w3.org/2000/svg">
<path d="M10.7929 13.7929C11.1815 13.4042 11.8105 13.4024 12.2015 13.7873L12.2051 13.7907L12.2162 13.8009C12.2329 13.816 12.2626 13.842 12.3044 13.8754C12.3885 13.9426 12.5175 14.0368 12.6836 14.1318C13.0201 14.324 13.4738 14.5 14 14.5C14.3487 14.5 14.7337 14.4097 15.0588 14.3013C15.2153 14.2491 15.3454 14.1971 15.4342 14.159C15.4784 14.14 15.5117 14.1249 15.5322 14.1153L15.5532 14.1054C16.0471 13.8587 16.6475 14.0589 16.8944 14.5528C17.1414 15.0468 16.9408 15.6476 16.4469 15.8946L16.4456 15.8952L16.4437 15.8962L16.4386 15.8987L16.4241 15.9058L16.3972 15.9186L16.378 15.9277C16.3399 15.9454 16.2872 15.9693 16.222 15.9973C16.0921 16.0529 15.9097 16.1259 15.6912 16.1987C15.2663 16.3403 14.6513 16.5 14 16.5C13.0262 16.5 12.2299 16.176 11.6914 15.8682C11.42 15.7132 11.2053 15.5574 11.055 15.4371C10.9795 15.3768 10.9194 15.3246 10.8756 15.2851C10.8537 15.2653 10.8357 15.2485 10.8219 15.2354L10.8043 15.2184L10.7978 15.212L10.7952 15.2094L10.794 15.2082L10.7929 15.2071C10.4024 14.8166 10.4024 14.1834 10.7929 13.7929Z" fill="black" fill-opacity="0.85"/>
<path d="M18.5766 12.9325C19.6514 12.6777 20.2645 11.3821 19.946 10.0386C19.6276 8.69514 18.4981 7.81258 17.4233 8.06737C17.2558 8.10708 17.0995 8.17208 16.9562 8.25861C17.1593 8.47464 17.2467 8.86981 17.1558 9.28631C17.0312 9.85749 16.6184 10.2525 16.2338 10.1685C16.1367 10.1474 16.0506 10.0976 15.9783 10.026C15.9552 10.3262 15.9783 10.6424 16.0539 10.9613C16.3724 12.3048 17.5018 13.1873 18.5766 12.9325Z" fill="black" fill-opacity="0.85"/>
<path d="M8.9303 9.46307C8.71863 10.107 8.19186 10.5122 7.75373 10.3682C7.67322 10.3418 7.6013 10.2986 7.53886 10.2417C7.34985 11.5707 8.15838 12.8007 9.37611 13.0117C10.6193 13.2271 11.8181 12.2989 12.0538 10.9384C12.2895 9.57797 11.4728 8.30051 10.2297 8.08512C9.74762 8.0016 9.27221 8.09005 8.85705 8.30899C9.03526 8.58808 9.07451 9.02438 8.9303 9.46307Z" fill="black" fill-opacity="0.85"/>
<path d="M12 1C5.92487 1 1 5.92487 1 12C1 18.0751 5.92487 23 12 23C18.0751 23 23 18.0751 23 12C23 5.92487 18.0751 1 12 1ZM3 12C3 7.02944 7.02944 3 12 3C16.9706 3 21 7.02944 21 12C21 16.9706 16.9706 21 12 21C7.02944 21 3 16.9706 3 12Z" fill="black" fill-opacity="0.85"/>
</svg>
