<svg width="24" height="24" viewBox="0 0 24 24" fill="none" xmlns="http://www.w3.org/2000/svg">
<path d="M11.5 6.13397C11.8095 5.95534 12.1906 5.95534 12.5 6.13397L16.8302 8.63397C17.1396 8.81261 17.3302 9.14273 17.3302 9.5V10H15.1962L12 8.1547L8.66992 10.0774V13.9226L12 15.8453L15.1962 14H17.3302V14.5C17.3302 14.8573 17.1396 15.1874 16.8302 15.366L12.5 17.866C12.1906 18.0447 11.8095 18.0447 11.5 17.866L7.16992 15.366C6.86052 15.1874 6.66992 14.8573 6.66992 14.5V9.5C6.66992 9.14273 6.86052 8.81261 7.16992 8.63397L11.5 6.13397Z" fill="black" fill-opacity="0.85"/>
<path d="M12.5001 1.13397C12.1907 0.955342 11.8095 0.955342 11.5001 1.13397L2.83984 6.13397C2.53044 6.31261 2.33984 6.64273 2.33984 7V17C2.33984 17.3573 2.53044 17.6874 2.83984 17.866L11.5001 22.866C11.8095 23.0447 12.1907 23.0447 12.5001 22.866L21.1604 17.866C21.4698 17.6874 21.6604 17.3573 21.6604 17V7C21.6604 6.64273 21.4698 6.31261 21.1604 6.13397L12.5001 1.13397ZM4.33984 7.57735L12.0001 3.1547L19.6604 7.57735V16.4227L12.0001 20.8453L4.33984 16.4227V7.57735Z" fill="black" fill-opacity="0.85"/>
</svg>
