<svg width="24" height="24" viewBox="0 0 24 24" fill="none" xmlns="http://www.w3.org/2000/svg">
<path d="M19.7071 5.70711C20.0976 5.31658 20.0976 4.68342 19.7071 4.29289C19.3166 3.90237 18.6834 3.90237 18.2929 4.29289L12 10.5858L5.70711 4.29291C5.31659 3.90238 4.68342 3.90238 4.2929 4.2929C3.90237 4.68342 3.90237 5.31659 4.29289 5.70711L10.5858 12L4.29291 18.2929C3.90239 18.6834 3.90239 19.3166 4.29291 19.7071C4.68344 20.0976 5.3166 20.0976 5.70712 19.7071L12 13.4143L18.2929 19.7072C18.6834 20.0978 19.3166 20.0978 19.7071 19.7072C20.0976 19.3167 20.0976 18.6836 19.7071 18.293L13.4142 12L19.7071 5.70711Z" fill="black"/>
</svg>
