<svg width="24" height="24" viewBox="0 0 24 24" fill="none" xmlns="http://www.w3.org/2000/svg">
<path d="M7.46152 8.77472C7.70621 7.91832 8.03224 6.98611 8.68207 6.2613C9.29113 5.58196 10.2629 5 12 5C13.548 5 14.5657 5.43737 15.2403 5.99148C15.9264 6.5551 16.3318 7.30127 16.5385 8.02472C16.6496 8.41372 16.9841 8.69731 17.3858 8.74346L17.3876 8.74368L17.4094 8.74664C17.4315 8.74979 17.4683 8.75541 17.5176 8.76421C17.6164 8.78187 17.764 8.81205 17.9438 8.86032C18.3072 8.95789 18.7813 9.12385 19.2461 9.39503C20.1451 9.91942 21 10.8156 21 12.5C21 13.6764 20.5315 14.3736 19.9188 14.8113C19.2599 15.2819 18.3572 15.5 17.5 15.5H13.4142L14.2071 14.7071C14.5976 14.3166 14.5976 13.6834 14.2071 13.2929C13.8166 12.9024 13.1834 12.9024 12.7929 13.2929L10.2936 15.7922C10.2912 15.7946 10.2888 15.797 10.2864 15.7995C10.1937 15.8938 10.1236 16.002 10.0759 16.1172C10.0273 16.2343 10.0004 16.3625 10 16.497C10 16.498 10 16.499 10 16.5C10 16.501 10 16.502 10 16.503C10.0004 16.6375 10.0273 16.7657 10.0759 16.8828C10.1247 17.0007 10.197 17.1112 10.2929 17.2071L12.7929 19.7071C13.1834 20.0976 13.8166 20.0976 14.2071 19.7071C14.5976 19.3166 14.5976 18.6834 14.2071 18.2929L13.4142 17.5H17.5C18.6428 17.5 19.9901 17.2181 21.0812 16.4387C22.2185 15.6264 23 14.3236 23 12.5C23 9.93442 21.6049 8.45558 20.2539 7.66747C19.5937 7.2824 18.9428 7.05773 18.4625 6.92874C18.3911 6.90958 18.3231 6.89241 18.2588 6.87705C17.9234 6.02592 17.3699 5.15262 16.5097 4.44602C15.4343 3.56263 13.952 3 12 3C9.73713 3 8.20887 3.79304 7.19293 4.9262C6.43542 5.77112 6.01051 6.75488 5.7389 7.5708C5.05313 7.68502 4.16661 7.951 3.345 8.4645C2.10958 9.23664 1 10.593 1 12.75C1 14.6347 1.92189 15.8782 3.10198 16.6023C4.22487 17.2914 5.54929 17.5 6.5 17.5C7.05228 17.5 7.5 17.0523 7.5 16.5C7.5 15.9477 7.05228 15.5 6.5 15.5C5.78404 15.5 4.85846 15.3336 4.14802 14.8977C3.49477 14.4968 3 13.8653 3 12.75C3 11.407 3.64042 10.6384 4.405 10.1605C5.22479 9.64813 6.16064 9.5 6.5 9.5C6.94648 9.5 7.33887 9.20402 7.46152 8.77472Z" fill="black"/>
</svg>
