<svg width="24" height="24" viewBox="0 0 24 24" fill="none" xmlns="http://www.w3.org/2000/svg">
<path d="M1 7C1 4.23858 3.23858 2 6 2H18C20.7614 2 23 4.23858 23 7V15C23 17.7614 20.7614 20 18 20H11.7361L6.94721 22.3944C6.63723 22.5494 6.26909 22.5329 5.97427 22.3507C5.67945 22.1684 5.5 21.8466 5.5 21.5V19.9753C2.97334 19.7245 1 17.5927 1 15V7ZM6 4C4.34315 4 3 5.34315 3 7V15C3 16.6569 4.34315 18 6 18H6.5C7.05228 18 7.5 18.4477 7.5 19V19.882L11.0528 18.1056C11.1916 18.0361 11.3448 18 11.5 18H18C19.6569 18 21 16.6569 21 15V7C21 5.34315 19.6569 4 18 4H6Z" fill="black"/>
</svg>
