<svg width="24" height="24" viewBox="0 0 24 24" fill="none" xmlns="http://www.w3.org/2000/svg">
<path d="M11 21V22H13V21H13.5V19H13V5H13.5V3H13V2H11V3H7C4.23858 3 2 5.23858 2 8V16C2 18.7614 4.23858 21 7 21H11Z" fill="black" fill-opacity="0.85"/>
<path d="M15.5 5H17C17.4923 5 17.9541 5.1178 18.3616 5.32586L19.2711 3.54458C18.5885 3.19609 17.8157 3 17 3H15.5V5Z" fill="black" fill-opacity="0.85"/>
<path d="M19.6741 6.63836C19.8822 7.04588 20 7.50773 20 8V10.4H22V8C22 7.18431 21.8039 6.41152 21.4554 5.72893L19.6741 6.63836Z" fill="black" fill-opacity="0.85"/>
<path d="M20 13.6V16C20 16.4923 19.8822 16.9541 19.6741 17.3616L21.4554 18.2711C21.8039 17.5885 22 16.8157 22 16V13.6H20Z" fill="black" fill-opacity="0.85"/>
<path d="M18.3616 18.6741C17.9541 18.8822 17.4923 19 17 19H15.5V21H17C17.8157 21 18.5885 20.8039 19.2711 20.4554L18.3616 18.6741Z" fill="black" fill-opacity="0.85"/>
</svg>
