<svg width="24" height="24" viewBox="0 0 24 24" fill="none" xmlns="http://www.w3.org/2000/svg">
<path d="M17.9801 6.10779L20.5481 8.08315C21.444 8.7722 22.2022 9.35543 22.7266 9.89507C23.2806 10.4652 23.7197 11.1317 23.7197 12.0001C23.7197 12.8684 23.2806 13.5349 22.7266 14.1051C22.2022 14.6447 21.444 15.2279 20.5481 15.917L17.9802 17.8923C16.6364 18.9261 15.5379 19.7711 14.6333 20.2774C13.7217 20.7877 12.6964 21.1328 11.6747 20.6297C10.653 20.1267 10.3014 19.1035 10.1501 18.0699C10.1368 17.9793 10.1247 17.8858 10.1137 17.7896L9.98018 17.8923C8.6364 18.9261 7.53788 19.7711 6.63334 20.2774C5.72177 20.7877 4.69646 21.1328 3.67475 20.6297C2.65304 20.1267 2.30147 19.1035 2.15012 18.0699C1.99993 17.0442 1.99996 15.6583 2 13.9629V10.0372C1.99996 8.34184 1.99993 6.95592 2.15012 5.93023C2.30147 4.8966 2.65304 3.87347 3.67475 3.37038C4.69646 2.86729 5.72177 3.21244 6.63334 3.72269C7.53789 4.22902 8.63636 5.07403 9.98016 6.10778L10.1137 6.2105C10.1247 6.11429 10.1368 6.02085 10.1501 5.93023C10.3014 4.8966 10.653 3.87347 11.6747 3.37038C12.6964 2.86729 13.7217 3.21244 14.6333 3.72269C15.5379 4.22902 16.6363 5.07404 17.9801 6.10779ZM12.021 7.67768L12.5481 8.08315C13.444 8.7722 14.2023 9.35543 14.7266 9.89507C15.2806 10.4652 15.7198 11.1317 15.7198 12.0001C15.7198 12.8684 15.2806 13.5349 14.7266 14.1051C14.2023 14.6447 13.444 15.2279 12.5481 15.917L12.021 16.3224C12.0385 16.9011 12.0705 17.3807 12.129 17.7801C12.2568 18.6527 12.4634 18.7888 12.5582 18.8355C12.653 18.8821 12.8869 18.963 13.6564 18.5322C14.4176 18.1061 15.4002 17.3536 16.8291 16.2545L19.2686 14.3779C20.2409 13.6301 20.8811 13.1344 21.2922 12.7113C21.6853 12.3067 21.7197 12.1165 21.7197 12.0001C21.7197 11.8836 21.6853 11.6934 21.2922 11.2888C20.8811 10.8657 20.2409 10.3701 19.2686 9.62219L16.8291 7.74564C15.4002 6.64648 14.4176 5.89398 13.6564 5.46789C12.8869 5.03716 12.653 5.11798 12.5582 5.16465C12.4634 5.21133 12.2568 5.34745 12.129 6.22C12.0705 6.61942 12.0385 7.09901 12.021 7.67768ZM4.55825 5.16465C4.46347 5.21133 4.25678 5.34745 4.12901 6.22C4.00262 7.08316 4 8.32075 4 10.1235V13.8766C4 15.6794 4.00262 16.917 4.12901 17.7801C4.25678 18.6527 4.46347 18.7888 4.55825 18.8355C4.65304 18.8821 4.88695 18.963 5.65646 18.5322C6.41768 18.1061 7.40022 17.3536 8.82914 16.2545L11.2686 14.3779C12.2409 13.6301 12.8811 13.1344 13.2922 12.7113C13.6853 12.3067 13.7198 12.1165 13.7198 12.0001C13.7198 11.8836 13.6853 11.6934 13.2922 11.2888C12.8811 10.8657 12.2409 10.3701 11.2686 9.62219L8.82914 7.74564C7.40022 6.64648 6.41768 5.89398 5.65646 5.46789C4.88695 5.03716 4.65304 5.11798 4.55825 5.16465Z" fill="black"/>
</svg>
