<svg width="24" height="24" viewBox="0 0 24 24" fill="none" xmlns="http://www.w3.org/2000/svg">
<path d="M16.3145 4.26764C16.4915 3.63045 16.0123 3 15.351 3H9.06505C8.62933 3 8.24377 3.28213 8.11193 3.69742L5.32982 12.4611C5.15244 13.0198 5.49152 13.6106 6.06343 13.7393L8.43468 14.2728C8.98665 14.397 9.32576 14.954 9.18265 15.5014L7.67859 21.2544C7.55034 21.745 8.14952 22.0929 8.51198 21.7383L18.7881 11.6855C19.3325 11.153 19.1056 10.2317 18.3762 10.0129L15.9384 9.28151C15.417 9.12511 15.1165 8.58048 15.2622 8.05604L16.3145 4.26764Z" fill="url(#paint0_linear_1839_76860)"/>
<defs>
<linearGradient id="paint0_linear_1839_76860" x1="12.5" y1="3" x2="12.5" y2="23.0429" gradientUnits="userSpaceOnUse">
<stop stop-color="#7CDFFF"/>
<stop offset="1" stop-color="#23CAFF"/>
</linearGradient>
</defs>
</svg>
