<svg width="24" height="24" viewBox="0 0 24 24" fill="none" xmlns="http://www.w3.org/2000/svg">
<rect width="24" height="24" fill="white"/>
<path fill-rule="evenodd" clip-rule="evenodd" d="M5.93386 4.09075C4.67871 4.55255 4 5.80332 4 7.14074V7.22838C4 8.70295 4.80026 9.99958 6 10.6932V16.2959C6 18.386 7.60923 20.1238 9.69322 20.2841L14.6932 20.6687C17.0164 20.8474 19 19.0105 19 16.6805V11.2226C20.1916 10.533 21 9.24443 21 7.75779V7.65685C21 6.59599 20.5794 5.5692 19.6834 5.00131C18.3063 4.12857 15.8734 3 12.5 3C9.58343 3 7.36986 3.56241 5.93386 4.09075Z" fill="url(#paint0_linear_1857_102949)"/>
<path fill-rule="evenodd" clip-rule="evenodd" d="M5.93386 4.09075C4.67871 4.55255 4 5.80332 4 7.14074V7.22838C4 8.70295 4.80026 9.99958 6 10.6932V16.2959C6 18.386 7.60923 20.1238 9.69322 20.2841L14.6932 20.6687C17.0164 20.8474 19 19.0105 19 16.6805V11.2226C20.1916 10.533 21 9.24443 21 7.75779V7.65685C21 6.59599 20.5794 5.5692 19.6834 5.00131C18.3063 4.12857 15.8734 3 12.5 3C9.58343 3 7.36986 3.56241 5.93386 4.09075Z" fill="black" fill-opacity="0.1"/>
<path d="M4 7.14074C4 5.80332 4.67871 4.55255 5.93386 4.09075C7.36986 3.56241 9.58343 3 12.5 3C15.8734 3 18.3063 4.12857 19.6834 5.00131C20.5794 5.5692 21 6.59599 21 7.65685V7.75779C21 10.0593 19.0626 11.886 16.7651 11.7509L7.76511 11.2215C5.65086 11.0971 4 9.34628 4 7.22838V7.14074Z" fill="#78DFFF"/>
<g filter="url(#filter0_i_1857_102949)">
<path fill-rule="evenodd" clip-rule="evenodd" d="M4.93386 5.09075C3.67871 5.55255 3 6.80332 3 8.14074V8.22838C3 9.70295 3.80026 10.9996 5 11.6932V17.2959C5 19.386 6.60923 21.1238 8.69322 21.2841L13.6932 21.6687C16.0164 21.8474 18 20.0105 18 17.6805V12.2226C19.1916 11.533 20 10.2444 20 8.75779V8.65685C20 7.59599 19.5794 6.5692 18.6834 6.00131C17.3063 5.12857 14.8734 4 11.5 4C8.58343 4 6.36986 4.56241 4.93386 5.09075Z" fill="url(#paint1_linear_1857_102949)"/>
</g>
<path fill-rule="evenodd" clip-rule="evenodd" d="M17.9997 14.9909C11.9452 14.7705 6.90805 10.5631 5.43555 4.91597C6.86503 4.44549 8.90395 4 11.4997 4C14.8731 4 17.306 5.12857 18.6831 6.00131C19.5792 6.5692 19.9997 7.59599 19.9997 8.65685V8.75779C19.9997 10.2444 19.1914 11.533 17.9997 12.2226V14.9909Z" fill="url(#paint2_linear_1857_102949)" fill-opacity="0.13"/>
<circle cx="13.5" cy="11.5" r="1.5" fill="black" fill-opacity="0.06"/>
<circle cx="9" cy="14" r="1" fill="black" fill-opacity="0.06"/>
<defs>
<filter id="filter0_i_1857_102949" x="1" y="2" width="19" height="19.6807" filterUnits="userSpaceOnUse" color-interpolation-filters="sRGB">
<feFlood flood-opacity="0" result="BackgroundImageFix"/>
<feBlend mode="normal" in="SourceGraphic" in2="BackgroundImageFix" result="shape"/>
<feColorMatrix in="SourceAlpha" type="matrix" values="0 0 0 0 0 0 0 0 0 0 0 0 0 0 0 0 0 0 127 0" result="hardAlpha"/>
<feOffset dx="-2" dy="-2"/>
<feGaussianBlur stdDeviation="1"/>
<feComposite in2="hardAlpha" operator="arithmetic" k2="-1" k3="1"/>
<feColorMatrix type="matrix" values="0 0 0 0 0 0 0 0 0 0.700634 0 0 0 0 0.920833 0 0 0 0.21 0"/>
<feBlend mode="normal" in2="shape" result="effect1_innerShadow_1857_102949"/>
</filter>
<linearGradient id="paint0_linear_1857_102949" x1="12.5" y1="3" x2="12.5" y2="20.7187" gradientUnits="userSpaceOnUse">
<stop stop-color="#7CDFFF"/>
<stop offset="1" stop-color="#23CAFF"/>
</linearGradient>
<linearGradient id="paint1_linear_1857_102949" x1="11.5" y1="4" x2="11.5" y2="21.7187" gradientUnits="userSpaceOnUse">
<stop stop-color="#7CDFFF"/>
<stop offset="1" stop-color="#23CAFF"/>
</linearGradient>
<linearGradient id="paint2_linear_1857_102949" x1="10.9998" y1="4" x2="12.9998" y2="17" gradientUnits="userSpaceOnUse">
<stop stop-color="#009DCE"/>
<stop offset="1" stop-color="#00C3FF"/>
</linearGradient>
</defs>
</svg>
