<svg width="24" height="24" viewBox="0 0 24 24" fill="none" xmlns="http://www.w3.org/2000/svg">
<path d="M2 3V17C2 19.7614 4.23858 22 7 22H21V20H7C5.34315 20 4 18.6569 4 17V3H2Z" fill="black"/>
<path d="M18.0531 11.5013L21.4036 4.42807L19.5962 3.5719L16.2457 10.6452C15.9591 11.2502 15.1705 11.4082 14.673 10.9604L13.6211 10.0137C12.148 8.68796 9.81716 9.12939 8.93089 10.9019L6.10547 16.5528L7.89432 17.4472L10.7197 11.7963C11.0152 11.2055 11.7921 11.0584 12.2831 11.5003L13.335 12.447C14.8278 13.7905 17.1934 13.3163 18.0531 11.5013Z" fill="black"/>
</svg>
