<svg width="24" height="24" viewBox="0 0 24 24" fill="none" xmlns="http://www.w3.org/2000/svg">
<g clip-path="url(#clip0_928_42730)">
<rect width="24" height="24" fill="url(#paint0_linear_928_42730)" fill-opacity="0.3"/>
<path fill-rule="evenodd" clip-rule="evenodd" d="M18.9998 10C18.9998 13.866 15.8658 17 11.9998 17C8.13379 17 4.99978 13.866 4.99978 10C4.99978 6.13401 8.13379 3 11.9998 3C15.8658 3 18.9998 6.13401 18.9998 10ZM8.03741 19.6122C8.61565 18.0427 10.111 17 11.7836 17C13.4227 17 14.8953 18.0019 15.4971 19.5265L19.3014 29.1642C20.5967 32.4454 18.1783 36 14.6507 36H9.17043C5.69167 36 3.27609 32.5357 4.47872 29.2715L8.03741 19.6122ZM9.64648 12.3536C10.9463 13.6534 13.0538 13.6534 14.3536 12.3536L13.6465 11.6465C12.7372 12.5558 11.2629 12.5558 10.3536 11.6465L9.64648 12.3536Z" fill="white" fill-opacity="0.65"/>
</g>
<defs>
<linearGradient id="paint0_linear_928_42730" x1="0" y1="12" x2="24" y2="12" gradientUnits="userSpaceOnUse">
<stop stop-color="#23CAFF"/>
<stop offset="1" stop-color="#56E5A9"/>
</linearGradient>
<clipPath id="clip0_928_42730">
<rect width="24" height="24" fill="white"/>
</clipPath>
</defs>
</svg>
