<svg width="24" height="24" viewBox="0 0 24 24" fill="none" xmlns="http://www.w3.org/2000/svg">
<g clip-path="url(#clip0_928_42721)">
<rect width="24" height="24" fill="url(#paint0_linear_928_42721)" fill-opacity="0.3"/>
<path d="M8.03762 19.6122C8.61586 18.0427 10.1112 17 11.7838 17C13.4229 17 14.8955 18.0019 15.4973 19.5265L19.3016 29.1642C20.5969 32.4454 18.1785 36 14.6509 36H9.17065C5.69188 36 3.2763 32.5357 4.47893 29.2715L8.03762 19.6122Z" fill="white" fill-opacity="0.65"/>
<circle cx="12" cy="10" r="7" fill="white" fill-opacity="0.65"/>
<path fill-rule="evenodd" clip-rule="evenodd" d="M14.3536 12.3536C13.0538 13.6534 10.9463 13.6534 9.64648 12.3536L10.3536 11.6465C11.2629 12.5558 12.7372 12.5558 13.6465 11.6465L14.3536 12.3536Z" fill="#23CAFF" fill-opacity="0.2"/>
</g>
<defs>
<linearGradient id="paint0_linear_928_42721" x1="0" y1="12" x2="24" y2="12" gradientUnits="userSpaceOnUse">
<stop stop-color="#23CAFF"/>
<stop offset="1" stop-color="#56E5A9"/>
</linearGradient>
<clipPath id="clip0_928_42721">
<rect width="24" height="24" fill="white"/>
</clipPath>
</defs>
</svg>
