<svg width="24" height="24" viewBox="0 0 24 24" fill="none" xmlns="http://www.w3.org/2000/svg">
<path d="M11.4138 1.5H12.5862C13.3415 1.49996 13.9986 1.49992 14.5335 1.56654C15.1099 1.63834 15.6644 1.79912 16.1475 2.20646C16.6306 2.6138 16.8828 3.13316 17.051 3.68913C17.1637 4.06177 17.2529 4.50311 17.3418 5H21C21.5523 5 22 5.44772 22 6C22 6.55228 21.5523 7 21 7H19.4376L18.8479 16.1403C18.7696 17.3547 18.7048 18.3589 18.5524 19.1552C18.3924 19.9914 18.1145 20.728 17.5196 21.3246C17.4564 21.388 17.391 21.4492 17.3237 21.5082C16.6901 22.0635 15.9371 22.2934 15.0923 22.3993C14.2879 22.5001 13.2815 22.5 12.0646 22.5H11.9354C10.7185 22.5 9.71215 22.5001 8.9077 22.3993C8.06291 22.2934 7.30992 22.0635 6.67632 21.5082C6.60898 21.4492 6.54365 21.388 6.48042 21.3246C5.88551 20.728 5.60761 19.9914 5.44759 19.1552C5.29521 18.3589 5.23045 17.3547 5.15213 16.1403L4.56244 7H3C2.44772 7 2 6.55228 2 6C2 5.44772 2.44772 5 3 5H6.65828C6.7472 4.50311 6.8364 4.06177 6.9491 3.68913C7.11725 3.13316 7.36941 2.6138 7.85252 2.20646C8.33564 1.79912 8.89014 1.63834 9.46652 1.56654C10.0014 1.49992 10.6585 1.49996 11.4138 1.5ZM8.69247 5H15.3076C15.2503 4.70354 15.1967 4.46685 15.1366 4.26812C15.029 3.91228 14.9338 3.79912 14.8583 3.73549C14.7828 3.67186 14.6552 3.59716 14.2863 3.55121C13.8898 3.50181 13.3586 3.5 12.5274 3.5H11.4727C10.6414 3.5 10.1103 3.50181 9.71373 3.55121C9.34482 3.59716 9.21721 3.67186 9.14174 3.73549C9.06627 3.79912 8.97108 3.91228 8.86346 4.26812C8.80336 4.46685 8.74977 4.70354 8.69247 5ZM6.5666 7L7.14382 15.947C7.22739 17.2423 7.28589 18.1206 7.41195 18.7793C7.53305 19.4122 7.69455 19.7097 7.89655 19.9123C7.92817 19.944 7.96084 19.9746 7.99451 20.0041C8.20964 20.1927 8.517 20.3347 9.15634 20.4148C9.82183 20.4982 10.7021 20.5 12 20.5C13.2979 20.5 14.1782 20.4982 14.8437 20.4148C15.483 20.3347 15.7904 20.1927 16.0055 20.0041C16.0392 19.9746 16.0718 19.944 16.1034 19.9123C16.3055 19.7097 16.467 19.4122 16.5881 18.7793C16.7141 18.1206 16.7726 17.2423 16.8562 15.947L17.4334 7H6.5666Z" fill="black"/>
</svg>
