<svg width="24" height="24" viewBox="0 0 24 24" fill="none" xmlns="http://www.w3.org/2000/svg">
<path fill-rule="evenodd" clip-rule="evenodd" d="M9.89516 2.66603C10.3761 2.35245 10.9002 2.34925 11.3288 2.40919C11.7611 2.46977 12.2839 2.62506 12.8395 2.78712L19.4 4.70021L20.3375 4.98048C20.6254 5.07161 20.8876 5.163 21.1188 5.26076C21.6059 5.46677 22.0552 5.74047 22.4 6.20021L22.5192 6.37501C22.7772 6.78726 22.8893 7.23279 22.943 7.6924C23.0013 8.19156 22.9997 8.80155 22.9997 9.50001V14.5C22.9997 15.1985 23.0013 15.8085 22.943 16.3076C22.8893 16.7672 22.7772 17.2128 22.5192 17.625L22.4 17.7998C22.0552 18.2596 21.6059 18.5333 21.1188 18.7393C20.8876 18.837 20.6254 18.9284 20.3375 19.0195L19.4 19.2998L12.8395 21.2129C12.2839 21.375 11.7611 21.5303 11.3288 21.5908C10.9002 21.6508 10.3761 21.6476 9.89516 21.334L9.79946 21.2666C9.29325 20.8867 9.12678 20.3464 9.0602 19.8897C9.02876 19.6737 9.01373 19.4295 9.00649 19.167L8.99966 18.333V5.66701L9.00649 4.83302C9.01373 4.57051 9.02876 4.32629 9.0602 4.11037C9.12678 3.65358 9.29326 3.11329 9.79946 2.73341L9.89516 2.66603ZM11.0387 4.39845C11.0017 4.65239 10.9997 5.0241 10.9997 5.66701V18.333L11.0055 19.1133C11.0108 19.3182 11.0202 19.4746 11.0387 19.6016C11.0391 19.6045 11.0402 19.6075 11.0407 19.6104C11.0439 19.6099 11.0481 19.6107 11.0514 19.6104C11.3055 19.5748 11.6631 19.4729 12.2799 19.293L18.8395 17.3799L19.734 17.1123C19.9783 17.0352 20.1753 16.9673 20.3405 16.8975C20.6462 16.7681 20.7443 16.6731 20.7995 16.5996L20.8424 16.5332C20.8851 16.4528 20.9278 16.3224 20.9567 16.0752C20.9983 15.7189 20.9997 15.2456 20.9997 14.5V9.50001C20.9997 8.75439 20.9983 8.28113 20.9567 7.92482C20.9278 7.6776 20.8851 7.54727 20.8424 7.46681L20.7995 7.4004C20.7443 7.32697 20.6462 7.2319 20.3405 7.10255C20.1753 7.03269 19.9783 6.96478 19.734 6.88771L18.8395 6.62013L12.2799 4.70704C11.6631 4.52715 11.3055 4.42528 11.0514 4.38966C11.048 4.38922 11.0439 4.38912 11.0407 4.38869C11.0402 4.39184 11.0392 4.39517 11.0387 4.39845Z" fill="black"/>
<path fill-rule="evenodd" clip-rule="evenodd" d="M5.75161 2.73537C6.0173 2.5933 6.51594 2.38323 7.06411 2.60255L7.17446 2.65236L7.28091 2.71193C7.78375 3.02229 7.91096 3.54869 7.95473 3.84669C8.00231 4.17082 7.99966 4.58524 7.99966 4.98439V19.0156C7.99966 19.4148 8.00231 19.8292 7.95473 20.1533C7.91093 20.4514 7.78364 20.9778 7.28091 21.2881L7.17446 21.3477C6.5835 21.6451 6.03502 21.4162 5.75161 21.2647C5.46286 21.1101 5.13096 20.8614 4.8102 20.624L3.02505 19.3027C2.35639 18.808 1.74794 18.3851 1.3893 17.7686L1.32095 17.6426C1.06139 17.1276 1.01078 16.5576 1.00161 15.9307L0.999656 15.2842V8.71583C0.999651 7.82829 0.974922 7.04417 1.32095 6.35744L1.3893 6.23146C1.74792 5.61498 2.35644 5.19203 3.02505 4.69728L4.8102 3.37599L5.29262 3.0254C5.45162 2.91433 5.60721 2.81265 5.75161 2.73537ZM4.21548 6.3047C3.44879 6.87206 3.23777 7.05237 3.14223 7.19728L3.10708 7.25783C3.02533 7.42018 2.99966 7.62634 2.99966 8.71583V15.2842L3.00454 15.9492C3.01546 16.4741 3.04572 16.6204 3.10708 16.7422L3.14223 16.8027C3.23778 16.9477 3.44869 17.1279 4.21548 17.6953L5.99966 19.0156V4.98439L4.21548 6.3047Z" fill="black"/>
</svg>
