<svg width="24" height="24" viewBox="0 0 24 24" fill="none" xmlns="http://www.w3.org/2000/svg">
<path fill-rule="evenodd" clip-rule="evenodd" d="M18.6291 2.9175C17.4575 1.74593 15.558 1.74593 14.3864 2.9175L13.6793 3.6246C12.5078 2.45303 10.6083 2.45303 9.43669 3.6246C8.26511 4.79618 8.26511 6.69567 9.43669 7.86725L3.77983 13.5241C3.11213 14.1918 2.79776 15.1349 2.9313 16.0697L3.39092 19.287C3.51663 20.167 4.20803 20.8584 5.08798 20.9841L8.30532 21.4437C9.2401 21.5772 10.1832 21.2629 10.8509 20.5952L16.5078 14.9383C17.6793 16.1099 19.5788 16.1099 20.7504 14.9383C21.922 13.7667 21.922 11.8672 20.7504 10.6957L21.4575 9.98857C22.6291 8.81699 22.6291 6.9175 21.4575 5.74593L18.6291 2.9175ZM19.3362 9.28146L20.0433 8.57435C20.4338 8.18383 20.4338 7.55066 20.0433 7.16014L17.2149 4.33171C16.8243 3.94119 16.1912 3.94119 15.8006 4.33171L15.0935 5.03882L19.3362 9.28146ZM15.0935 13.5241L10.8509 9.28146L5.92167 14.2107L10.3014 15.9245C11.3457 16.3331 12.5328 16.0848 13.3258 15.2919L15.0935 13.5241ZM17.922 13.5241C18.3125 13.9146 18.9457 13.9146 19.3362 13.5241C19.7267 13.1336 19.7267 12.5004 19.3362 12.1099L12.2651 5.03882C11.8746 4.64829 11.2414 4.64829 10.8509 5.03882C10.4604 5.42934 10.4604 6.06251 10.8509 6.45303L17.922 13.5241ZM9.57261 17.787L4.93785 15.9734L5.37082 19.0042L8.58816 19.4638C8.89975 19.5083 9.21412 19.4035 9.43669 19.181L10.5606 18.057C10.2269 18.0031 9.89576 17.9134 9.57261 17.787Z" fill="black" fill-opacity="0.85"/>
</svg>
