<svg width="24" height="24" viewBox="0 0 24 24" fill="none" xmlns="http://www.w3.org/2000/svg">
<g clip-path="url(#clip0_10487_300435)">
<path d="M20 10.5V7L15.5 2H5C4.44771 2 4 2.44771 4 3V21C4 21.5523 4.44771 22 5 22H9" stroke="black" stroke-width="2" stroke-linejoin="round"/>
<path d="M15 2V7H20" stroke="black" stroke-width="2" stroke-linejoin="round"/>
<path d="M11 19.9446L13.5252 17.9244C14.178 17.4022 15.0867 17.341 15.8036 17.7711L21.8333 21.389" stroke="black" stroke-opacity="0.85" stroke-width="2"/>
<rect x="11" y="12" width="10.8333" height="10.8333" rx="2" stroke="black" stroke-opacity="0.85" stroke-width="2"/>
<circle cx="18.5833" cy="15.2501" r="1.08333" fill="black" fill-opacity="0.85"/>
<path d="M13 22H20.3684C21.473 22 22.3684 21.1046 22.3684 20V18.1111V14C22.3684 12.8954 21.473 12 20.3684 12H16.6842H13C11.8954 12 11 12.8954 11 14V20C11 21.1046 11.8954 22 13 22Z" stroke="black" stroke-width="2"/>
<path d="M21.6136 21.2627L18.6329 18.3118C18.3679 18.0495 17.8086 18.0432 17.5314 18.2994L13.5264 22H16.0527" stroke="black" stroke-width="2" stroke-linecap="square" stroke-linejoin="round"/>
<path d="M14.4737 16.4445C14.9969 16.4445 15.4211 16.0714 15.4211 15.6112C15.4211 15.1509 14.9969 14.7778 14.4737 14.7778C13.9505 14.7778 13.5264 15.1509 13.5264 15.6112C13.5264 16.0714 13.9505 16.4445 14.4737 16.4445Z" stroke="black" stroke-width="2" stroke-linecap="square" stroke-linejoin="round"/>
</g>
<defs>
<clipPath id="clip0_10487_300435">
<rect width="24" height="24" fill="white"/>
</clipPath>
</defs>
</svg>
