<svg width="24" height="24" viewBox="0 0 24 24" fill="none" xmlns="http://www.w3.org/2000/svg">
<path d="M13 13.7933L13 2C13 1.44771 12.5523 1 12 1C11.4477 1 11 1.44771 11 2L11 13.7931C10.6204 13.3452 10.1719 12.7201 9.55888 11.8619L7.81381 9.41877C7.4928 8.96936 6.86825 8.86527 6.41884 9.18628C5.96943 9.50729 5.86534 10.1318 6.18634 10.5813L7.97687 13.088C8.67991 14.0723 9.27171 14.9009 9.82241 15.4734C10.401 16.0748 11.0881 16.5591 12.0001 16.5591C12.912 16.5591 13.5992 16.0748 14.1777 15.4734C14.7284 14.9009 15.3202 14.0724 16.0233 13.088L17.8138 10.5813C18.1348 10.1318 18.0307 9.50729 17.5813 9.18628C17.1319 8.86527 16.5074 8.96936 16.1863 9.41877L14.4413 11.8619C13.8282 12.7202 13.3796 13.3453 13 13.7933Z" fill="black"/>
<path d="M3 11C3.55229 11 4 11.4477 4 12V13C4 14.9139 4.00213 16.2487 4.13753 17.2558C4.26907 18.2342 4.50966 18.7523 4.87868 19.1213C5.2477 19.4903 5.7658 19.7309 6.74416 19.8625C7.7513 19.9979 9.08611 20 11 20H13C14.9139 20 16.2487 19.9979 17.2558 19.8625C18.2342 19.7309 18.7523 19.4903 19.1213 19.1213C19.4903 18.7523 19.7309 18.2342 19.8625 17.2558C19.9979 16.2487 20 14.9139 20 13V12C20 11.4477 20.4477 11 21 11C21.5523 11 22 11.4477 22 12V13.0731C22 14.8966 22.0001 16.3664 21.8446 17.5223C21.6833 18.7225 21.3381 19.733 20.5355 20.5355C19.733 21.3381 18.7225 21.6833 17.5223 21.8446C16.3664 22 14.8966 22 13.0732 22H10.9268C9.1034 22 7.63361 22 6.47767 21.8446C5.27752 21.6833 4.26702 21.3381 3.46447 20.5355C2.66191 19.733 2.31672 18.7225 2.15537 17.5223C1.99995 16.3664 1.99997 14.8966 2 13.0732V12C2 11.4477 2.44772 11 3 11Z" fill="black"/>
</svg>
