<svg width="24" height="24" viewBox="0 0 24 24" fill="none" xmlns="http://www.w3.org/2000/svg">
<path d="M18.4332 2.28251C17.4624 1.6784 16.2326 1.67863 15.2621 2.28311C14.9662 2.4674 14.696 2.73844 14.3825 3.05292L6.55479 10.89C6.21008 11.2343 5.90484 11.5392 5.69625 11.9224C5.48766 12.3055 5.39723 12.7274 5.29512 13.2038L4.52246 16.7893C4.45094 17.1212 4.55267 17.4667 4.79262 17.7068C5.03257 17.947 5.37797 18.049 5.70989 17.9777L9.31058 17.2049C9.78848 17.1029 10.2117 17.0125 10.5959 16.8033C10.9802 16.5941 11.2858 16.2877 11.6309 15.9417L19.4513 8.11781C19.7652 7.80438 20.0358 7.53422 20.2197 7.23845C20.823 6.26835 20.823 5.03976 20.2197 4.06966C20.0357 3.77389 19.7652 3.50374 19.4513 3.1903L19.3822 3.12123L19.3131 3.05198C18.9994 2.73762 18.7291 2.46669 18.4332 2.28251ZM16.3194 3.98076C16.6429 3.77927 17.0529 3.77919 17.3765 3.98056C17.4495 4.026 17.5448 4.11203 17.9677 4.53513C18.3901 4.95775 18.476 5.05295 18.5214 5.12593C18.7225 5.44929 18.7225 5.85882 18.5214 6.18219C18.476 6.25516 18.3901 6.35036 17.9677 6.77298L10.2862 14.4578C9.83157 14.9127 9.73745 14.9935 9.63967 15.0468C9.54189 15.1 9.4229 15.1352 8.79408 15.2701L6.80371 15.6974L7.22952 13.7216C7.36461 13.0948 7.39974 12.9762 7.45282 12.8787C7.5059 12.7812 7.58646 12.6873 8.0396 12.2336L15.7284 4.53556C16.1512 4.11229 16.2464 4.02623 16.3194 3.98076Z" fill="black"/>
<path d="M3 20C2.44772 20 2 20.4477 2 21C2 21.5523 2.44772 22 3 22L21 22C21.5523 22 22 21.5523 22 21C22 20.4477 21.5523 20 21 20L3 20Z" fill="black"/>
</svg>
