<svg width="24" height="24" viewBox="0 0 24 24" fill="none" xmlns="http://www.w3.org/2000/svg">
<path d="M3.875 3C2.50695 3 1 3.92259 1 5.5V18.5C1 20.0774 2.50695 21 3.875 21H20.125C21.4931 21 23 20.0774 23 18.5V5.5C23 3.92259 21.4931 3 20.125 3H3.875ZM3 16.3426V6.85118L8.20828 11.7853L3 16.3426ZM9.66657 13.1669L10.6057 14.0565C11.3922 14.8017 12.6292 14.785 13.3954 14.0189L14.2875 13.1267L20.784 18.8112C20.6323 18.9167 20.4044 19 20.125 19H3.875C3.59556 19 3.36766 18.9167 3.21595 18.8112L9.66657 13.1669ZM21 6.41421V16.3426L15.7049 11.7093L21 6.41421ZM19.5858 5L11.9811 12.6046L3.95403 5H19.5858Z" fill="black" fill-opacity="0.85"/>
</svg>
