<svg width="24" height="24" viewBox="0 0 24 24" fill="none" xmlns="http://www.w3.org/2000/svg">
<g opacity="0.2">
<rect width="24" height="24" fill="#D03050"/>
<path d="M7.606 15.5519L7.60753 15.5489L7.60647 15.5509" fill="black"/>
<path d="M1 12C1 5.92487 5.92487 1 12 1C18.0751 1 23 5.92487 23 12C23 18.0751 18.0751 23 12 23C5.92487 23 1 18.0751 1 12ZM7.70711 7.29289C7.31658 6.90237 6.68342 6.90237 6.29289 7.29289C5.90237 7.68342 5.90237 8.31658 6.29289 8.70711L7.08579 9.5L6.29289 10.2929C5.90237 10.6834 5.90237 11.3166 6.29289 11.7071C6.68342 12.0976 7.31658 12.0976 7.70711 11.7071L9.20711 10.2071C9.59763 9.81658 9.59763 9.18342 9.20711 8.79289L7.70711 7.29289ZM17.7071 7.29289C17.3166 6.90237 16.6834 6.90237 16.2929 7.29289L14.7929 8.79289C14.4024 9.18342 14.4024 9.81658 14.7929 10.2071L16.2929 11.7071C16.6834 12.0976 17.3166 12.0976 17.7071 11.7071C18.0976 11.3166 18.0976 10.6834 17.7071 10.2929L16.9142 9.5L17.7071 8.70711C18.0976 8.31658 18.0976 7.68342 17.7071 7.29289ZM8.05276 16.8944C8.54407 17.1401 9.14093 16.9433 9.39037 16.4552L9.39111 16.4538C9.3936 16.4492 9.39965 16.4382 9.40936 16.4218C9.42886 16.3887 9.46263 16.3343 9.51131 16.2655C9.60946 16.127 9.76328 15.9372 9.97684 15.7474C10.3955 15.3752 11.0428 15 12 15C12.9572 15 13.6044 15.3752 14.0231 15.7474C14.2367 15.9372 14.3905 16.127 14.4886 16.2655C14.5373 16.3343 14.5711 16.3887 14.5906 16.4218C14.6003 16.4382 14.6064 16.4492 14.6088 16.4538L14.6096 16.4552C14.859 16.9433 15.4559 17.1401 15.9472 16.8944C16.4412 16.6474 16.6414 16.0468 16.3944 15.5528L16.3935 15.5509L16.3925 15.5489L16.3901 15.5443L16.3842 15.5328C16.3797 15.5242 16.3741 15.5136 16.3674 15.5013C16.354 15.4766 16.3362 15.4446 16.3137 15.4064C16.2687 15.3301 16.2048 15.2282 16.1207 15.1095C15.9532 14.873 15.7008 14.5628 15.3518 14.2526C14.6455 13.6248 13.5428 13 12 13C10.4572 13 9.3544 13.6248 8.64811 14.2526C8.29917 14.5628 8.04675 14.873 7.87926 15.1095C7.79514 15.2282 7.73124 15.3301 7.68629 15.4064C7.66378 15.4446 7.64591 15.4766 7.63252 15.5013C7.62583 15.5136 7.62025 15.5242 7.61576 15.5328L7.60985 15.5443L7.60753 15.5489L7.60647 15.5509L7.606 15.5519L7.60555 15.5528C7.35856 16.0468 7.55878 16.6474 8.05276 16.8944Z" fill="black"/>
</g>
</svg>
