<svg width="20" height="20" viewBox="0 0 20 20" fill="none" xmlns="http://www.w3.org/2000/svg">
<path d="M5.05264 1.24877C5.10672 1.10458 5.31068 1.10458 5.36475 1.24877L5.76017 2.30321L6.75701 2.76471C6.88587 2.82437 6.88587 3.00754 6.75701 3.0672L5.76017 3.5287L5.36475 4.58315C5.31068 4.72734 5.10672 4.72734 5.05264 4.58315L4.65723 3.5287L3.66039 3.0672C3.53153 3.00754 3.53153 2.82437 3.66039 2.76471L4.65723 2.30321L5.05264 1.24877Z" fill="white" fill-opacity="0.65"/>
<path d="M2.13545 7.09544C2.18871 6.94933 2.39535 6.94933 2.44862 7.09544L2.72095 7.84242L3.43436 8.18214C3.56104 8.24246 3.56104 8.42277 3.43436 8.48309L2.72095 8.82281L2.44862 9.56979C2.39535 9.7159 2.18871 9.7159 2.13545 9.56979L1.86311 8.82281L1.1497 8.48309C1.02302 8.42277 1.02302 8.24246 1.1497 8.18214L1.86311 7.84242L2.13545 7.09544Z" fill="white" fill-opacity="0.65"/>
<path d="M14.0101 13.7721C14.0628 13.6246 14.2713 13.6246 14.324 13.7721L14.9024 15.3914L16.3587 16.0994C16.4838 16.1602 16.4838 16.3384 16.3587 16.3992L14.9024 17.1071L14.324 18.7265C14.2713 18.8739 14.0628 18.8739 14.0101 18.7265L13.4318 17.1071L11.9754 16.3992C11.8503 16.3384 11.8503 16.1602 11.9754 16.0994L13.4318 15.3914L14.0101 13.7721Z" fill="white" fill-opacity="0.65"/>
<path d="M17.8648 9.5821C17.8107 9.43791 17.6067 9.43791 17.5526 9.58211L17.1572 10.6365L16.1604 11.098C16.0315 11.1577 16.0315 11.3409 16.1604 11.4005L17.1572 11.862L17.5526 12.9165C17.6067 13.0607 17.8107 13.0607 17.8648 12.9165L18.2602 11.862L19.257 11.4005C19.3859 11.3409 19.3859 11.1577 19.257 11.098L18.2602 10.6365L17.8648 9.5821Z" fill="white" fill-opacity="0.65"/>
<path d="M15.1842 1.62551C15.5446 1.73151 15.8368 1.92932 16.105 2.1549C16.3589 2.36842 16.6431 2.65277 16.9726 2.98243L17.0207 3.03063C17.3499 3.35989 17.6338 3.64392 17.847 3.89762C18.0723 4.16565 18.2698 4.4576 18.3757 4.81768C18.5111 5.27814 18.5111 5.76784 18.3757 6.2283C18.2698 6.58838 18.0723 6.88034 17.847 7.14837C17.6338 7.40205 17.3499 7.68607 17.0208 8.01531L8.64472 16.3952C8.35715 16.6835 8.1025 16.9388 7.78227 17.1132C7.46205 17.2875 7.10936 17.3628 6.71111 17.4478L2.67532 18.314C2.39872 18.3734 2.11088 18.2884 1.91092 18.0883C1.71096 17.8882 1.62619 17.6003 1.68579 17.3237L2.55189 13.3047C2.63699 12.9077 2.71234 12.5561 2.88617 12.2368C3.06 11.9175 3.31436 11.6634 3.60162 11.3764L11.9847 2.98336C12.3141 2.65359 12.5982 2.36913 12.852 2.15552C13.1201 1.92984 13.4122 1.73191 13.7725 1.62578C14.2333 1.49007 14.7234 1.48997 15.1842 1.62551ZM14.2434 3.22454C14.1959 3.23854 14.1091 3.27586 13.9253 3.43059C13.7333 3.59219 13.5001 3.82461 13.1398 4.18531L4.83896 12.4961C4.46134 12.8742 4.39421 12.9524 4.34998 13.0337C4.30575 13.1149 4.27647 13.2138 4.1639 13.7362L3.58683 16.4138L6.28072 15.8355C6.80474 15.723 6.9039 15.6937 6.98538 15.6493C7.06686 15.605 7.14529 15.5376 7.52418 15.1585L15.8179 6.86118C16.1779 6.50102 16.4099 6.26794 16.5711 6.07606C16.7255 5.89235 16.7628 5.8056 16.7767 5.7581C16.8219 5.60461 16.8219 5.44137 16.7767 5.28789C16.7628 5.24039 16.7255 5.15364 16.5711 4.96993C16.4099 4.77805 16.1779 4.54497 15.8179 4.1848C15.4575 3.82423 15.2242 3.5919 15.0322 3.43038C14.8483 3.27572 14.7615 3.23843 14.714 3.22445C14.5604 3.17928 14.397 3.17931 14.2434 3.22454Z" fill="white" fill-opacity="0.65"/>
</svg>
