<svg width="24" height="24" viewBox="0 0 24 24" fill="none" xmlns="http://www.w3.org/2000/svg">
<path d="M6.06269 1.4994C6.12757 1.32637 6.37233 1.32637 6.43722 1.4994L6.91172 2.76473L8.10792 3.31854C8.26256 3.39013 8.26256 3.60993 8.10793 3.68152L6.91172 4.23532L6.43722 5.50065C6.37233 5.67369 6.12757 5.67369 6.06268 5.50065L5.58819 4.23532L4.39198 3.68152C4.23734 3.60993 4.23734 3.39013 4.39198 3.31854L5.58819 2.76473L6.06269 1.4994Z" fill="black"/>
<path d="M2.56205 8.51541C2.62597 8.34008 2.87393 8.34008 2.93785 8.51541L3.26465 9.41178L4.12075 9.81945C4.27277 9.89184 4.27277 10.1082 4.12075 10.1806L3.26465 10.5883L2.93785 11.4846C2.87393 11.66 2.62597 11.66 2.56205 11.4846L2.23524 10.5883L1.37915 10.1806C1.22713 10.1082 1.22713 9.89184 1.37915 9.81945L2.23524 9.41178L2.56205 8.51541Z" fill="black"/>
<path d="M16.8116 16.5274C16.8748 16.3504 17.1251 16.3504 17.1883 16.5274L17.8823 18.4706L19.63 19.3201C19.78 19.3931 19.78 19.6069 19.63 19.6799L17.8823 20.5294L17.1883 22.4726C17.1251 22.6496 16.8748 22.6496 16.8116 22.4726L16.1176 20.5294L14.37 19.6799C14.2199 19.6069 14.2199 19.3931 14.37 19.3201L16.1176 18.4706L16.8116 16.5274Z" fill="black"/>
<path d="M21.4372 11.4994C21.3723 11.3264 21.1276 11.3264 21.0627 11.4994L20.5882 12.7647L19.392 13.3185C19.2373 13.3901 19.2373 13.6099 19.392 13.6815L20.5882 14.2353L21.0627 15.5007C21.1276 15.6737 21.3723 15.6737 21.4372 15.5007L21.9117 14.2353L23.1079 13.6815C23.2626 13.6099 23.2626 13.3901 23.1079 13.3185L21.9117 12.7647L21.4372 11.4994Z" fill="black"/>
<path d="M18.2206 1.95149C18.6531 2.07869 19.0037 2.31607 19.3255 2.58676C19.6301 2.84298 19.9712 3.18421 20.3666 3.5798L20.4244 3.63764C20.8194 4.03275 21.1601 4.37359 21.4159 4.67802C21.6862 4.99965 21.9233 5.35 22.0503 5.78209C22.2128 6.33465 22.2128 6.92229 22.0503 7.47484C21.9233 7.90693 21.6862 8.25728 21.4159 8.57892C21.1601 8.88334 20.8194 9.22416 20.4245 9.61925L10.3732 19.6751C10.0281 20.0211 9.72251 20.3275 9.33824 20.5367C8.95397 20.7459 8.53075 20.8362 8.05284 20.9382L3.20989 21.9777C2.87797 22.049 2.53257 21.947 2.29262 21.7068C2.05267 21.4667 1.95094 21.1212 2.02246 20.7893L3.06178 15.9665C3.1639 15.4901 3.25432 15.0682 3.46292 14.685C3.67151 14.3019 3.97675 13.997 4.32146 13.6526L14.3812 3.58091C14.7764 3.18518 15.1173 2.84383 15.4219 2.5875C15.7436 2.31669 16.0941 2.07917 16.5265 1.95181C17.0795 1.78896 17.6676 1.78885 18.2206 1.95149ZM17.0916 3.87033C17.0346 3.88712 16.9304 3.93191 16.7098 4.11759C16.4795 4.3115 16.1996 4.5904 15.7673 5.02325L5.80626 14.9962C5.35313 15.4499 5.27256 15.5438 5.21949 15.6413C5.16641 15.7388 5.13128 15.8574 4.99619 16.4843L4.30371 19.6974L7.53637 19.0035C8.16519 18.8685 8.28419 18.8333 8.38197 18.7801C8.47974 18.7269 8.57386 18.646 9.02853 18.1911L18.981 8.2343C19.413 7.8021 19.6913 7.52241 19.8849 7.29215C20.0701 7.0717 20.1148 6.9676 20.1316 6.91059C20.1858 6.72641 20.1858 6.53053 20.1316 6.34634C20.1148 6.28934 20.0701 6.18524 19.8849 5.96479C19.6913 5.73454 19.413 5.45484 18.981 5.02264C18.5485 4.58996 18.2686 4.31116 18.0381 4.11733C17.8175 3.93174 17.7133 3.88699 17.6563 3.87022C17.472 3.81601 17.2759 3.81605 17.0916 3.87033Z" fill="black"/>
</svg>
