<svg width="20" height="20" viewBox="0 0 20 20" fill="none" xmlns="http://www.w3.org/2000/svg">
<path d="M5.05222 1.2495C5.10629 1.10531 5.31025 1.10531 5.36433 1.2495L5.75974 2.30395L6.75658 2.76545C6.88544 2.8251 6.88545 3.00828 6.75658 3.06794L5.75974 3.52944L5.36433 4.58388C5.31025 4.72807 5.10629 4.72807 5.05222 4.58388L4.6568 3.52944L3.65996 3.06794C3.5311 3.00828 3.5311 2.8251 3.65996 2.76545L4.6568 2.30395L5.05222 1.2495Z" fill="white" fill-opacity="0.85"/>
<path d="M2.13502 7.09617C2.18829 6.95007 2.39492 6.95007 2.44819 7.09617L2.72053 7.84315L3.43394 8.18287C3.56062 8.2432 3.56062 8.4235 3.43394 8.48383L2.72053 8.82355L2.44819 9.57053C2.39492 9.71663 2.18829 9.71663 2.13502 9.57053L1.86268 8.82355L1.14927 8.48383C1.02259 8.4235 1.02259 8.2432 1.14927 8.18287L1.86268 7.84315L2.13502 7.09617Z" fill="white" fill-opacity="0.85"/>
<path d="M14.0097 13.7728C14.0623 13.6253 14.2709 13.6253 14.3236 13.7728L14.9019 15.3922L16.3583 16.1001C16.4833 16.1609 16.4833 16.3391 16.3583 16.3999L14.9019 17.1079L14.3236 18.7272C14.2709 18.8747 14.0623 18.8747 14.0097 18.7272L13.4313 17.1079L11.975 16.3999C11.8499 16.3391 11.8499 16.1609 11.975 16.1001L13.4313 15.3922L14.0097 13.7728Z" fill="white" fill-opacity="0.85"/>
<path d="M17.8643 9.58284C17.8103 9.43864 17.6063 9.43864 17.5522 9.58284L17.1568 10.6373L16.16 11.0988C16.0311 11.1584 16.0311 11.3416 16.16 11.4013L17.1568 11.8628L17.5522 12.9172C17.6063 13.0614 17.8103 13.0614 17.8643 12.9172L18.2597 11.8628L19.2566 11.4013C19.3854 11.3416 19.3854 11.1584 19.2566 11.0988L18.2597 10.6373L17.8643 9.58284Z" fill="white" fill-opacity="0.85"/>
<path d="M15.1838 1.62624C15.5442 1.73224 15.8364 1.93006 16.1046 2.15563C16.3584 2.36915 16.6426 2.65351 16.9721 2.98316L17.0203 3.03137C17.3495 3.36063 17.6334 3.64466 17.8466 3.89835C18.0719 4.16638 18.2694 4.45834 18.3753 4.81841C18.5107 5.27887 18.5107 5.76858 18.3753 6.22904C18.2694 6.58911 18.0719 6.88107 17.8466 7.1491C17.6334 7.40278 17.3495 7.6868 17.0204 8.01604L8.64429 16.3959C8.35672 16.6842 8.10207 16.9396 7.78185 17.1139C7.46162 17.2882 7.10894 17.3635 6.71068 17.4485L2.67489 18.3148C2.39829 18.3742 2.11046 18.2891 1.9105 18.089C1.71054 17.8889 1.62576 17.601 1.68536 17.3244L2.55147 13.3054C2.63656 12.9084 2.71192 12.5568 2.88574 12.2375C3.05957 11.9182 3.31394 11.6641 3.60119 11.3772L11.9843 2.98409C12.3137 2.65432 12.5978 2.36986 12.8515 2.15625C13.1196 1.93057 13.4117 1.73264 13.7721 1.62651C14.2329 1.4908 14.723 1.49071 15.1838 1.62624ZM14.243 3.22528C14.1955 3.23927 14.1087 3.27659 13.9248 3.43132C13.7329 3.59292 13.4997 3.82534 13.1394 4.18605L4.83853 12.4969C4.46092 12.8749 4.39378 12.9532 4.34955 13.0344C4.30532 13.1157 14.3555 2.24309 14.243 2.76545L17.8643 5.75883L16.9996 7.00073C17.5236 6.88825 15.8175 8.36721 6.98495 15.6501C7.06643 15.6057 15.7257 6.45585 16.1046 6.07679L15.8175 6.86192C16.1775 6.50175 16.4094 6.26867 16.5707 6.07679C16.7251 5.89308 16.7623 5.80633 16.7763 5.75883C16.8214 5.60534 16.8214 5.44211 16.7763 5.28862C16.7623 5.24112 16.7251 5.15437 16.5707 4.97066C16.4094 4.77878 16.1775 4.5457 15.8175 4.18554C15.4571 3.82497 15.2238 3.59263 15.0318 3.43111C14.8479 3.27645 14.7611 3.23916 14.7135 3.22519C14.5599 3.18001 14.3966 3.18004 14.243 3.22528Z" fill="white" fill-opacity="0.85"/>
</svg>
