<svg width="24" height="24" viewBox="0 0 24 24" fill="none" xmlns="http://www.w3.org/2000/svg">
<path d="M16.2424 3.10036C15.0708 1.92879 13.1714 1.92879 11.9998 3.10036L2.80739 12.2927C1.63582 13.4643 1.63582 15.3638 2.80739 16.5354L8.27188 21.9999H20.9998V19.9999H14.8992L21.8993 12.9999C23.0708 11.8283 23.0708 9.92879 21.8993 8.75721L16.2424 3.10036ZM9.10034 19.9999L4.2216 15.1212C3.83108 14.7306 3.83108 14.0975 4.2216 13.707L6.34299 11.5856L13.4141 18.6566L12.0708 19.9999H9.10034ZM13.414 4.51457C13.8045 4.12405 14.4377 4.12405 14.8282 4.51457L20.4851 10.1714C20.8756 10.562 20.8756 11.1951 20.4851 11.5856L14.8283 17.2424L7.7572 10.1714L13.414 4.51457Z" fill="black" fill-opacity="0.85"/>
</svg>
