<svg width="24" height="24" viewBox="0 0 24 24" fill="none" xmlns="http://www.w3.org/2000/svg">
<path d="M19.5035 8.91693L19.7768 5.63741L14.7071 10.7071C14.3166 11.0976 13.6834 11.0976 13.2929 10.7071C12.9024 10.3166 12.9024 9.68342 13.2929 9.29289L18.3625 4.22324L15.0831 4.49653C14.5327 4.54239 14.0494 4.1334 14.0035 3.58302C13.9576 3.03265 14.3666 2.5493 14.917 2.50343L18.6218 2.19469C19.1161 2.15341 19.5873 2.11406 19.9734 2.13644C20.4031 2.16135 20.9084 2.26927 21.3196 2.68046C21.7308 3.09164 21.8387 3.59696 21.8636 4.02664C21.886 4.41277 21.8466 4.88394 21.8053 5.37821L21.4966 9.08302C21.4507 9.6334 20.9674 10.0424 20.417 9.99652C19.8666 9.95066 19.4576 9.46731 19.5035 8.91693Z" fill="black"/>
<path d="M4.49659 15.083C4.54245 14.5327 4.13346 14.0493 3.58309 14.0034C3.03271 13.9576 2.54936 14.3666 2.50349 14.9169L2.19475 18.6218C2.15347 19.116 2.11412 19.5872 2.1365 19.9733C2.16141 20.403 2.26933 20.9083 2.68052 21.3195C3.0917 21.7307 3.59702 21.8386 4.02671 21.8635C4.41283 21.8859 4.884 21.8466 5.37827 21.8053L9.08309 21.4965C9.63346 21.4507 10.0425 20.9673 9.99659 20.4169C9.95072 19.8666 9.46737 19.4576 8.91699 19.5034L5.63747 19.7767L10.7071 14.7071C11.0976 14.3166 11.0976 13.6834 10.7071 13.2929C10.3166 12.9024 9.68342 12.9024 9.29289 13.2929L4.2233 18.3625L4.49659 15.083Z" fill="black"/>
</svg>
