<svg width="24" height="24" viewBox="0 0 24 24" fill="none" xmlns="http://www.w3.org/2000/svg">
<path d="M10.0546 0.84375L10.2577 1.6302C10.8724 3.99328 11.9506 6.13852 13.4017 7.88496C14.8527 9.63328 16.6324 10.9311 18.5875 11.6659L19.265 11.9207L18.342 12.2936C16.4884 13.045 14.801 14.304 13.4146 15.973C12.03 17.6419 10.9832 19.6763 10.3555 21.9158L10.0546 22.9976L9.98996 22.717C9.4066 20.1545 8.28043 17.8191 6.72231 15.9416C5.16418 14.064 3.22752 12.7072 1.10443 12.0093L0.842285 11.9207L1.48473 11.6825C3.45643 10.9496 5.24903 9.64805 6.70935 7.88866C8.16782 6.12928 9.24967 3.96743 9.86258 1.58773L10.0546 0.84375ZM19.0823 14.0271L19.1617 14.3318C19.3998 15.2456 19.8171 16.0745 20.3783 16.7502C20.9078 17.4043 21.5989 17.9089 22.3832 18.2142L22.6472 18.312L22.2891 18.456C21.546 18.7656 20.8913 19.2546 20.3838 19.8794C19.8484 20.5256 19.4423 21.312 19.1986 22.1798L19.0823 22.5988L19.0583 22.488C18.8473 21.5274 18.4142 20.6296 17.7937 19.8665C17.2268 19.1652 16.4737 18.6379 15.6207 18.3453L15.5192 18.312L15.7684 18.2198C16.5586 17.9158 17.2551 17.4097 17.7881 16.752C18.3531 16.0727 18.7721 15.2363 19.0084 14.3151L19.0823 14.0271Z" fill="url(#paint0_linear_38841_1219)"/>
<defs>
<linearGradient id="paint0_linear_38841_1219" x1="11.7447" y1="0.84375" x2="11.7447" y2="23.0451" gradientUnits="userSpaceOnUse">
<stop stop-color="#7CDFFF"/>
<stop offset="1" stop-color="#23CAFF"/>
</linearGradient>
</defs>
</svg>
