<svg width="24" height="24" viewBox="0 0 24 24" fill="none" xmlns="http://www.w3.org/2000/svg">
<path d="M11.0561 8.05764C10.9629 8.18561 10.8709 8.3011 10.7802 8.40638C10.3573 8.89723 9.92634 9.20956 9.41041 9.5519C9.34686 9.59406 9.28136 9.63706 9.21412 9.6812L9.21318 9.68182C8.74152 9.99145 8.18438 10.3572 7.61699 10.8833C7.18502 11.2838 6.7536 11.7692 6.31945 12.3941C6.33831 12.6402 6.37159 12.8661 6.42307 13.0607C6.57368 13.6298 6.9362 14.1428 7.33195 14.5627C7.34585 14.537 7.35993 14.5113 7.37419 14.4857C7.95394 13.4421 8.48778 12.8033 8.97684 12.3499C9.41412 11.9444 9.82852 11.6715 10.3031 11.3591C10.3727 11.3132 10.4437 11.2665 10.5162 11.2184C11.0763 10.8468 11.6907 10.4136 12.2953 9.71192C12.6722 9.27455 13.0312 8.74994 13.3775 8.09363C12.8151 8.19302 12.2056 8.23242 11.595 8.15185C11.4063 8.12696 11.2268 8.0951 11.0561 8.05764Z" fill="black"/>
<path d="M4.16761 19.4905C4.21114 18.5733 4.28809 16.952 4.87615 15.2175C5.52898 15.4947 6.2123 15.637 6.82059 15.7054C6.42059 16.8106 6.28417 17.8778 6.21851 18.7595C11.0177 16.0343 14.0529 11.9253 15.5716 8.12859C15.7767 7.61581 16.3586 7.36639 16.8714 7.5715C17.3842 7.77662 17.6336 8.35859 17.4285 8.87137C15.9985 12.4465 13.3505 16.2586 9.32195 19.146C9.7856 19.0729 10.2702 18.9723 10.7682 18.8386C12.3336 18.4185 14.0016 17.6792 15.5433 16.4642C15.7796 16.9821 16.1212 17.6064 16.5879 18.185C14.8624 19.499 13.0131 20.3069 11.2866 20.7703C9.18304 21.3349 7.21979 21.3992 5.83038 21.2227C4.88232 21.683 3.87804 22.0947 2.81625 22.4487C2.29231 22.6233 1.72599 22.3402 1.55134 21.8162C1.3767 21.2923 1.65986 20.7259 2.1838 20.5513C2.86581 20.324 3.52182 20.0708 4.15226 19.7946C4.15746 19.7045 4.16229 19.6028 4.16761 19.4905Z" fill="black"/>
<path d="M18.4984 16.4476C18.7633 16.1612 19.0222 15.859 19.274 15.5405C19.9462 14.6901 20.4651 13.8427 20.8547 13.0084C20.1655 12.7509 19.5576 12.3894 19.0869 12.0594C18.7562 12.7928 18.3037 13.5427 17.7049 14.3003C17.217 14.9176 16.6984 15.4638 16.1596 15.9463C16.8055 16.2646 17.6607 16.5628 18.4599 16.4532C18.4726 16.4515 18.4854 16.4496 18.4984 16.4476Z" fill="black"/>
<path d="M20.2471 3.12913C21.3376 4.91288 22.2094 7.50921 21.684 10.4239C21.6351 10.4674 21.5865 10.5079 21.5384 10.5451C20.9343 11.0124 20.1046 11.1878 19.4081 11.2444C20.3696 8.39812 19.5726 5.86032 18.5407 4.17232C18.2187 3.64563 17.5052 3.42953 16.8765 3.73062C15.8291 4.23212 14.753 5.01941 14.0725 6.56149C13.6057 6.33285 13.1507 6.02328 12.8327 5.60862C12.7319 5.4772 12.6343 5.32146 12.5404 5.14793C13.4686 3.44407 14.8018 2.5066 16.0127 1.92676C17.4936 1.21763 19.349 1.66012 20.2471 3.12913Z" fill="black"/>
<path d="M7.65762 2.09345C7.58947 1.96885 7.41053 1.96885 7.34238 2.09345L6.57251 3.5011C6.55603 3.53124 6.53124 3.55603 6.5011 3.57251L5.09345 4.34238C4.96885 4.41053 4.96885 4.58947 5.09345 4.65762L6.5011 5.42749C6.53124 5.44397 6.55603 5.46876 6.57251 5.4989L7.34238 6.90655C7.41053 7.03115 7.58947 7.03115 7.65762 6.90655L8.42749 5.4989C8.44397 5.46876 8.46876 5.44397 8.4989 5.42749L9.90655 4.65762C10.0311 4.58947 10.0311 4.41053 9.90655 4.34238L8.4989 3.57251C8.46876 3.55603 8.44397 3.53124 8.42749 3.5011L7.65762 2.09345Z" fill="black"/>
<path d="M20.3524 18.0875C20.4162 17.9708 20.5838 17.9708 20.6476 18.0875L21.0712 18.862C21.0866 18.8902 21.1098 18.9134 21.138 18.9288L21.9125 19.3524C22.0292 19.4162 22.0292 19.5838 21.9125 19.6476L21.138 20.0712C21.1098 20.0866 21.0866 20.1098 21.0712 20.138L20.6476 20.9125C20.5838 21.0292 20.4162 21.0292 20.3524 20.9125L19.9288 20.138C19.9134 20.1098 19.8902 20.0866 19.862 20.0712L19.0875 19.6476C18.9708 19.5838 18.9708 19.4162 19.0875 19.3524L19.862 18.9288C19.8902 18.9134 19.9134 18.8902 19.9288 18.862L20.3524 18.0875Z" fill="black"/>
<path d="M3.13675 9.08107C3.07763 8.97298 2.92237 8.97298 2.86325 9.08107L2.60862 9.54666C2.59431 9.57281 2.57281 9.59431 2.54666 9.60862L2.08107 9.86325C1.97298 9.92237 1.97298 10.0776 2.08107 10.1367L2.54666 10.3914C2.57281 10.4057 2.59431 10.4272 2.60862 10.4533L2.86325 10.9189C2.92237 11.027 3.07763 11.027 3.13675 10.9189L3.39138 10.4533C3.40569 10.4272 3.42719 10.4057 3.45334 10.3914L3.91893 10.1367C4.02702 10.0776 4.02702 9.92237 3.91893 9.86325L3.45334 9.60862C3.42719 9.59431 3.40569 9.57281 3.39138 9.54666L3.13675 9.08107Z" fill="black"/>
</svg>
