<svg width="24" height="24" viewBox="0 0 24 24" fill="none" xmlns="http://www.w3.org/2000/svg">
<path d="M8.5 18V16H15.5V18H8.5Z" fill="black"/>
<path d="M8.5 10V12H15.5V10H8.5Z" fill="black"/>
<path d="M8 1C5.23858 1 3 3.23858 3 6V18C3 20.7614 5.23858 23 8 23H16C18.7614 23 21 20.7614 21 18V7C21 6.72387 20.8881 6.47387 20.7071 6.29291L15.7072 1.29285C15.5262 1.11187 15.2761 1 15 1H8ZM5 6C5 4.34315 6.34315 3 8 3H14V6C14 7.10457 14.8954 8 16 8H19V18C19 19.6569 17.6569 21 16 21H8C6.34315 21 5 19.6569 5 18V6ZM16 4.41409L17.5859 6H16V4.41409Z" fill="black"/>
</svg>
