<svg width="24" height="24" viewBox="0 0 24 24" fill="none" xmlns="http://www.w3.org/2000/svg">
<path fill-rule="evenodd" clip-rule="evenodd" d="M10.2253 1.22557C9.92617 0.981209 9.51305 0.930967 9.16407 1.09651C8.81509 1.26204 8.59265 1.61376 8.59265 2.00001C8.59265 2.68659 8.49454 3.57261 8.31971 4.4295C8.14223 5.29933 7.90311 6.05255 7.65975 6.51024C7.35764 7.07843 7.20515 7.32063 7.05407 7.51733C6.93831 7.66806 6.82537 7.79234 6.63616 8.00054C6.54261 8.10348 6.4304 8.22696 6.29 8.38428C6.12638 8.56762 5.97644 8.72848 5.83404 8.88124C5.35272 9.3976 4.95753 9.82158 4.4119 10.7087C3.61115 12.0107 3.5 13.6527 3.5 14.7091C3.5 19.4922 7.37417 23 12 23C16.6549 23 20.4999 19.3041 20.4999 14.5491C20.4999 13.4501 20.4402 12.2345 19.8266 10.3901C19.5426 9.53634 19.3586 9.01265 19.1629 8.56428C18.9634 8.10723 18.7585 7.74412 18.4594 7.21899C18.2457 6.84387 17.8154 6.64823 17.3922 6.73381C16.9691 6.81939 16.6486 7.16686 16.5975 7.59554C16.523 8.22007 16.3356 8.70673 16.1108 9.08589C16.0679 8.9564 16.0223 8.8228 15.9742 8.68611C15.5977 7.61753 15.0393 6.28548 14.3347 5.25317C13.1823 3.56492 11.6639 2.36555 10.6716 1.58167C10.507 1.45166 10.3569 1.33305 10.2253 1.22557Z" fill="black"/>
</svg>
