<svg width="24" height="24" viewBox="0 0 24 24" fill="none" xmlns="http://www.w3.org/2000/svg">
<path d="M7.92943 3.5H16.0706C17.4247 3.49997 18.5413 3.49994 19.4251 3.61875C20.3529 3.7435 21.1723 4.01547 21.8284 4.67158C22.4845 5.32768 22.7565 6.14711 22.8813 7.07494C23.0001 7.9587 23 9.07533 23 10.4295V13.5705C23 14.9247 23.0001 16.0413 22.8813 16.9251C22.7565 17.8529 22.4845 18.6723 21.8284 19.3284C21.1723 19.9845 20.3529 20.2565 19.4251 20.3813C18.5413 20.5001 17.4247 20.5 16.0705 20.5H7.92946C6.57533 20.5 5.4587 20.5001 4.57494 20.3813C3.64711 20.2565 2.82768 19.9845 2.17158 19.3284C1.51547 18.6723 1.2435 17.8529 1.11875 16.9251C0.999936 16.0413 0.999966 14.9247 1 13.5706V10.4294C0.999966 9.07531 0.999936 7.9587 1.11875 7.07494C1.2435 6.14711 1.51547 5.32768 2.17158 4.67158C2.82768 4.01547 3.64711 3.7435 4.57494 3.61875C5.4587 3.49994 6.57531 3.49997 7.92943 3.5ZM4.84143 5.60092C4.13538 5.69585 3.80836 5.86322 3.58579 6.08579C3.36322 6.30836 3.19585 6.63538 3.10092 7.34143C3.00213 8.07625 3 9.05752 3 10.5V13.5C3 14.9425 3.00213 15.9238 3.10092 16.6586C3.19585 17.3646 3.36322 17.6916 3.58579 17.9142C3.80836 18.1368 4.13538 18.3042 4.84143 18.3991C5.57625 18.4979 6.55752 18.5 8 18.5H16C17.4425 18.5 18.4237 18.4979 19.1586 18.3991C19.8646 18.3042 20.1916 18.1368 20.4142 17.9142C20.6368 17.6916 20.8042 17.3646 20.8991 16.6586C20.9979 15.9238 21 14.9425 21 13.5V10.5C21 9.05752 20.9979 8.07625 20.8991 7.34143C20.8042 6.63538 20.6368 6.30836 20.4142 6.08579C20.1916 5.86322 19.8646 5.69585 19.1586 5.60092C18.4237 5.50213 17.4425 5.5 16 5.5H8C6.55752 5.5 5.57625 5.50213 4.84143 5.60092Z" fill="black"/>
</svg>
