<svg width="40" height="40" viewBox="0 0 40 40" fill="none" xmlns="http://www.w3.org/2000/svg">
<path d="M14.9997 10.0007C12.2383 10.0007 9.99968 12.2392 9.99968 15.0007C9.99968 17.7621 12.2383 20.0007 14.9997 20.0007C17.7611 20.0007 19.9997 17.7621 19.9997 15.0007C19.9997 12.2392 17.7611 10.0007 14.9997 10.0007ZM13.333 15.0007C13.333 14.0802 14.0792 13.334 14.9997 13.334C15.9201 13.334 16.6663 14.0802 16.6663 15.0007C16.6663 15.9211 15.9201 16.6673 14.9997 16.6673C14.0792 16.6673 13.333 15.9211 13.333 15.0007Z" fill="white" fill-opacity="0.85"/>
<path d="M18.2111 3.33399H21.7883C24.8274 3.33394 27.277 3.3339 29.2036 3.59293C31.2038 3.86185 32.888 4.43717 34.2256 5.77476C35.5632 7.11236 36.1385 8.79652 36.4074 10.7968C36.6664 12.7234 36.6664 15.173 36.6663 18.2121V21.7892C36.6664 24.8283 36.6664 27.2779 36.4074 29.2045C36.1385 31.2048 35.5632 32.889 34.2256 34.2265C32.888 35.5641 31.2038 36.1395 29.2036 36.4084C27.277 36.6674 24.8274 36.6674 21.7882 36.6673H18.2111C15.172 36.6674 12.7224 36.6674 10.7958 36.4084C8.79555 36.1395 7.11138 35.5641 5.77379 34.2265C4.4362 32.889 3.86088 31.2048 3.59195 29.2045C3.33293 27.278 3.33296 24.8284 3.33301 21.7893V18.212C3.33296 15.173 3.33293 12.7233 3.59195 10.7968C3.86088 8.79652 4.4362 7.11236 5.77379 5.77476C7.11138 4.43717 8.79555 3.86185 10.7958 3.59293C12.7224 3.3339 15.172 3.33394 18.2111 3.33399ZM11.2399 6.89654C9.60933 7.11577 8.74584 7.51676 8.13081 8.13179C7.51578 8.74682 7.11479 9.61031 6.89556 11.2409C6.66988 12.9195 6.66634 15.1442 6.66634 18.334V21.6673C6.66634 24.8571 6.66988 27.0818 6.89556 28.7604C7.11479 30.391 7.51578 31.2545 8.13081 31.8695C8.61457 32.3533 9.25204 32.7046 10.2956 32.9392L10.8702 32.1731C13.8285 28.2276 15.59 25.8784 17.9065 24.4073C19.9866 23.0863 22.36 22.2981 24.8171 22.1124C27.1937 21.9328 29.631 22.5344 33.3303 23.6077C33.3328 23.0033 33.333 22.358 33.333 21.6673V18.334C33.333 15.1442 33.3295 12.9195 33.1038 11.2409C32.8846 9.61031 32.4836 8.74682 31.8685 8.13179C31.2535 7.51676 30.39 7.11577 28.7594 6.89654C27.0809 6.67086 24.8562 6.66732 21.6663 6.66732H18.333C15.1432 6.66732 12.9185 6.67086 11.2399 6.89654ZM18.333 33.334H21.6663C24.8562 33.334 27.0809 33.3304 28.7594 33.1048C30.39 32.8855 31.2535 32.4845 31.8685 31.8695C32.4836 31.2545 32.8846 30.391 33.1038 28.7604C33.1727 28.2481 33.2209 27.6849 33.2546 27.059C28.9399 25.799 26.9453 25.2944 25.0684 25.4363C23.1573 25.5807 21.3113 26.1937 19.6934 27.2212C18.1216 28.2194 16.8359 29.7934 14.1909 33.3033C15.3621 33.3331 16.7249 33.334 18.333 33.334Z" fill="white" fill-opacity="0.85"/>
</svg>
