<svg width="24" height="24" viewBox="0 0 24 24" fill="none" xmlns="http://www.w3.org/2000/svg">
<path d="M22.0001 23H9.14194C4.07904 23 -0.197725 18.7817 0.00706321 13.6496C0.200399 8.80311 4.34436 4.99998 9.14194 4.99998H13.0001V3.41422C13.0001 0.741515 16.2315 -0.597004 18.1214 1.2929L22.7072 5.87868C24.5971 7.76858 23.2586 11 20.5859 11H16.0001L15.9931 11H9.14194C7.44283 11 6.06244 12.3811 6.00229 13.8888C5.93911 15.4723 7.34098 17 9.14194 17H22.0001V23Z" fill="white"/>
<path d="M16 9.00002H20.5858C21.4767 9.00002 21.9229 7.92288 21.2929 7.29292L16.7071 2.70713C16.0771 2.07716 15 2.52333 15 3.41424V7H9.14186C5.37525 7 2.15426 9.9976 2.00539 13.7294C1.8479 17.6761 5.16374 21 9.14186 21H20V19H9.14186C6.25076 19 3.89352 16.5727 4.0038 13.8091C4.10826 11.1905 6.40786 9 9.14186 9H15.993C15.9953 9.00002 15.9977 9.00002 16 9.00002Z" fill="black" fill-opacity="0.85"/>
</svg>
