<svg width="24" height="24" viewBox="0 0 24 24" fill="none" xmlns="http://www.w3.org/2000/svg">
<path d="M6.7667 12C6.7667 11.4155 6.86647 10.8548 7.04298 10.3294L3.94398 8.01282C3.32134 9.24969 2.99801 10.6154 3.00001 12C3.00001 13.4329 3.33923 14.7845 3.94245 15.9842L7.03991 13.6638C6.85931 13.1277 6.76703 12.5658 6.7667 12Z" fill="#FBBC05"/>
<path d="M12.2096 6.68192C13.5066 6.68192 14.6785 7.13142 15.5995 7.86781L18.2787 5.24981C16.6463 3.85912 14.5534 3 12.2096 3C8.57034 3 5.44217 5.03656 3.94409 8.01278L7.04463 10.3293C7.75836 8.20762 9.79367 6.68192 12.2096 6.68192Z" fill="#EA4335"/>
<path d="M12.2096 17.3181C9.7929 17.3181 7.7576 15.7924 7.04309 13.6707L3.94409 15.9872C5.4414 18.9634 8.56957 21 12.2096 21C14.4552 21 16.5995 20.2199 18.2096 18.7571L15.2672 16.531C14.4376 17.0427 13.3923 17.3181 12.2089 17.3181" fill="#34A853"/>
<path d="M20.9997 11.9999C20.9997 11.4683 20.9153 10.8953 20.7902 10.3638H12.2085V13.8409H17.1479C16.9015 15.0268 16.2292 15.938 15.2676 16.531L18.2093 18.757C19.9 17.2213 20.9997 14.934 20.9997 11.9999Z" fill="#4285F4"/>
</svg>
