<svg width="24" height="24" viewBox="0 0 24 24" fill="none" xmlns="http://www.w3.org/2000/svg">
<path d="M12.3088 11.505L3.08252 21.1713C3.18612 21.5384 3.3723 21.8771 3.62683 22.1613C3.88136 22.4455 4.19751 22.6677 4.55109 22.811C4.90468 22.9543 5.28635 23.0148 5.66692 22.988C6.0475 22.9612 6.4169 22.8477 6.74689 22.6563L17.1281 16.7438L12.3088 11.505Z" fill="#EA4335"/>
<path d="M21.6382 9.8619L17.1488 7.29065L12.0957 11.725L17.1695 16.73L21.6245 14.1863C22.0191 13.9796 22.3497 13.6689 22.5804 13.2877C22.8111 12.9066 22.933 12.4696 22.933 12.0241C22.933 11.5786 22.8111 11.1416 22.5804 10.7604C22.3497 10.3793 22.0191 10.0685 21.6245 9.8619H21.6382Z" fill="#FBBC04"/>
<path d="M3.08253 2.82874C3.02676 3.03491 2.99901 3.24765 3.00003 3.46124V20.5387C3.00058 20.7522 3.02831 20.9648 3.08253 21.1712L12.625 11.7525L3.08253 2.82874Z" fill="#4285F4"/>
<path d="M12.3775 12L17.1488 7.29063L6.78127 1.35063C6.39124 1.1222 5.94764 1.00122 5.49564 1C4.94976 0.998923 4.41849 1.17637 3.98282 1.50529C3.54715 1.83421 3.23099 2.29657 3.08252 2.82188L12.3775 12Z" fill="#34A853"/>
</svg>
