<svg width="24" height="18" viewBox="0 0 24 18" fill="none" xmlns="http://www.w3.org/2000/svg">
<path d="M10.4299 5.21495C10.4299 2.34737 8.08139 0 5.21496 0C2.34737 0 0 2.34852 0 5.21495C0 8.08254 2.34852 10.4299 5.21496 10.4299C8.08254 10.4309 10.4299 8.08235 10.4299 5.21495ZM5.21496 9.44158C2.8913 9.44158 0.988326 7.53851 0.988326 5.21495C0.988326 2.8914 2.8914 0.988326 5.21496 0.988326C7.53861 0.988326 9.44158 2.8914 9.44158 5.21495C9.44158 7.53851 7.53851 9.44158 5.21496 9.44158Z" fill="black"/>
<path d="M18.785 7.56348C15.9174 7.56348 13.5701 9.91199 13.5701 12.7784C13.5701 15.646 15.9186 17.9934 18.785 17.9934C21.6516 17.9934 24 15.6458 24 12.7784C24 9.91182 21.6515 7.56348 18.785 7.56348ZM17.0301 16.6096L22.616 11.0237C22.7393 11.2952 22.8387 11.6173 22.9123 11.9136L17.919 16.9069C17.5979 16.8572 17.3016 16.7578 17.0301 16.6096ZM15.992 15.9424L21.9489 9.98557C22.1468 10.1834 22.2949 10.43 22.4431 10.6528L16.6592 16.4366C16.4116 16.2885 16.1889 16.1154 15.992 15.9424ZM15.2006 15.0029L21.0092 9.19428C21.2567 9.34243 21.4785 9.51544 21.6764 9.7133L15.6948 15.6712C15.4969 15.4484 15.3487 15.2256 15.2006 15.0029ZM14.6816 13.7679L19.7734 8.67603C20.0698 8.75059 20.367 8.84904 20.6385 8.9972L15.0029 14.6328C14.8548 14.3604 14.7561 14.0642 14.6816 13.7679ZM19.3041 8.57669L14.5832 13.2976C14.5584 13.1246 14.5584 12.9516 14.5584 12.7786C14.5584 12.5559 14.5832 12.3341 14.6081 12.1114L18.1427 8.60148C18.3405 8.57662 18.5633 8.55177 18.785 8.55177C18.958 8.55177 19.1311 8.57669 19.3041 8.57669ZM17.4001 8.7994L14.8051 11.3697C15.2257 10.1586 16.1891 9.21998 17.4001 8.7994ZM18.3894 16.9806L22.987 12.4077C22.987 12.531 23.0118 12.6552 23.0118 12.7785C23.0118 13.0748 22.987 13.3473 22.9373 13.6187L19.5757 16.9307C19.3281 16.9804 19.0566 17.0052 18.7852 17.0052C18.6609 17.0052 18.5127 17.0054 18.3894 16.9806ZM20.3909 16.6843L22.6897 14.4103C22.2453 15.4483 21.4051 16.2637 20.3909 16.6843Z" fill="black"/>
<path d="M15.6698 5.4379C15.4968 5.46275 15.3735 5.5612 15.299 5.7342C15.2005 5.98176 15.299 6.27809 15.5704 6.37653L16.5588 6.79711C16.6333 6.82196 16.6821 6.84681 16.7566 6.84681C16.9545 6.84681 17.1275 6.74836 17.2011 6.55051L17.6456 5.58702C17.7689 5.33946 17.6456 5.04314 17.398 4.91984C17.1504 4.79653 16.8541 4.91984 16.7308 5.16739V5.19225C16.36 4.64836 15.8658 4.17906 15.297 3.83303C14.2093 3.16585 12.9246 2.96799 11.6391 3.26431C11.3676 3.31401 11.1946 3.58548 11.2682 3.8579C11.3179 4.12936 11.5894 4.30236 11.8618 4.22876C12.875 4.00604 13.913 4.1542 14.7781 4.67322C15.1021 4.89402 15.3984 5.1416 15.6698 5.4379Z" fill="black"/>
<path d="M11.7902 13.743C10.777 13.9657 9.73895 13.8176 8.8739 13.2986C8.52787 13.0759 8.23157 12.8292 7.95915 12.532C8.10731 12.5071 8.25546 12.4087 8.30518 12.2357C8.40363 11.9881 8.30518 11.6918 8.03371 11.5934L7.04536 11.1728C6.92206 11.1231 6.7739 11.1231 6.64964 11.1728C6.52634 11.2225 6.42693 11.3209 6.37817 11.4442L6.00636 12.4326C5.90791 12.6801 6.03121 12.9765 6.27782 13.0749C6.32753 13.0998 6.40113 13.0998 6.45083 13.0998C6.64869 13.0998 6.82169 12.9765 6.8953 12.8035C7.26616 13.3474 7.73548 13.7918 8.30421 14.1378C9.07079 14.6071 9.93584 14.8547 10.8258 14.8547C11.1967 14.8547 11.5675 14.805 11.9623 14.7314C12.2337 14.6817 12.4067 14.4102 12.3331 14.1378C12.2595 13.8663 12.0368 13.6933 11.7902 13.743Z" fill="black"/>
</svg>
