<svg width="24" height="24" viewBox="0 0 24 24" fill="none" xmlns="http://www.w3.org/2000/svg">
<path d="M6.5 14.5C7.32843 14.5 8 13.8284 8 13C8 12.1716 7.32843 11.5 6.5 11.5C5.67157 11.5 5 12.1716 5 13C5 13.8284 5.67157 14.5 6.5 14.5Z" fill="black"/>
<path d="M12 13C12 13.8284 11.3284 14.5 10.5 14.5C9.67157 14.5 9 13.8284 9 13C9 12.1716 9.67157 11.5 10.5 11.5C11.3284 11.5 12 12.1716 12 13Z" fill="black"/>
<path d="M14.5 14.5C15.3284 14.5 16 13.8284 16 13C16 12.1716 15.3284 11.5 14.5 11.5C13.6716 11.5 13 12.1716 13 13C13 13.8284 13.6716 14.5 14.5 14.5Z" fill="black"/>
<path d="M22.9999 13C22.9999 15.1635 21.6258 17.0061 19.7026 17.7026C19.0062 19.6258 17.1636 21 15 21H11.7361L6.94721 23.3944C6.63723 23.5494 6.26909 23.5329 5.97427 23.3507C5.67945 23.1684 5.5 22.8466 5.5 22.5V20.9753C2.97334 20.7244 1 18.5927 1 16V10C1 7.83646 2.37415 5.99387 4.29729 5.29741C4.99373 3.37421 6.83634 2 8.99993 2H17.9999C20.7614 2 22.9999 4.23858 22.9999 7V13ZM15 5C17.7614 5 20 7.23858 20 10V15.236C20.6137 14.6867 20.9999 13.8885 20.9999 13V7C20.9999 5.34315 19.6568 4 17.9999 4H8.99993C8.11143 4 7.31314 4.38625 6.76382 5H15ZM6 7C4.34315 7 3 8.34315 3 10V16C3 17.6569 4.34315 19 6 19H6.5C7.05228 19 7.5 19.4477 7.5 20V20.882L11.0528 19.1056C11.1916 19.0361 11.3448 19 11.5 19H15C16.6569 19 18 17.6569 18 16V10C18 8.34315 16.6569 7 15 7H6Z" fill="black"/>
</svg>
