<svg width="20" height="20" viewBox="0 0 20 20" fill="none" xmlns="http://www.w3.org/2000/svg">
<path d="M7.91699 6.45964C7.91699 7.26504 7.26407 7.91797 6.45866 7.91797C5.65325 7.91797 5.00033 7.26504 5.00033 6.45964C5.00033 5.65423 5.65325 5.0013 6.45866 5.0013C7.26407 5.0013 7.91699 5.65423 7.91699 6.45964Z" fill="white" fill-opacity="0.85"/>
<path d="M9.2258 1.66797H7.44152C6.3131 1.66794 5.38257 1.66792 4.64611 1.76693C3.87292 1.87088 3.19006 2.09753 2.64331 2.64428C2.09655 3.19104 1.86991 3.87389 1.76596 4.64709C1.66694 5.38354 1.66696 6.31404 1.66699 7.44246V9.22678C1.66696 10.3552 1.66694 11.2857 1.76596 12.0222C1.86991 12.7954 2.09655 13.4782 2.64331 14.025C3.19006 14.5718 3.87292 14.7984 4.64611 14.9023C5.38257 15.0014 6.31308 15.0013 7.44152 15.0013H9.22581C10.3542 15.0013 11.2848 15.0014 12.0212 14.9023C12.7944 14.7984 13.4773 14.5718 14.024 14.025C14.5708 13.4782 14.7974 12.7954 14.9014 12.0222C15.0004 11.2857 15.0004 10.3552 15.0003 9.22678V7.44249C15.0004 6.31406 15.0004 5.38355 14.9014 4.64709C14.7974 3.87389 14.5708 3.19104 14.024 2.64428C13.4773 2.09753 12.7944 1.87088 12.0212 1.76693C11.2848 1.66792 10.3542 1.66794 9.2258 1.66797ZM3.82182 3.82279C4.00729 3.63732 4.27981 3.49784 4.86819 3.41874C5.48054 3.33641 6.29826 3.33464 7.50033 3.33464H9.167C10.3691 3.33464 11.1868 3.33641 11.7991 3.41874C12.3875 3.49784 12.66 3.63732 12.8455 3.82279C13.031 4.00827 13.1705 4.28079 13.2496 4.86917C13.3319 5.48152 13.3337 6.29924 13.3337 7.5013V9.16797C13.3337 9.37388 13.3336 9.56851 13.3331 9.75276C13.0903 9.69873 12.8597 9.65152 12.6397 9.61183C11.7116 9.44441 10.9142 9.39888 10.1104 9.5522C9.50162 9.66833 8.91171 9.86762 8.35725 10.1445C7.62515 10.5101 7.01878 11.0298 6.38235 11.7258C5.98913 12.1559 5.5697 12.6701 5.09351 13.2764C5.17323 13.2842 5.25622 13.2909 5.3428 13.2967C5.17135 13.2852 5.01395 13.2701 4.86819 13.2505C4.27981 13.1714 4.00729 13.032 3.82182 12.8465C3.63634 12.661 3.49687 12.3885 3.41776 11.8001C3.33543 11.1878 3.33366 10.37 3.33366 9.16797V7.5013C3.33366 6.29924 3.33543 5.48152 3.41776 4.86917C3.49687 4.28079 3.63634 4.00827 3.82182 3.82279ZM12.3438 11.252C12.6321 11.304 12.9433 11.3709 13.2864 11.452C13.2764 11.5752 13.2642 11.6909 13.2496 11.8001C13.1705 12.3885 13.031 12.661 12.8455 12.8465C12.66 13.032 12.3875 13.1714 11.7991 13.2505C11.1868 13.3329 10.3691 13.3346 9.167 13.3346L7.18902 13.3345C7.33609 13.16 7.47638 12.9992 7.61232 12.8505C8.17219 12.2383 8.61939 11.8765 9.10182 11.6356C9.51957 11.427 9.96401 11.2768 10.4227 11.1894C10.9523 11.0883 11.5273 11.1047 12.3438 11.252Z" fill="white" fill-opacity="0.85"/>
<path d="M18.3337 7.5013C18.3337 7.04107 17.9606 6.66797 17.5003 6.66797C17.0401 6.66797 16.667 7.04107 16.667 7.5013C16.667 9.88188 16.6652 11.5835 16.4914 12.8766C16.3207 14.1458 15.9982 14.896 15.4466 15.4476C14.895 15.9992 14.1448 16.3217 12.8756 16.4923C11.5825 16.6662 9.88091 16.668 7.50033 16.668H6.66699C6.20676 16.668 5.83366 17.0411 5.83366 17.5013C5.83366 17.9615 6.20676 18.3346 6.66699 18.3346H7.5636C9.86698 18.3347 11.6807 18.3347 13.0977 18.1441C14.5517 17.9487 15.7122 17.539 16.6251 16.6261C17.538 15.7132 17.9477 14.5527 18.1432 13.0987C18.3337 11.6816 18.3337 9.86795 18.3337 7.56458V7.5013Z" fill="white" fill-opacity="0.85"/>
</svg>
