<svg width="24" height="24" viewBox="0 0 24 24" fill="none" xmlns="http://www.w3.org/2000/svg">
<path d="M7 8C7 5.23858 9.23858 3 12 3C14.7614 3 17 5.23858 17 8V16C17 18.7614 14.7614 21 12 21V23C15.5571 23 18.4944 20.3469 18.9412 16.9116C21.2527 16.4713 23 14.4397 23 12C23 9.5603 21.2527 7.52872 18.9412 7.08845C18.4944 3.65314 15.5571 1 12 1C8.44295 1 5.50555 3.65314 5.05881 7.08845C2.74733 7.52872 1 9.5603 1 12C1 14.7614 3.23858 17 6 17C6.55228 17 7 16.5523 7 16V8ZM5 14.8293C3.83481 14.4175 3 13.3062 3 12C3 10.6938 3.83481 9.58254 5 9.1707V14.8293ZM19 9.1707C20.1652 9.58254 21 10.6938 21 12C21 13.3062 20.1652 14.4175 19 14.8293V9.1707Z" fill="black"/>
</svg>
