<svg width="24" height="24" viewBox="0 0 24 24" fill="none" xmlns="http://www.w3.org/2000/svg">
<path d="M11.9982 2C12.5505 1.99903 12.999 2.44596 13 2.99824L13.0027 4.55058C14.4009 4.69166 15.7069 5.11913 16.8635 5.72228L19.2929 3.29289C19.6834 2.90237 20.3166 2.90237 20.7071 3.29289C21.0976 3.68342 21.0976 4.31658 20.7071 4.70711L18.5869 6.82736C18.7335 6.94106 18.8761 7.05737 19.0145 7.17592C20.7522 8.66444 22 10.667 22 12.5C22 14.333 20.7522 16.3356 19.0145 17.8241C17.2376 19.3462 14.7639 20.5 12 20.5C9.95093 20.5 8.0615 19.8655 6.49723 18.917L4.70711 20.7071C4.31658 21.0976 3.68342 21.0976 3.29289 20.7071C2.90237 20.3166 2.90237 19.6834 3.29289 19.2929L4.86635 17.7194C3.19119 16.2422 2 14.2895 2 12.5C2 10.6684 3.24791 8.6658 4.98539 7.17709C5.434 6.79271 5.92702 6.43178 6.45791 6.10696L5.8191 5.2156C5.49738 4.76669 5.60048 4.14198 6.04939 3.82026C6.49829 3.49854 7.12301 3.60165 7.44473 4.05055L8.27404 5.20772C9.12798 4.8775 10.0437 4.64636 11.0027 4.55006L11 3.00176C10.999 2.44948 11.446 2.00097 11.9982 2ZM7.96248 17.4517C9.15884 18.094 10.54 18.5 12 18.5C14.2066 18.5 16.233 17.5733 17.7134 16.3052C19.233 15.0034 20 13.506 20 12.5C20 11.494 19.233 9.99656 17.7134 8.69484C17.5362 8.54306 17.3512 8.39618 17.159 8.25519L15.2486 10.1656C15.7215 10.8226 16 11.6288 16 12.5C16 14.7091 14.2091 16.5 12 16.5C11.1288 16.5 10.3226 16.2215 9.66565 15.7486L7.96248 17.4517ZM8.38062 14.2052C8.1365 13.6879 8 13.1099 8 12.5C8 10.2909 9.79086 8.5 12 8.5C12.6099 8.5 13.1879 8.6365 13.7052 8.88062L15.3649 7.2209C14.3346 6.77119 13.1937 6.5 12 6.5C9.79359 6.5 7.76723 7.42729 6.28669 8.69584C4.76682 9.9981 4 11.4955 4 12.5C4 13.5039 4.7659 15.0001 6.28397 16.3018L8.38062 14.2052ZM11.1185 14.2957C11.3844 14.4265 11.6836 14.5 12 14.5C13.1046 14.5 14 13.6046 14 12.5C14 12.1836 13.9265 11.8844 13.7957 11.6185L11.1185 14.2957ZM12.0841 10.5017C12.0562 10.5006 12.0282 10.5 12 10.5C10.8954 10.5 10 11.3954 10 12.5C10 12.5282 10.0006 12.5562 10.0017 12.5841L12.0841 10.5017Z" fill="black"/>
</svg>
