<svg width="24" height="24" viewBox="0 0 24 24" fill="none" xmlns="http://www.w3.org/2000/svg">
<path d="M18.6234 12.0716L20.6155 14.9566C20.9522 15.4441 20.8296 16.1121 20.3416 16.4486C19.8536 16.785 19.1851 16.6624 18.8484 16.1749L16.574 12.881C15.4661 13.2224 14.2891 13.4413 13.0735 13.5228V17.4512C13.0735 18.0436 12.5928 18.5238 12 18.5238C11.4072 18.5238 10.9265 18.0436 10.9265 17.4512V13.5228C9.7109 13.4413 8.53386 13.2224 7.42604 12.881L5.15157 16.1749C4.81487 16.6624 4.14637 16.785 3.65841 16.4486C3.17043 16.1121 3.04779 15.4441 3.38449 14.9566L5.37664 12.0716C3.69202 11.2458 2.25689 10.1039 1.21491 8.71645C0.859096 8.24262 0.955028 7.5703 1.42921 7.21474C1.90341 6.85921 2.57626 6.95506 2.9321 7.42887C4.75465 9.85571 8.18563 11.4135 12 11.4135C15.8144 11.4135 19.2453 9.85571 21.0679 7.42887C21.4237 6.95506 22.0966 6.85921 22.5708 7.21474C23.045 7.5703 23.1409 8.24262 22.7851 8.71645C21.7431 10.1039 20.308 11.2458 18.6234 12.0716Z" fill="black"/>
</svg>
