<svg width="24" height="24" viewBox="0 0 24 24" fill="none" xmlns="http://www.w3.org/2000/svg">
<path d="M7.54555 6H5.29152C6.94031 4.15769 9.33535 3 12 3C16.9706 3 21 7.02943 21 12C21 16.9706 16.9706 21 12 21C7.02943 21 3 16.9706 3 12H1C1 18.0751 5.92487 23 12 23C18.0751 23 23 18.0751 23 12C23 5.92487 18.0751 1 12 1C8.79919 1 5.91846 2.36743 3.90918 4.54768V2.36365H1.90918V7C1.90918 7.55229 2.35689 8 2.90918 8H7.54555V6Z" fill="black"/>
<path d="M11.0026 5.99988L11.002 12.0043C11.0019 12.2695 11.1073 12.5239 11.2948 12.7115L15.5345 16.9512L16.9488 15.537L13.002 11.5902L13.0026 6.00008L11.0026 5.99988Z" fill="black"/>
</svg>
