<svg width="24" height="24" viewBox="0 0 24 24" fill="none" xmlns="http://www.w3.org/2000/svg">
<path d="M6 2C3.79086 2 2 3.79086 2 6V18C2 20.2091 3.79086 22 6 22H11C11 22.5523 11.4477 23 12 23V22V21V4C12 2.89543 11.1046 2 10 2H6Z" fill="#2491FF"/>
<path d="M6 2C3.79086 2 2 3.79086 2 6V18C2 20.2091 3.79086 22 6 22H11C11 22.5523 11.4477 23 12 23V22V21V4C12 2.89543 11.1046 2 10 2H6Z" fill="url(#paint0_linear_19649_117540)"/>
<path d="M18 2C20.2091 2 22 3.79086 22 6V18C22 20.2091 20.2091 22 18 22H13C13 22.5523 12.5523 23 12 23V22V21V4C12 2.89543 12.8954 2 14 2H18Z" fill="#2491FF"/>
<path d="M18 2C20.2091 2 22 3.79086 22 6V18C22 20.2091 20.2091 22 18 22H13C13 22.5523 12.5523 23 12 23V22V21V4C12 2.89543 12.8954 2 14 2H18Z" fill="url(#paint1_linear_19649_117540)"/>
<g filter="url(#filter0_d_19649_117540)">
<path d="M7.26623 5.15075C7.3576 4.94975 7.6424 4.94975 7.73377 5.15075L8.6046 7.06635C8.6247 7.11058 8.65688 7.1482 8.69741 7.17487L10.3841 8.28467C10.5386 8.38639 10.5386 8.61361 10.3841 8.71533L8.69741 9.82513C8.65688 9.8518 8.6247 9.88942 8.6046 9.93365L7.73377 11.8493C7.6424 12.0502 7.3576 12.0502 7.26623 11.8493L6.3954 9.93365C6.3753 9.88942 6.34312 9.8518 6.30259 9.82513L4.61594 8.71533C4.46135 8.61361 4.46135 8.38639 4.61594 8.28467L6.30259 7.17487C6.34312 7.1482 6.3753 7.11058 6.3954 7.06635L7.26623 5.15075Z" fill="#2491FF"/>
</g>
<path d="M13.2094 19.3798L11.0757 12.3223C10.8447 11.5581 11.5582 10.8446 12.3223 11.0757L19.3798 13.2093C20.16 13.4452 20.719 14.1309 20.7928 14.9427L20.9002 16.1237C20.9539 16.7148 20.7423 17.2992 20.3226 17.719L17.719 20.3226C17.2993 20.7423 16.7149 20.9539 16.1237 20.9001L14.9427 20.7928C14.131 20.719 13.4453 20.16 13.2094 19.3798Z" fill="#2491FF"/>
<path d="M11.141 12.5381C11.1713 12.5797 11.2052 12.6194 11.2427 12.6569L14.7782 16.1924C15.1687 16.5829 15.8019 16.5829 16.1924 16.1924C16.5829 15.8019 16.5829 15.1687 16.1924 14.7782L12.6569 11.2426C12.6194 11.2052 12.5797 11.1713 12.5382 11.141L12.3224 11.0757C11.5582 10.8447 10.8448 11.5582 11.0758 12.3223L11.141 12.5381Z" fill="#2491FF"/>
<path d="M11.141 12.5381C11.1713 12.5797 11.2052 12.6194 11.2427 12.6569L14.7782 16.1924C15.1687 16.5829 15.8019 16.5829 16.1924 16.1924C16.5829 15.8019 16.5829 15.1687 16.1924 14.7782L12.6569 11.2426C12.6194 11.2052 12.5797 11.1713 12.5382 11.141L12.3224 11.0757C11.5582 10.8447 10.8448 11.5582 11.0758 12.3223L11.141 12.5381Z" fill="black" fill-opacity="0.2"/>
<path d="M17.6065 20.435L20.435 17.6065L22.0225 18.4003C22.6329 18.7055 22.765 19.5192 22.2823 20.0018L20.0018 22.2823C19.5192 22.765 18.7055 22.6329 18.4003 22.0224L17.6065 20.435Z" fill="#2491FF"/>
<path d="M17.6065 20.435L20.435 17.6065L22.0225 18.4003C22.6329 18.7055 22.765 19.5192 22.2823 20.0018L20.0018 22.2823C19.5192 22.765 18.7055 22.6329 18.4003 22.0224L17.6065 20.435Z" fill="black" fill-opacity="0.2"/>
<defs>
<filter id="filter0_d_19649_117540" x="3.07143" y="3.57143" width="8.85714" height="9.85714" filterUnits="userSpaceOnUse" color-interpolation-filters="sRGB">
<feFlood flood-opacity="0" result="BackgroundImageFix"/>
<feColorMatrix in="SourceAlpha" type="matrix" values="0 0 0 0 0 0 0 0 0 0 0 0 0 0 0 0 0 0 127 0" result="hardAlpha"/>
<feOffset/>
<feGaussianBlur stdDeviation="0.714286"/>
<feComposite in2="hardAlpha" operator="out"/>
<feColorMatrix type="matrix" values="0 0 0 0 0.141176 0 0 0 0 0.568627 0 0 0 0 1 0 0 0 0.5 0"/>
<feBlend mode="normal" in2="BackgroundImageFix" result="effect1_dropShadow_19649_117540"/>
<feBlend mode="normal" in="SourceGraphic" in2="effect1_dropShadow_19649_117540" result="shape"/>
</filter>
<linearGradient id="paint0_linear_19649_117540" x1="2" y1="2" x2="12" y2="22" gradientUnits="userSpaceOnUse">
<stop stop-color="#1AFF9F"/>
<stop offset="1" stop-color="#1AFF9F" stop-opacity="0.7"/>
</linearGradient>
<linearGradient id="paint1_linear_19649_117540" x1="20.15" y1="2" x2="16" y2="15" gradientUnits="userSpaceOnUse">
<stop stop-color="#1AFF9F" stop-opacity="0.9"/>
<stop offset="1" stop-color="#1AFF9F" stop-opacity="0.65"/>
</linearGradient>
</defs>
</svg>
