<svg width="24" height="24" viewBox="0 0 24 24" fill="none" xmlns="http://www.w3.org/2000/svg">
<path d="M9 6C7.34316 6 6 7.34316 6 9C6 10.6568 7.34316 12 9 12C10.6568 12 12 10.6568 12 9C12 7.34316 10.6568 6 9 6ZM8 9C8 8.44772 8.44772 8 9 8C9.55228 8 10 8.44772 10 9C10 9.55228 9.55228 10 9 10C8.44772 10 8 9.55228 8 9Z" fill="black"/>
<path d="M10.9268 2H13.0732C14.8966 1.99997 16.3664 1.99995 17.5223 2.15537C18.7225 2.31672 19.733 2.66191 20.5355 3.46447C21.3381 4.26702 21.6833 5.27752 21.8446 6.47767C22.0001 7.63363 22 9.1034 22 10.9269V13.0731C22 14.8966 22.0001 16.3664 21.8446 17.5223C21.6833 18.7225 21.3381 19.733 20.5355 20.5355C19.733 21.3381 18.7225 21.6833 17.5223 21.8446C16.3664 22.0001 14.8966 22 13.0731 22H10.9269C9.1034 22 7.63363 22.0001 6.47767 21.8446C5.27752 21.6833 4.26702 21.3381 3.46447 20.5355C2.66191 19.733 2.31672 18.7225 2.15537 17.5223C1.99995 16.3664 1.99997 14.8966 2 13.0732V10.9268C1.99997 9.10339 1.99995 7.63362 2.15537 6.47767C2.31672 5.27752 2.66191 4.26702 3.46447 3.46447C4.26702 2.66191 5.27752 2.31672 6.47767 2.15537C7.63362 1.99995 9.10339 1.99997 10.9268 2ZM6.74416 4.13753C5.7658 4.26907 5.2477 4.50966 4.87868 4.87868C4.50966 5.2477 4.26907 5.76579 4.13753 6.74416C4.00213 7.7513 4 9.08611 4 11V13C4 14.9139 4.00213 16.2487 4.13753 17.2558C4.26907 18.2342 4.50966 18.7523 4.87868 19.1213C5.16894 19.4116 5.55142 19.6224 6.17757 19.7632L6.52231 19.3035C8.29731 16.9362 9.35419 15.5266 10.7441 14.644C11.9921 13.8514 13.4162 13.3785 14.8905 13.2671C16.3164 13.1593 17.7788 13.5202 19.9984 14.1643C19.9999 13.8016 20 13.4144 20 13V11C20 9.08611 19.9979 7.7513 19.8625 6.74416C19.7309 5.7658 19.4903 5.2477 19.1213 4.87868C18.7523 4.50966 18.2342 4.26907 17.2558 4.13753C16.2487 4.00213 14.9139 4 13 4H11C9.08611 4 7.7513 4.00213 6.74416 4.13753ZM11 20H13C14.9139 20 16.2487 19.9979 17.2558 19.8625C18.2342 19.7309 18.7523 19.4903 19.1213 19.1213C19.4903 18.7523 19.7309 18.2342 19.8625 17.2558C19.9038 16.9485 19.9327 16.6106 19.9529 16.235C17.3641 15.479 16.1674 15.1762 15.0412 15.2614C13.8946 15.348 12.787 15.7159 11.8162 16.3323C10.8731 16.9312 10.1017 17.8757 8.51473 19.9816C9.21745 19.9995 10.0351 20 11 20Z" fill="black"/>
</svg>
