<svg width="24" height="24" viewBox="0 0 24 24" fill="none" xmlns="http://www.w3.org/2000/svg">
<path d="M10.9268 2H13.0732C14.8966 1.99997 16.3664 1.99995 17.5223 2.15537C18.7225 2.31672 19.733 2.66191 20.5355 3.46447C21.3381 4.26702 21.6833 5.27752 21.8446 6.47767C21.8655 6.63273 21.8835 6.79343 21.8992 6.95988C21.8992 6.95993 21.898 6.97671 21.898 6.97676C21.907 7.50424 21.4614 7.98059 20.9312 7.99942C20.9311 7.99942 20.9234 8 20.9234 8C20.9097 8 20.9013 8 20.8987 8C20.8982 8 20.8973 8 20.8969 8C20.8965 8 20.8971 8 20.8969 8C20.3628 7.9991 19.9602 7.63597 19.9043 7.10482C19.9042 7.10464 19.9043 7.10524 19.9043 7.10482C19.9042 7.10441 19.9041 7.1035 19.9041 7.10306C19.9036 7.09875 19.9015 7.07861 19.8979 7.04329C19.8872 6.94041 19.8755 6.84078 19.8625 6.74416C19.7309 5.7658 19.4903 5.2477 19.1213 4.87868C18.7523 4.50967 18.2342 4.26907 17.2558 4.13753C16.2487 4.00213 14.9139 4 13 4H11C9.08612 4 7.7513 4.00213 6.74416 4.13753C5.7658 4.26907 5.2477 4.50967 4.87868 4.87868C4.50967 5.2477 4.26907 5.7658 4.13753 6.74416C4.00213 7.7513 4 9.08611 4 11V13C4 14.9139 4.00213 16.2487 4.13753 17.2558C4.26907 18.2342 4.50967 18.7523 4.87868 19.1213C5.13235 19.375 5.57734 19.5825 6.14855 19.7302C6.62944 19.8546 7 20.264 7 20.7607C7 21.3638 6.46414 21.8342 5.87696 21.6967C4.91524 21.4714 4.04644 21.1175 3.46447 20.5355C2.66191 19.733 2.31672 18.7225 2.15537 17.5223C1.99995 16.3664 1.99997 14.8966 2 13.0732V10.9268C1.99997 9.1034 1.99995 7.63362 2.15537 6.47767C2.31672 5.27752 2.66191 4.26702 3.46447 3.46447C4.26702 2.66191 5.27752 2.31672 6.47767 2.15537C7.63362 1.99995 9.1034 1.99997 10.9268 2Z" fill="black"/>
<path d="M6 9C6 7.34316 7.34316 6 9 6C10.6568 6 12 7.34316 12 9C12 10.6568 10.6568 12 9 12C7.34316 12 6 10.6568 6 9ZM9 8C8.44773 8 8 8.44773 8 9C8 9.55228 8.44773 10 9 10C9.55228 10 10 9.55228 10 9C10 8.44773 9.55228 8 9 8Z" fill="black"/>
<path d="M21.4906 11.5119C20.4272 10.4481 18.7027 10.4484 17.6397 11.5126L12.7215 16.4367C12.3768 16.781 12.0715 17.0859 11.8629 17.4691C11.6543 17.8523 11.5639 18.2741 11.4618 18.7505L11.0225 20.7894C10.9509 21.1212 11.0527 21.4667 11.2926 21.7068C11.5326 21.947 11.878 22.049 12.2099 21.9778L14.2577 21.5383C14.7356 21.4362 15.1588 21.3459 15.5431 21.1367C15.9273 20.9275 16.2329 20.6211 16.578 20.2751L21.4906 15.3603C22.5529 14.2974 22.5529 12.5747 21.4906 11.5119ZM19.0548 12.926C19.3367 12.6437 19.794 12.6436 20.076 12.9258C20.3578 13.2076 20.3578 13.6645 20.076 13.9464L15.2334 18.7912C14.7787 19.246 14.6846 19.3269 14.5868 19.3801C14.489 19.4334 14.37 19.4685 13.7412 19.6035L13.3037 19.6974L13.3962 19.2683C13.5313 18.6415 13.5664 18.5229 13.6195 18.4254C13.6726 18.3279 13.7531 18.234 14.2063 17.7803L19.0548 12.926Z" fill="black"/>
</svg>
