<svg width="24" height="24" viewBox="0 0 24 24" fill="none" xmlns="http://www.w3.org/2000/svg">
<path d="M13.5 7.5C13.5 6.67158 12.8284 6 12 6C11.1716 6 10.5 6.67158 10.5 7.5C10.5 8.32842 11.1716 9 12 9C12.8284 9 13.5 8.32842 13.5 7.5Z" fill="black"/>
<path d="M10 11.5C10 10.9477 10.4477 10.5 11 10.5H12C12.5523 10.5 13 10.9477 13 11.5V16H13.5C14.0523 16 14.5 16.4477 14.5 17C14.5 17.5523 14.0523 18 13.5 18H10.5C9.94771 18 9.5 17.5523 9.5 17C9.5 16.4477 9.94772 16 10.5 16H11V12.5C10.4477 12.5 10 12.0523 10 11.5Z" fill="black"/>
<path d="M12 1C8.96273 1 6.21136 2.23232 4.22183 4.22182C2.23233 6.21135 1 8.96273 1 12C1 15.0373 2.23231 17.7886 4.22182 19.7782C6.21135 21.7677 8.96273 23 12 23C15.0373 23 17.7886 21.7677 19.7782 19.7782C21.7677 17.7886 23 15.0373 23 12C23 8.96273 21.7677 6.21136 19.7782 4.22183C17.7886 2.23232 15.0373 1 12 1ZM5.63603 5.63604C7.26584 4.00626 9.51447 3 12 3C14.4855 3 16.7342 4.00627 18.3639 5.63604C19.9937 7.26584 21 9.51447 21 12C21 14.4855 19.9937 16.7342 18.3639 18.3639C16.7342 19.9937 14.4855 21 12 21C9.51447 21 7.26584 19.9937 5.63604 18.3639C4.00627 16.7342 3 14.4855 3 12C3 9.51447 4.00625 7.26585 5.63603 5.63604Z" fill="black"/>
</svg>
