<svg width="24" height="24" viewBox="0 0 24 24" fill="none" xmlns="http://www.w3.org/2000/svg">
<path d="M7 21H17C19.2091 21 21 19.2091 21 17V14V7C21 4.79086 19.2091 3 17 3H12H7C4.79086 3 3 4.79086 3 7V17C3 19.2091 4.79086 21 7 21Z" stroke="black" stroke-width="2"/>
<path d="M19.8048 19.6729L15.0853 14.3613C14.6658 13.8891 13.7803 13.8778 13.3412 14.3389L7 21H11" stroke="black" stroke-width="2" stroke-linecap="square" stroke-linejoin="round"/>
<path d="M8.5 11C9.32842 11 10 10.3284 10 9.5C10 8.67158 9.32842 8 8.5 8C7.67158 8 7 8.67158 7 9.5C7 10.3284 7.67158 11 8.5 11Z" stroke="black" stroke-width="2" stroke-linecap="square" stroke-linejoin="round"/>
<g clip-path="url(#clip0_490_21134)">
<path d="M19.0001 1.41675C17.7346 1.41675 16.5881 1.93021 15.7592 2.75917C14.9302 3.58814 14.4167 4.73455 14.4167 6.00008C14.4167 7.26561 14.9302 8.41201 15.7592 9.24098C16.5881 10.0699 17.7346 10.5834 19.0001 10.5834C20.2656 10.5834 21.412 10.0699 22.241 9.24098C23.0699 8.41202 23.5834 7.26561 23.5834 6.00008C23.5834 4.73455 23.0699 3.58815 22.241 2.75918C21.412 1.93022 20.2656 1.41675 19.0001 1.41675Z" fill="black"/>
<path fill-rule="evenodd" clip-rule="evenodd" d="M19 9.19995C19.5523 9.19995 20 8.75223 20 8.19995C20 7.64767 19.5523 7.19995 19 7.19995C18.4477 7.19995 18 7.64767 18 8.19995C18 8.75223 18.4477 9.19995 19 9.19995Z" fill="white"/>
<path d="M19 3V6.4" stroke="white" stroke-width="1.2"/>
</g>
<defs>
<clipPath id="clip0_490_21134">
<rect width="10" height="10" fill="white" transform="translate(14 1)"/>
</clipPath>
</defs>
</svg>
