<svg width="24" height="24" viewBox="0 0 24 24" fill="none" xmlns="http://www.w3.org/2000/svg">
<path d="M18.5 1.5C19.0523 1.5 19.5 1.94772 19.5 2.5V4.5H21.5C22.0523 4.5 22.5 4.94772 22.5 5.5C22.5 6.05228 22.0523 6.5 21.5 6.5H19.5V8.5C19.5 9.05228 19.0523 9.5 18.5 9.5C17.9477 9.5 17.5 9.05228 17.5 8.5V6.5H15.5C14.9477 6.5 14.5 6.05228 14.5 5.5C14.5 4.94772 14.9477 4.5 15.5 4.5H17.5V2.5C17.5 1.94772 17.9477 1.5 18.5 1.5Z" fill="black"/>
<path fill-rule="evenodd" clip-rule="evenodd" d="M12 2L10.9268 2C9.10338 1.99997 7.63362 1.99995 6.47767 2.15537C5.27752 2.31672 4.26702 2.66191 3.46447 3.46447C2.66191 4.26702 2.31672 5.27752 2.15537 6.47767C1.99995 7.63362 1.99997 9.10337 2 10.9268V13.0732C1.99997 14.8966 1.99995 16.3664 2.15537 17.5223C2.31672 18.7225 2.66191 19.733 3.46447 20.5355C4.26702 21.3381 5.27752 21.6833 6.47767 21.8446C7.63363 22.0001 9.1034 22 10.9269 22H13.0731C14.8966 22 16.3664 22.0001 17.5223 21.8446C18.7225 21.6833 19.733 21.3381 20.5355 20.5355C21.3381 19.733 21.6833 18.7225 21.8446 17.5223C22.0001 16.3664 22 14.8966 22 13.0731V12C22 11.4477 21.5523 11 21 11C20.4477 11 20 11.4477 20 12V13C20 13.4144 19.9999 13.8016 19.9984 14.1642C17.7789 13.5202 16.3166 13.1593 14.8907 13.2671C13.4165 13.3785 11.9924 13.8514 10.7443 14.644C9.35444 15.5266 8.29756 16.9362 6.52255 19.3035L6.17778 19.7632C5.55151 19.6224 5.16897 19.4116 4.87868 19.1213C4.50966 18.7523 4.26907 18.2342 4.13753 17.2558C4.00213 16.2487 4 14.9139 4 13V11C4 9.08611 4.00213 7.7513 4.13753 6.74416C4.26907 5.76579 4.50966 5.2477 4.87868 4.87868C5.2477 4.50966 5.7658 4.26907 6.74416 4.13753C7.7513 4.00213 9.08611 4 11 4H12C12.5523 4 13 3.55229 13 3C13 2.44772 12.5523 2 12 2ZM15.0415 15.2614C16.1676 15.1762 17.3643 15.479 19.9529 16.2349C19.9327 16.6105 19.9038 16.9485 19.8625 17.2558C19.7309 18.2342 19.4903 18.7523 19.1213 19.1213C18.7523 19.4903 18.2342 19.7309 17.2558 19.8625C16.2487 19.9979 14.9139 20 13 20H11C10.0353 20 9.21764 19.9995 8.51497 19.9816C10.102 17.8757 10.8734 16.9312 11.8165 16.3323C12.7872 15.7159 13.8948 15.348 15.0415 15.2614Z" fill="black"/>
<path fill-rule="evenodd" clip-rule="evenodd" d="M9 6C7.34316 6 6 7.34315 6 9C6 10.6568 7.34316 12 9 12C10.6568 12 12 10.6568 12 9C12 7.34315 10.6568 6 9 6ZM8 9C8 8.44772 8.44772 8 9 8C9.55228 8 10 8.44772 10 9C10 9.55227 9.55228 10 9 10C8.44772 10 8 9.55227 8 9Z" fill="black"/>
</svg>
