<svg width="24" height="24" viewBox="0 0 24 24" fill="none" xmlns="http://www.w3.org/2000/svg">
<path d="M9.8245 0.320828C9.90036 0.18212 10.0996 0.18212 10.1754 0.320829L11.0325 1.88794C11.0509 1.9215 11.0785 1.94909 11.112 1.96744L12.6791 2.82452C12.8178 2.90038 12.8178 3.0996 12.6791 3.17546L11.112 4.03254C11.0785 4.0509 11.0509 4.07849 11.0325 4.11205L10.1754 5.67916C10.0996 5.81787 9.90036 5.81787 9.8245 5.67916L8.96742 4.11205C8.94906 4.07849 8.92147 4.0509 8.88791 4.03254L7.3208 3.17546C7.1821 3.0996 7.1821 2.90038 7.3208 2.82452L8.88791 1.96744C8.92147 1.94909 8.94906 1.9215 8.96742 1.88794L9.8245 0.320828Z" fill="black"/>
<path d="M14.1212 7.05016L16.9496 9.87859C17.3401 10.2691 17.9733 10.2691 18.3638 9.87859L19.778 8.46437C20.5591 7.68333 20.5591 6.417 19.778 5.63595L18.3638 4.22173C17.5828 3.44068 16.3164 3.44068 15.5354 4.22173L14.1212 5.63595C13.7307 6.02647 13.7307 6.65963 14.1212 7.05016Z" fill="black"/>
<path d="M11.9999 7.75728C12.3904 7.36675 13.0236 7.36675 13.4141 7.75728L16.2425 10.5857C16.6331 10.9762 16.6331 11.6094 16.2425 11.9999L7.05015 21.1923C5.87858 22.3639 3.97909 22.3639 2.80751 21.1923C1.63594 20.0207 1.63594 18.1212 2.80751 16.9497L11.9999 7.75728ZM12.707 9.8786L4.22173 18.3639C3.8312 18.7544 3.8312 19.3876 4.22173 19.7781C4.61225 20.1686 5.24542 20.1686 5.63594 19.7781L14.1212 11.2928L12.707 9.8786Z" fill="black"/>
<path d="M20.1754 13.3208C20.0996 13.1821 19.9004 13.1821 19.8245 13.3208L19.321 14.2415C19.3026 14.275 19.275 14.3026 19.2415 14.321L18.3208 14.8245C18.1821 14.9004 18.1821 15.0996 18.3208 15.1755L19.2415 15.679C19.275 15.6973 19.3026 15.7249 19.321 15.7585L19.8245 16.6792C19.9004 16.8179 20.0996 16.8179 20.1754 16.6792L20.679 15.7585C20.6973 15.7249 20.7249 15.6973 20.7585 15.679L21.6791 15.1755C21.8178 15.0996 21.8178 14.9004 21.6791 14.8245L20.7585 14.321C20.7249 14.3026 20.6973 14.275 20.679 14.2415L20.1754 13.3208Z" fill="black"/>
<path d="M4.3245 6.32083C4.40036 6.18212 4.59958 6.18212 4.67544 6.32083L5.00219 6.91827C5.02054 6.95183 5.04814 6.97942 5.08169 6.99777L5.67913 7.32452C5.81784 7.40038 5.81784 7.5996 5.67913 7.67546L5.08169 8.00221C5.04814 8.02057 5.02054 8.04816 5.00219 8.08172L4.67544 8.67916C4.59958 8.81787 4.40036 8.81787 4.3245 8.67916L3.99775 8.08172C3.97939 8.04816 3.9518 8.02057 3.91824 8.00221L3.3208 7.67546C3.1821 7.5996 3.1821 7.40038 3.3208 7.32452L3.91824 6.99777C3.9518 6.97942 3.97939 6.95183 3.99775 6.91827L4.3245 6.32083Z" fill="black"/>
<path d="M22.1754 4.32083C22.0996 4.18212 21.9004 4.18212 21.8245 4.32083L21.6745 4.59504C21.6562 4.6286 21.6286 4.65619 21.595 4.67455L21.3208 4.82452C21.1821 4.90038 21.1821 5.0996 21.3208 5.17546L21.595 5.32544C21.6286 5.34379 21.6562 5.37138 21.6745 5.40494L21.8245 5.67916C21.9004 5.81787 22.0996 5.81787 22.1754 5.67916L22.3254 5.40494C22.3438 5.37138 22.3714 5.34379 22.4049 5.32544L22.6791 5.17546C22.8178 5.0996 22.8178 4.90038 22.6791 4.82452L22.4049 4.67455C22.3714 4.65619 22.3438 4.6286 22.3254 4.59505L22.1754 4.32083Z" fill="black"/>
</svg>
