<svg width="24" height="24" viewBox="0 0 24 24" fill="none" xmlns="http://www.w3.org/2000/svg">
<path d="M12.0033 2C7.82836 2 6.60736 2.00431 6.37002 2.024C5.51325 2.09524 4.98012 2.23017 4.39931 2.51943C3.9517 2.74176 3.59869 2.99947 3.25029 3.36073C2.6158 4.01956 2.23126 4.83009 2.09205 5.79355C2.02437 6.26128 2.00468 6.35668 2.00068 8.7458C1.99915 9.54218 2.00068 10.5903 2.00068 11.9961C2.00068 16.1687 2.0053 17.3888 2.02529 17.6258C2.09451 18.4597 2.22526 18.9844 2.50213 19.5583C3.03126 20.6568 4.04184 21.4815 5.23238 21.7892C5.64461 21.8954 6.09991 21.9538 6.68442 21.9815C6.93206 21.9923 9.4562 22 11.9819 22C14.5076 22 17.0332 21.9969 17.2747 21.9846C17.9515 21.9528 18.3445 21.9 18.7791 21.7877C19.9773 21.4784 20.9694 20.666 21.5093 19.5521C21.7808 18.9921 21.9185 18.4474 21.9808 17.657C21.9943 17.4847 22 14.7372 22 11.9935C22 9.24923 21.9938 6.50684 21.9803 6.33452C21.9172 5.53138 21.7796 4.99133 21.4993 4.42051C21.2694 3.95324 21.014 3.60429 20.6433 3.24749C19.9818 2.61544 19.1727 2.23079 18.2086 2.0917C17.7414 2.02416 17.6484 2.00415 15.258 2H12.0033Z" fill="url(#paint0_radial_3690_125795)"/>
<path d="M12.0033 2C7.82836 2 6.60736 2.00431 6.37002 2.024C5.51325 2.09524 4.98012 2.23017 4.39931 2.51943C3.9517 2.74176 3.59869 2.99947 3.25029 3.36073C2.6158 4.01956 2.23126 4.83009 2.09205 5.79355C2.02437 6.26128 2.00468 6.35668 2.00068 8.7458C1.99915 9.54218 2.00068 10.5903 2.00068 11.9961C2.00068 16.1687 2.0053 17.3888 2.02529 17.6258C2.09451 18.4597 2.22526 18.9844 2.50213 19.5583C3.03126 20.6568 4.04184 21.4815 5.23238 21.7892C5.64461 21.8954 6.09991 21.9538 6.68442 21.9815C6.93206 21.9923 9.4562 22 11.9819 22C14.5076 22 17.0332 21.9969 17.2747 21.9846C17.9515 21.9528 18.3445 21.9 18.7791 21.7877C19.9773 21.4784 20.9694 20.666 21.5093 19.5521C21.7808 18.9921 21.9185 18.4474 21.9808 17.657C21.9943 17.4847 22 14.7372 22 11.9935C22 9.24923 21.9938 6.50684 21.9803 6.33452C21.9172 5.53138 21.7796 4.99133 21.4993 4.42051C21.2694 3.95324 21.014 3.60429 20.6433 3.24749C19.9818 2.61544 19.1727 2.23079 18.2086 2.0917C17.7414 2.02416 17.6484 2.00415 15.258 2H12.0033Z" fill="url(#paint1_radial_3690_125795)"/>
<path d="M11.9987 4.6156C9.99355 4.6156 9.7419 4.62437 8.95436 4.66022C8.16835 4.69622 7.63184 4.82069 7.16239 5.00333C6.67679 5.19196 6.26487 5.44429 5.85448 5.85494C5.44379 6.26543 5.19153 6.67747 5.00233 7.16305C4.81929 7.63278 4.6947 8.16959 4.65932 8.95551C4.6241 9.74327 4.61487 9.99513 4.61487 12.0008C4.61487 14.0065 4.62379 14.2575 4.65948 15.0453C4.69562 15.8315 4.82006 16.3681 5.00249 16.8377C5.19122 17.3234 5.44348 17.7355 5.85402 18.146C6.26425 18.5568 6.67617 18.8097 7.16147 18.9984C7.63122 19.181 8.16789 19.3055 8.95374 19.3415C9.74129 19.3773 9.99278 19.3861 11.9978 19.3861C14.0031 19.3861 14.254 19.3773 15.0415 19.3415C15.8275 19.3055 16.3647 19.181 16.8344 18.9984C17.3199 18.8097 17.7312 18.5568 18.1414 18.146C18.5521 17.7355 18.8044 17.3234 18.9935 16.8379C19.1751 16.3681 19.2996 15.8313 19.3366 15.0454C19.3719 14.2576 19.3812 14.0065 19.3812 12.0008C19.3812 9.99513 19.3719 9.74342 19.3366 8.95566C19.2996 8.16944 19.1751 7.63278 18.9935 7.1632C18.8044 6.67747 18.5521 6.26543 18.1414 5.85494C17.7307 5.44413 17.32 5.1918 16.834 5.00333C16.3633 4.82069 15.8265 4.69622 15.0404 4.66022C14.2529 4.62437 14.0022 4.6156 11.9964 4.6156H11.9987ZM11.3364 5.94648C11.533 5.94617 11.7523 5.94648 11.9987 5.94648C13.97 5.94648 14.2037 5.95356 14.9821 5.98895C15.702 6.02187 16.0927 6.14219 16.353 6.24328C16.6975 6.37713 16.9432 6.53715 17.2014 6.79563C17.4598 7.05411 17.6198 7.30029 17.7539 7.64493C17.855 7.90496 17.9754 8.29576 18.0082 9.01582C18.0436 9.79435 18.0513 10.0282 18.0513 11.9991C18.0513 13.9701 18.0436 14.204 18.0082 14.9825C17.9753 15.7025 17.855 16.0933 17.7539 16.3534C17.6201 16.698 17.4598 16.9434 17.2014 17.2017C16.943 17.4602 16.6977 17.6202 16.353 17.7541C16.093 17.8556 15.702 17.9757 14.9821 18.0086C14.2038 18.044 13.97 18.0517 11.9987 18.0517C10.0272 18.0517 9.79359 18.044 9.01527 18.0086C8.29541 17.9753 7.90471 17.855 7.6443 17.7539C7.29975 17.6201 7.05364 17.4601 6.79523 17.2016C6.53681 16.9431 6.37684 16.6975 6.24272 16.3527C6.14166 16.0927 6.02122 15.7019 5.98846 14.9819C5.95308 14.2033 5.946 13.9695 5.946 11.9973C5.946 10.0251 5.95308 9.7925 5.98846 9.01397C6.02137 8.29391 6.14166 7.90311 6.24272 7.64278C6.37654 7.29814 6.53681 7.05196 6.79523 6.79348C7.05364 6.53499 7.29975 6.37498 7.6443 6.24082C7.90456 6.13927 8.29541 6.01926 9.01527 5.98618C9.69637 5.95541 9.96032 5.94617 11.3364 5.94464V5.94648ZM15.9398 7.17274C15.4507 7.17274 15.0538 7.56924 15.0538 8.05866C15.0538 8.54793 15.4507 8.94489 15.9398 8.94489C16.429 8.94489 16.8258 8.54793 16.8258 8.05866C16.8258 7.56939 16.429 7.17243 15.9398 7.17243V7.17274ZM11.9987 8.20821C9.9048 8.20821 8.20712 9.90636 8.20712 12.0008C8.20712 14.0953 9.9048 15.7927 11.9987 15.7927C14.0926 15.7927 15.7897 14.0953 15.7897 12.0008C15.7897 9.90636 14.0926 8.20821 11.9987 8.20821ZM11.9987 9.53909C13.3578 9.53909 14.4598 10.6412 14.4598 12.0008C14.4598 13.3603 13.3578 14.4626 11.9987 14.4626C10.6394 14.4626 9.53763 13.3603 9.53763 12.0008C9.53763 10.6412 10.6394 9.53909 11.9987 9.53909Z" fill="white"/>
<defs>
<radialGradient id="paint0_radial_3690_125795" cx="0" cy="0" r="1" gradientUnits="userSpaceOnUse" gradientTransform="translate(7.31253 23.5404) rotate(-90) scale(19.8215 18.4355)">
<stop stop-color="#FFDD55"/>
<stop offset="0.1" stop-color="#FFDD55"/>
<stop offset="0.5" stop-color="#FF543E"/>
<stop offset="1" stop-color="#C837AB"/>
</radialGradient>
<radialGradient id="paint1_radial_3690_125795" cx="0" cy="0" r="1" gradientTransform="matrix(1.73907 8.68794 -35.8113 7.17241 -1.35011 3.44077)" gradientUnits="userSpaceOnUse">
<stop stop-color="#3771C8"/>
<stop offset="0.128" stop-color="#3771C8"/>
<stop offset="1" stop-color="#6600FF" stop-opacity="0"/>
</radialGradient>
</defs>
</svg>
