<svg width="24" height="24" viewBox="0 0 24 24" fill="none" xmlns="http://www.w3.org/2000/svg">
<path d="M12 23C18.0751 23 23 18.0751 23 12C23 5.92487 18.0751 1 12 1C5.92487 1 1 5.92487 1 12C1 18.0751 5.92487 23 12 23Z" fill="#00BBF1"/>
<path d="M17.0106 12.9661C16.4047 13.0408 15.9128 12.9837 15.9128 12.9837V9.2687H16.6593C17.1512 9.2687 17.6298 9.47508 17.9504 9.84834C18.1787 10.1118 18.3587 10.4807 18.3587 10.9944C18.3587 12.2459 17.7132 12.7378 17.015 12.9661M20.2074 10.3577C19.9879 9.20722 19.3687 8.49145 18.7364 8.04794C18.1041 7.60443 17.2961 7.35413 16.4969 7.35413H5.13679C4.74158 7.35413 4.59228 7.74055 4.58789 7.93377C4.58789 7.96011 4.58789 8.06111 4.58789 8.06111C4.58789 8.06111 4.57032 13.0847 4.60545 15.7677C4.71084 17.3529 6.30046 17.3529 6.30046 17.3529C6.30046 17.3529 11.4821 17.3398 13.9675 17.3222C14.0861 17.3222 14.2003 17.309 14.3144 17.2827C15.7284 16.927 15.8733 15.614 15.8601 14.8807C18.7057 15.0388 20.708 13.032 20.2031 10.3621" fill="white"/>
<path d="M6.30038 17.7921C5.60656 17.7921 4.27602 17.3749 4.16624 15.7985C4.13111 13.1198 4.14868 8.11384 4.14868 8.06115V7.92941C4.14868 7.52542 4.46485 6.91943 5.1367 6.91943H16.4924C17.4014 6.91943 18.2621 7.1873 18.9866 7.69229C19.8736 8.31145 20.4313 9.18091 20.6377 10.2787C20.8924 11.6224 20.5762 12.8871 19.7463 13.8356C18.9295 14.7665 17.6868 15.2979 16.2904 15.3286C16.1894 16.5933 15.5395 17.432 14.4241 17.7087C14.2836 17.7438 14.1299 17.7613 13.9762 17.7613C11.4908 17.7789 6.30916 17.7921 6.30916 17.7921H6.30038ZM5.1367 7.79768C5.04888 7.79768 5.02692 7.9382 5.02692 7.94259V8.06115C5.02692 8.11824 5.00936 13.1154 5.04449 15.7633C5.11914 16.8787 6.17742 16.9138 6.30038 16.9138C6.30038 16.9138 11.4776 16.9007 13.963 16.8831C14.0509 16.8831 14.1299 16.8743 14.2046 16.8568C15.0301 16.6504 15.4385 15.9873 15.4165 14.8895C15.4165 14.7665 15.4648 14.648 15.5527 14.5645C15.6405 14.4811 15.7591 14.4328 15.882 14.4416C17.1862 14.5118 18.3543 14.0815 19.0788 13.256C19.7287 12.5182 19.9746 11.517 19.7682 10.4412C19.6058 9.57612 19.171 8.89548 18.4772 8.41245C17.902 8.00846 17.2125 7.79768 16.488 7.79768H5.1367ZM16.3607 13.4448C16.0664 13.4448 15.8732 13.4228 15.8601 13.4228C15.6405 13.3965 15.4692 13.2077 15.4692 12.9881V9.27313C15.4692 9.03161 15.6668 8.834 15.9084 8.834H16.6549C17.2872 8.834 17.88 9.10187 18.2796 9.56734C18.6221 9.96255 18.7934 10.4456 18.7934 10.9989C18.7934 12.2284 18.2401 13.032 17.1467 13.3877C17.1203 13.3965 17.094 13.4009 17.0676 13.4053C16.8042 13.4404 16.5626 13.4492 16.365 13.4492L16.3607 13.4448ZM16.3519 12.5665C16.5056 12.5709 16.7032 12.5578 16.9183 12.5358C17.4189 12.3645 17.9195 12.0396 17.9195 10.9945C17.9195 10.6564 17.8185 10.3665 17.6165 10.1382C17.3838 9.86594 17.0325 9.71225 16.6593 9.71225H16.3519V12.5665Z" fill="black"/>
<path d="M10.1513 15.267C10.2742 15.3285 10.3533 15.2538 10.3533 15.2538C10.3533 15.2538 12.1624 13.6027 12.9748 12.6542C13.6994 11.8023 13.7477 10.3708 12.5006 9.83947C11.2578 9.30374 10.2347 10.4674 10.2347 10.4674C9.34767 9.49257 8.00395 9.54087 7.38479 10.1996C6.76563 10.8582 6.9808 11.9912 7.44188 12.6235C7.87661 13.2163 9.78679 14.9201 10.0766 15.2055C10.0766 15.2055 10.0986 15.2275 10.1469 15.2626" fill="#FF5F5F"/>
</svg>
