<svg width="24" height="24" viewBox="0 0 24 24" fill="none" xmlns="http://www.w3.org/2000/svg">
<path fill-rule="evenodd" clip-rule="evenodd" d="M18 14C18.4521 14 18.8413 13.9996 19.1621 14.0215C19.4919 14.044 19.8225 14.0935 20.1484 14.2285C20.8832 14.533 21.467 15.1168 21.7715 15.8516L21.8574 16.0967C21.9295 16.3426 21.9616 16.5904 21.9785 16.8379C22.0004 17.1587 22 17.5479 22 18C22 18.4521 22.0004 18.8413 21.9785 19.1621C21.9616 19.4096 21.9295 19.6574 21.8574 19.9033L21.7715 20.1484C21.505 20.7916 21.0244 21.3188 20.416 21.6445L20.1484 21.7715C19.8225 21.9065 19.4919 21.956 19.1621 21.9785C18.8413 22.0004 18.4521 22 18 22H6.00001C5.54787 22 5.15869 22.0004 4.8379 21.9785C4.59037 21.9616 4.34258 21.9295 4.09669 21.8574L3.85157 21.7715C3.1168 21.467 2.53299 20.8832 2.22852 20.1484C2.09352 19.8225 2.04399 19.4919 2.02149 19.1621C1.99962 18.8413 2.00001 18.4521 2.00001 18C2.00001 17.5479 1.99962 17.1587 2.02149 16.8379C2.04399 16.5081 2.09352 16.1775 2.22852 15.8516L2.35547 15.584C2.68121 14.9756 3.20846 14.495 3.85157 14.2285L4.09669 14.1426C4.34258 14.0706 4.59037 14.0384 4.8379 14.0215C5.15869 13.9996 5.54787 14 6.00001 14H18ZM6.00001 16C5.52039 16 5.21062 16.0004 4.97364 16.0166C4.85965 16.0244 4.78098 16.0351 4.72559 16.0459L4.61719 16.0762C4.40269 16.1651 4.22673 16.3253 4.11817 16.5283L4.07618 16.6172C4.05894 16.6588 4.03216 16.7457 4.01661 16.9736C4.00044 17.2106 4.00001 17.5204 4.00001 18C4.00001 18.4796 4.00044 18.7894 4.01661 19.0264C4.03216 19.2543 4.05894 19.3412 4.07618 19.3828C4.17767 19.6277 4.37227 19.8223 4.61719 19.9238L4.72559 19.9541C4.78098 19.9649 4.85965 19.9756 4.97364 19.9834C5.21062 19.9996 5.52039 20 6.00001 20H18C18.4796 20 18.7894 19.9996 19.0264 19.9834C19.2543 19.9678 19.3412 19.9411 19.3828 19.9238L19.4717 19.8818C19.6747 19.7733 19.8349 19.5973 19.9238 19.3828L19.9541 19.2744C19.9649 19.219 19.9756 19.1404 19.9834 19.0264C19.9996 18.7894 20 18.4796 20 18C20 17.5204 19.9996 17.2106 19.9834 16.9736C19.9756 16.8597 19.9649 16.781 19.9541 16.7256L19.9238 16.6172C19.8223 16.3723 19.6277 16.1777 19.3828 16.0762C19.3412 16.0589 19.2543 16.0322 19.0264 16.0166C18.7894 16.0004 18.4796 16 18 16H6.00001Z" fill="black"/>
<path fill-rule="evenodd" clip-rule="evenodd" d="M8.00001 2.00001C8.91454 2.00001 9.70138 1.99777 10.3281 2.08204C10.9835 2.17019 11.6115 2.36934 12.1211 2.87891L12.2979 3.0752C12.6786 3.54582 12.8408 4.09834 12.918 4.67188C13.0022 5.29863 13 6.08547 13 7.00001V8.00001C13 8.91454 13.0022 9.70138 12.918 10.3281C12.8408 10.9017 12.6786 11.4542 12.2979 11.9248L12.1211 12.1211C11.6115 12.6307 10.9835 12.8298 10.3281 12.918C9.70138 13.0022 8.91454 13 8.00001 13H7.00001C6.08547 13 5.29863 13.0022 4.67188 12.918C4.09834 12.8408 3.54582 12.6786 3.0752 12.2979L2.87891 12.1211C2.36934 11.6115 2.17019 10.9835 2.08204 10.3281C1.99777 9.70138 2.00001 8.91454 2.00001 8.00001V7.00001C2.00001 6.08547 1.99777 5.29863 2.08204 4.67188C2.17019 4.01648 2.36933 3.38849 2.87891 2.87891L3.0752 2.70215C3.54582 2.32143 4.09834 2.15918 4.67188 2.08204C5.29863 1.99777 6.08547 2.00001 7.00001 2.00001H8.00001ZM7.00001 4.00001C6.02893 4.00001 5.40099 4.00228 4.93848 4.06446C4.61353 4.10817 4.45592 4.17212 4.36524 4.2334L4.29297 4.29297C4.21687 4.36908 4.12278 4.50494 4.06446 4.93848C4.00228 5.40099 4.00001 6.02893 4.00001 7.00001V8.00001C4.00001 8.97108 4.00228 9.59902 4.06446 10.0615C4.12277 10.4951 4.21687 10.6309 4.29297 10.707L4.36524 10.7666C4.45592 10.8279 4.61353 10.8918 4.93848 10.9356C5.40099 10.9977 6.02893 11 7.00001 11H8.00001C8.97108 11 9.59902 10.9977 10.0615 10.9356C10.4951 10.8772 10.6309 10.7831 10.707 10.707L10.7666 10.6348C10.8279 10.5441 10.8918 10.3865 10.9356 10.0615C10.9977 9.59902 11 8.97108 11 8.00001V7.00001C11 6.02893 10.9977 5.40099 10.9356 4.93848C10.8918 4.61353 10.8279 4.45592 10.7666 4.36524L10.707 4.29297C10.6309 4.21687 10.4951 4.12277 10.0615 4.06446C9.59902 4.00228 8.97108 4.00001 8.00001 4.00001H7.00001Z" fill="black"/>
<path fill-rule="evenodd" clip-rule="evenodd" d="M18 2.00001C18.4521 2.00001 18.8413 1.99962 19.1621 2.02149C19.4919 2.04399 19.8225 2.09352 20.1484 2.22852C20.8832 2.53299 21.467 3.1168 21.7715 3.85157L21.8574 4.09669C21.9295 4.34258 21.9616 4.59037 21.9785 4.8379C22.0004 5.15869 22 5.54787 22 6.00001V9.00001C22 9.45214 22.0004 9.84132 21.9785 10.1621C21.9616 10.4096 21.9295 10.6574 21.8574 10.9033L21.7715 11.1484C21.505 11.7916 21.0244 12.3188 20.416 12.6445L20.1484 12.7715C19.8225 12.9065 19.4919 12.956 19.1621 12.9785C18.8413 13.0004 18.4521 13 18 13C17.5479 13 17.1587 13.0004 16.8379 12.9785C16.5904 12.9616 16.3426 12.9295 16.0967 12.8574L15.8516 12.7715C15.1168 12.467 14.533 11.8832 14.2285 11.1484C14.0935 10.8225 14.044 10.4919 14.0215 10.1621C13.9996 9.84132 14 9.45214 14 9.00001V6.00001C14 5.54787 13.9996 5.15869 14.0215 4.8379C14.044 4.50807 14.0935 4.17749 14.2285 3.85157L14.3555 3.58399C14.6812 2.9756 15.2085 2.49501 15.8516 2.22852L16.0967 2.14258C16.3426 2.07056 16.5904 2.03838 16.8379 2.02149C17.1587 1.99962 17.5479 2.00001 18 2.00001ZM18 4.00001C17.5204 4.00001 17.2106 4.00044 16.9736 4.01661C16.8597 4.02439 16.781 4.03515 16.7256 4.0459L16.6172 4.07618C16.4027 4.16506 16.2267 4.32535 16.1182 4.52833L16.0762 4.61719C16.0589 4.6588 16.0322 4.74573 16.0166 4.97364C16.0004 5.21062 16 5.52039 16 6.00001V9.00001C16 9.47963 16.0004 9.78939 16.0166 10.0264C16.0322 10.2543 16.0589 10.3412 16.0762 10.3828C16.1777 10.6277 16.3723 10.8223 16.6172 10.9238L16.7256 10.9541C16.781 10.9649 16.8597 10.9756 16.9736 10.9834C17.2106 10.9996 17.5204 11 18 11C18.4796 11 18.7894 10.9996 19.0264 10.9834C19.2543 10.9678 19.3412 10.9411 19.3828 10.9238L19.4717 10.8818C19.6747 10.7733 19.8349 10.5973 19.9238 10.3828L19.9541 10.2744C19.9649 10.219 19.9756 10.1404 19.9834 10.0264C19.9996 9.78939 20 9.47963 20 9.00001V6.00001C20 5.52039 19.9996 5.21062 19.9834 4.97364C19.9756 4.85965 19.9649 4.78098 19.9541 4.72559L19.9238 4.61719C19.8223 4.37227 19.6277 4.17767 19.3828 4.07618C19.3412 4.05894 19.2543 4.03216 19.0264 4.01661C18.7894 4.00044 18.4796 4.00001 18 4.00001Z" fill="black"/>
</svg>
