<svg width="20" height="20" viewBox="0 0 20 20" fill="none" xmlns="http://www.w3.org/2000/svg">
<path d="M6.667 6.668C6.667 6.2077 7.0401 5.8346 7.5003 5.8346H12.5003C12.9606 5.8346 13.3337 6.2077 13.3337 6.668C13.3337 7.1282 12.9606 7.5013 12.5003 7.5013H7.5003C7.0401 7.5013 6.667 7.1282 6.667 6.668Z" fill="currentColor"/>
<path d="M3.8299 3.3774C4.1702 2.3565 5.1255 1.668 6.2016 1.668H13.7991C14.8751 1.668 15.8305 2.3565 16.1708 3.3774L18.1198 9.2246C18.2615 9.6495 18.3337 10.0944 18.3337 10.5422V15.8346C18.3337 17.2153 17.2144 18.3346 15.8337 18.3346H4.167C2.7863 18.3346 1.667 17.2153 1.667 15.8346V10.5422C1.667 10.0944 1.7392 9.6495 1.8808 9.2246L3.8299 3.3774ZM6.2016 3.3346C5.8429 3.3346 5.5244 3.5642 5.411 3.9044L3.462 9.7517C3.4346 9.8337 3.4115 9.9171 3.3929 10.0013H6.667C7.6274 10.0013 8.2139 10.7711 8.4248 11.3802C8.6511 12.0339 9.2722 12.5013 10.0003 12.5013C10.7285 12.5013 11.3496 12.0339 11.5759 11.3802C11.7868 10.7711 12.3732 10.0013 13.3337 10.0013H16.6078C16.5891 9.9171 16.5661 9.8337 16.5387 9.7517L14.5896 3.9044C14.4762 3.5642 14.1578 3.3346 13.7991 3.3346H6.2016ZM16.667 11.668H13.3359C13.3296 11.6702 13.3149 11.6775 13.2911 11.699C13.2421 11.7432 13.1863 11.823 13.1508 11.9255C12.6993 13.2296 11.4605 14.168 10.0003 14.168C8.5402 14.168 7.3013 13.2296 6.8498 11.9255C6.8143 11.823 6.7586 11.7432 6.7096 11.699C6.6858 11.6775 6.671 11.6702 6.6648 11.668H3.3337V15.8346C3.3337 16.2949 3.7068 16.668 4.167 16.668H15.8337C16.2939 16.668 16.667 16.2949 16.667 15.8346V11.668Z" fill="currentColor"/>
</svg>
