<svg width="15" height="18" viewBox="0 0 15 18" fill="none" xmlns="http://www.w3.org/2000/svg">
<path d="M6.36426 17C6.36426 17.5523 6.81197 18 7.36426 18C7.91654 18 8.36426 17.5523 8.36426 17H7.36426H6.36426ZM8.07136 0.292894C7.68084 -0.0976306 7.04768 -0.0976306 6.65715 0.292894L0.29319 6.65685C-0.0973338 7.04738 -0.0973338 7.68054 0.29319 8.07107C0.683715 8.46159 1.31688 8.46159 1.7074 8.07107L7.36426 2.41421L13.0211 8.07107C13.4116 8.46159 14.0448 8.46159 14.4353 8.07107C14.8258 7.68054 14.8258 7.04738 14.4353 6.65685L8.07136 0.292894ZM7.36426 17H8.36426L8.36426 1H7.36426H6.36426L6.36426 17H7.36426Z" fill="#181818"/>
</svg>
