<svg width="24" height="24" viewBox="0 0 24 24" fill="none" xmlns="http://www.w3.org/2000/svg">
<path d="M12 2C12.5523 2 13 2.44772 13 3V6.85714C13 7.40943 12.5523 7.85714 12 7.85714C11.4477 7.85714 11 7.40943 11 6.85714V3C11 2.44772 11.4477 2 12 2ZM4.92893 4.92893C5.31945 4.5384 5.95262 4.5384 6.34314 4.92893L9.07053 7.65631C9.46105 8.04684 9.46105 8.68 9.07053 9.07053C8.68 9.46105 8.04684 9.46105 7.65631 9.07053L4.92893 6.34314C4.5384 5.95262 4.5384 5.31945 4.92893 4.92893ZM19.0711 4.92893C19.4616 5.31945 19.4616 5.95262 19.0711 6.34314L16.3437 9.07053C15.9532 9.46105 15.32 9.46105 14.9295 9.07053C14.5389 8.68 14.5389 8.04684 14.9295 7.65631L17.6569 4.92893C18.0474 4.5384 18.6805 4.5384 19.0711 4.92893ZM2 12C2 11.4477 2.44772 11 3 11H6.85714C7.40943 11 7.85714 11.4477 7.85714 12C7.85714 12.5523 7.40943 13 6.85714 13H3C2.44772 13 2 12.5523 2 12Z" fill="black"/>
<path opacity="0.8" d="M16.1426 12C16.1426 11.4477 16.5903 11 17.1426 11H20.9997C21.552 11 21.9997 11.4477 21.9997 12C21.9997 12.5523 21.552 13 20.9997 13H17.1426C16.5903 13 16.1426 12.5523 16.1426 12Z" fill="black"/>
<path opacity="0.6" d="M14.9296 14.9295C15.3201 14.539 15.9533 14.539 16.3438 14.9295L19.0712 17.6569C19.4617 18.0474 19.4617 18.6806 19.0712 19.0711C18.6807 19.4616 18.0475 19.4616 17.657 19.0711L14.9296 16.3437C14.5391 15.9532 14.5391 15.32 14.9296 14.9295Z" fill="black"/>
<path opacity="0.4" d="M12 16.1428C12.5523 16.1428 13 16.5905 13 17.1428V21C13 21.5523 12.5523 22 12 22C11.4477 22 11 21.5523 11 21V17.1428C11 16.5905 11.4477 16.1428 12 16.1428Z" fill="black"/>
<path opacity="0.2" d="M9.07023 14.9295C9.46076 15.32 9.46076 15.9532 9.07023 16.3437L6.34285 19.0711C5.95232 19.4616 5.31916 19.4616 4.92864 19.0711C4.53811 18.6806 4.53811 18.0474 4.92864 17.6569L7.65602 14.9295C8.04655 14.539 8.67971 14.539 9.07023 14.9295Z" fill="black"/>
</svg>
