<svg width="24" height="24" viewBox="0 0 24 24" fill="none" xmlns="http://www.w3.org/2000/svg">
<path d="M19.7931 11C19.3452 10.6204 18.7201 10.1719 17.8619 9.55888L15.4188 7.81381C14.9694 7.4928 14.8653 6.86825 15.1863 6.41884C15.5073 5.96943 16.1318 5.86534 16.5813 6.18634L19.088 7.97687C20.0723 8.67991 20.9009 9.27171 21.4734 9.82241C22.0748 10.401 22.5591 11.0881 22.5591 12.0001C22.5591 12.912 22.0748 13.5992 21.4734 14.1777C20.9009 14.7284 20.0723 15.3202 19.088 16.0233L16.5812 17.8138C16.1318 18.1348 15.5073 18.0307 15.1863 17.5813C14.8653 17.1319 14.9694 16.5074 15.4188 16.1863L17.8619 14.4413C18.7202 13.8282 19.3453 13.3796 19.7933 13L8 13C7.44771 13 7 12.5523 7 12C7 11.4477 7.44771 11 8 11L19.7931 11Z" fill="black"/>
<path d="M13 3C13 3.55229 12.5523 4 12 4L11 4C9.08611 4 7.7513 4.00213 6.74416 4.13753C5.76579 4.26907 5.2477 4.50966 4.87868 4.87868C4.50966 5.2477 4.26907 5.76579 4.13753 6.74416C4.00212 7.7513 4 9.08611 4 11L4 13C4 14.9139 4.00212 16.2487 4.13753 17.2558C4.26907 18.2342 4.50966 18.7523 4.87868 19.1213C5.2477 19.4903 5.76579 19.7309 6.74416 19.8625C7.75129 19.9979 9.08611 20 11 20L12 20C12.5523 20 13 20.4477 13 21C13 21.5523 12.5523 22 12 22L10.9269 22C9.1034 22 7.63363 22.0001 6.47766 21.8446C5.27752 21.6833 4.26702 21.3381 3.46447 20.5355C2.66191 19.733 2.31672 18.7225 2.15536 17.5223C1.99995 16.3664 1.99997 14.8966 2 13.0732L2 10.9268C1.99997 9.1034 1.99995 7.63361 2.15536 6.47767C2.31672 5.27752 2.66191 4.26702 3.46447 3.46447C4.26702 2.66191 5.27752 2.31672 6.47766 2.15537C7.63362 1.99995 9.10337 1.99997 10.9268 2L12 2C12.5523 2 13 2.44772 13 3Z" fill="black"/>
</svg>
