<svg width="24" height="24" viewBox="0 0 24 24" fill="none" xmlns="http://www.w3.org/2000/svg">
<path d="M14 6.292C14.1042 6.29201 14.2008 6.34825 14.2529 6.43848L15.0098 7.74903H16.5254C16.6296 7.74903 16.7262 7.80527 16.7783 7.89551C16.8303 7.98566 16.8303 8.09638 16.7783 8.18653L16.0205 9.50001L16.7783 10.8135C16.8303 10.9036 16.8303 11.0144 16.7783 11.1045C16.7262 11.1947 16.6296 11.251 16.5254 11.251H15.0098L14.2529 12.5615C14.2008 12.6518 14.1042 12.708 14 12.708C13.8958 12.708 13.7992 12.6518 13.7471 12.5615L12.9902 11.251H11.4736C11.3696 11.2508 11.2737 11.1946 11.2217 11.1045C11.1697 11.0143 11.1697 10.9037 11.2217 10.8135L11.9795 9.50001L11.2217 8.18653C11.1697 8.09636 11.1697 7.98568 11.2217 7.89551C11.2737 7.80539 11.3696 7.74918 11.4736 7.74903H12.9902L13.7471 6.43848C13.7992 6.34824 13.8958 6.292 14 6.292Z" fill="black"/>
<path d="M14 1.00001C15.3858 1.00001 16.5258 0.998305 17.4248 1.11915C18.3526 1.24389 19.172 1.5158 19.8281 2.17188L19.9473 2.29688C20.518 2.93084 20.7639 3.70554 20.8809 4.5752C21.0017 5.47422 21 6.61419 21 8.00001V16.5996C21 16.6656 21.0018 16.8166 20.9834 16.9531C20.9704 17.0494 20.9389 17.1843 20.8691 17.3301C20.8597 17.4153 20.8427 17.5011 20.8135 17.5859L20.75 17.7363L20.3418 18.5527C20.201 18.8343 20.201 19.1657 20.3418 19.4473L20.75 20.2637L20.8135 20.4141C21.0753 21.1746 20.5129 21.9998 19.6768 22H6.00001C4.34316 22 3.00001 20.6569 3.00001 19C3.00001 18.7811 3.02387 18.5678 3.06837 18.3623C3.02399 18.248 3.00001 18.1253 3.00001 18V6.00001C3.00001 5.08549 2.99777 4.29862 3.08204 3.67188C3.17019 3.01649 3.36934 2.38848 3.87891 1.87891L4.0752 1.70215C4.54581 1.32144 5.09835 1.15918 5.67188 1.08204C6.29862 0.997774 7.08549 1.00001 8.00001 1.00001H14ZM6.00001 18C5.44773 18 5.00002 18.4477 5.00001 19C5.00001 19.5523 5.44773 20 6.00001 20H18.4082C18.1794 19.3531 18.1794 18.6469 18.4082 18H6.00001ZM7.00001 3.00684C6.55925 3.01336 6.21851 3.02681 5.93848 3.06446C5.61355 3.10817 5.45592 3.17213 5.36524 3.2334L5.29297 3.29297C5.21687 3.36908 5.12278 3.50497 5.06446 3.93848C5.00228 4.40098 5.00001 5.02895 5.00001 6.00001V16.1738C5.31306 16.0631 5.64901 16 6.00001 16H7.00001V3.00684ZM9.00001 16H19V8.00001C19 6.55781 18.9982 5.57657 18.8994 4.8418C18.8164 4.22413 18.6775 3.89616 18.4951 3.67481L18.4141 3.58594C18.1915 3.36339 17.8642 3.19551 17.1582 3.10059C16.4234 3.00186 15.4422 3.00001 14 3.00001H9.00001V16Z" fill="black"/>
</svg>
