<svg width="24" height="24" viewBox="0 0 24 24" fill="none" xmlns="http://www.w3.org/2000/svg">
<path d="M16 2.00006C16 1.44778 15.5523 1.00006 15 1.00006C14.4477 1.00006 14 1.44778 14 2.00006V4.5C14 5.05228 14.4477 5.5 15 5.5C15.5523 5.5 16 5.05229 16 4.5V2.00006Z" fill="black"/>
<path d="M16 13.5C16 12.9477 15.5523 12.5 15 12.5C14.4477 12.5 14 12.9477 14 13.5V16.0001C14 16.5523 14.4477 17.0001 15 17.0001C15.5523 17.0001 16 16.5523 16 16.0001V13.5Z" fill="black"/>
<path d="M8 8.00006C7.44772 8.00006 7 8.44778 7 9.00006C7 9.55235 7.44772 10.0001 8 10.0001H10.4999C11.0522 10.0001 11.4999 9.55235 11.4999 9.00006C11.4999 8.44778 11.0522 8.00006 10.4999 8.00006H8Z" fill="black"/>
<path d="M19.4999 8.00006C18.9476 8.00006 18.4999 8.44778 18.4999 9.00006C18.4999 9.55235 18.9476 10.0001 19.4999 10.0001H21.9999C22.5522 10.0001 22.9999 9.55235 22.9999 9.00006C22.9999 8.44778 22.5522 8.00006 21.9999 8.00006H19.4999Z" fill="black"/>
<path d="M20.6568 3.34325C21.0474 3.73377 21.0474 4.36693 20.6568 4.75746L18.8891 6.52518C18.4986 6.91571 17.8654 6.91571 17.4749 6.52518C17.0844 6.13466 17.0844 5.50149 17.4749 5.11097L19.2426 3.34325C19.6332 2.95272 20.2663 2.95272 20.6568 3.34325Z" fill="black"/>
<path d="M15.4999 9.91426L3.47908 21.9351C3.08855 22.3256 2.45539 22.3256 2.06487 21.9351C1.67434 21.5445 1.67434 20.9114 2.06487 20.5208L14.0857 8.50005C14.4762 8.10952 15.1094 8.10952 15.4999 8.50005C15.8904 8.89057 15.8904 9.52374 15.4999 9.91426Z" fill="black"/>
<path d="M10.7574 3.34319C10.3669 2.95266 9.73374 2.95266 9.34322 3.34319C8.95269 3.73371 8.95269 4.36688 9.34321 4.7574L11.1109 6.52512C11.5015 6.91565 12.1346 6.91565 12.5252 6.52512C12.9157 6.1346 12.9157 5.50143 12.5252 5.11091L10.7574 3.34319Z" fill="black"/>
<path d="M18.8891 11.4749C18.4986 11.0844 17.8655 11.0844 17.4749 11.4749C17.0844 11.8654 17.0844 12.4986 17.4749 12.8891L19.2427 14.6569C19.6333 15.0474 20.2664 15.0474 20.657 14.6569C21.0475 14.2664 21.0475 13.6332 20.657 13.2427L18.8891 11.4749Z" fill="black"/>
</svg>
