<svg width="24" height="24" viewBox="0 0 24 24" fill="none" xmlns="http://www.w3.org/2000/svg">
<path d="M13.5001 1.71137C12.5719 1.17547 11.4283 1.17547 10.5001 1.71137L3.83984 5.55667C2.91164 6.09257 2.33984 7.08295 2.33984 8.15475V15.8453C2.33984 16.9171 2.91164 17.9075 3.83984 18.4434L10.5001 22.2887C11.4283 22.8246 12.5719 22.8246 13.5001 22.2887L20.1604 18.4434C21.0886 17.9075 21.6604 16.9171 21.6604 15.8453V8.15475C21.6604 7.08295 21.0886 6.09257 20.1604 5.55667L13.5001 1.71137ZM11.5001 3.44342C11.8095 3.26479 12.1907 3.26479 12.5001 3.44342L18.5934 6.96137L12.4789 10.5581C11.5626 11.0971 11 12.0808 11 13.1439V20.2679L4.83984 16.7114C4.53044 16.5327 4.33984 16.2026 4.33984 15.8453V8.15475C4.33984 7.79748 4.53044 7.46736 4.83984 7.28872L11.5001 3.44342ZM13 20.2681V13.1439C13 12.7895 13.1875 12.4616 13.493 12.282L19.6604 8.65409V15.8453C19.6604 16.2026 19.4698 16.5327 19.1604 16.7114L13 20.2681Z" fill="black"/>
</svg>
