<svg width="24" height="24" viewBox="0 0 24 24" fill="none" xmlns="http://www.w3.org/2000/svg">
<path d="M12 2C14.2091 2 16 3.79086 16 6C16 6.93606 15.6773 7.7961 15.1387 8.47754L18.3262 14.0566C18.5452 14.0195 18.7703 14 19 14C21.2091 14 23 15.7909 23 18C23 20.2091 21.2091 22 19 22C17.5196 22 16.2278 21.1954 15.5361 20H8.46387C7.77219 21.1954 6.48038 22 5 22C2.79086 22 1 20.2091 1 18C1 15.7909 2.79086 14 5 14C5.22899 14 5.4534 14.0197 5.67188 14.0566L8.86035 8.47656C8.32223 7.79529 8 6.93556 8 6C8 3.79086 9.79086 2 12 2ZM5 16C3.89543 16 3 16.8954 3 18C3 19.1046 3.89543 20 5 20C6.10457 20 7 19.1046 7 18C7 16.8954 6.10457 16 5 16ZM19 16C17.8954 16 17 16.8954 17 18C17 19.1046 17.8954 20 19 20C20.1046 20 21 19.1046 21 18C21 16.8954 20.1046 16 19 16ZM7.50293 14.8809C8.41538 15.614 9 16.7384 9 18H15C15 16.7392 15.5836 15.615 16.4951 14.8818L13.5312 9.69531C13.0595 9.89102 12.5426 10 12 10C11.4567 10 10.9391 9.89057 10.4668 9.69434L7.50293 14.8809ZM12 4C10.8954 4 10 4.89543 10 6C10 7.10457 10.8954 8 12 8C13.1046 8 14 7.10457 14 6C14 4.89543 13.1046 4 12 4Z" fill="black"/>
</svg>
