<svg width="24" height="24" viewBox="0 0 24 24" fill="none" xmlns="http://www.w3.org/2000/svg">
<path d="M12.959 22.8485C13.1635 22.7825 13.3627 22.6949 13.5531 22.5856L20.4476 18.629C21.4085 18.0776 22.0004 17.0586 22.0004 15.9558V8.04258C22.0004 7.74713 21.9579 7.45769 21.8772 7.18164L14.4349 11.6661C13.519 12.218 12.959 13.2092 12.959 14.2785V22.8485Z" fill="#2491FF"/>
<path d="M12.959 22.8485C13.1635 22.7825 13.3627 22.6949 13.5531 22.5856L20.4476 18.629C21.4085 18.0776 22.0004 17.0586 22.0004 15.9558V8.04258C22.0004 7.74713 21.9579 7.45769 21.8772 7.18164L14.4349 11.6661C13.519 12.218 12.959 13.2092 12.959 14.2785V22.8485Z" fill="url(#paint0_linear_17874_137603)"/>
<path d="M11.7007 11.8411L2.40039 6.52661C2.66891 6.05355 3.06274 5.65113 3.55237 5.37014L10.4469 1.41356C11.4077 0.862148 12.5915 0.862148 13.5524 1.41356L20.4469 5.37014C20.5727 5.44238 20.6923 5.52264 20.805 5.61006L13.4539 10.0396C12.7118 10.4867 12.1137 11.1115 11.7007 11.8411Z" fill="#2491FF"/>
<path d="M11.7007 11.8411L2.40039 6.52661C2.66891 6.05355 3.06274 5.65113 3.55237 5.37014L10.4469 1.41356C11.4077 0.862148 12.5915 0.862148 13.5524 1.41356L20.4469 5.37014C20.5727 5.44238 20.6923 5.52264 20.805 5.61006L13.4539 10.0396C12.7118 10.4867 12.1137 11.1115 11.7007 11.8411Z" fill="url(#paint1_linear_17874_137603)"/>
<path d="M11.7007 11.841L2.40039 6.52649C2.46035 6.42085 2.52657 6.31873 2.5987 6.2207C2.21607 6.74105 2 7.37638 2 8.04237V15.9555C2 17.0584 2.59191 18.0774 3.55275 18.6288L10.4472 22.5854C10.643 22.6978 10.8481 22.7872 11.0586 22.8538V14.2792C11.0586 13.4102 11.2865 12.5729 11.7007 11.841Z" fill="#2491FF"/>
<path d="M11.7007 11.841L2.40039 6.52649C2.46035 6.42085 2.52657 6.31873 2.5987 6.2207C2.21607 6.74105 2 7.37638 2 8.04237V15.9555C2 17.0584 2.59191 18.0774 3.55275 18.6288L10.4472 22.5854C10.643 22.6978 10.8481 22.7872 11.0586 22.8538V14.2792C11.0586 13.4102 11.2865 12.5729 11.7007 11.841Z" fill="url(#paint2_linear_17874_137603)"/>
<defs>
<linearGradient id="paint0_linear_17874_137603" x1="18" y1="20" x2="14" y2="12" gradientUnits="userSpaceOnUse">
<stop stop-color="#1AFF9F" stop-opacity="0.8"/>
<stop offset="1" stop-color="#1AFF9F" stop-opacity="0.25"/>
</linearGradient>
<linearGradient id="paint1_linear_17874_137603" x1="8.5" y1="2.5" x2="14.5" y2="9.5" gradientUnits="userSpaceOnUse">
<stop stop-color="#1AFF9F"/>
<stop offset="1" stop-color="#1AFF9F" stop-opacity="0.5"/>
</linearGradient>
<linearGradient id="paint2_linear_17874_137603" x1="2.5" y1="18.5" x2="12" y2="12.5" gradientUnits="userSpaceOnUse">
<stop stop-color="#1AFF9F" stop-opacity="0.9"/>
<stop offset="1" stop-color="#1AFF9F" stop-opacity="0.4"/>
</linearGradient>
</defs>
</svg>
