<svg width="24" height="24" viewBox="0 0 24 24" fill="none" xmlns="http://www.w3.org/2000/svg">
<path d="M16.3027 2.28306C16.5831 2.01015 17.0037 1.92209 17.376 2.0731C17.7483 2.22416 17.989 2.58036 18 2.97154L17.9902 3.14146L17.1533 8.99986H22C22.3761 8.99987 22.7209 9.21069 22.8916 9.54576C23.0409 9.83897 23.0347 10.1842 22.8828 10.4696L22.8086 10.5878L14.8086 21.5878C14.5384 21.9593 14.0498 22.0993 13.624 21.9266C13.1983 21.7539 12.9448 21.3131 13.0098 20.8583L13.8467 14.9999H9C8.6239 14.9999 8.27909 14.7891 8.1084 14.454C7.9378 14.1189 7.97028 13.7161 8.19141 13.412L16.1914 2.41197L16.3027 2.28306ZM10.9639 12.9999H15C15.2899 12.9999 15.5659 13.1256 15.7559 13.3446C15.9457 13.5635 16.0312 13.8546 15.9902 14.1415L15.5596 17.1551L20.0361 10.9999H16C15.7101 10.9999 15.4341 10.8741 15.2441 10.6551C15.0543 10.4362 14.9688 10.1451 15.0098 9.85826L15.4395 6.84361L10.9639 12.9999Z" fill="black"/>
<path d="M9.10254 18.0047C9.60663 18.0561 9.99994 18.4822 10 18.9999C10 19.5175 9.60666 19.9436 9.10254 19.995L9 19.9999H2C1.44772 19.9999 1 19.5521 1 18.9999C1.00007 18.4476 1.44776 17.9999 2 17.9999H9L9.10254 18.0047Z" fill="black"/>
<path d="M6.10254 11.0047C6.60663 11.0561 6.99994 11.4822 7 11.9999C7 12.5175 6.60666 12.9436 6.10254 12.995L6 12.9999H3C2.44772 12.9999 2 12.5521 2 11.9999C2.00007 11.4476 2.44776 10.9999 3 10.9999H6L6.10254 11.0047Z" fill="black"/>
<path d="M10 3.99986C10.5522 3.99986 10.9999 4.44764 11 4.99986C11 5.55215 10.5523 5.99986 10 5.99986H4C3.44772 5.99986 3 5.55215 3 4.99986C3.00007 4.44764 3.44776 3.99986 4 3.99986H10Z" fill="black"/>
</svg>
