<svg width="24" height="24" viewBox="0 0 24 24" fill="none" xmlns="http://www.w3.org/2000/svg">
<path d="M10.5419 13.6839L15.2295 8.68394L13.7705 7.31604L9.77293 11.58L7.69045 9.59235L6.30957 11.0391L9.12193 13.7234C9.3149 13.9076 9.57347 14.007 9.84013 13.9996C10.1068 13.9922 10.3594 13.8786 10.5419 13.6839Z" fill="black" fill-opacity="0.85"/>
<path d="M2 7C2 4.23858 4.23858 2 7 2H14C16.7614 2 19 4.23858 19 7V14C19 16.7614 16.7614 19 14 19H7C4.23858 19 2 16.7614 2 14V7ZM7 4C5.34315 4 4 5.34315 4 7V14C4 15.6569 5.34315 17 7 17H14C15.6569 17 17 15.6569 17 14V7C17 5.34315 15.6569 4 14 4H7Z" fill="black" fill-opacity="0.85"/>
<path d="M20 14V7H22V14C22 18.4183 18.4183 22 14 22H7V20H14C17.3137 20 20 17.3137 20 14Z" fill="black" fill-opacity="0.85"/>
</svg>
