<svg width="24" height="24" viewBox="0 0 24 24" fill="none" xmlns="http://www.w3.org/2000/svg">
<path d="M6.83582 17.8374C6.67943 17.6789 6.54736 17.5376 6.44066 17.4195H4C2.89544 17.4195 2 16.5241 2 15.4195V8.5054C2 7.4008 2.89544 6.5054 4 6.5054H6.44558C6.55248 6.38906 6.68485 6.24975 6.84164 6.09338C7.29603 5.64021 7.96032 5.03883 8.80851 4.4371C10.4974 3.23894 12.9726 2 16 2C16.5523 2 17 2.44772 17 3V21C17 21.5523 16.5523 22 16 22C12.9679 22 10.4905 20.7385 8.80216 19.5208C7.95402 18.9091 7.28991 18.2979 6.83582 17.8374ZM7.68343 8.12605L7.68042 8.12972C7.49065 8.36684 7.20298 8.5054 6.89925 8.5054L4 8.5054V15.4195H6.89925C7.20544 15.4195 7.49473 15.5598 7.68434 15.8002L7.68501 15.801L7.68853 15.8054L7.71197 15.8341C7.73431 15.8611 7.76994 15.9036 7.81845 15.9592C7.91554 16.0705 8.06378 16.2343 8.25979 16.4331C8.65271 16.8315 9.23255 17.3653 9.9721 17.8987C11.2536 18.823 12.9703 19.7148 15 19.9437V4.05531C12.9661 4.28044 11.2472 5.15922 9.96574 6.0683C9.22624 6.59292 8.6466 7.11789 8.25397 7.50948C8.05809 7.70484 7.90999 7.86577 7.81304 7.97513C7.7646 8.02978 7.72904 8.07144 7.70677 8.09795L7.68343 8.12605Z" fill="black" fill-opacity="0.85"/>
<path d="M18.2929 8.20711C18.5553 8.46946 18.9953 9.01312 19.3651 9.71575C19.7353 10.4192 20 11.215 20 12C20 12.785 19.7353 13.5808 19.3651 14.2843C18.9953 14.9869 18.5553 15.5305 18.2929 15.7929L19.7071 17.2071C20.1114 16.8028 20.6714 16.0964 21.1349 15.2157C21.598 14.3358 22 13.215 22 12C22 10.785 21.598 9.66418 21.1349 8.78425C20.6714 7.90355 20.1114 7.1972 19.7071 6.79289L18.2929 8.20711Z" fill="black" fill-opacity="0.85"/>
</svg>
