<svg width="20" height="20" viewBox="0 0 20 20" fill="none" xmlns="http://www.w3.org/2000/svg">
<path d="M5.69653 14.8645C5.56621 14.7324 5.45615 14.6147 5.36724 14.5163H3.33335C2.41289 14.5163 1.66669 13.7701 1.66669 12.8496V7.08785C1.66669 6.16736 2.41289 5.42119 3.33335 5.42119H5.37133C5.46042 5.32424 5.57073 5.20815 5.70139 5.07784C6.08004 4.70019 6.63362 4.19904 7.34045 3.6976C8.74787 2.69914 10.8105 1.66669 13.3334 1.66669C13.7936 1.66669 14.1667 2.03978 14.1667 2.50002V17.5C14.1667 17.9603 13.7936 18.3334 13.3334 18.3334C10.8066 18.3334 8.7421 17.2821 7.33515 16.2674C6.62837 15.7576 6.07495 15.2482 5.69653 14.8645Z" fill="white" fill-opacity="0.85"/>
<path d="M15.2441 6.83928C15.4627 7.05791 15.8294 7.51095 16.1376 8.09648C16.4461 8.68265 16.6667 9.34588 16.6667 10C16.6667 10.6542 16.4461 11.3174 16.1376 11.9036C15.8294 12.4891 15.4627 12.9421 15.2441 13.1608L16.4226 14.3393C16.7595 14.0024 17.2262 13.4137 17.6125 12.6798C17.9984 11.9465 18.3334 11.0126 18.3334 10C18.3334 8.98749 17.9984 8.0535 17.6125 7.32023C17.2262 6.58631 16.7595 5.99769 16.4226 5.66076L15.2441 6.83928Z" fill="white" fill-opacity="0.85"/>
</svg>
