<svg width="24" height="24" viewBox="0 0 24 24" fill="none" xmlns="http://www.w3.org/2000/svg">
<path fill-rule="evenodd" clip-rule="evenodd" d="M12 23C18.0751 23 23 18.0751 23 12C23 5.92487 18.0751 1 12 1C5.92487 1 1 5.92487 1 12C1 18.0751 5.92487 23 12 23ZM10.7549 10.7744V12.9497H11.9121C12.7324 12.9497 13.1353 13.4331 13.1353 13.9312C13.1353 14.4731 12.6592 14.9053 11.9561 14.9053C11.2456 14.9053 10.6084 14.5098 10.6084 13.9165H7.81787C7.81787 15.6157 9.08496 17.1685 11.8828 17.1685C14.0728 17.1685 16.1748 16.1138 16.1748 14.1655C16.1748 12.6055 15.1567 11.8438 14.124 11.7778V11.624C14.8638 11.5435 15.9185 10.9355 15.9185 9.51465C15.9185 7.88867 14.1753 6.84131 12.0146 6.84131C9.49512 6.84131 7.979 8.02051 7.89844 10.0713H10.7329C10.7329 9.55859 11.187 9.0459 11.8608 9.0459C12.4834 9.0459 12.9521 9.42676 12.9521 9.88086C12.9521 10.4009 12.5493 10.7744 11.8682 10.7744H10.7549Z" fill="black" fill-opacity="0.85"/>
</svg>
