<svg width="24" height="24" viewBox="0 0 24 24" fill="none" xmlns="http://www.w3.org/2000/svg">
<path d="M8.92943 2H15.0706C16.4247 1.99997 17.5413 1.99994 18.4251 2.11875C19.3529 2.2435 20.1723 2.51547 20.8284 3.17158C21.4845 3.82768 21.7565 4.64711 21.8813 5.57494C22.0001 6.4587 22 7.57533 22 8.92946V15.0705C22 16.4247 22.0001 17.5413 21.8813 18.4251C21.7565 19.3529 21.4845 20.1723 20.8284 20.8284C20.1723 21.4845 19.3529 21.7565 18.4251 21.8813C17.5413 22.0001 16.4247 22 15.0705 22H8.92946C7.57533 22 6.4587 22.0001 5.57494 21.8813C4.64711 21.7565 3.82768 21.4845 3.17158 20.8284C2.51547 20.1723 2.2435 19.3529 2.11875 18.4251C1.99994 17.5413 1.99997 16.4247 2 15.0706V8.92943C1.99997 7.57531 1.99994 6.4587 2.11875 5.57494C2.2435 4.64711 2.51547 3.82768 3.17158 3.17158C3.82768 2.51547 4.64711 2.2435 5.57494 2.11875C6.4587 1.99994 7.57531 1.99997 8.92943 2ZM5.84143 4.10092C5.13538 4.19585 4.80836 4.36322 4.58579 4.58579C4.36322 4.80836 4.19585 5.13538 4.10092 5.84143C4.00213 6.57625 4 7.55752 4 9V15C4 16.4425 4.00213 17.4237 4.10092 18.1586C4.19585 18.8646 4.36322 19.1916 4.58579 19.4142C4.80836 19.6368 5.13538 19.8042 5.84143 19.8991C6.57625 19.9979 7.55752 20 9 20H15C16.4425 20 17.4237 19.9979 18.1586 19.8991C18.8646 19.8042 19.1916 19.6368 19.4142 19.4142C19.6368 19.1916 19.8042 18.8646 19.8991 18.1586C19.9979 17.4238 20 16.4425 20 15V9C20 7.55752 19.9979 6.57625 19.8991 5.84143C19.8042 5.13538 19.6368 4.80836 19.4142 4.58579C19.1916 4.36322 18.8646 4.19585 18.1586 4.10092C17.4238 4.00213 16.4425 4 15 4H9C7.55752 4 6.57625 4.00213 5.84143 4.10092Z" fill="black"/>
</svg>
