<svg width="24" height="24" viewBox="0 0 24 24" fill="none" xmlns="http://www.w3.org/2000/svg">
<path d="M12.0001 1.00208C12.3574 1.00208 12.6875 1.19267 12.8661 1.50208L15.4618 5.99792H20.6603C21.0176 5.99792 21.3477 6.18852 21.5264 6.49792C21.705 6.80733 21.705 7.18852 21.5264 7.49792L18.9271 12L21.5264 16.5021C21.705 16.8115 21.705 17.1927 21.5264 17.5021C21.3477 17.8115 21.0176 18.0021 20.6603 18.0021H15.4618L12.8661 22.4979C12.6875 22.8073 12.3574 22.9979 12.0001 22.9979C11.6428 22.9979 11.3127 22.8073 11.1341 22.4979L8.53839 18.0021H3.33984C2.98258 18.0021 2.65245 17.8115 2.47382 17.5021C2.29519 17.1927 2.29519 16.8115 2.47382 16.5021L5.07309 12L2.47382 7.49792C2.29519 7.18852 2.29519 6.80733 2.47382 6.49792C2.65245 6.18852 2.98258 5.99792 3.33984 5.99792H8.53839L11.1341 1.50208C11.3127 1.19267 11.6428 1.00208 12.0001 1.00208Z" fill="black"/>
</svg>
