<svg width="24" height="24" viewBox="0 0 24 24" fill="none" xmlns="http://www.w3.org/2000/svg">
<path d="M21.7428 2.82847C20.1861 1.27182 17.6356 1.36279 16.1939 3.0264L11.1804 8.81113C11.8072 9.04195 12.4176 9.36407 12.9901 9.77678L17.7052 4.33626C18.3869 3.54977 19.5926 3.50676 20.3285 4.24269C21.0645 4.97862 21.0215 6.18438 20.235 6.866L14.7857 11.5887C15.196 12.1822 15.4916 12.8116 15.6844 13.4564L21.5448 8.37738C23.2084 6.93559 23.2994 4.38513 21.7428 2.82847Z" fill="black"/>
<path d="M13.2573 11.3137C10.8189 8.87535 7.28616 8.79953 5.34442 10.7413C4.20762 11.8781 4.05999 13.2486 3.97168 14.0685C3.95225 14.2488 3.93569 14.4026 3.9121 14.5213C3.88399 14.6399 3.80956 14.7575 3.59559 14.898C3.35425 15.0565 3.04302 15.1745 2.65003 15.3163L2.6248 15.3254C2.4539 15.387 2.25226 15.4597 2.07357 15.5393C1.90114 15.6162 1.63765 15.7462 1.42313 15.9644C1.16215 16.2299 0.964235 16.6435 1.06561 17.1406C1.14658 17.5376 1.39355 17.8347 1.59002 18.0312C3.0796 19.5208 5.00404 20.8653 7.02051 21.4273C9.08282 22.002 11.2969 21.7593 13.0889 19.9673C15.2524 17.8039 15.8437 13.9001 13.2573 11.3137ZM6.75864 12.1555C7.78001 11.1341 10.0388 10.9236 11.8431 12.7279C13.4993 14.3841 13.2151 17.0127 11.6747 18.5531C10.5036 19.7242 9.08957 19.9277 7.55742 19.5007C6.1829 19.1176 4.7641 18.2298 3.53622 17.1223C3.87512 16.9973 4.30679 16.8237 4.69351 16.5697C5.18804 16.2449 5.69089 15.7365 5.86604 14.9483L5.86782 14.9403L5.86947 14.9322C5.94659 14.5561 5.98496 14.2371 6.01898 13.9543C6.10544 13.2355 6.1638 12.7503 6.75864 12.1555Z" fill="black"/>
</svg>
