<svg width="24" height="24" viewBox="0 0 24 24" fill="none" xmlns="http://www.w3.org/2000/svg">
<path d="M18.419 7.82751C18.4011 7.93974 18.3808 8.05523 18.358 8.17396C17.5846 12.1719 14.9366 13.5537 11.5559 13.5537H9.83425C9.63413 13.5541 9.4408 13.6262 9.28923 13.7569C9.13767 13.8876 9.0379 14.0682 9.00798 14.2661L8.12641 19.893L7.87674 21.487C7.86707 21.55 7.87103 21.6142 7.88834 21.6755C7.90565 21.7368 7.93592 21.7936 7.97709 21.8422C8.01826 21.8908 8.06937 21.9299 8.12698 21.957C8.18459 21.9842 8.24735 21.9986 8.31102 21.9994H11.3648C11.5401 21.9989 11.7095 21.9359 11.8425 21.8217C11.9755 21.7075 12.0633 21.5496 12.0902 21.3764L12.1203 21.2203L12.6953 17.5484L12.7327 17.3475C12.7593 17.174 12.847 17.0157 12.98 16.9012C13.113 16.7867 13.2826 16.7234 13.4581 16.7229H13.9144C16.873 16.7229 19.1892 15.5136 19.8658 12.0158C20.1488 10.5544 20.0024 9.33367 19.2542 8.47568C19.0173 8.21056 18.734 7.99091 18.4182 7.82751H18.419Z" fill="#179BD7"/>
<path d="M17.6088 7.50219C17.3616 7.43044 17.1101 7.37448 16.8558 7.33466C16.3537 7.25701 15.8462 7.21976 15.3382 7.22325H10.7392C10.5636 7.22341 10.3939 7.28651 10.2608 7.4011C10.1277 7.51569 10.0401 7.67418 10.0138 7.84783L9.03546 14.0847L9.00781 14.2661C9.03773 14.0682 9.1375 13.8876 9.28907 13.7569C9.44063 13.6262 9.63397 13.5541 9.83408 13.5537H11.5558C14.9365 13.5537 17.5844 12.1711 18.3579 8.17395C18.3814 8.05521 18.401 7.93973 18.418 7.8275C18.1606 7.69068 17.8893 7.58163 17.6088 7.50219Z" fill="#222D65"/>
<path d="M10.0139 7.84703C10.04 7.67338 10.1276 7.51489 10.2608 7.40041C10.3939 7.28592 10.5637 7.22306 10.7393 7.22326H15.3383C15.8832 7.22326 16.3923 7.25904 16.8558 7.33467C17.1706 7.38428 17.4804 7.4591 17.783 7.55751C18.0107 7.63314 18.2229 7.72341 18.4189 7.82751C18.6491 6.34982 18.4173 5.34381 17.6228 4.43215C16.7477 3.4294 15.1683 3 13.1474 3H7.27891C6.86658 3 6.51444 3.30253 6.45019 3.71323L4.00635 19.3059C3.99482 19.3782 3.99903 19.4522 4.01867 19.5228C4.03832 19.5934 4.07295 19.6589 4.12021 19.7149C4.21617 19.8271 4.35605 19.8922 4.50325 19.893H8.12632L9.03555 14.0847L10.0139 7.84703Z" fill="#253B80"/>
</svg>
