<svg width="24" height="24" viewBox="0 0 24 24" fill="none" xmlns="http://www.w3.org/2000/svg">
<path d="M15.501 1.4996C15.8862 1.30641 16.3518 1.38166 16.6565 1.68635L22.3133 7.34319C22.6178 7.64763 22.6932 8.11275 22.5005 8.49778C22.3078 8.88281 21.8904 9.10131 21.4642 9.04016L19.6724 8.78306L16.7161 14.1034C17.0685 14.9246 17.2868 15.7559 17.2498 16.588C17.2036 17.6255 16.7665 18.5469 15.9547 19.3587C15.7672 19.5463 15.5128 19.6516 15.2476 19.6516C14.9824 19.6516 14.728 19.5463 14.5405 19.3588L11.2604 16.0787L3.81593 21.5824C3.41824 21.8764 2.86537 21.8355 2.51523 21.4862C2.16508 21.137 2.12284 20.5842 2.41585 20.1858L7.90444 12.7227L4.64135 9.45964C4.25083 9.06912 4.25044 8.43558 4.64095 8.04505C5.45667 7.22931 6.40575 6.78694 7.44866 6.73414C8.28683 6.6917 9.11737 6.90408 9.91673 7.27284L15.2209 4.33287L14.9598 2.53738C14.8978 2.11097 15.1159 1.69279 15.501 1.4996Z" fill="black"/>
</svg>
