<svg width="24" height="24" viewBox="0 0 24 24" fill="none" xmlns="http://www.w3.org/2000/svg">
<path d="M11.3553 4.38681L17.2656 7.67028C18.5946 8.40857 19.6915 9.0179 20.4464 9.59686C21.2194 10.1897 21.8818 10.9359 21.8818 12C21.8818 13.0642 21.2194 13.8103 20.4464 14.4032C19.6915 14.9822 18.5946 15.5915 17.2656 16.3298L11.3554 19.6132C10.0938 20.3142 9.04778 20.8953 8.193 21.2167C7.31174 21.5481 6.36538 21.7084 5.47862 21.1866C4.59186 20.6648 4.27239 19.7597 4.13407 18.8284C3.99991 17.9251 3.99995 16.7286 4 15.2853V8.71471C3.99995 7.27149 3.99991 6.07491 4.13407 5.17161C4.27239 4.24032 4.59186 3.33522 5.47862 2.81344C6.36538 2.29167 7.31173 2.45196 8.193 2.78332C9.04778 3.10473 10.0938 3.68587 11.3553 4.38681Z" fill="black"/>
</svg>
