<svg width="24" height="24" viewBox="0 0 24 24" fill="none" xmlns="http://www.w3.org/2000/svg">
<path d="M10.9999 11H6.99992V13H10.9999V17H12.9999V13H16.9999V11H12.9999V7.00004H10.9999V11Z" fill="black" fill-opacity="0.85"/>
<path d="M4.22183 4.22183C8.5176 -0.0739419 15.4824 -0.0739419 19.7782 4.22183C24.0739 8.5176 24.0739 15.4824 19.7782 19.7782C15.4824 24.0739 8.5176 24.0739 4.22183 19.7782C-0.0739422 15.4824 -0.0739422 8.5176 4.22183 4.22183ZM18.364 5.63604C14.8492 2.12132 9.15076 2.12132 5.63604 5.63604C2.12132 9.15076 2.12132 14.8492 5.63604 18.364C9.15076 21.8787 14.8492 21.8787 18.364 18.364C21.8787 14.8492 21.8787 9.15076 18.364 5.63604Z" fill="black" fill-opacity="0.85"/>
</svg>
