<svg width="24" height="24" viewBox="0 0 24 24" fill="none" xmlns="http://www.w3.org/2000/svg">
<path d="M7 5C7 2.79086 8.79086 1 11 1C13.2091 1 15 2.79086 15 5C15 7.20914 13.2091 9 11 9C8.79086 9 7 7.20914 7 5ZM11 3C9.89543 3 9 3.89543 9 5C9 6.10457 9.89543 7 11 7C12.1046 7 13 6.10457 13 5C13 3.89543 12.1046 3 11 3Z" fill="black" fill-opacity="0.85"/>
<path d="M7 12H4V10H7C8.65685 10 10 11.3431 10 13V13.4708C10 14.4396 9.5321 15.3488 8.74371 15.912L6.91876 17.2155C6.65597 17.4032 6.5 17.7063 6.5 18.0292V22H4.5V18.0292C4.5 17.0604 4.9679 16.1512 5.75629 15.588L7.58124 14.2845C7.84403 14.0968 8 13.7937 8 13.4708V13C8 12.4477 7.55228 12 7 12Z" fill="black" fill-opacity="0.85"/>
<path d="M14.8818 10C13.2902 10 12 11.2902 12 12.8818C12 14.137 12.4954 15.3414 13.3785 16.2334L19.2894 22.2036L20.7106 20.7964L14.7997 14.8263C14.2874 14.3088 14 13.61 14 12.8818C14 12.3948 14.3948 12 14.8818 12H18.0909V10H14.8818Z" fill="black" fill-opacity="0.85"/>
</svg>
