<svg width="24" height="24" viewBox="0 0 24 24" fill="none" xmlns="http://www.w3.org/2000/svg">
<path d="M21.9462 3.3236C22.0713 2.958 21.9745 2.55309 21.6976 2.28355C21.4208 2.014 21.0134 1.92806 20.6513 2.06279L1.65132 9.13194C1.23125 9.28823 0.966481 9.70494 1.00343 10.1516C1.04037 10.5983 1.37001 10.9658 1.81005 11.051L11.1847 12.865L13.5326 22.2429C13.6402 22.6727 14.0178 22.9805 14.4605 22.9991C14.9033 23.0178 15.3055 22.7429 15.4488 22.3236L21.9462 3.3236ZM11.672 10.9222L5.68755 9.76416L19.371 4.67308L14.6511 18.4755L13.1085 12.3141L16.2468 9.17581L14.8326 7.76159L11.672 10.9222Z" fill="black"/>
</svg>
