<svg width="26" height="24" viewBox="0 0 26 24" fill="none" xmlns="http://www.w3.org/2000/svg">
<path d="M0.824199 10.8129C0.923018 9.23176 2.23417 8 3.81836 8H20.8067C22.5371 8 23.9088 9.46004 23.8008 11.1871L23.1758 21.1871C23.077 22.7682 21.7658 24 20.1817 24H3.19336C1.46289 24 0.0912558 22.54 0.199199 20.8129L0.824199 10.8129Z" fill="url(#paint0_linear_5676_74936)"/>
<g filter="url(#filter0_d_5676_74936)">
<path d="M3.17326 19.3734C3.00757 19.3734 2.88545 19.2397 2.9005 19.0747L3.46386 12.8964C3.4789 12.7314 3.62541 12.5976 3.7911 12.5976H5.96548C7.97248 12.5976 8.53512 13.2615 8.37577 15.0092C8.20217 16.9131 7.42209 17.5282 5.5159 17.5282H5.16523C4.99954 17.5282 4.85303 17.6619 4.83799 17.8269L4.72421 19.0747C4.70917 19.2397 4.56266 19.3734 4.39697 19.3734H3.17326ZM5.01497 15.886C5.00996 15.941 5.05066 15.9855 5.10589 15.9855H5.39079C6.15144 15.9855 6.44596 15.7707 6.51095 15.058C6.5795 14.3062 6.30582 14.0914 5.5635 14.0914H5.2786C5.22337 14.0914 5.17454 14.136 5.16952 14.191L5.01497 15.886Z" fill="url(#paint1_linear_5676_74936)"/>
<path d="M14.4845 19.2176C14.5239 19.2837 14.4682 19.3734 14.3878 19.3734H12.7134C12.5342 19.3734 12.3775 19.278 12.3025 19.1233L11.3449 17.1486C11.3299 17.1177 11.2986 17.0986 11.2628 17.0986H11.0633C11.008 17.0986 10.9592 17.1432 10.9542 17.1982L10.7831 19.0747C10.768 19.2397 10.6215 19.3734 10.4558 19.3734H9.23213C9.06645 19.3734 8.94433 19.2397 8.95938 19.0747L9.52273 12.8964C9.53778 12.7314 9.68429 12.5976 9.84997 12.5976H12.1343C13.7564 12.5976 14.5399 13.2518 14.393 14.8627C14.2933 15.9562 13.8964 16.5909 13.0989 16.8935L14.4845 19.2176ZM11.3384 14.0817C11.2831 14.0817 11.2343 14.1263 11.2293 14.1813L11.0988 15.6126C11.0938 15.6676 11.1345 15.7122 11.1897 15.7122H11.5296C12.2719 15.7122 12.5389 15.4974 12.5968 14.8627C12.6538 14.2379 12.4206 14.0817 11.6783 14.0817H11.3384Z" fill="url(#paint2_linear_5676_74936)"/>
<path d="M17.8676 19.4711C15.9797 19.4711 14.9341 18.7779 15.1887 15.9855C15.4424 13.203 16.6154 12.5 18.5032 12.5C20.4003 12.5 21.4359 13.203 21.1822 15.9855C20.9276 18.7779 19.7646 19.4711 17.8676 19.4711ZM18.0136 17.8699C18.8842 17.8699 19.1342 17.4403 19.2668 15.9855C19.4012 14.5113 19.2305 14.0719 18.3599 14.0719C17.4893 14.0719 17.2476 14.5113 17.1132 15.9855C16.9805 17.4403 17.143 17.8699 18.0136 17.8699Z" fill="url(#paint3_linear_5676_74936)"/>
</g>
<defs>
<filter id="filter0_d_5676_74936" x="0.899292" y="10.5" width="24.3208" height="12.9711" filterUnits="userSpaceOnUse" color-interpolation-filters="sRGB">
<feFlood flood-opacity="0" result="BackgroundImageFix"/>
<feColorMatrix in="SourceAlpha" type="matrix" values="0 0 0 0 0 0 0 0 0 0 0 0 0 0 0 0 0 0 127 0" result="hardAlpha"/>
<feOffset dx="1" dy="1"/>
<feGaussianBlur stdDeviation="1.5"/>
<feComposite in2="hardAlpha" operator="out"/>
<feColorMatrix type="matrix" values="0 0 0 0 0.576471 0 0 0 0 0.454902 0 0 0 0 0.231373 0 0 0 0.3 0"/>
<feBlend mode="normal" in2="BackgroundImageFix" result="effect1_dropShadow_5676_74936"/>
<feBlend mode="normal" in="SourceGraphic" in2="effect1_dropShadow_5676_74936" result="shape"/>
</filter>
<linearGradient id="paint0_linear_5676_74936" x1="0.729909" y1="16" x2="22.7334" y2="16" gradientUnits="userSpaceOnUse">
<stop stop-color="#DCBE86"/>
<stop offset="1" stop-color="#B2945C"/>
</linearGradient>
<linearGradient id="paint1_linear_5676_74936" x1="3.15322" y1="15.4167" x2="21.0251" y2="13.9035" gradientUnits="userSpaceOnUse">
<stop stop-color="white"/>
<stop offset="1" stop-color="#FFF8EA"/>
</linearGradient>
<linearGradient id="paint2_linear_5676_74936" x1="3.15322" y1="15.4167" x2="21.0251" y2="13.9035" gradientUnits="userSpaceOnUse">
<stop stop-color="white"/>
<stop offset="1" stop-color="#FFF8EA"/>
</linearGradient>
<linearGradient id="paint3_linear_5676_74936" x1="3.15322" y1="15.4167" x2="21.0251" y2="13.9035" gradientUnits="userSpaceOnUse">
<stop stop-color="white"/>
<stop offset="1" stop-color="#FFF8EA"/>
</linearGradient>
</defs>
</svg>
