<svg width="24" height="24" viewBox="0 0 24 24" fill="none" xmlns="http://www.w3.org/2000/svg">
<path d="M6.02204 3.57037C7.48972 1.92288 9.574 1 12.0012 1C14.4284 1 16.5127 1.92288 17.9803 3.57056C19.4331 5.20174 20.2186 7.46999 20.2242 10.0797L20.7452 11.3182C20.9714 11.8722 21.1797 12.4334 21.3698 13.0009L21.3723 13.0084C21.7467 14.1562 21.9657 15.1995 21.9963 16.116C22.0267 17.0285 21.8721 17.8857 21.4235 18.5875C21.1906 18.9557 20.8829 19.2708 20.5203 19.5123C20.4253 19.5756 20.3271 19.6334 20.2261 19.6857C20.2117 20.279 20.0405 20.8519 19.7414 21.3331C19.2244 22.1647 18.4687 22.5859 17.6286 22.791C16.8395 22.9836 15.913 23 14.968 23C13.8773 23 12.7194 22.9474 11.9995 22.8875C11.2811 22.9464 10.1229 23 9.03236 23C8.08736 23 7.16077 22.9836 6.37136 22.7906C5.53069 22.5852 4.77511 22.1632 4.25791 21.3309L4.25142 21.3205C4.02023 20.9381 3.86869 20.5129 3.80573 20.0705C3.78755 19.9427 3.77687 19.8143 3.77365 19.6859C3.29278 19.436 2.88034 19.0604 2.5792 18.5912C2.12824 17.8885 1.97309 17.0297 2.00373 16.1161C2.03447 15.1997 2.25381 14.1569 2.62821 13.0101L2.63043 13.0033C2.82411 12.4242 3.03705 11.8517 3.26884 11.2867L3.27217 11.2786L3.7772 10.0778C3.78344 7.46886 4.56921 5.2012 6.02204 3.57037ZM5.77717 10.1062L5.77815 10.2713C5.77895 10.4064 5.75236 10.5403 5.69997 10.6649L5.11752 12.0498C4.90369 12.5713 4.70719 13.0997 4.52836 13.6342C4.1893 14.6735 4.02486 15.5196 4.00261 16.1831C3.98024 16.8502 4.10317 17.2629 4.26237 17.5109C4.44353 17.7932 4.71715 17.9682 5.01374 18.0171C5.29217 18.0629 5.53827 18.2243 5.69132 18.4614C5.84437 18.6984 5.89014 18.9891 5.81732 19.2618C5.77147 19.4335 5.76073 19.6127 5.78578 19.7887C5.81053 19.9626 5.86974 20.1298 5.95988 20.2805C6.13467 20.5591 6.38072 20.734 6.84624 20.8478C7.36595 20.9749 8.05581 21 9.03236 21C10.115 21 11.2663 20.944 11.9135 20.8877C11.9717 20.8826 12.0302 20.8827 12.0884 20.8878C12.7338 20.945 13.8835 21 14.968 21C15.9445 21 16.6346 20.9749 17.1543 20.848C17.623 20.7336 17.8686 20.5574 18.0429 20.2771C18.2094 20.0093 18.2806 19.6302 18.1825 19.2597C18.1105 18.9879 18.1563 18.6984 18.3086 18.4621C18.4609 18.2257 18.7056 18.0644 18.9829 18.0177C19.1361 17.9918 19.2822 17.9339 19.4116 17.8477C19.541 17.7615 19.6508 17.649 19.7339 17.5174L19.7376 17.5115C19.8967 17.2632 20.0197 16.8501 19.9974 16.1827C19.9752 15.5189 19.811 14.6724 19.4721 13.6324C19.2965 13.1086 19.1043 12.5906 18.8956 12.0792L18.3015 10.667C18.249 10.5424 18.2224 10.4085 18.2232 10.2733L18.2242 10.107C18.2241 7.87932 17.5592 6.10487 16.4868 4.90079C15.4229 3.70634 13.8952 3 12.0012 3C10.1072 3 8.57943 3.70634 7.5154 4.90074C6.4428 6.10475 5.77774 7.879 5.77717 10.1062Z" fill="black" fill-opacity="0.85"/>
</svg>
