<svg width="24" height="24" viewBox="0 0 24 24" fill="none" xmlns="http://www.w3.org/2000/svg">
<g clip-path="url(#clip0_12611_318478)">
<path d="M12.0005 22.3185C9.99331 22.3185 8.15073 21.6975 6.96446 20.7699C6.36196 20.9363 5.59129 21.204 5.10506 21.5361C4.68866 21.82 4.74071 22.1096 4.81566 22.2265C5.14494 22.7402 10.4648 22.5545 12.0005 22.3946V22.3185ZM12.0005 22.3185C14.0081 22.3185 15.8505 21.6975 17.0369 20.7699C17.6391 20.9363 18.4099 21.204 18.8963 21.5361C19.3124 21.82 19.2605 22.1096 19.1854 22.2265C18.8561 22.7402 13.5364 22.5545 12.0005 22.3946V22.3185Z" fill="#FAAB07"/>
<path d="M12.0122 11.197C15.3271 11.1763 17.9838 10.583 18.884 10.3556C19.0986 10.3013 19.2133 10.204 19.2133 10.204C19.2141 10.176 19.2269 9.70504 19.2269 9.46224C19.2269 5.37092 17.1378 1.25991 12.0001 1.25977C6.8623 1.25991 4.77308 5.37107 4.77308 9.46209C4.77308 9.70519 4.78589 10.176 4.78685 10.2038C4.78685 10.2038 4.88022 10.2949 5.05111 10.339C5.88231 10.5528 8.58893 11.1755 11.9877 11.197H12.0122ZM21.0202 14.6052C20.8147 13.9939 20.5343 13.281 20.2501 12.5964C20.2501 12.5964 20.0868 12.5777 20.004 12.5998C17.4554 13.2842 14.3662 13.7206 12.0122 13.6942H11.9877C9.64692 13.7201 6.57867 13.289 4.03861 12.6112C3.94156 12.5853 3.75001 12.5964 3.75001 12.5964C3.4659 13.281 3.18546 13.994 2.97999 14.6052C2 17.5204 2.31758 18.7267 2.55926 18.7536C3.078 18.8117 4.57817 16.5593 4.57817 16.5593C4.57817 18.8481 6.81346 22.3623 11.9322 22.3946H12.068C17.1865 22.3623 19.4218 18.8481 19.4218 16.5593C19.4218 16.5593 20.9222 18.8117 21.4409 18.7538C21.6824 18.7267 22 17.5202 21.0202 14.6052Z" fill="black"/>
<path d="M10.1719 7.3039C9.47491 7.33306 8.87945 6.59916 8.84198 5.66598C8.80418 4.7325 9.33814 3.95211 10.0351 3.92294C10.7313 3.89407 11.3266 4.62768 11.3644 5.56116C11.4025 6.49478 10.8684 7.27517 10.1719 7.3039ZM15.158 5.66598C15.1207 6.59901 14.5252 7.33306 13.8282 7.3039C13.1316 7.27503 12.5976 6.49478 12.6357 5.56131C12.6735 4.62783 13.2687 3.89422 13.965 3.92294C14.662 3.95211 15.196 4.7325 15.158 5.66598Z" fill="white"/>
<path d="M16.3966 8.62183C16.2105 8.24059 14.3347 7.81567 12.0126 7.81567H11.9876C9.66533 7.81567 7.7896 8.24059 7.60333 8.62197C7.59452 8.63894 7.58988 8.65749 7.58972 8.67631C7.58972 8.70385 7.59981 8.72843 7.61535 8.74975C7.7723 8.96102 9.85511 10.0063 11.9876 10.0063H12.0126C14.1449 10.0063 16.2277 8.96131 16.3846 8.74975C16.4011 8.72817 16.4101 8.70243 16.4103 8.67601C16.4101 8.65729 16.4054 8.63884 16.3966 8.62197" fill="#FAAB07"/>
<path d="M11.0285 5.67982C11.0604 6.04847 10.8416 6.37597 10.5407 6.41165C10.2391 6.44748 9.96927 6.17772 9.93723 5.80907C9.90568 5.44012 10.1241 5.11263 10.4246 5.07709C10.7266 5.04097 10.997 5.31117 11.0285 5.67982ZM12.9433 5.803C13.005 5.70099 13.4245 5.16459 14.293 5.35988C14.5212 5.41125 14.6267 5.48676 14.649 5.51637C14.6818 5.56019 14.691 5.62267 14.6575 5.70677C14.5915 5.87347 14.4552 5.86888 14.3798 5.83631C14.3309 5.81529 13.726 5.44249 13.1687 5.99873C13.1302 6.03678 13.0617 6.04995 12.9968 6.00465C12.9317 5.95905 12.9049 5.86696 12.9433 5.803Z" fill="black"/>
<path d="M12.0123 13.5601H11.9878C10.3869 13.5778 8.44578 13.3818 6.56588 13.0392C6.40508 13.9006 6.30803 14.9835 6.39131 16.2746C6.60207 19.5382 8.69866 21.5898 11.9349 21.6194H12.0662C15.3027 21.5898 17.3991 19.5382 17.6102 16.2746C17.6934 14.9832 17.5962 13.9006 17.4353 13.0391C15.5552 13.3818 13.6137 13.578 12.0124 13.5599" fill="white"/>
<path d="M7.45203 13.2869V16.4986C7.45203 16.4986 9.04349 16.7953 10.638 16.5898V13.6274C9.62789 13.5745 8.53852 13.4568 7.45203 13.2869Z" fill="#EB1923"/>
<path d="M19.2133 10.204C19.2133 10.204 16.1175 11.1074 12.0122 11.133H11.9877C7.88921 11.1076 4.79741 10.2069 4.78684 10.204L3.75 12.5962C6.34339 13.319 9.55738 13.7848 11.9877 13.7577H12.0122C14.4426 13.7848 17.6564 13.319 20.2501 12.5962L19.2133 10.204Z" fill="#EB1923"/>
</g>
<defs>
<clipPath id="clip0_12611_318478">
<rect width="20" height="22" fill="white" transform="translate(2 1)"/>
</clipPath>
</defs>
</svg>
