<svg width="24" height="24" viewBox="0 0 24 24" fill="none" xmlns="http://www.w3.org/2000/svg">
<path d="M7.64315 2.09456C7.24704 1.90891 6.77625 2.00226 6.48096 2.32501C5.21132 3.71269 4.14818 5.42556 3.27943 7.44329L3.27352 7.45733C2.43417 9.49154 2 11.4708 2 13.3871V21C2 21.5523 2.44772 22 3 22H10.5C11.0523 22 11.5 21.5523 11.5 21V11.9033C11.5 11.351 11.0523 10.9033 10.5 10.9033H7.9791C8.07251 9.92104 8.22887 9.03009 8.44481 8.22763L8.44711 8.21895C8.73431 7.11214 9.25476 5.83176 10.0292 4.37191C10.1575 4.13004 10.1811 3.84614 10.0943 3.58645C10.0076 3.32676 9.81815 3.11399 9.57023 2.99779L7.64315 2.09456ZM5.11942 8.2272C5.79833 6.65187 6.58775 5.32263 7.48026 4.227L7.78699 4.37077C7.2095 5.56307 6.78115 6.67789 6.51236 7.71224C6.17837 8.95488 5.97944 10.3383 5.90738 11.8558C5.8944 12.129 5.99385 12.3955 6.18257 12.5934C6.37128 12.7913 6.6328 12.9033 6.90625 12.9033H9.5V20H4V13.3871C4 11.7787 4.36352 10.0613 5.11942 8.2272Z" fill="black" fill-opacity="0.85"/>
<path d="M18.1431 2.09456C17.747 1.90891 17.2762 2.00226 16.981 2.32501C15.7113 3.71269 14.6482 5.42556 13.7794 7.44329L13.7735 7.45733C12.9342 9.49154 12.5 11.4708 12.5 13.3871V21C12.5 21.5523 12.9477 22 13.5 22H21C21.5523 22 22 21.5523 22 21V11.9033C22 11.351 21.5523 10.9033 21 10.9033H18.4791C18.5725 9.92104 18.7289 9.03009 18.9448 8.22763L18.9471 8.21895C19.2343 7.11214 19.7548 5.83176 20.5292 4.37191C20.6575 4.13004 20.6811 3.84614 20.5943 3.58645C20.5076 3.32676 20.3181 3.11399 20.0702 2.99779L18.1431 2.09456ZM15.6194 8.2272C16.2983 6.65187 17.0878 5.32263 17.9803 4.227L18.287 4.37077C17.7095 5.56307 17.2811 6.67789 17.0124 7.71224C16.6784 8.95488 16.4794 10.3383 16.4074 11.8558C16.3944 12.129 16.4939 12.3955 16.6826 12.5934C16.8713 12.7913 17.1328 12.9033 17.4062 12.9033H20V20H14.5V13.3871C14.5 11.7787 14.8635 10.0613 15.6194 8.2272Z" fill="black" fill-opacity="0.85"/>
</svg>
