<svg width="24" height="24" viewBox="0 0 24 24" fill="none" xmlns="http://www.w3.org/2000/svg">
<path d="M11.1964 7.41521C11.5093 7.68481 11.9434 7.86733 12.4225 7.91562C12.9076 7.96331 13.3714 7.86884 13.7303 7.66349C13.7622 7.64523 13.7935 7.62595 13.824 7.60569C14.1356 7.3988 14.3686 7.08913 14.4037 6.70372C14.44 6.30578 14.2566 5.94651 13.9733 5.68034C13.957 5.66503 13.9404 5.65003 13.9234 5.63535C13.6113 5.36465 13.1764 5.18227 12.6913 5.13459C12.2061 5.0869 11.743 5.18144 11.3842 5.38679C11.0264 5.59155 10.7493 5.9234 10.7107 6.34656C10.6722 6.76944 10.8848 7.14673 11.1964 7.41521Z" fill="black"/>
<path d="M9.0617 16.2949C8.74702 16.045 8.37437 15.9256 8.03566 16.0574C7.68994 16.1919 7.50823 16.537 7.4709 16.933C7.43351 17.3296 7.53478 17.7694 7.70881 18.1595C7.88328 18.5506 8.14472 18.9229 8.46074 19.1749C8.77604 19.4264 9.14998 19.547 9.48976 19.4148C9.83548 19.2802 10.0172 18.9352 10.0545 18.5392C10.0917 18.1443 9.99435 17.7019 9.8215 17.3091C9.64901 16.9172 9.38717 16.5424 9.0617 16.2949Z" fill="black"/>
<path d="M6.58749 12.8775C6.24927 13.0091 5.87721 12.8902 5.56282 12.6411C5.22975 12.3934 4.96755 12.0175 4.79659 11.6251C4.62494 11.2311 4.53155 10.789 4.56863 10.3957C4.60596 9.99971 4.78767 9.65462 5.13339 9.52007C5.47211 9.38825 5.84477 9.50775 6.15946 9.75761C6.48492 10.0051 6.74675 10.3799 6.91923 10.7718C7.09208 11.1646 7.18948 11.607 7.15225 12.0019C7.11492 12.3978 6.93322 12.7429 6.58749 12.8775Z" fill="black"/>
<path d="M16.2261 16.0085L16.2232 16.3357C16.5941 16.1955 16.9339 15.9131 17.1876 15.5834C17.4412 15.2539 17.6297 14.8499 17.6675 14.444C17.7119 14.0428 17.5987 13.6706 17.3096 13.4465C17.0195 13.2215 16.6297 13.2056 16.2495 13.3538L16.2466 13.681C15.6747 13.9538 15.1614 14.6427 15.1037 15.2759C15.054 15.8029 15.3285 16.1406 15.759 16.1322C15.8012 16.1313 15.8449 16.1272 15.8899 16.1195C15.962 16.1073 16.0375 16.0862 16.1158 16.0556C16.1527 16.0417 16.1895 16.026 16.2261 16.0085Z" fill="black"/>
<path d="M3.06412 7.59978C3.20042 7.12066 3.65392 5.85441 4.78634 5.07142L4.80502 5.02589L11.0109 1.92688L11.0234 1.92199C11.7058 1.65419 13.5435 1.14069 15.081 2.30128L15.0888 2.30712L15.0961 2.31344L15.0971 2.31409L15.0997 2.31609C15.1063 2.32114 15.1222 2.33323 15.1516 2.35499C15.1901 2.38354 15.2436 2.42272 15.3106 2.47146C15.4444 2.56884 15.6301 2.70294 15.8533 2.86358C16.2997 3.18478 16.8952 3.61133 17.5232 4.06019L20.0712 5.8854C20.1288 5.93001 20.1871 5.97007 20.2509 6.01348L20.2628 6.02154C20.3214 6.06135 20.3863 6.10549 20.449 6.15345L20.456 6.1588L20.5117 6.20676L20.5462 6.25096L20.5519 6.25673C20.6233 6.32831 20.7163 6.42155 20.8013 6.52816C21.8368 7.56283 21.8523 8.72668 21.8309 9.04863L21.8402 9.17421L21.827 9.25062L21.1085 16.2792L21.1031 16.3004C20.9031 17.0916 20.3774 18.3796 19.0018 19.0525L18.8333 19.153L18.7974 19.1557L12.7298 22.2089L12.5232 22.2243L12.4863 22.2149C12.1556 22.3 11.109 22.4729 9.64522 22.0131L9.63495 22.0119C9.49203 21.9942 9.32986 21.9583 9.18647 21.8711L9.17677 21.8652L3.59416 17.8655L3.52807 17.8086C3.52428 17.8063 3.51967 17.8035 3.51413 17.8004L3.50162 17.7934L3.48984 17.7851C2.88751 17.3646 2.56295 16.7518 2.38953 16.1873C2.21612 15.6228 2.18637 15.0838 2.18969 14.7732L2.18983 14.7599L2.83601 8.23592C2.84527 8.16112 2.86552 8.06332 2.88239 7.98186L2.88709 7.96056L2.91816 7.83759L2.97013 7.75639C3.00029 7.69887 3.03719 7.64118 3.06412 7.59978ZM18.1053 8.356L19.3644 7.72538C19.4071 7.69454 19.4243 7.67201 19.4309 7.66211C19.435 7.65599 19.4372 7.65217 19.4398 7.64639C19.44 7.60114 19.4249 7.524 19.3815 7.42109C19.3421 7.32782 19.2922 7.24298 19.2542 7.18819C18.0648 6.3415 14.3032 3.63991 14.1412 3.51603C13.2585 2.84529 12.1212 3.12388 11.6049 3.32882L5.95694 6.18027C5.90927 6.29593 5.85745 6.44496 5.83396 6.59239C5.80406 6.78006 5.83037 6.8922 5.87936 6.95327L10.6528 10.3726C11.0611 10.4828 11.619 10.6032 12.1787 10.6606C12.715 10.7156 13.2188 10.7089 13.5914 10.6043L18.1053 8.356ZM9.18946 11.198L8.54922 10.735L8.54982 10.7431L5.15755 8.31639L5.14798 8.31388C5.06339 8.29167 4.94957 8.26179 4.78841 8.25878C4.59401 8.25515 4.45514 8.30061 4.37455 8.40549L4.37393 8.40786L4.37461 8.41707L3.74693 14.8299C3.74916 15.0068 3.76812 15.3391 3.86055 15.68C3.95714 16.0362 4.12217 16.3588 4.38716 16.5475L4.39847 16.5555L4.40899 16.5646C4.4819 16.6274 4.52948 16.6675 4.55931 16.6865L4.56594 16.6908L9.89535 20.5093C9.97816 20.5016 10.072 20.4777 10.1593 20.4183C10.2702 20.3429 10.4133 20.1809 10.4872 19.8045L11.012 14.2746C10.9865 13.9266 10.9211 13.4376 10.7591 12.9626C10.58 12.4378 10.2958 11.9665 9.85479 11.6978L9.84212 11.6901L9.18946 11.198ZM20.0235 11.8625C19.9872 11.9177 19.949 11.9713 19.9092 12.0231C19.655 12.3533 19.3146 12.6361 18.943 12.7761L18.9415 12.7766C18.5597 12.9182 18.1715 12.8966 17.8821 12.672C17.5935 12.448 17.4754 12.0781 17.5133 11.6761C17.5504 11.269 17.7393 10.8645 17.9955 10.5336C18.2517 10.2027 18.5956 9.91997 18.9733 9.77996C19.3449 9.64037 19.73 9.65262 20.02 9.87521C20.0917 9.93025 20.1527 9.99443 20.2034 10.066L20.265 9.45152L20.2627 9.37769C20.2596 9.27738 20.2382 9.23167 20.2304 9.21762C20.2261 9.20996 20.2227 9.20628 20.2227 9.20628C20.2227 9.20628 20.2219 9.20565 20.2201 9.20411C20.2027 9.19201 20.1532 9.17202 20.0584 9.16399C19.9933 9.15848 19.9288 9.16016 19.8747 9.16324L14.4863 11.8631C14.3992 11.9224 13.9766 12.2219 13.5467 12.7001C13.0833 13.2154 12.6372 13.9095 12.5577 14.7116L12.5328 14.9625L12.4969 14.9651L12.0493 19.6829C12.0466 19.7782 12.0539 19.9785 12.0936 20.1862C12.1368 20.4119 12.2071 20.5846 12.2895 20.6685L12.2911 20.6701C12.3099 20.6895 12.3222 20.6986 12.336 20.7054C12.3427 20.7087 12.353 20.713 12.3686 20.7171L13.6074 20.0939C13.2673 20.1876 12.9314 20.1486 12.6737 19.9486C12.3851 19.7246 12.2669 19.3547 12.3048 18.9527C12.342 18.5456 12.5308 18.1411 12.787 17.8102C13.0425 17.4803 13.3853 17.1982 13.7616 17.0578C14.1349 16.9104 14.5216 16.9227 14.8124 17.1481C15.1016 17.3724 15.2171 17.747 15.181 18.1563C15.1439 18.5632 14.9549 18.9693 14.7007 19.2997C14.5568 19.4867 14.3852 19.6586 14.1959 19.7979L18.4088 17.6785C18.9744 17.3671 19.2918 16.8425 19.4686 16.3697C19.5565 16.1344 19.607 15.9187 19.6352 15.7617C19.6493 15.6834 19.6578 15.6204 19.6626 15.5778C19.6647 15.5593 19.6661 15.5448 19.6669 15.5348L19.6667 15.5322L19.7288 14.8056L20.0235 11.8625Z" fill="black"/>
</svg>
