<svg width="24" height="24" viewBox="0 0 24 24" fill="none" xmlns="http://www.w3.org/2000/svg">
<path d="M19.0393 10.9976C19.6372 10.6524 19.842 9.88791 19.4968 9.29004C19.1517 8.69218 18.3872 8.48733 17.7893 8.83251C17.1914 9.17769 16.9866 9.94218 17.3318 10.54C17.677 11.1379 18.4414 11.3428 19.0393 10.9976Z" fill="black"/>
<path d="M16.5393 6.6675C17.1372 6.32232 17.342 5.55783 16.9968 4.95997C16.6517 4.3621 15.8872 4.15726 15.2893 4.50243C14.6914 4.84761 14.4866 5.6121 14.8318 6.20997C15.177 6.80783 15.9414 7.01268 16.5393 6.6675Z" fill="black"/>
<path d="M7.75 12.5C7.75 13.1904 7.19036 13.75 6.5 13.75C5.80965 13.75 5.25 13.1904 5.25 12.5C5.25 11.8096 5.80965 11.25 6.5 11.25C7.19036 11.25 7.75 11.8096 7.75 12.5Z" fill="black"/>
<path d="M9 16.25C9.69036 16.25 10.25 15.6904 10.25 15C10.25 14.3096 9.69036 13.75 9 13.75C8.30965 13.75 7.75 14.3096 7.75 15C7.75 15.6904 8.30965 16.25 9 16.25Z" fill="black"/>
<path d="M12.75 17.5C12.75 18.1904 12.1904 18.75 11.5 18.75C10.8096 18.75 10.25 18.1904 10.25 17.5C10.25 16.8096 10.8096 16.25 11.5 16.25C12.1904 16.25 12.75 16.8096 12.75 17.5Z" fill="black"/>
<path fill-rule="evenodd" clip-rule="evenodd" d="M11.5605 2.90257L11.4383 2.97314C10.2656 3.65015 9.29854 4.20847 8.59261 4.75323C7.85146 5.32518 7.2778 5.97042 7.03765 6.86668C6.93269 7.2584 6.90687 7.64044 6.94078 8.01873C6.43606 8.03467 5.98093 8.06417 5.57494 8.11876C4.64711 8.2435 3.82769 8.51547 3.17158 9.17158C2.51547 9.82769 2.2435 10.6471 2.11876 11.5749C1.99994 12.4587 1.99997 13.5753 2 14.9294V15.0706C1.99997 16.4247 1.99994 17.5413 2.11876 18.4251C2.2435 19.3529 2.51547 20.1723 3.17158 20.8284C3.82769 21.4845 4.64711 21.7565 5.57494 21.8813C6.4587 22.0001 7.57531 22 8.92943 22H9.07058C10.4247 22 11.5413 22.0001 12.4251 21.8813C13.3529 21.7565 14.1723 21.4845 14.8284 20.8284C15.4845 20.1723 15.7565 19.3529 15.8813 18.4251C15.9574 17.859 15.9847 17.1974 15.9945 16.4391C16.6999 16.1012 17.5037 15.6371 18.4382 15.0976L18.5605 15.0269C19.7333 14.3499 20.7003 13.7916 21.4062 13.2468C22.1474 12.6749 22.7211 12.0297 22.9612 11.1334C23.2014 10.2371 23.0272 9.3915 22.6713 8.52561C22.3323 7.70084 21.774 6.73384 21.0969 5.56115L21.0263 5.43892C20.3493 4.2662 19.791 3.29917 19.2462 2.59322C18.6743 1.85207 18.029 1.27841 17.1328 1.03826C16.2365 0.798105 15.3909 0.972286 14.525 1.32817C13.7002 1.66715 12.7332 2.22549 11.5605 2.90257ZM15.9992 14.184C16.4295 13.9474 16.9219 13.6636 17.4994 13.3302C18.7487 12.6089 19.5974 12.1165 20.1844 11.6635C20.7484 11.2282 20.9479 10.9198 21.0294 10.6158C21.1108 10.3117 21.0923 9.94482 20.8214 9.2859C20.5396 8.60013 20.0508 7.74926 19.3296 6.50004C18.6083 5.25081 18.1158 4.40207 17.6629 3.8151C17.2276 3.2511 16.9192 3.05158 16.6151 2.97011C16.3111 2.88864 15.9442 2.90721 15.2853 3.17802C14.5995 3.45988 13.7487 3.94867 12.4994 4.66991C11.2502 5.39115 10.4015 5.88362 9.81449 6.33659C9.25049 6.77183 9.05097 7.08029 8.9695 7.38432C8.92354 7.55583 8.90942 7.74735 8.95445 8H9.07057C9.51854 7.99999 9.94056 7.99998 10.3367 8.00427C10.3631 7.60169 10.5836 7.2193 10.9592 7.00243C11.5571 6.65726 12.3216 6.8621 12.6668 7.45997C12.7985 7.68813 12.8501 7.94057 12.8304 8.18471C13.1917 8.25483 13.5339 8.3547 13.8536 8.49992C13.9566 8.26331 14.1336 8.05642 14.3743 7.91747C14.9721 7.57229 15.7366 7.77714 16.0818 8.375C16.427 8.97287 16.2221 9.73736 15.6243 10.0825C15.5835 10.1061 15.5419 10.1271 15.4997 10.1456C15.6985 10.5828 15.8123 11.0623 15.8813 11.5749C15.9775 12.2909 15.9958 13.1598 15.9992 14.184ZM5.84144 10.1009C5.13538 10.1958 4.80836 10.3632 4.58579 10.5858C4.36322 10.8084 4.19585 11.1354 4.10092 11.8414C4.00213 12.5763 4 13.5575 4 15C4 16.4425 4.00213 17.4238 4.10092 18.1586C4.19585 18.8646 4.36322 19.1916 4.58579 19.4142C4.80836 19.6368 5.13538 19.8042 5.84144 19.8991C6.57626 19.9979 7.55752 20 9 20C10.4425 20 11.4238 19.9979 12.1586 19.8991C12.8646 19.8042 13.1916 19.6368 13.4142 19.4142C13.6368 19.1916 13.8042 18.8646 13.8991 18.1586C13.9979 17.4238 14 16.4425 14 15C14 13.5575 13.9979 12.5763 13.8991 11.8414C13.8042 11.1354 13.6368 10.8084 13.4142 10.5858C13.1916 10.3632 12.8646 10.1958 12.1586 10.1009C11.4238 10.0021 10.4425 10 9 10C7.55752 10 6.57626 10.0021 5.84144 10.1009Z" fill="black"/>
</svg>
