<svg width="24" height="24" viewBox="0 0 24 24" fill="none" xmlns="http://www.w3.org/2000/svg">
<path d="M8.52248 12.4889C8.40161 12.6698 8.33709 12.8825 8.33709 13.1C8.33709 13.2445 8.36555 13.3875 8.42083 13.521C8.47611 13.6544 8.55713 13.7757 8.65928 13.8778C8.76142 13.98 8.88268 14.061 9.01614 14.1163C9.1496 14.1716 9.29264 14.2 9.43709 14.2C9.65465 14.2 9.86733 14.1355 10.0482 14.0146C10.2291 13.8938 10.3701 13.722 10.4534 13.521C10.5366 13.32 10.5584 13.0988 10.516 12.8854C10.4735 12.672 10.3687 12.476 10.2149 12.3222C10.0611 12.1684 9.86507 12.0636 9.65169 12.0211C9.43831 11.9787 9.21714 12.0005 9.01614 12.0837C8.81514 12.167 8.64335 12.308 8.52248 12.4889Z" fill="black" fill-opacity="0.85"/>
<path d="M12.0111 16.972C12.9875 17.0125 13.9477 16.7131 14.7281 16.125V16.169C14.757 16.1408 14.78 16.1073 14.796 16.0702C14.8119 16.0331 14.8203 15.9932 14.8208 15.9529C14.8213 15.9126 14.8139 15.8725 14.7989 15.835C14.784 15.7976 14.7618 15.7634 14.7336 15.7345C14.7054 15.7056 14.6718 15.6826 14.6348 15.6666C14.5977 15.6507 14.5578 15.6423 14.5175 15.6418C14.436 15.6407 14.3574 15.6721 14.2991 15.729C13.6315 16.2079 12.8205 16.4446 12.0001 16.4C11.1807 16.4366 10.3734 16.1921 9.71209 15.707C9.6551 15.6602 9.58274 15.6363 9.5091 15.6399C9.43546 15.6436 9.3658 15.6744 9.31366 15.7266C9.26153 15.7787 9.23065 15.8484 9.22703 15.922C9.22341 15.9957 9.24732 16.068 9.29409 16.125C10.0745 16.7131 11.0347 17.0125 12.0111 16.972Z" fill="black" fill-opacity="0.85"/>
<path d="M13.919 14.0586C14.0999 14.1795 14.3125 14.244 14.5301 14.244L14.5191 14.288C14.6682 14.2896 14.8162 14.2609 14.9539 14.2035C15.0916 14.1462 15.2162 14.0614 15.3201 13.9544C15.424 13.8474 15.5051 13.7204 15.5584 13.5811C15.6117 13.4418 15.6361 13.2931 15.6301 13.144C15.6301 12.9265 15.5656 12.7138 15.4447 12.5329C15.3238 12.352 15.152 12.211 14.951 12.1277C14.75 12.0445 14.5289 12.0227 14.3155 12.0651C14.1021 12.1076 13.9061 12.2124 13.7523 12.3662C13.5984 12.52 13.4937 12.716 13.4512 12.9294C13.4088 13.1428 13.4306 13.364 13.5138 13.565C13.5971 13.766 13.7381 13.9378 13.919 14.0586Z" fill="black" fill-opacity="0.85"/>
<path d="M23 12C23 18.0751 18.0751 23 12 23C5.92487 23 1 18.0751 1 12C1 5.92487 5.92487 1 12 1C18.0751 1 23 5.92487 23 12ZM19.0473 11.1369C18.8695 10.8832 18.622 10.6863 18.3348 10.5701C18.0477 10.4538 17.733 10.4231 17.4287 10.4816C17.1245 10.5402 16.8436 10.6855 16.6201 10.9C15.3688 10.0494 13.8978 9.57946 12.3851 9.54701L13.1001 6.11501L15.4541 6.61001C15.4821 6.87014 15.6019 7.11178 15.792 7.29155C15.982 7.47132 16.23 7.57746 16.4913 7.5909C16.7525 7.60434 17.0101 7.52422 17.2176 7.3649C17.4251 7.20559 17.5691 6.97752 17.6236 6.72163C17.6782 6.46575 17.6397 6.1988 17.5152 5.96872C17.3906 5.73863 17.1881 5.56047 16.9441 5.46622C16.7 5.37196 16.4303 5.36778 16.1835 5.45444C15.9366 5.54109 15.7287 5.71289 15.5971 5.93901L12.9021 5.40001C12.858 5.39034 12.8125 5.38952 12.7681 5.39758C12.7237 5.40565 12.6813 5.42245 12.6435 5.447C12.6056 5.47156 12.573 5.50339 12.5475 5.54064C12.5221 5.57789 12.5042 5.61982 12.4951 5.66401L11.6811 9.48101C10.1498 9.5041 8.65859 9.97439 7.39109 10.834C7.22152 10.6745 7.01928 10.5537 6.79839 10.4801C6.5775 10.4064 6.34324 10.3817 6.11185 10.4076C5.88046 10.4335 5.65747 10.5095 5.45834 10.6301C5.2592 10.7508 5.08869 10.9133 4.9586 11.1064C4.82852 11.2995 4.74197 11.5186 4.70498 11.7485C4.66798 11.9783 4.68141 12.2135 4.74433 12.4377C4.80725 12.6619 4.91817 12.8697 5.06939 13.0467C5.22061 13.2238 5.40852 13.3658 5.62009 13.463C5.60771 13.6241 5.60771 13.7859 5.62009 13.947C5.62009 16.411 8.49109 18.413 12.0331 18.413C15.5751 18.413 18.4461 16.411 18.4461 13.947C18.4585 13.7859 18.4585 13.6241 18.4461 13.463C18.7175 13.3281 18.9453 13.1191 19.1029 12.8602C19.2606 12.6013 19.3418 12.3031 19.3371 12C19.3258 11.6904 19.2251 11.3906 19.0473 11.1369Z" fill="black" fill-opacity="0.85"/>
</svg>
