<svg width="24" height="24" viewBox="0 0 24 24" fill="none" xmlns="http://www.w3.org/2000/svg">
<path d="M4 12C4 7.58173 7.58173 4 12 4C14.2094 4 16.2081 4.89434 17.6568 6.34315C17.8703 6.55663 18.1549 6.85727 18.4581 7.18397L16.1874 7.19432C15.6351 7.19684 15.1895 7.64659 15.192 8.19887C15.1945 8.75115 15.6443 9.19682 16.1965 9.1943L18.9107 9.18193C19.4067 9.17976 19.8795 9.17769 20.2622 9.12158C20.688 9.05913 21.182 8.90736 21.5555 8.46175C21.9291 8.01613 21.9924 7.5033 21.9796 7.07308C21.968 6.68648 21.8876 6.22056 21.8032 5.7318L21.3417 3.05714C21.2478 2.51289 20.7305 2.14781 20.1862 2.24171C19.642 2.3356 19.2769 2.85291 19.3708 3.39716L19.7588 5.64611C19.5025 5.37197 19.2629 5.12075 19.0711 4.92895C17.2625 3.12038 14.7612 2 12 2C6.47717 2 2 6.47717 2 12C2 17.5228 6.47717 22 12 22C14.7612 22 17.2625 20.8796 19.0711 19.071C19.4616 18.6805 19.4616 18.0474 19.071 17.6568C18.6805 17.2663 18.0474 17.2663 17.6568 17.6569C16.2081 19.1057 14.2094 20 12 20C7.58173 20 4 16.4183 4 12Z" fill="black"/>
</svg>
