<svg width="24" height="24" viewBox="0 0 24 24" fill="none" xmlns="http://www.w3.org/2000/svg">
<path d="M12 2C9.17488 2 6.62198 3.17282 4.80458 5.05547C4.42101 5.45282 4.43217 6.08589 4.82952 6.46947C5.22687 6.85304 5.85994 6.84188 6.24352 6.44453C7.69962 4.93614 9.73962 4 12 4C16.4183 4 20 7.58173 20 12C20 12.5523 20.4477 13 21 13C21.5523 13 22 12.5523 22 12V4C22 3.44772 21.5523 3 21 3C20.4477 3 20 3.44772 20 4V5.99904C18.1755 3.57069 15.2712 2 12 2Z" fill="black"/>
<path d="M4 12C4 11.4477 3.55228 11 3 11C2.44772 11 2 11.4477 2 12V20C2 20.5523 2.44772 21 3 21C3.55228 21 4 20.5523 4 20V18.001C4.56879 18.758 5.24253 19.4317 5.99963 20.0005C6.53402 20.4019 7.10995 20.751 7.71979 21.0403C9.01733 21.6557 10.4685 22 12 22C12.1686 22 12.3362 21.9958 12.5027 21.9876C14.6361 21.8818 16.5946 21.1069 18.1708 19.8695C18.4402 19.658 18.6985 19.4329 18.9445 19.1954L18.9571 19.1831C19.7652 18.4001 20.4416 17.482 20.9498 16.4653C21.3261 15.7125 21.5142 15.3362 21.3233 14.9054C21.1324 14.4746 20.6765 14.3469 19.7648 14.0917C17.7876 13.5381 16.1515 13.1717 14.8905 13.2671C13.4163 13.3785 11.9922 13.8514 10.7441 14.644C9.54077 15.4082 8.58703 16.5673 7.20072 18.4011C5.2572 16.9416 4 14.6176 4 12ZM17.0284 18.2225C15.654 19.3348 13.9055 20 12 20C10.9219 20 9.89361 19.7867 8.95501 19.4001C10.2532 17.6955 10.9648 16.8731 11.8163 16.3323C12.787 15.7159 13.8946 15.348 15.0413 15.2614C16.0124 15.1879 17.0361 15.403 18.9597 15.9484C18.5816 16.6134 18.1109 17.2188 17.5652 17.7472L17.5555 17.7565C17.4139 17.8932 17.2673 18.0246 17.116 18.1507C17.087 18.1748 17.0578 18.1988 17.0284 18.2225Z" fill="black"/>
<path d="M9 6C7.34315 6 6 7.34315 6 9C6 10.6568 7.34315 12 9 12C10.6568 12 12 10.6568 12 9C12 7.34315 10.6568 6 9 6ZM8 9C8 8.44772 8.44772 8 9 8C9.55227 8 10 8.44772 10 9C10 9.55227 9.55227 10 9 10C8.44772 10 8 9.55227 8 9Z" fill="black"/>
</svg>
