<svg width="24" height="24" viewBox="0 0 24 24" fill="none" xmlns="http://www.w3.org/2000/svg">
<path d="M12 2C9.23858 2 7 4.23858 7 7C7 9.76142 9.23858 12 12 12C8.68629 12 6 14.6863 6 18V21C6 21.5523 6.44772 22 7 22C7.55229 22 8 21.5523 8 21V18C8 15.7909 9.79086 14 12 14C14.2091 14 16 15.7909 16 18V21C16 21.5523 16.4477 22 17 22C17.5523 22 18 21.5523 18 21V18C18 14.6863 15.3137 12 12 12C14.7614 12 17 9.76142 17 7C17 4.23858 14.7614 2 12 2ZM9 7C9 5.34315 10.3431 4 12 4C13.6569 4 15 5.34315 15 7C15 8.65685 13.6569 10 12 10C10.3431 10 9 8.65685 9 7Z" fill="black"/>
<path d="M19.6758 15.7383C19.4713 15.0432 19.175 14.3874 18.8008 13.7849L22 10.5858V13.4142L19.6758 15.7383Z" fill="black"/>
<path d="M20 20.985V19.5857L21.8068 17.779C21.6311 18.8671 21.2802 19.7908 20.5355 20.5355C20.3662 20.7048 20.1877 20.8538 20 20.985Z" fill="black"/>
<path d="M18.2413 10.1729L21.8552 6.55893C21.8518 6.53167 21.8483 6.50458 21.8446 6.47766C21.7391 5.6924 21.5548 4.98832 21.2152 4.37057L18.9886 6.59715C18.9962 6.73046 19 6.86478 19 6.99999C19 8.14216 18.7264 9.22044 18.2413 10.1729Z" fill="black"/>
<path d="M18.0082 3.406C17.7228 2.92992 17.3824 2.49058 16.9958 2.09674C17.1781 2.11329 17.3536 2.13267 17.5223 2.15536C18.0279 2.22332 18.4998 2.32391 18.9366 2.47756L18.0082 3.406Z" fill="black"/>
<path d="M5.01281 6.57293L2.00267 9.58308C1.99999 10.0076 1.99999 10.4551 2 10.9262V12.4142L5.31896 9.09521C5.11171 8.43367 5 7.72988 5 6.99999C5 6.85659 5.00431 6.7142 5.01281 6.57293Z" fill="black"/>
<path d="M4.02281 17.3914C4.19148 15.149 5.28451 13.1646 6.92193 11.818C6.89689 11.7916 6.87206 11.7651 6.84744 11.7383L2.06093 16.5248C2.08324 16.8804 2.11373 17.2126 2.15537 17.5223C2.22333 18.0279 2.32392 18.4997 2.47757 18.9366L4.02281 17.3914Z" fill="black"/>
<path d="M2.55391 4.86026L4.86027 2.55391C4.342 2.76179 3.87591 3.05302 3.46447 3.46446C3.05303 3.8759 2.7618 4.34199 2.55391 4.86026Z" fill="black"/>
</svg>
