<svg width="24" height="24" viewBox="0 0 24 24" fill="none" xmlns="http://www.w3.org/2000/svg">
<path d="M1.99988 23H14.8581C19.921 23 24.1977 18.7817 23.9929 13.6496C23.7996 8.80311 19.6556 4.99998 14.8581 4.99998H10.9999V3.41422C10.9999 0.741515 7.7685 -0.597004 5.8786 1.2929L1.29281 5.87868C-0.59708 7.76858 0.741407 11 3.41413 11H7.99992L8.00689 11H14.8581C16.5572 11 17.9376 12.3811 17.9977 13.8888C18.0609 15.4723 16.659 17 14.8581 17H1.99988V23Z" fill="white"/>
<path d="M8 9.00002H3.41421C2.52331 9.00002 2.07714 7.92288 2.70711 7.29292L7.29289 2.70713C7.92286 2.07716 9 2.52333 9 3.41424V7H14.8581C18.6248 7 21.8457 9.9976 21.9946 13.7294C22.1521 17.6761 18.8363 21 14.8581 21H3.99996V19H14.8581C17.7492 19 20.1065 16.5727 19.9962 13.8091C19.8917 11.1905 17.5921 9 14.8581 9H8.00698C8.00465 9.00002 8.00233 9.00002 8 9.00002Z" fill="black" fill-opacity="0.85"/>
</svg>
