<svg width="24" height="24" viewBox="0 0 24 24" fill="none" xmlns="http://www.w3.org/2000/svg">
<path d="M12.6173 1.07615C12.2436 1.23093 12 1.59557 12 2.00003V6.53228C8.48907 6.76413 5.96905 8.24031 4.34562 10.7729C2.62687 13.4541 2 17.1891 2 21.5C2 21.9794 2.34017 22.3913 2.81089 22.482C3.28138 22.5726 3.75025 22.3161 3.92848 21.8714L3.93242 21.8619C3.93662 21.8517 3.9437 21.8349 3.9537 21.8117C3.9737 21.7653 4.00531 21.6938 4.04876 21.6006C4.13574 21.4143 4.26969 21.1425 4.45228 20.8138C4.81867 20.1543 5.37444 19.2776 6.13069 18.405C7.47979 16.8483 9.40656 15.3676 12 15.0588V19.5C12 19.8993 12.2375 20.2603 12.6042 20.4183C12.9708 20.5764 13.3963 20.5012 13.6866 20.227L22.6866 11.727C22.883 11.5415 22.996 11.2845 22.9999 11.0143C23.0038 10.7442 22.8981 10.484 22.7071 10.2929L13.7071 1.29292C13.4211 1.00692 12.991 0.921369 12.6173 1.07615ZM4.21959 17.576C4.51049 15.2269 5.09827 13.3047 6.02938 11.8522C7.38075 9.74405 9.53696 8.50003 13 8.50003C13.5523 8.50003 14 8.05231 14 7.50003V4.41424L20.5653 10.9795L14 17.1801V14C14 13.4477 13.5523 13 13 13C9.10463 13 6.35222 15.0956 4.61931 17.0951C4.48 17.2558 4.34679 17.4165 4.21959 17.576Z" fill="black"/>
</svg>
