<svg width="24" height="24" viewBox="0 0 24 24" fill="none" xmlns="http://www.w3.org/2000/svg">
<path d="M19.4332 6.7L19.6999 6.5H18.5C15.4624 6.5 13 8.96243 13 12C13 15.0376 15.4624 17.5 18.5 17.5H19.6999L19.4332 17.3C18.9914 16.9686 18.9018 16.3418 19.2332 15.9C19.5646 15.4582 20.1914 15.3686 20.6332 15.7L21.2183 16.1388C21.6624 16.4717 22.0792 16.7843 22.3756 17.0824C22.7012 17.4098 23.0332 17.8668 23.0332 18.5C23.0332 19.1332 22.7012 19.5902 22.3756 19.9176C22.0792 20.2157 21.6624 20.5283 21.2183 20.8612L20.6332 21.3C20.1914 21.6314 19.5646 21.5418 19.2332 21.1C18.9018 20.6582 18.9914 20.0314 19.4332 19.7L19.6999 19.5H18.5C15.7215 19.5 13.296 17.9891 12 15.7442C10.704 17.9891 8.27846 19.5 5.5 19.5H2C1.44772 19.5 1 19.0523 1 18.5C1 17.9477 1.44772 17.5 2 17.5H5.5C8.53757 17.5 11 15.0376 11 12C11 8.96243 8.53757 6.5 5.5 6.5H2C1.44772 6.5 1 6.05228 1 5.5C1 4.94771 1.44772 4.5 2 4.5H5.5C8.27846 4.5 10.704 6.01085 12 8.25582C13.296 6.01085 15.7215 4.5 18.5 4.5H19.6999L19.4332 4.3C18.9914 3.96863 18.9018 3.34183 19.2332 2.9C19.5646 2.45817 20.1914 2.36863 20.6332 2.7L21.2183 3.1388C21.6623 3.47172 22.0792 3.78428 22.3756 4.0824C22.7012 4.40982 23.0332 4.86685 23.0332 5.5C23.0332 6.13315 22.7012 6.59018 22.3756 6.9176C22.0792 7.21574 21.6624 7.52825 21.2183 7.86119L20.6332 8.3C20.1914 8.63137 19.5646 8.54183 19.2332 8.1C18.9018 7.65817 18.9914 7.03137 19.4332 6.7Z" fill="black"/>
</svg>
