<svg width="24" height="24" viewBox="0 0 24 24" fill="none" xmlns="http://www.w3.org/2000/svg">
<path d="M11.0681 2.39638C11.3987 1.54634 12.6015 1.54634 12.9321 2.39638L15.0519 7.84703C15.1361 8.06333 15.2928 8.24364 15.4953 8.35705L20.4422 11.1275C21.124 11.5094 21.124 12.4906 20.4422 12.8725L15.4953 15.643C15.2928 15.7564 15.1361 15.9367 15.0519 16.153L12.9321 21.6036C12.6015 22.4537 11.3987 22.4537 11.0681 21.6036L8.94825 16.153C8.86412 15.9367 8.70738 15.7564 8.50488 15.643L3.558 12.8725C2.87617 12.4906 2.87618 11.5094 3.558 11.1275L8.50488 8.35705C8.70738 8.24364 8.86412 8.06333 8.94825 7.84703L11.0681 2.39638Z" fill="black"/>
</svg>
