<svg width="24" height="24" viewBox="0 0 24 24" fill="none" xmlns="http://www.w3.org/2000/svg">
<path d="M12 1C17.7105 1 22.4047 5.35144 22.9476 10.9194C22.2838 10.7256 21.5928 10.5956 20.8816 10.5365C20.1826 6.26198 16.4722 3 12 3C7.02944 3 3 7.02944 3 12C3 16.1052 5.74851 19.5684 9.50573 20.6499C9.50192 20.7661 9.5 20.8828 9.5 21C9.5 21.5953 9.54954 22.179 9.64472 22.7473C4.70136 21.6689 1 17.2667 1 12C1 5.92487 5.92487 1 12 1Z" fill="black"/>
<path d="M16.3978 9.2908C17.0859 9.51082 17.479 10.1607 17.4389 10.8146C16.27 11.1075 15.1788 11.5965 14.2022 12.2445L14.2158 12.2257L15.1267 10.9841L13.66 10.5151C13.3537 10.4171 13.087 10.2234 12.8992 9.96236L11.9999 8.71235L11.1006 9.96236C10.9128 10.2234 10.6461 10.4171 10.3399 10.5151L8.87314 10.9841L9.78406 12.2257C9.97427 12.4849 10.0761 12.7984 10.0746 13.12L10.0675 14.6598L11.5297 14.1772C11.7087 14.1181 11.896 14.0936 12.0819 14.1038C11.4212 14.8618 10.8675 15.7156 10.4445 16.6415L10.0344 16.7769C9.06111 17.0982 8.05946 16.3704 8.06424 15.3455L8.07389 13.2757L6.84948 11.6069C6.24318 10.7805 6.62578 9.60297 7.60201 9.2908L9.5735 8.66037L10.7823 6.98019C11.3809 6.1482 12.619 6.14821 13.2175 6.98019L14.4263 8.66037L16.3978 9.2908Z" fill="black"/>
<path fill-rule="evenodd" clip-rule="evenodd" d="M11 21C11 21.664 11.0719 22.3111 11.2083 22.9342C11.6314 22.9777 12.0623 23 12.5 23L13.1436 22.4177C13.1377 22.389 13.132 22.3603 13.1265 22.3315L22.0462 14.3038L22.0949 14.3189L23 13.5V12.5121C22.0617 12.1805 21.0519 12 20 12C15.0294 12 11 16.0294 11 21ZM19.3622 14.0287C16.2515 14.3096 13.7279 16.6256 13.133 19.6349L19.3622 14.0287Z" fill="black"/>
</svg>
