<svg width="24" height="24" viewBox="0 0 24 24" fill="none" xmlns="http://www.w3.org/2000/svg">
<path d="M2 7.4C2 5.15979 2 4.03968 2.43597 3.18404C2.81947 2.43139 3.43139 1.81947 4.18404 1.43597C5.03968 1 6.15979 1 8.4 1H15.6C17.8402 1 18.9603 1 19.816 1.43597C20.5686 1.81947 21.1805 2.43139 21.564 3.18404C22 4.03968 22 5.15979 22 7.4V18.5992C22 20.3776 22 21.2669 21.626 21.7891C21.2996 22.2448 20.7969 22.5426 20.2405 22.61C19.6028 22.6872 18.8229 22.2601 17.263 21.4059L14.3055 19.7864C13.4635 19.3252 13.0424 19.0947 12.5972 19.0042C12.2031 18.9242 11.7969 18.9242 11.4028 19.0042C10.9576 19.0947 10.5365 19.3252 9.69449 19.7864L6.73701 21.4059C5.17715 22.2601 4.39722 22.6872 3.75952 22.61C3.20307 22.5426 2.70043 22.2448 2.37404 21.7891C2 21.2669 2 20.3776 2 18.5992V7.4Z" fill="url(#paint0_linear_17226_252404)"/>
<path d="M2 7.4C2 5.15979 2 4.03968 2.43597 3.18404C2.81947 2.43139 3.43139 1.81947 4.18404 1.43597C5.03968 1 6.15979 1 8.4 1H15.6C17.8402 1 18.9603 1 19.816 1.43597C20.5686 1.81947 21.1805 2.43139 21.564 3.18404C22 4.03968 22 5.15979 22 7.4V9.22375C22 10.5979 22 11.285 21.7971 11.8975C21.6177 12.4393 21.3244 12.9365 20.9369 13.3555C20.4988 13.8292 19.8974 14.1614 18.6945 14.8259L12 18.5238L6.73701 21.4059C5.17715 22.2601 4.39722 22.6872 3.75952 22.61C3.20307 22.5426 2.70043 22.2448 2.37404 21.7891C2 21.2669 2 20.3776 2 18.5992V7.4Z" fill="url(#paint1_linear_17226_252404)"/>
<g filter="url(#filter0_d_17226_252404)">
<path d="M11.5613 5.30207C11.751 4.9553 12.249 4.9553 12.4387 5.30207L13.8743 7.92695C13.9201 8.01085 13.9891 8.07983 14.073 8.12571L16.6979 9.5613C17.0447 9.75096 17.0447 10.249 16.6979 10.4387L14.073 11.8743C13.9891 11.9201 13.9201 11.9891 13.8743 12.073L12.4387 14.6979C12.249 15.0447 11.751 15.0447 11.5613 14.6979L10.1257 12.073C10.0798 11.9891 10.0108 11.9201 9.92695 11.8743L7.30207 10.4387C6.9553 10.249 6.9553 9.75096 7.30207 9.5613L9.92695 8.12571C10.0108 8.07982 10.0798 8.01085 10.1257 7.92695L11.5613 5.30207Z" fill="url(#paint2_linear_17226_252404)" shape-rendering="crispEdges"/>
</g>
<defs>
<filter id="filter0_d_17226_252404" x="3.04199" y="1.04199" width="17.916" height="17.916" filterUnits="userSpaceOnUse" color-interpolation-filters="sRGB">
<feFlood flood-opacity="0" result="BackgroundImageFix"/>
<feColorMatrix in="SourceAlpha" type="matrix" values="0 0 0 0 0 0 0 0 0 0 0 0 0 0 0 0 0 0 127 0" result="hardAlpha"/>
<feOffset/>
<feGaussianBlur stdDeviation="2"/>
<feComposite in2="hardAlpha" operator="out"/>
<feColorMatrix type="matrix" values="0 0 0 0 0.376471 0 0 0 0 0.466667 0 0 0 0 0.960784 0 0 0 0.2 0"/>
<feBlend mode="normal" in2="BackgroundImageFix" result="effect1_dropShadow_17226_252404"/>
<feBlend mode="normal" in="SourceGraphic" in2="effect1_dropShadow_17226_252404" result="shape"/>
</filter>
<linearGradient id="paint0_linear_17226_252404" x1="22" y1="9.5" x2="31.25" y2="18.7381" gradientUnits="userSpaceOnUse">
<stop stop-color="#00ACE3"/>
<stop offset="1" stop-color="#23CAFF"/>
</linearGradient>
<linearGradient id="paint1_linear_17226_252404" x1="8.5" y1="-2" x2="20.75" y2="10.2342" gradientUnits="userSpaceOnUse">
<stop stop-color="#7CDFFF"/>
<stop offset="1" stop-color="#0DC5FF"/>
</linearGradient>
<linearGradient id="paint2_linear_17226_252404" x1="10.5" y1="7" x2="14.5" y2="15" gradientUnits="userSpaceOnUse">
<stop stop-color="white"/>
<stop offset="1" stop-color="white" stop-opacity="0.72"/>
</linearGradient>
</defs>
</svg>
