<svg width="24" height="24" viewBox="0 0 24 24" fill="none" xmlns="http://www.w3.org/2000/svg">
<path d="M16.905 10C17.9289 10.0001 18.8038 10.0001 19.4492 9.9106C20.057 9.8263 20.9374 9.60435 21.2788 8.7212C21.6203 7.83805 21.1181 7.08157 20.7251 6.61035C20.3077 6.10997 19.6604 5.52152 18.9027 4.83283L16.0727 2.26007C15.664 1.88856 15.0316 1.91868 14.6601 2.32733C14.2886 2.73599 14.3187 3.36844 14.7273 3.73995L17.4995 6.26007C18.331 7.01605 18.8718 7.51091 19.1892 7.89137L19.2157 7.92358L19.1744 7.92956C18.6837 7.99763 17.9506 8.00001 16.8268 8.00001H3C2.44772 8.00001 2 8.44772 2 9.00001C2 9.55229 2.44772 10 3 10L16.905 10Z" fill="black"/>
<path d="M7.09512 14C6.07123 14 5.19637 13.9999 4.55096 14.0894C3.94317 14.1737 3.06272 14.3957 2.72129 15.2788C2.37986 16.162 2.88204 16.9185 3.27506 17.3897C3.6924 17.8901 4.33979 18.4785 5.09744 19.1672L7.92745 21.74C8.33611 22.1115 8.96856 22.0813 9.34007 21.6727C9.71157 21.264 9.68146 20.6316 9.2728 20.2601L6.50067 17.74C5.66908 16.984 5.12828 16.4891 4.81096 16.1087L4.78442 16.0764L4.82573 16.0705C5.31645 16.0024 6.04949 16 7.17334 16H21.0001C21.5524 16 22.0001 15.5523 22.0001 15C22.0001 14.4477 21.5524 14 21.0001 14L7.09512 14Z" fill="black"/>
</svg>
