<svg width="24" height="24" viewBox="0 0 24 24" fill="none" xmlns="http://www.w3.org/2000/svg">
<path d="M7.87238 7.87288C6.70081 9.04444 6.70081 10.9439 7.87238 12.1155C9.04395 13.2871 10.9435 13.2871 12.115 12.1155C13.2866 10.9439 13.2866 9.04444 12.115 7.87288C10.9435 6.70131 9.04395 6.70131 7.87238 7.87288ZM9.28659 10.7013C8.89608 10.3108 8.89608 9.67761 9.28659 9.28709C9.67711 8.89657 10.3103 8.89657 10.7008 9.28709C11.0913 9.67761 11.0913 10.3108 10.7008 10.7013C10.3103 11.0918 9.67711 11.0918 9.28659 10.7013Z" fill="black"/>
<path d="M3.17011 3.17066C2.49017 3.8506 2.22324 4.70503 2.11499 5.67043C2.01173 6.59134 2.04018 7.75677 2.07476 9.17313L2.11581 10.8593C2.14001 11.8837 2.15839 12.6614 2.46338 13.373C2.76837 14.0847 3.31888 14.6344 4.044 15.3584L7.20341 18.5177C8.16411 19.4784 8.93886 20.2532 9.6237 20.8115C10.3306 21.3879 11.0255 21.8059 11.8467 21.9692C12.4907 22.0973 13.1536 22.0973 13.7976 21.9692C14.6187 21.8059 15.3136 21.3879 16.0205 20.8115C16.7054 20.2532 17.4801 19.4784 18.4408 18.5177L18.5171 18.4414C19.4779 17.4807 20.2526 16.7059 20.811 16.0211C21.3873 15.3142 21.8053 14.6193 21.9687 13.7981C22.0968 13.1541 22.0968 12.4912 21.9687 11.8472C21.8053 11.0261 21.3873 10.3312 20.811 9.62425C20.2526 8.93941 19.4779 8.16468 18.5171 7.20397L15.3578 4.04455C14.6338 3.31942 14.0841 2.76892 13.3725 2.46393C12.6608 2.15894 11.8831 2.14056 10.8587 2.11636L9.17257 2.07531C7.75622 2.04073 6.59079 2.01228 5.66988 2.11554C4.70448 2.22379 3.85005 2.49072 3.17011 3.17066ZM4.07594 9.19692C4.03918 7.68981 4.01632 6.66213 4.10254 5.8933C4.18552 5.15328 4.35513 4.81407 4.58433 4.58488C4.81352 4.35568 5.15273 4.18606 5.89275 4.10308C6.66158 4.01687 7.68926 4.03973 9.19637 4.07649L10.6459 4.11184C11.9093 4.14266 12.2717 4.16811 12.5847 4.30222C12.8976 4.43633 13.166 4.68124 14.0596 5.57483L17.0648 8.58003C18.0726 9.58785 18.7744 10.2913 19.2609 10.8881C19.7368 11.4718 19.9337 11.8685 20.0071 12.2374C20.084 12.6238 20.084 13.0215 20.0071 13.4079C19.9337 13.7769 19.7368 14.1735 19.2609 14.7573C18.7744 15.354 18.0726 16.0575 17.0648 17.0653C16.0569 18.0731 15.3534 18.7749 14.7567 19.2615C14.173 19.7374 13.7763 19.9343 13.4074 20.0077C13.021 20.0845 12.6232 20.0845 12.2368 20.0077C11.8679 19.9343 11.4712 19.7374 10.8875 19.2615C10.2908 18.7749 9.5873 18.0731 8.57948 17.0653L5.57428 14.0601C4.68069 13.1665 4.43578 12.8981 4.30167 12.5852C4.16756 12.2723 4.14211 11.9098 4.1113 10.6465L4.07594 9.19692Z" fill="black"/>
</svg>
