<svg width="24" height="24" viewBox="0 0 24 24" fill="none" xmlns="http://www.w3.org/2000/svg">
<path d="M7 3C7 2.44772 6.55229 2 6 2C5.44772 2 5 2.44772 5 3L5 5L3 5C2.44772 5 2 5.44772 2 6C2 6.55228 2.44772 7 3 7L5 7L5 14.0658C4.99995 14.9523 4.99991 15.7161 5.08215 16.3278C5.17028 16.9833 5.36902 17.6117 5.87868 18.1213C6.38835 18.631 7.0167 18.8297 7.67221 18.9179C8.28388 19.0001 9.0477 19.0001 9.9342 19L17 19V21C17 21.5523 17.4477 22 18 22C18.5523 22 19 21.5523 19 21V19H21C21.5523 19 22 18.5523 22 18C22 17.4477 21.5523 17 21 17H10C9.02893 17 8.40122 16.9979 7.93871 16.9357C7.50497 16.8774 7.36902 16.7832 7.2929 16.7071C7.21677 16.631 7.12263 16.495 7.06431 16.0613C7.00213 15.5988 7 14.9711 7 14V3Z" fill="black"/>
<path d="M14 7C14.9711 7 15.5988 7.00213 16.0613 7.06431C16.495 7.12263 16.631 7.21677 16.7071 7.2929C16.7832 7.36902 16.8774 7.50497 16.9357 7.93871C16.9979 8.40122 17 9.02893 17 10V13C17 13.5523 17.4477 14 18 14C18.5523 14 19 13.5523 19 13L19 9.93417C19.0001 9.04769 19.0001 8.28387 18.9179 7.67221C18.8297 7.0167 18.631 6.38835 18.1213 5.87868C17.6117 5.36902 16.9833 5.17028 16.3278 5.08215C15.7161 4.99991 14.9523 4.99995 14.0658 5L11 5C10.4477 5 10 5.44772 10 6C10 6.55229 10.4477 7 11 7H14Z" fill="black"/>
</svg>
