<svg width="24" height="24" viewBox="0 0 24 24" fill="none" xmlns="http://www.w3.org/2000/svg">
<path d="M11.6294 0.500001H12.3705C13.7246 0.499966 14.8413 0.499936 15.725 0.618755C16.6528 0.743498 17.4723 1.01547 18.1284 1.67158C18.7845 2.32768 19.0565 3.14711 19.1812 4.07494C19.3 4.9587 19.3 6.07531 19.3 7.42943V16.5706C19.3 17.9247 19.3 19.0413 19.1812 19.9251C19.0565 20.8529 18.7845 21.6723 18.1284 22.3284C17.4723 22.9845 16.6528 23.2565 15.725 23.3813C14.8413 23.5001 13.7246 23.5 12.3705 23.5H11.6294C10.2753 23.5 9.15865 23.5001 8.27489 23.3813C7.34706 23.2565 6.52764 22.9845 5.87153 22.3284C5.21542 21.6723 4.94345 20.8529 4.81871 19.9251C4.69989 19.0413 4.69992 17.9247 4.69995 16.5706V7.42943C4.69992 6.07531 4.69989 4.9587 4.81871 4.07494C4.94345 3.14711 5.21542 2.32768 5.87153 1.67158C6.52764 1.01547 7.34706 0.743498 8.27489 0.618755C9.15865 0.499936 10.2753 0.499966 11.6294 0.500001ZM8.54139 2.60092C7.83533 2.69585 7.50831 2.86322 7.28574 3.08579C7.06317 3.30836 6.8958 3.63538 6.80087 4.34143C6.70208 5.07625 6.69995 6.05752 6.69995 7.5V16.5C6.69995 17.9425 6.70208 18.9237 6.80087 19.6586C6.8958 20.3646 7.06317 20.6916 7.28574 20.9142C7.50831 21.1368 7.83533 21.3042 8.54139 21.3991C9.27621 21.4979 10.2575 21.5 11.7 21.5H12.3C13.7424 21.5 14.7237 21.4979 15.4585 21.3991C16.1646 21.3042 16.4916 21.1368 16.7142 20.9142C16.9367 20.6916 17.1041 20.3646 17.199 19.6586C17.2978 18.9237 17.3 17.9425 17.3 16.5V7.5C17.3 6.05752 17.2978 5.07625 17.199 4.34143C17.1041 3.63538 16.9367 3.30836 16.7142 3.08579C16.4916 2.86322 16.1646 2.69585 15.4585 2.60092C14.7237 2.50213 13.7424 2.5 12.3 2.5H11.7C10.2575 2.5 9.27621 2.50213 8.54139 2.60092Z" fill="black"/>
</svg>
