<svg width="24" height="24" viewBox="0 0 24 24" fill="none" xmlns="http://www.w3.org/2000/svg">
<path d="M7.42943 4H16.5706C17.9247 3.99997 19.0413 3.99994 19.9251 4.11875C20.8529 4.2435 21.6723 4.51547 22.3284 5.17158C22.9845 5.82768 23.2565 6.64711 23.3813 7.57494C23.5001 8.4587 23.5 9.57533 23.5 10.9295V13.0705C23.5 14.4247 23.5001 15.5413 23.3813 16.4251C23.2565 17.3529 22.9845 18.1723 22.3284 18.8284C21.6723 19.4845 20.8529 19.7565 19.9251 19.8813C19.0413 20.0001 17.9247 20 16.5706 20H7.42943C6.07531 20 4.9587 20.0001 4.07494 19.8813C3.14711 19.7565 2.32768 19.4845 1.67158 18.8284C1.01547 18.1723 0.743498 17.3529 0.618755 16.4251C0.499936 15.5413 0.499966 14.4247 0.500001 13.0706V10.9294C0.499966 9.57531 0.499936 8.4587 0.618755 7.57494C0.743498 6.64711 1.01547 5.82768 1.67158 5.17158C2.32768 4.51547 3.14711 4.2435 4.07494 4.11875C4.9587 3.99994 6.07531 3.99997 7.42943 4ZM4.34143 6.10092C3.63538 6.19585 3.30836 6.36322 3.08579 6.58579C2.86322 6.80836 2.69585 7.13538 2.60092 7.84143C2.50213 8.57625 2.5 9.55752 2.5 11V13C2.5 14.4425 2.50213 15.4238 2.60092 16.1586C2.69585 16.8646 2.86322 17.1916 3.08579 17.4142C3.30836 17.6368 3.63538 17.8042 4.34143 17.8991C5.07625 17.9979 6.05752 18 7.5 18H16.5C17.9425 18 18.9237 17.9979 19.6586 17.8991C20.3646 17.8042 20.6916 17.6368 20.9142 17.4142C21.1368 17.1916 21.3042 16.8646 21.3991 16.1586C21.4979 15.4238 21.5 14.4425 21.5 13V11C21.5 9.55752 21.4979 8.57625 21.3991 7.84143C21.3042 7.13538 21.1368 6.80836 20.9142 6.58579C20.6916 6.36322 20.3646 6.19585 19.6586 6.10092C18.9237 6.00213 17.9425 6 16.5 6H7.5C6.05752 6 5.07625 6.00213 4.34143 6.10092Z" fill="black"/>
</svg>
