<svg width="24" height="24" viewBox="0 0 24 24" fill="none" xmlns="http://www.w3.org/2000/svg">
<path fill-rule="evenodd" clip-rule="evenodd" d="M16.5126 15.3814L14.2772 20.8103C13.5955 22.4659 11.6222 23.1563 10.057 22.2868C8.16208 21.234 7.16473 19.0773 7.58986 16.9517L7.7802 16C6.79813 15.9999 5.99266 15.9973 5.34525 15.94C4.65089 15.8786 4.01499 15.7467 3.45698 15.4014C2.58362 14.8609 1.95161 14.0052 1.69189 13.0115C1.52594 12.3766 1.58693 11.7301 1.73241 11.0484C1.87458 10.3822 2.12519 9.56771 2.43315 8.56691L2.45893 8.48314C2.8168 7.32001 3.10224 6.39233 3.39218 5.65619C3.68981 4.9005 4.01844 4.27493 4.49714 3.74161C5.29735 2.85007 6.34613 2.2185 7.50841 1.92821C8.2037 1.75455 8.91034 1.75668 9.71748 1.84707C10.5038 1.93512 11.4572 2.11672 12.6526 2.34445L16.0577 2.99302C16.6883 2.37854 17.5499 2 18.5 2C20.433 2 22 3.567 22 5.5V12.5C22 14.433 20.433 16 18.5 16C17.7619 16 17.0772 15.7715 16.5126 15.3814ZM12.4279 20.0488C12.2018 20.5979 11.5474 20.8268 11.0283 20.5384C9.89365 19.9081 9.29647 18.6167 9.55102 17.3439L9.98058 15.1961C10.0393 14.9024 9.96328 14.5977 9.77334 14.366C9.5834 14.1343 9.29959 14 9 14H7.97017C6.86456 14 6.10136 13.9991 5.52152 13.9478C4.94734 13.897 4.67691 13.8044 4.50943 13.7007C4.07275 13.4305 3.75674 13.0026 3.62688 12.5058C3.57708 12.3152 3.56807 12.0295 3.68837 11.4658C3.80986 10.8965 4.03342 10.1668 4.35856 9.11005C4.73108 7.89937 4.99456 7.04538 5.25304 6.3891C5.50705 5.74419 5.72968 5.36257 5.98552 5.07754C6.519 4.48318 7.21818 4.06213 7.99304 3.8686C8.36464 3.77579 8.80607 3.75751 9.4949 3.83464C10.1959 3.91314 11.0739 4.07969 12.3182 4.31671L15 4.82752V13.8022L12.4279 20.0488ZM17 12.5C17 13.3284 17.6716 14 18.5 14C19.3284 14 20 13.3284 20 12.5V5.5C20 4.67157 19.3284 4 18.5 4C17.6716 4 17 4.67157 17 5.5V12.5Z" fill="black"/>
</svg>
