<svg width="24" height="24" viewBox="0 0 24 24" fill="none" xmlns="http://www.w3.org/2000/svg">
<path d="M10.057 22.2868C11.6222 23.1563 13.5955 22.4659 14.2772 20.8103L15.9057 16.8555C16.0132 16.5943 16.067 16.4637 16.0547 16.3395C16.0425 16.2154 15.9511 16.0783 15.7685 15.8041C15.6503 15.6266 15.5466 15.4432 15.4575 15.2496C14.9986 14.2517 14.9992 13.1363 15 11.5319V6.46812C14.9995 5.52034 14.9991 4.74318 15.0935 4.06009C15.1806 3.42957 15.2241 3.11431 15.1077 2.9521C14.9912 2.78989 14.7249 2.73915 14.1921 2.63768L12.6527 2.34446C11.4574 2.11676 10.5037 1.93511 9.71748 1.84707C8.91034 1.75668 8.2037 1.75455 7.50841 1.92821C6.34613 2.2185 5.29735 2.85007 4.49714 3.74161C4.01844 4.27493 3.68981 4.9005 3.39218 5.65619C3.10223 6.39236 2.81681 7.31997 2.45892 8.48316L2.43312 8.56699C2.12519 9.56772 1.87457 10.3822 1.73241 11.0484C1.58693 11.7301 1.52594 12.3766 1.69189 13.0115C1.95161 14.0052 2.58362 14.8609 3.45698 15.4014C4.01499 15.7467 4.65089 15.8786 5.34525 15.94C5.99266 15.9973 6.79813 15.9999 7.7802 16L7.58986 16.9517C7.16473 19.0773 8.16208 21.234 10.057 22.2868Z" fill="black"/>
<path d="M19.5074 2.14714C19.2084 2.05745 19.0589 2.0126 18.7973 2.07498C18.5357 2.13735 18.389 2.27663 18.0956 2.55519C17.6462 2.982 17.4227 3.2641 17.2745 3.58619C17.0215 4.13643 17.0001 4.77764 17.0001 6.6795V11.3205C17.0001 13.2224 17.0215 13.8636 17.2745 14.4139C17.4227 14.7359 17.6461 15.018 18.0956 15.4448C18.3889 15.7234 18.5356 15.8627 18.7973 15.925C19.0589 15.9874 19.2084 15.9426 19.5073 15.8529C20.9493 15.4203 22 14.0828 22 12.5V5.5C22 3.91718 20.9493 2.57977 19.5074 2.14714Z" fill="black"/>
</svg>
