<svg width="24" height="24" viewBox="0 0 24 24" fill="none" xmlns="http://www.w3.org/2000/svg">
<path d="M9.85253 9.66422V8.80694C9.55495 8.75978 9.25437 8.73395 8.9531 8.72963C6.03639 8.72348 3.45411 10.6136 2.57826 13.3957C1.70242 16.1778 2.73626 19.2063 5.13049 20.8721C3.33704 18.9527 2.83905 16.1585 3.85898 13.7377C4.87891 11.3169 7.22627 9.72152 9.85253 9.66422Z" fill="#25F4EE"/>
<path d="M10.0141 19.3753C11.6449 19.3731 12.9853 18.0883 13.0567 16.4591V1.92052H15.7129C15.6586 1.61674 15.6328 1.30857 15.6356 1H12.0027V15.5246C11.9423 17.1621 10.5987 18.4591 8.96006 18.4618C8.47039 18.4576 7.98871 18.3372 7.55469 18.1105C8.12521 18.9009 9.03925 19.371 10.0141 19.3753Z" fill="#25F4EE"/>
<path d="M20.6738 6.85345V6.04536C19.6962 6.04569 18.7404 5.75723 17.9263 5.21619C18.64 6.04586 19.6044 6.62059 20.6738 6.85345Z" fill="#25F4EE"/>
<path d="M17.9264 5.21621C17.1244 4.30295 16.6823 3.12898 16.6826 1.91357H15.7129C15.966 3.27165 16.7664 4.4659 17.9264 5.21621Z" fill="#FE2C55"/>
<path d="M8.953 12.3625C7.55357 12.3696 6.33862 13.3284 6.00625 14.6878C5.67388 16.0472 6.30939 17.4584 7.54763 18.1104C6.87669 17.1841 6.78191 15.9598 7.30229 14.9413C7.82267 13.9228 8.87029 13.2821 10.0141 13.283C10.319 13.2868 10.6219 13.3341 10.9135 13.4235V9.72737C10.6157 9.68276 10.3151 9.65927 10.0141 9.6571H9.85244V12.4679C9.55933 12.3893 9.25634 12.3538 8.953 12.3625Z" fill="#FE2C55"/>
<path d="M20.674 6.85339V9.66415C18.8644 9.66065 17.1018 9.08784 15.6358 8.02688V15.4121C15.628 19.0973 12.6384 22.0807 8.95322 22.0806C7.58465 22.0831 6.24904 21.6608 5.13062 20.872C6.9971 22.8795 9.90189 23.5403 12.4531 22.5378C15.0043 21.5353 16.6822 19.0738 16.6828 16.3327V8.96848C18.1537 10.0225 19.9185 10.5878 21.7281 10.5847V6.96582C21.3738 6.9647 21.0206 6.92702 20.674 6.85339Z" fill="#FE2C55"/>
<path d="M15.6358 15.4122V8.02696C17.1063 9.08183 18.8714 9.64726 20.6811 9.64314V6.83239C19.6119 6.60663 18.6452 6.03939 17.9265 5.21621C16.7666 4.4659 15.9662 3.27165 15.7131 1.91357H13.0569V16.4592C13.0038 17.7569 12.1346 18.8786 10.8913 19.254C9.64791 19.6294 8.30323 19.1761 7.54085 18.1246C6.30261 17.4725 5.6671 16.0613 5.99947 14.7019C6.33185 13.3425 7.54679 12.3838 8.94622 12.3766C9.25129 12.3793 9.55431 12.4267 9.84566 12.5171V9.70639C7.20467 9.75112 4.83957 11.3521 3.81675 13.7874C2.79392 16.2227 3.3066 19.0323 5.12361 20.9494C6.25306 21.7122 7.59062 22.1073 8.95325 22.0807C12.6384 22.0807 15.628 19.0974 15.6358 15.4122Z" fill="black"/>
</svg>
