<svg width="24" height="24" viewBox="0 0 24 24" fill="none" xmlns="http://www.w3.org/2000/svg">
<path fill-rule="evenodd" clip-rule="evenodd" d="M1.01994 9.80107C2.03922 4.7797 6.47705 1 11.7999 1C17.1228 1 21.5606 4.7797 22.5799 9.80107C22.6898 10.3423 22.3401 10.8701 21.7988 10.98C21.2576 11.0899 20.7298 10.7402 20.6199 10.1989C19.7861 6.0913 16.1529 3 11.7999 3C8.09655 3 4.91417 5.23751 3.53337 8.43477L4.68372 8.05132C5.20767 7.87667 5.77399 8.15983 5.94864 8.68377C6.12328 9.20772 5.84012 9.77403 5.31618 9.94868L2.31618 10.9487C1.97752 11.0616 1.60436 10.9854 1.33707 10.7487C1.06979 10.5121 0.948923 10.1509 1.01994 9.80107ZM12 7C12.3972 7 12.7569 7.23519 12.9161 7.59918L16.4161 15.5992C16.6375 16.1052 16.4067 16.6948 15.9008 16.9162C15.3948 17.1375 14.8052 16.9068 14.5838 16.4008L13.7522 14.5H10.2477L9.41611 16.4008C9.19474 16.9068 8.60511 17.1375 8.09913 16.9162C7.59315 16.6948 7.36243 16.1052 7.58379 15.5992L11.0838 7.59918C11.243 7.23519 11.6027 7 12 7ZM11.1227 12.5H12.8772L12 10.4949L11.1227 12.5ZM1.80102 13.02C2.34227 12.9101 2.8701 13.2598 2.97997 13.8011C3.81377 17.9087 7.44695 21 11.7999 21C15.4585 21 18.6087 18.8163 20.0156 15.6808L19.3589 15.9333C18.8435 16.1316 18.2649 15.8745 18.0666 15.359C17.8683 14.8435 18.1255 14.2649 18.641 14.0667L21.2409 13.0667C21.5817 12.9356 21.9668 13.0007 22.2456 13.2364C22.5244 13.4722 22.6525 13.8411 22.5799 14.1989C21.5606 19.2203 17.1228 23 11.7999 23C6.47705 23 2.03922 19.2203 1.01994 14.1989C0.910072 13.6577 1.25977 13.1299 1.80102 13.02Z" fill="black"/>
</svg>
