<svg width="24" height="24" viewBox="0 0 24 24" fill="none" xmlns="http://www.w3.org/2000/svg">
<path d="M19.9638 8.83887C19.9638 8.65285 19.9602 8.46893 19.9519 8.28626C20.7538 7.69375 21.4497 6.95205 22 6.10331C21.2526 6.43675 20.4574 6.65249 19.6429 6.74273C20.4906 6.2255 21.1407 5.39827 21.4479 4.40556C20.6542 4.88285 19.7762 5.22408 18.8427 5.40187C18.0947 4.558 17.0274 4.02051 15.8474 4.00054C13.5812 3.96339 11.7442 5.86224 11.7442 8.24118C11.7442 8.57932 11.7798 8.90725 11.8506 9.22392C8.43807 9.00617 5.41408 7.2449 3.39129 4.58976C3.03833 5.22589 2.83584 5.96934 2.83584 6.76607C2.83584 8.27297 3.56027 9.61229 4.66097 10.4026C3.98713 10.3724 3.3559 10.17 2.80225 9.83826V9.8936C2.80225 11.9997 4.21711 13.7643 6.09445 14.176C5.75028 14.2731 5.38727 14.3236 5.01393 14.3218C4.75453 14.3204 4.49598 14.2924 4.24244 14.238C4.76409 15.9639 6.28019 17.2248 8.07509 17.2668C6.67033 18.4217 4.90076 19.1116 2.97952 19.1068C2.64827 19.1068 2.32092 19.0847 2 19.0448C3.81663 20.2804 5.97303 21 8.29113 21C15.8371 21.0018 19.9638 14.4893 19.9638 8.83887Z" fill="black" fill-opacity="0.85"/>
</svg>
