<svg width="24" height="24" viewBox="0 0 24 24" fill="none" xmlns="http://www.w3.org/2000/svg">
<path d="M10.9294 0.500001H13.0706C14.4247 0.499966 15.5413 0.499936 16.4251 0.618755C17.3529 0.743498 18.1723 1.01547 18.8284 1.67158C19.4845 2.32768 19.7565 3.14711 19.8813 4.07494C20.0001 4.9587 20 6.07531 20 7.42943V16.5706C20 17.9247 20.0001 19.0413 19.8813 19.9251C19.7565 20.8529 19.4845 21.6723 18.8284 22.3284C18.1723 22.9845 17.3529 23.2565 16.4251 23.3813C15.5413 23.5001 14.4247 23.5 13.0705 23.5H10.9295C9.57533 23.5 8.4587 23.5001 7.57494 23.3813C6.64711 23.2565 5.82768 22.9845 5.17158 22.3284C4.51547 21.6723 4.2435 20.8529 4.11875 19.9251C3.99994 19.0413 3.99997 17.9247 4 16.5706V7.42943C3.99997 6.07531 3.99994 4.9587 4.11875 4.07494C4.2435 3.14711 4.51547 2.32768 5.17158 1.67158C5.82768 1.01547 6.64711 0.743498 7.57494 0.618755C8.4587 0.499936 9.57531 0.499966 10.9294 0.500001ZM7.84143 2.60092C7.13538 2.69585 6.80836 2.86322 6.58579 3.08579C6.36322 3.30836 6.19585 3.63538 6.10092 4.34143C6.00213 5.07625 6 6.05752 6 7.5V16.5C6 17.9425 6.00213 18.9237 6.10092 19.6586C6.19585 20.3646 6.36322 20.6916 6.58579 20.9142C6.80836 21.1368 7.13538 21.3042 7.84143 21.3991C8.57625 21.4979 9.55752 21.5 11 21.5H13C14.4425 21.5 15.4238 21.4979 16.1586 21.3991C16.8646 21.3042 17.1916 21.1368 17.4142 20.9142C17.6368 20.6916 17.8042 20.3646 17.8991 19.6586C17.9979 18.9237 18 17.9425 18 16.5V7.5C18 6.05752 17.9979 5.07625 17.8991 4.34143C17.8042 3.63538 17.6368 3.30836 17.4142 3.08579C17.1916 2.86322 16.8646 2.69585 16.1586 2.60092C15.4238 2.50213 14.4425 2.5 13 2.5H11C9.55752 2.5 8.57625 2.50213 7.84143 2.60092Z" fill="black"/>
</svg>
