<svg width="24" height="24" viewBox="0 0 24 24" fill="none" xmlns="http://www.w3.org/2000/svg">
<path d="M13.0732 2H10.9268C9.1034 1.99997 7.63362 1.99995 6.47767 2.15537C5.27752 2.31672 4.26702 2.66191 3.46447 3.46447C2.66191 4.26702 2.31672 5.27752 2.15537 6.47767C1.99995 7.63362 1.99997 9.10336 2 10.9268V13.0732C1.99997 14.8966 1.99995 16.3664 2.15537 17.5223C2.31672 18.7225 2.66191 19.733 3.46447 20.5355C3.87108 20.9421 4.33107 21.2314 4.84205 21.4387C5.42252 21.6743 6 21.1888 6 20.5623V20.4879C6 20.0349 5.67975 19.6644 5.28826 19.4364C5.12975 19.344 4.9966 19.2392 4.87868 19.1213C4.50967 18.7523 4.26907 18.2342 4.13753 17.2558C4.00213 16.2487 4 14.9139 4 13V11C4 9.08611 4.00213 7.7513 4.13753 6.74416C4.26907 5.7658 4.50967 5.2477 4.87868 4.87868C5.2477 4.50967 5.7658 4.26907 6.74416 4.13753C7.7513 4.00213 9.08612 4 11 4H13C14.9139 4 16.2487 4.00213 17.2558 4.13753C18.2342 4.26907 18.7523 4.50967 19.1213 4.87868C19.4903 5.2477 19.7309 5.7658 19.8625 6.74416C19.9128 7.1182 19.9447 7.53743 19.9649 8.01474C19.9881 8.56085 20.4302 9 20.9768 9C21.5347 9 21.9879 8.54328 21.9652 7.98585C21.9427 7.43319 21.9056 6.93127 21.8446 6.47767C21.6833 5.27752 21.3381 4.26702 20.5355 3.46447C19.733 2.66191 18.7225 2.31672 17.5223 2.15537C16.3664 1.99995 14.8966 1.99997 13.0732 2Z" fill="black"/>
<path d="M9 6C7.34316 6 6 7.34316 6 9C6 10.6568 7.34316 12 9 12C10.6568 12 12 10.6568 12 9C12 7.34316 10.6568 6 9 6ZM8 9C8 8.44772 8.44772 8 9 8C9.55228 8 10 8.44772 10 9C10 9.55228 9.55228 10 9 10C8.44772 10 8 9.55228 8 9Z" fill="black"/>
<path d="M19.8013 16.1129L19.7028 17.4254C19.6615 17.9762 20.0745 18.4561 20.6253 18.4974C21.176 18.5387 21.6559 18.1258 21.6972 17.575L21.8279 15.8328C21.8645 15.3459 21.8995 14.8808 21.8744 14.4994C21.8465 14.0743 21.7364 13.5761 21.3301 13.1699C20.9239 12.7637 20.4257 12.6535 20.0006 12.6256C19.6192 12.6006 19.1541 12.6355 18.6672 12.6721L16.9253 12.8028C16.3745 12.8441 15.9615 13.324 16.0028 13.8748C16.0442 14.4255 16.5241 14.8385 17.0748 14.7972L18.387 14.6988L15.4062 17.6796L14.1 16.7C13.7019 16.4014 13.1448 16.441 12.7929 16.7929L9.29289 20.2929C8.90237 20.6834 8.90237 21.3166 9.29289 21.7071C9.68342 22.0976 10.3166 22.0976 10.7071 21.7071L13.5938 18.8204L14.9 19.8C15.2981 20.0986 15.8552 20.059 16.2071 19.7071L19.8013 16.1129Z" fill="black"/>
</svg>
