<svg width="24" height="24" viewBox="0 0 24 24" fill="none" xmlns="http://www.w3.org/2000/svg">
<path d="M21 8V7C21 4.79086 19.2091 3 17 3H12H7C4.79086 3 3 4.79086 3 7V18C3 19.6569 4.34315 21 6 21" stroke="black" stroke-opacity="0.85" stroke-width="2"/>
<path d="M8.5 10C9.32842 10 10 9.32842 10 8.5C10 7.67158 9.32842 7 8.5 7C7.67158 7 7 7.67158 7 8.5C7 9.32842 7.67158 10 8.5 10Z" stroke="black" stroke-opacity="0.85" stroke-width="2" stroke-linecap="square" stroke-linejoin="round"/>
<path d="M16 13L16 16L13 16" stroke="black" stroke-opacity="0.85" stroke-width="2" stroke-linecap="square" stroke-linejoin="round"/>
<path d="M12 12L15 15" stroke="black" stroke-opacity="0.85" stroke-width="2" stroke-linecap="square" stroke-linejoin="round"/>
<path d="M17.7 17.0667C18.1 16.5333 18.9 16.5333 19.3 17.0667L21.8 20.4C22.2944 21.0592 21.824 22 21 22H16C15.176 22 14.7056 21.0592 15.2 20.4L17.7 17.0667Z" fill="#D9D9D9"/>
<path d="M21 21H16L18.5 17.667L21 21Z" stroke="black" stroke-opacity="0.85" stroke-width="2"/>
</svg>
