<svg width="24" height="24" viewBox="0 0 24 24" fill="none" xmlns="http://www.w3.org/2000/svg">
<path d="M7 5.5C7 6.32845 6.32845 7 5.5 7C4.67155 7 4 6.32845 4 5.5C4 4.67155 4.67155 4 5.5 4C6.32845 4 7 4.67155 7 5.5Z" fill="black"/>
<path d="M10 4.5C9.44772 4.5 9 4.94772 9 5.5C9 6.05228 9.44772 6.5 10 6.5H19C19.5523 6.5 20 6.05228 20 5.5C20 4.94772 19.5523 4.5 19 4.5H10Z" fill="black"/>
<path d="M10 17.5C9.44772 17.5 9 17.9477 9 18.5C9 19.0523 9.44772 19.5 10 19.5H18C18.5523 19.5 19 19.0523 19 18.5C19 17.9477 18.5523 17.5 18 17.5H10Z" fill="black"/>
<path d="M9 12C9 11.4477 9.44772 11 10 11H16C16.5523 11 17 11.4477 17 12C17 12.5523 16.5523 13 16 13H10C9.44772 13 9 12.5523 9 12Z" fill="black"/>
<path d="M5.5 13.5C6.32845 13.5 7 12.8285 7 12C7 11.1715 6.32845 10.5 5.5 10.5C4.67155 10.5 4 11.1715 4 12C4 12.8285 4.67155 13.5 5.5 13.5Z" fill="black"/>
<path d="M7 18.5C7 19.3285 6.32845 20 5.5 20C4.67155 20 4 19.3285 4 18.5C4 17.6715 4.67155 17 5.5 17C6.32845 17 7 17.6715 7 18.5Z" fill="black"/>
</svg>
