<svg width="24" height="24" viewBox="0 0 24 24" fill="none" xmlns="http://www.w3.org/2000/svg">
<path d="M3.27946 8.38791C2.78106 6.97984 3.09516 5.34845 4.22174 4.22187C5.34833 3.09527 6.97976 2.78118 8.38784 3.27961C9.03106 1.9315 10.4068 1 12 1C13.5932 1 14.9689 1.93148 15.6121 3.27957C17.0202 2.78119 18.6516 3.09529 19.7781 4.22186C20.9047 5.34843 21.2188 6.9798 20.7204 8.38786C22.0685 9.03109 23 10.4068 23 12C23 13.5932 22.0686 14.9688 20.7205 15.6121C21.2189 17.0202 20.9048 18.6516 19.7783 19.7781C18.6517 20.9047 17.0202 21.2188 15.6122 20.7204C14.9689 22.0685 13.5933 23 12 23C10.4068 23 9.03109 22.0685 8.38786 20.7204C6.9798 21.2188 5.34843 20.9047 4.22187 19.7781C3.0953 18.6516 2.7812 17.0202 3.27957 15.6121C1.93148 14.9689 1 13.5932 1 12C1 10.4068 1.93143 9.03117 3.27946 8.38791Z" fill="url(#paint0_linear_5680_103836)"/>
<g filter="url(#filter0_d_5680_103836)">
<path d="M4.96274 14.8915C4.79706 14.8915 4.67494 14.7578 4.68999 14.5928L5.16508 9.38245C5.18012 9.21745 5.32663 9.08369 5.49232 9.08369H7.25431C8.92681 9.08369 9.39423 9.65275 9.25764 11.1507C9.10884 12.7826 8.45745 13.3099 6.86895 13.3099H6.62673C6.46104 13.3099 6.31453 13.4436 6.29948 13.6086L6.20975 14.5928C6.1947 14.7578 6.04819 14.8915 5.8825 14.8915H4.96274ZM6.45637 11.888C6.45136 11.943 6.49206 11.9876 6.54729 11.9876H6.76805C7.40192 11.9876 7.64781 11.8035 7.70352 11.1926C7.76228 10.5482 7.53468 10.3641 6.91608 10.3641H6.69533C6.6401 10.3641 6.59126 10.4087 6.58625 10.4637L6.45637 11.888Z" fill="url(#paint1_linear_5680_103836)"/>
<path d="M14.3269 14.7368C14.3651 14.803 14.3094 14.8915 14.2295 14.8915H12.9151C12.7339 14.8915 12.5757 14.7938 12.5018 14.6361L11.7312 12.9927C11.7164 12.9612 11.6847 12.9416 11.6485 12.9416H11.5094C11.4541 12.9416 11.4053 12.9862 11.4003 13.0412L11.2588 14.5928C11.2438 14.7578 11.0973 14.8915 10.9316 14.8915H10.0118C9.84612 14.8915 9.724 14.7578 9.73905 14.5928L10.2141 9.38245C10.2292 9.21745 10.3757 9.08369 10.5414 9.08369H12.395C13.7468 9.08369 14.3982 9.64439 14.2723 11.0252C14.1869 11.9625 13.8547 12.5065 13.1895 12.7659L14.3269 14.7368ZM11.7452 10.3557C11.6899 10.3557 11.6411 10.4003 11.6361 10.4553L11.5268 11.6537C11.5218 11.7087 11.5625 11.7533 11.6177 11.7533H11.8843C12.5029 11.7533 12.7259 11.5692 12.7755 11.0252C12.8243 10.4896 12.6303 10.3557 12.0117 10.3557H11.7452Z" fill="url(#paint2_linear_5680_103836)"/>
<path d="M17.1578 14.9752C15.5846 14.9752 14.7147 14.381 14.9329 11.9876C15.1504 9.60254 16.1294 9 17.7027 9C19.2835 9 20.145 9.60254 19.9275 11.9876C19.7093 14.381 18.7387 14.9752 17.1578 14.9752ZM17.283 13.6028C18.0085 13.6028 18.2177 13.2345 18.3314 11.9876C18.4466 10.7239 18.3053 10.3474 17.5798 10.3474C16.8543 10.3474 16.6519 10.7239 16.5367 11.9876C16.423 13.2345 16.5574 13.6028 17.283 13.6028Z" fill="url(#paint3_linear_5680_103836)"/>
</g>
<defs>
<filter id="filter0_d_5680_103836" x="2.68872" y="7" width="21.2721" height="11.9751" filterUnits="userSpaceOnUse" color-interpolation-filters="sRGB">
<feFlood flood-opacity="0" result="BackgroundImageFix"/>
<feColorMatrix in="SourceAlpha" type="matrix" values="0 0 0 0 0 0 0 0 0 0 0 0 0 0 0 0 0 0 127 0" result="hardAlpha"/>
<feOffset dx="1" dy="1"/>
<feGaussianBlur stdDeviation="1.5"/>
<feComposite in2="hardAlpha" operator="out"/>
<feColorMatrix type="matrix" values="0 0 0 0 0.576471 0 0 0 0 0.454902 0 0 0 0 0.231373 0 0 0 0.3 0"/>
<feBlend mode="normal" in2="BackgroundImageFix" result="effect1_dropShadow_5680_103836"/>
<feBlend mode="normal" in="SourceGraphic" in2="effect1_dropShadow_5680_103836" result="shape"/>
</filter>
<linearGradient id="paint0_linear_5680_103836" x1="12" y1="1" x2="12" y2="23" gradientUnits="userSpaceOnUse">
<stop stop-color="#DCBE86"/>
<stop offset="1" stop-color="#B2945C"/>
</linearGradient>
<linearGradient id="paint1_linear_5680_103836" x1="4.90464" y1="11.5" x2="19.8098" y2="10.3108" gradientUnits="userSpaceOnUse">
<stop stop-color="white"/>
<stop offset="1" stop-color="#FFF8EA"/>
</linearGradient>
<linearGradient id="paint2_linear_5680_103836" x1="4.90464" y1="11.5" x2="19.8098" y2="10.3108" gradientUnits="userSpaceOnUse">
<stop stop-color="white"/>
<stop offset="1" stop-color="#FFF8EA"/>
</linearGradient>
<linearGradient id="paint3_linear_5680_103836" x1="4.90464" y1="11.5" x2="19.8098" y2="10.3108" gradientUnits="userSpaceOnUse">
<stop stop-color="white"/>
<stop offset="1" stop-color="#FFF8EA"/>
</linearGradient>
</defs>
</svg>
