<svg width="24" height="24" viewBox="0 0 24 24" fill="none" xmlns="http://www.w3.org/2000/svg">
<path d="M3.5 1C2.94772 1 2.5 1.44772 2.5 2C2.5 2.55228 2.94772 3 3.5 3H4.68766C5.34388 5.99808 6.19752 8.36745 7.28656 10.0429C7.80698 10.8435 8.39617 11.5053 9.0551 11.9983C8.39612 12.4908 7.80692 13.1524 7.28656 13.9529C6.19739 15.6286 5.34373 17.9994 4.68752 21H3.5C2.94772 21 2.5 21.4477 2.5 22C2.5 22.5523 2.94772 23 3.5 23H20.5C21.0523 23 21.5 22.5523 21.5 22C21.5 21.4477 21.0523 21 20.5 21H19.3123C18.6561 18.0019 17.8025 15.6326 16.7134 13.9571C16.193 13.1565 15.6038 12.4947 14.9449 12.0017C15.6039 11.5092 16.1931 10.8476 16.7134 10.0471C17.8026 8.37142 18.6563 6.00059 19.3125 3H20.5C21.0523 3 21.5 2.55228 21.5 2C21.5 1.44772 21.0523 1 20.5 1H3.5Z" fill="black"/>
</svg>
