<svg width="24" height="24" viewBox="0 0 24 24" fill="none" xmlns="http://www.w3.org/2000/svg">
<path d="M8.73449 4L13.8831 1.05796C15.2521 0.275678 16.993 0.68666 17.8676 1.99859L19.3191 4.17584C21.4405 4.75457 23 6.69516 23 9V17C23 19.7614 20.7614 22 18 22H6C3.23858 22 1 19.7614 1 17V9C1 6.23858 3.23858 4 6 4H8.73449ZM14.8753 2.79445L12.7656 4H16.7982L16.2035 3.10799C15.912 2.67068 15.3317 2.53369 14.8753 2.79445ZM18.1335 6.00292C18.0892 6.00098 18.0447 6 18 6H6C4.34315 6 3 7.34315 3 9V17C3 18.6569 4.34315 20 6 20H18C19.6569 20 21 18.6569 21 17H18C15.7909 17 14 15.2091 14 13C14 10.7909 15.7909 9 18 9H21C21 7.42267 19.7827 6.12966 18.2363 6.00917L18.168 6.05471L18.1335 6.00292ZM18 11C16.8954 11 16 11.8954 16 13C16 14.1046 16.8954 15 18 15H21V11H18Z" fill="black"/>
</svg>
