<svg width="24" height="24" viewBox="0 0 24 24" fill="none" xmlns="http://www.w3.org/2000/svg">
<path d="M9.19336 1.36664C10.1128 1.12274 11.0566 1 12.0012 1C13.4779 1 14.9139 1.29047 16.2709 1.86476L16.0906 9.83744L9.19336 1.36664Z" fill="#FA5452"/>
<path d="M2.49414 6.46639C2.97456 5.6408 3.55552 4.88542 4.22219 4.22174C5.26576 3.1781 6.48604 2.36809 7.85117 1.81372L13.3634 7.57802L2.49414 6.46639Z" fill="#FF7612"/>
<path d="M1.3666 14.8093C1.12342 13.8936 1 12.9497 1 12C1 10.5218 1.29117 9.08576 1.86472 7.73169L9.83814 7.91054L1.3666 14.8093Z" fill="#FFC817"/>
<path d="M6.46656 21.5055C5.64688 21.028 4.89303 20.4472 4.2234 19.7775C3.17906 18.7354 2.369 17.5151 1.81543 16.1485L7.57966 10.6385L6.46656 21.5055Z" fill="#9AD122"/>
<path d="M12.0007 23C10.5239 23 9.08794 22.7095 7.73096 22.1367L7.91129 14.1641L14.8085 22.6349C13.8876 22.8773 12.9445 23 12.0007 23Z" fill="#66D020"/>
<path d="M10.6377 16.4227L21.5069 17.5344C21.0302 18.3525 20.4508 19.1064 19.7782 19.7775C18.736 20.8226 17.5143 21.6326 16.1492 22.187L10.6377 16.4227Z" fill="#00B1FE"/>
<path d="M14.1636 16.0909L22.6344 9.19214C22.8775 10.1086 23.0002 11.0532 23.0002 12C23.0002 13.4826 22.7091 14.9172 22.1362 16.2698L14.1636 16.0909Z" fill="#5283F0"/>
<path d="M17.5335 2.49512C18.3524 2.97037 19.1078 3.55054 19.7781 4.22166C20.8232 5.2638 21.6333 6.48551 22.1861 7.85062L16.4219 13.3621L17.5335 2.49512Z" fill="#6467F0"/>
</svg>
