<svg width="24" height="24" viewBox="0 0 24 24" fill="none" xmlns="http://www.w3.org/2000/svg">
<path d="M12.25 8.75C12.25 8.05964 11.6904 7.5 11 7.5C10.3096 7.5 9.75 8.05964 9.75 8.75C9.75 9.44036 10.3096 10 11 10C11.6904 10 12.25 9.44036 12.25 8.75Z" fill="black" fill-opacity="0.85"/>
<path d="M6 7.5C6.69036 7.5 7.25 8.05964 7.25 8.75C7.25 9.44036 6.69036 10 6 10C5.30964 10 4.75 9.44036 4.75 8.75C4.75 8.05964 5.30964 7.5 6 7.5Z" fill="black" fill-opacity="0.85"/>
<path d="M14 14.5C14 13.9477 14.4477 13.5 15 13.5C15.5523 13.5 16 13.9477 16 14.5C16 15.0523 15.5523 15.5 15 15.5C14.4477 15.5 14 15.0523 14 14.5Z" fill="black" fill-opacity="0.85"/>
<path d="M19 13.5C18.4477 13.5 18 13.9477 18 14.5C18 15.0523 18.4477 15.5 19 15.5C19.5523 15.5 20 15.0523 20 14.5C20 13.9477 19.5523 13.5 19 13.5Z" fill="black" fill-opacity="0.85"/>
<path d="M16.9604 9.0001C16.5399 4.99438 12.8249 2 8.5 2C3.90593 2 0 5.37878 0 9.75944C0 10.8866 0.16337 11.8655 0.604607 12.7577C1.00169 13.5605 1.58925 14.2232 2.34618 14.8415L2.22199 16.3715C2.18862 16.5395 2.172 16.7319 2.2001 16.9326C2.23348 17.1711 2.34274 17.4894 2.63468 17.7298C3.19158 18.1882 3.81003 17.9659 4.11056 17.8045L5.82239 17.1262C6.66608 17.3814 7.56669 17.5189 8.5 17.5189C9.13658 17.5189 9.75995 17.454 10.3615 17.3306C11.3081 19.8766 13.9947 21.622 17 21.622C17.7418 21.622 18.4591 21.5178 19.1335 21.3237L20.4347 21.8301C20.7098 21.9721 21.2848 22.1711 21.8125 21.7444C22.0983 21.5134 22.2053 21.2064 22.2376 20.9792C22.2639 20.7952 22.2492 20.622 22.2206 20.4745L22.132 19.4029C22.7108 18.9247 23.173 18.4024 23.4924 17.7682C23.8659 17.0265 24 16.2193 24 15.311C24 11.7144 20.7478 9 17 9L16.9604 9.0001ZM14.9764 9.27034C12.1541 10.0411 10 12.3839 10 15.311L10.0003 15.3663C9.52119 15.4659 9.01931 15.5189 8.5 15.5189C7.70857 15.5189 6.95288 15.3937 6.25532 15.1659C5.86941 15.0399 5.45225 15.0757 5.09453 15.2633L4.29273 15.581L4.35366 14.8303C4.4378 14.3307 4.2561 13.7925 3.82222 13.4594C3.08944 12.8969 2.65904 12.4002 2.39733 11.871C2.1357 11.342 2 10.6943 2 9.75944C2 6.67387 4.80983 4 8.5 4C11.9937 4 14.6982 6.39667 14.9764 9.27034ZM4.18301 16.7648L4.18367 16.7611C4.18314 16.7636 4.18297 16.7648 4.18301 16.7648ZM3.14743 16.0524C3.14354 16.0546 3.1439 16.0546 3.14743 16.0524V16.0524ZM12 15.311C12 13.0413 14.1204 11 17 11C19.8796 11 22 13.0413 22 15.311C22 16.0228 21.8949 16.4938 21.7061 16.8686C21.5167 17.2447 21.199 17.6118 20.6274 18.0428C20.2188 18.3509 20.0416 18.8525 20.1186 19.3235L20.1389 19.5689L19.8014 19.4375C19.4719 19.2709 19.0909 19.2406 18.7387 19.3536C18.1993 19.5266 17.614 19.622 17 19.622C14.1204 19.622 12 17.5807 12 15.311Z" fill="black" fill-opacity="0.85"/>
</svg>
