<svg width="24" height="24" viewBox="0 0 24 24" fill="none" xmlns="http://www.w3.org/2000/svg">
<path d="M14.4342 2C13.5477 1.99995 12.7839 1.99991 12.1722 2.08215C11.5167 2.17028 10.8883 2.36902 10.3787 2.87868C9.86902 3.38835 9.67028 4.0167 9.58215 4.67221C9.49991 5.28387 9.49995 6.04768 9.5 6.93417V17.0658C9.49995 17.9523 9.49991 18.7161 9.58215 19.3278C9.67028 19.9833 9.86902 20.6117 10.3787 21.1213C10.8883 21.631 11.5167 21.8297 12.1722 21.9179C12.7839 22.0001 13.5477 22.0001 14.4342 22H17.0658C17.9523 22.0001 18.7161 22.0001 19.3278 21.9179C19.9833 21.8297 20.6117 21.631 21.1213 21.1213C21.631 20.6117 21.8297 19.9833 21.9179 19.3278C22.0001 18.7161 22.0001 17.9523 22 17.0658V6.93417C22.0001 6.04769 22.0001 5.28387 21.9179 4.67221C21.8297 4.0167 21.631 3.38835 21.1213 2.87868C20.6117 2.36902 19.9833 2.17028 19.3278 2.08215C18.7161 1.99991 17.9523 1.99995 17.0658 2H14.4342ZM11.7929 4.2929C11.869 4.21677 12.005 4.12263 12.4387 4.06431C12.9012 4.00213 13.5289 4 14.5 4H17C17.9711 4 18.5988 4.00213 19.0613 4.06431C19.495 4.12263 19.631 4.21677 19.7071 4.2929C19.7832 4.36902 19.8774 4.50497 19.9357 4.93871C19.9979 5.40122 20 6.02893 20 7V17C20 17.9711 19.9979 18.5988 19.9357 19.0613C19.8774 19.495 19.7832 19.631 19.7071 19.7071C19.631 19.7832 19.495 19.8774 19.0613 19.9357C18.5988 19.9979 17.9711 20 17 20H14.5C13.5289 20 12.9012 19.9979 12.4387 19.9357C12.005 19.8774 11.869 19.7832 11.7929 19.7071C11.7168 19.631 11.6226 19.495 11.5643 19.0613C11.5021 18.5988 11.5 17.9711 11.5 17V7C11.5 6.02893 11.5021 5.40122 11.5643 4.93871C11.6226 4.50497 11.7168 4.36902 11.7929 4.2929Z" fill="black"/>
<path d="M5.20808 2.00001C5.01778 1.99993 4.85419 1.99987 4.70597 2.01447C3.28164 2.15475 2.15475 3.28164 2.01447 4.70597C1.99987 4.85419 1.99993 5.01778 2.00001 5.20808L2.00001 18.792C1.99993 18.9823 1.99987 19.1459 2.01447 19.2941C2.15475 20.7184 3.28164 21.8453 4.70597 21.9856C4.85419 22.0002 5.01779 22.0001 5.2081 22H5.29194C5.48226 22.0001 5.64585 22.0002 5.79407 21.9856C7.2184 21.8453 8.34529 20.7184 8.48558 19.2941C8.50017 19.1459 8.50011 18.9823 8.50003 18.792V5.20807C8.50011 5.01777 8.50017 4.85419 8.48558 4.70597C8.34529 3.28164 7.2184 2.15475 5.79407 2.01447C5.64586 1.99987 5.48227 1.99993 5.29197 2.00001L5.20808 2.00001ZM4.902 4.00484C4.93857 4.00124 4.99406 4.00002 5.25002 4.00002C5.50599 4.00002 5.56147 4.00124 5.59804 4.00484C6.07282 4.0516 6.44845 4.42723 6.49521 4.902C6.49881 4.93857 6.50002 4.99406 6.50002 5.25002V18.75C6.50002 19.006 6.49881 19.0615 6.49521 19.098C6.44845 19.5728 6.07282 19.9484 5.59804 19.9952C5.56147 19.9988 5.50599 20 5.25002 20C4.99406 20 4.93857 19.9988 4.902 19.9952C4.42723 19.9484 4.0516 19.5728 4.00484 19.098C4.00124 19.0615 4.00002 19.006 4.00002 18.75V5.25002C4.00002 4.99406 4.00124 4.93857 4.00484 4.902C4.0516 4.42723 4.42723 4.0516 4.902 4.00484Z" fill="black"/>
</svg>
