<svg width="35" height="16" viewBox="0 0 35 16" fill="none" xmlns="http://www.w3.org/2000/svg">
<path d="M15.5673 2.00249C15.0747 2 14.5802 1.99751 14.0856 2.00497C13.5462 3.24749 12.9962 4.48681 12.4357 5.72294C12.2789 6.09218 12.0857 6.58131 12.4183 6.91538C12.7357 7.20606 13.164 7.19664 13.5779 7.18754C13.7193 7.18443 13.8591 7.18136 13.9922 7.19032C13.847 7.56027 13.6835 7.92279 13.5201 8.28527C13.2753 8.82802 13.0306 9.37067 12.8474 9.93804C12.678 10.4048 13.1007 10.8843 13.5631 10.8843C14.0876 10.9203 14.6134 10.9144 15.1392 10.9084C15.4531 10.9049 15.7671 10.9013 16.0808 10.9067L16.2559 10.5117L16.256 10.5115L16.2561 10.5114L16.2561 10.5113L16.2561 10.5112L16.2562 10.5111L16.2562 10.511C16.472 10.0247 16.6877 9.53847 16.8994 9.0493C16.7972 9.0493 16.6945 9.05084 16.5916 9.05238H16.5915H16.5914H16.5914H16.5913H16.5913H16.5912C16.2019 9.05821 15.8104 9.06406 15.4347 8.98696C15.7476 8.19405 16.0953 7.4167 16.4429 6.63968L16.4429 6.63964L16.4429 6.63957C16.6741 6.12278 16.9052 5.60614 17.1259 5.08517C16.8685 5.0546 16.5976 5.06823 16.3266 5.08187C15.8889 5.10389 15.4507 5.12594 15.0674 4.96209C15.2489 4.34483 15.5204 3.75841 15.792 3.17158C15.9706 2.78585 16.1492 2.39994 16.3025 2.00497C16.058 2.00497 15.8129 2.00373 15.5673 2.00249ZM7.36369 2.14775H5.20545C5.19006 3.9626 5.18916 5.77798 5.18825 7.59388V7.59391V7.59393V7.59396V7.59399V7.59401V7.59416V7.59426V7.59436V7.59445V7.59455V7.59465V7.59474C5.18758 8.95648 5.1869 10.3185 5.18011 11.6808C5.19246 11.7315 5.19295 11.7843 5.18155 11.8352C5.17015 11.886 5.14718 11.9335 5.11445 11.9738C5.08172 12.0141 5.04014 12.0462 4.99299 12.0675C4.94584 12.0888 4.89443 12.0987 4.84283 12.0964C4.55173 12.1137 4.25968 12.112 3.96742 12.1103L3.96714 12.1102C3.87955 12.1097 3.79194 12.1092 3.70433 12.1092C3.95927 12.7422 4.23479 13.3656 4.51981 13.9842C4.68191 13.9781 4.84883 13.9815 5.01718 13.9849H5.01723H5.01729H5.01734H5.01739H5.01744H5.0175C5.59565 13.9966 6.1905 14.0087 6.66381 13.6373C7.2196 13.2249 7.38903 12.4913 7.37795 11.8311C7.37755 11.0246 7.37775 10.218 7.37794 9.4113V9.41125V9.4112V9.41115V9.4111V9.41105V9.411C7.37854 6.98992 7.37913 4.56838 7.36369 2.14775ZM25.6055 2.01423H27.797V2.84542C28.8484 2.80386 30.0724 2.80706 30.8325 3.66702C31.4659 4.37348 31.4478 5.32296 31.4304 6.23457C31.4254 6.49659 31.4204 6.75548 31.431 7.00456C32.2227 7.01895 33.1079 7.20757 33.5972 7.90129C34.0265 8.51263 34.0088 9.25686 33.9915 9.98408C33.9857 10.2304 33.9798 10.4748 33.9915 10.7113C33.9852 10.8953 33.9896 11.0871 33.9941 11.2817V11.2818V11.2818V11.2819V11.282V11.2821C34.0112 12.0295 34.0293 12.8182 33.4515 13.3584C32.8563 14.0076 31.9821 13.9984 31.1503 13.9896C30.9111 13.987 30.6754 13.9845 30.4509 13.9977C30.1911 13.4666 29.9634 12.9216 29.7357 12.3765L29.6148 12.0876C29.8633 12.0805 30.1119 12.0831 30.3603 12.0857C30.7228 12.0896 31.0851 12.0934 31.4468 12.0668C31.5415 12.0611 31.6301 12.0176 31.693 11.946C31.756 11.8743 31.7882 11.7804 31.7825 11.6848C31.8118 11.0948 31.8118 10.5037 31.7825 9.91373C31.7936 9.49654 31.3645 9.23119 30.9908 9.26316C30.2794 9.25251 29.5686 9.25606 28.8577 9.25961C28.5021 9.26139 28.1465 9.26316 27.7906 9.26316V13.9898H25.5976V9.25997H23.4061V7.03813H23.4068C24.1349 7.03813 24.8647 7.03813 25.5928 7.02695C25.6065 6.38757 25.6065 5.74393 25.5928 5.09603C25.1083 5.08803 24.6237 5.08164 24.1376 5.08644V2.85981H25.5912L25.6055 2.01423ZM27.7859 5.08004C27.7859 5.73007 27.7906 6.38011 27.8001 7.03014H29.2791C29.2791 6.86697 29.2821 6.70368 29.285 6.5403V6.54024C29.2927 6.11785 29.3003 5.69485 29.2569 5.27186C29.0165 5.01542 28.6572 5.04489 28.3038 5.07387C28.1241 5.0886 27.946 5.10321 27.7859 5.08004ZM22.8025 2.84717H17.7798C17.7766 3.58885 17.7782 4.33265 17.7845 5.07859H19.1606V11.7505C18.5036 11.7585 17.845 11.7585 17.1881 11.7585H17.1876C16.8471 12.497 16.5146 13.2386 16.1837 13.9803H23.5372V11.7585C23.1849 11.7545 22.8322 11.7545 22.4795 11.7545C22.1268 11.7545 21.774 11.7545 21.4217 11.7505V5.0738H22.8025V2.84717ZM32.2448 3.05244C32.799 2.58889 33.719 2.89259 33.9264 3.57513C34.1908 4.20172 33.6952 4.97696 33.0365 5.0377C32.7288 5.06528 32.4203 5.06048 32.1122 5.05568H32.1122H32.1121H32.1121C32.0095 5.05409 31.907 5.05249 31.8046 5.05209C31.8104 4.90708 31.8055 4.75294 31.8006 4.59568C31.7826 4.02662 31.7634 3.41688 32.2448 3.05244ZM2.01159 5.07254C1.85339 5.072 1.69513 5.07147 1.53679 5.07147C1.4212 6.52925 1.30877 7.99342 1.20902 9.44001C1.18475 9.7712 1.11439 10.0973 1 10.4087C1.37053 11.267 1.74106 12.1222 2.13692 12.9662C3.02366 11.7689 3.35301 10.26 3.44485 8.79424C3.47524 8.30599 3.51485 7.81799 3.55447 7.32995L3.55447 7.32994L3.55447 7.32994C3.61601 6.57171 3.67757 5.81339 3.70454 5.05388C3.14048 5.07636 2.57641 5.07445 2.01159 5.07254ZM8.83638 5.07083H11.0263L11.1099 6.16104L11.1099 6.16108C11.1936 7.25064 11.2773 8.34021 11.3557 9.42977C11.3776 9.76597 11.448 10.0971 11.5647 10.4128C11.1941 11.268 10.8204 12.1216 10.4293 12.9703C9.60911 11.8658 9.26233 10.4847 9.14674 9.13407C9.07676 8.31638 9.01665 7.49518 8.95656 6.67436L8.95656 6.67433C8.9174 6.1393 8.87825 5.60444 8.83638 5.07083ZM12.5669 11.5832C12.2259 12.3238 11.8881 13.0671 11.5535 13.813C12.2925 14.0333 13.0605 14.009 13.8278 13.9847C14.2245 13.9722 14.621 13.9596 15.0133 13.9809C15.3522 13.2408 15.6894 12.4991 16.0188 11.7542C15.6562 11.7401 15.2915 11.747 14.9267 11.7538C14.1336 11.7687 13.3402 11.7836 12.5669 11.5832Z" fill="black" fill-opacity="0.85"/>
</svg>
