<svg width="24" height="24" viewBox="0 0 24 24" fill="none" xmlns="http://www.w3.org/2000/svg">
<path fill-rule="evenodd" clip-rule="evenodd" d="M11.0002 2C8.79111 2 7.00024 3.79086 7.00024 6V18C7.00024 20.2091 8.79111 22 11.0002 22H19.0002C21.2094 22 23.0002 20.2091 23.0002 18V6C23.0002 3.79086 21.2094 2 19.0002 2H11.0002ZM16.8192 6.38629C16.8912 6.23281 17.1094 6.23281 17.1814 6.38629L18.0363 8.21004C18.0524 8.24435 18.0779 8.27338 18.1099 8.29375L19.7361 9.33139C19.8593 9.41002 19.8593 9.58997 19.7361 9.6686L18.1099 10.7062C18.0779 10.7266 18.0524 10.7556 18.0363 10.7899L17.1814 12.6137C17.1094 12.7672 16.8912 12.7672 16.8192 12.6137L15.9643 10.7899C15.9482 10.7556 15.9227 10.7266 15.8908 10.7062L14.2645 9.6686C14.1413 9.58997 14.1413 9.41002 14.2645 9.33139L15.8908 8.29375C15.9227 8.27338 15.9482 8.24435 15.9643 8.21004L16.8192 6.38629ZM12.1835 13.4188C12.1136 13.259 11.887 13.259 11.8171 13.4188L11.3162 14.5636C11.3011 14.5979 11.2768 14.6273 11.2458 14.6485L10.2418 15.3349C10.1256 15.4143 10.1256 15.5857 10.2418 15.6651L11.2458 16.3515C11.2768 16.3727 11.3011 16.4021 11.3162 16.4364L11.8171 17.5812C11.887 17.741 12.1136 17.741 12.1835 17.5812L12.6844 16.4364C12.6994 16.4021 12.7238 16.3727 12.7548 16.3515L13.7588 15.6651C13.8749 15.5857 13.8749 15.4143 13.7588 15.3349L12.7548 14.6485C12.7238 14.6273 12.6994 14.5979 12.6844 14.5636L12.1835 13.4188Z" fill="black"/>
<path d="M3.66396 4.56472L5.29842 4.12677C5.10489 4.71618 5.00021 5.34588 5.00021 6.00002V18C5.00021 19.546 5.58489 20.9554 6.54519 22.0192C5.08315 21.742 3.83465 20.6566 3.42372 19.123L0.835532 9.4637C0.263764 7.32984 1.53009 5.13649 3.66396 4.56472Z" fill="black"/>
</svg>
