<svg width="24" height="24" viewBox="0 0 24 24" fill="none" xmlns="http://www.w3.org/2000/svg">
<path d="M9 9.5C9 10.3284 8.32842 11 7.5 11C6.67158 11 6 10.3284 6 9.5C6 8.67158 6.67158 8 7.5 8C8.32842 8 9 8.67158 9 9.5Z" fill="black"/>
<path d="M12 9C12.5523 9 13 9.44772 13 10L13 10.0203C13.0001 10.5404 13.0003 11.7353 12.3944 12.9472C12.1474 13.4412 11.5467 13.6414 11.0528 13.3944C10.5588 13.1474 10.3586 12.5468 10.6055 12.0528C10.9916 11.2807 11 10.4912 11 10C11 9.44772 11.4477 9 12 9Z" fill="black"/>
<path d="M7.79289 14.7929C8.18342 14.4024 8.81658 14.4024 9.20711 14.7929C9.27823 14.864 9.58286 15.0558 10.1623 15.2297C10.7011 15.3913 11.3543 15.5 12 15.5C12.6457 15.5 13.2989 15.3913 13.8377 15.2297C14.4171 15.0558 14.7218 14.864 14.7929 14.7929C15.1834 14.4024 15.8166 14.4024 16.2071 14.7929C16.5976 15.1834 16.5976 15.8166 16.2071 16.2071C15.7782 16.636 15.0829 16.9442 14.4123 17.1453C13.7011 17.3587 12.8543 17.5 12 17.5C11.1457 17.5 10.2989 17.3587 9.58765 17.1453C8.91714 16.9442 8.22178 16.636 7.79289 16.2071C7.40237 15.8166 7.40237 15.1834 7.79289 14.7929Z" fill="black"/>
<path d="M16.5 11C17.3284 11 18 10.3284 18 9.5C18 8.67158 17.3284 8 16.5 8C15.6716 8 15 8.67158 15 9.5C15 10.3284 15.6716 11 16.5 11Z" fill="black"/>
<path d="M13.0732 2H10.9268C9.10339 1.99997 7.63362 1.99995 6.47767 2.15537C5.27752 2.31672 4.26702 2.66191 3.46447 3.46447C2.66191 4.26702 2.31672 5.27752 2.15537 6.47767C1.99995 7.63362 1.99997 9.10337 2 10.9268V13.0732C1.99997 14.8966 1.99995 16.3664 2.15537 17.5223C2.31672 18.7225 2.66191 19.733 3.46447 20.5355C4.26702 21.3381 5.27752 21.6833 6.47767 21.8446C7.63363 22.0001 9.1034 22 10.9269 22H13.0731C14.8966 22 16.3664 22.0001 17.5223 21.8446C18.7225 21.6833 19.733 21.3381 20.5355 20.5355C21.3381 19.733 21.6833 18.7225 21.8446 17.5223C22.0001 16.3664 22 14.8966 22 13.0731V10.9269C22 9.1034 22.0001 7.63363 21.8446 6.47767C21.6833 5.27752 21.3381 4.26702 20.5355 3.46447C19.733 2.66191 18.7225 2.31672 17.5223 2.15537C16.3664 1.99995 14.8966 1.99997 13.0732 2ZM4.87868 4.87868C5.2477 4.50966 5.7658 4.26907 6.74416 4.13753C7.7513 4.00213 9.08611 4 11 4H13C14.9139 4 16.2487 4.00213 17.2558 4.13753C18.2342 4.26907 18.7523 4.50966 19.1213 4.87868C19.4903 5.2477 19.7309 5.7658 19.8625 6.74416C19.9979 7.7513 20 9.08611 20 11V13C20 14.9139 19.9979 16.2487 19.8625 17.2558C19.7309 18.2342 19.4903 18.7523 19.1213 19.1213C18.7523 19.4903 18.2342 19.7309 17.2558 19.8625C16.2487 19.9979 14.9139 20 13 20H11C9.08611 20 7.7513 19.9979 6.74416 19.8625C5.76579 19.7309 5.2477 19.4903 4.87868 19.1213C4.50966 18.7523 4.26907 18.2342 4.13753 17.2558C4.00213 16.2487 4 14.9139 4 13V11C4 9.08611 4.00213 7.7513 4.13753 6.74416C4.26907 5.76579 4.50966 5.2477 4.87868 4.87868Z" fill="black"/>
</svg>
