<svg width="25" height="24" viewBox="0 0 25 24" fill="none" xmlns="http://www.w3.org/2000/svg">
<path d="M16.181 6.88647C16.1091 6.73299 15.8908 6.73299 15.8188 6.88647L14.9639 8.71023C14.9478 8.74453 14.9223 8.77356 14.8904 8.79394L13.2642 9.83157C13.1409 9.9102 13.1409 10.0902 13.2642 10.1688L14.8904 11.2064C14.9223 11.2268 14.9478 11.2558 14.9639 11.2901L15.8188 13.1139C15.8908 13.2674 16.1091 13.2674 16.181 13.1139L17.036 11.2901C17.0521 11.2558 17.0776 11.2268 17.1095 11.2064L18.7357 10.1688C18.8589 10.0902 18.8589 9.9102 18.7357 9.83157L17.1095 8.79394C17.0776 8.77356 17.0521 8.74453 17.036 8.71023L16.181 6.88647Z" fill="black"/>
<path d="M12.3167 12.919C12.3866 12.7593 12.6132 12.7593 12.6831 12.919L13.184 14.0638C13.1991 14.0982 13.2234 14.1276 13.2544 14.1487L14.2584 14.8351C14.3746 14.9146 14.3746 15.0859 14.2584 15.1654L13.2544 15.8518C13.2234 15.8729 13.1991 15.9023 13.184 15.9367L12.6831 17.0815C12.6132 17.2412 12.3866 17.2412 12.3167 17.0815L11.8158 15.9367C11.8008 15.9023 11.7764 15.8729 11.7455 15.8518L10.7414 15.1654C10.6253 15.0859 10.6253 14.9146 10.7414 14.8351L11.7455 14.1487C11.7764 14.1276 11.8008 14.0982 11.8158 14.0638L12.3167 12.919Z" fill="black"/>
<path d="M7.79289 3.64504C8.70776 2.6349 10.0297 2.00037 11.4999 2.00037H17.4999C20.2614 2.00037 22.4999 4.23894 22.4999 7.00037V13.9994C23.7142 14.9116 24.4997 16.3639 24.4997 17.9996C24.4997 20.761 22.2611 22.9996 19.4997 22.9996C18.3743 22.9996 17.3358 22.6278 16.5002 22.0004H11.4999C10.9261 22.0004 10.3748 21.9037 9.86149 21.7257L9.26359 21.8859C6.59626 22.6007 3.85458 21.0177 3.13987 18.3504L1.06932 10.623C0.354608 7.95567 1.93752 5.21399 4.60485 4.49928L7.79289 3.64504ZM19.4997 12.9996C19.8422 12.9996 20.1767 13.034 20.4999 13.0997V7.00037C20.4999 5.34351 19.1568 4.00037 17.4999 4.00037H11.4999C9.84308 4.00037 8.49994 5.34351 8.49994 7.00037V17.0004C8.49994 18.6572 9.84308 20.0004 11.4999 20.0004H14.916C14.6482 19.3877 14.4997 18.711 14.4997 17.9996C14.4997 15.2382 16.7382 12.9996 19.4997 12.9996ZM6.59262 6.03721L5.12249 6.43113C3.52209 6.85995 2.57234 8.50496 3.00117 10.1054L5.07172 17.8328C5.38958 19.019 6.37562 19.8478 7.51642 20.0227C6.87854 19.1832 6.49994 18.136 6.49994 17.0004V7.00037C6.49994 6.6709 6.53181 6.34887 6.59262 6.03721ZM20.5 17V15H18.5V17H16.5V19H18.5001V21H20.5V19H22.5V17H20.5Z" fill="black"/>
</svg>
