<svg width="24" height="24" viewBox="0 0 24 24" fill="none" xmlns="http://www.w3.org/2000/svg">
<path d="M15.8188 6.88647C15.8908 6.73299 16.1091 6.73299 16.181 6.88647L17.036 8.71023C17.0521 8.74453 17.0776 8.77356 17.1095 8.79394L18.7357 9.83158C18.8589 9.9102 18.8589 10.0902 18.7357 10.1688L17.1095 11.2064C17.0776 11.2268 17.0521 11.2558 17.036 11.2901L16.181 13.1139C16.1091 13.2674 15.8908 13.2674 15.8188 13.1139L14.9639 11.2901C14.9478 11.2558 14.9223 11.2268 14.8904 11.2064L13.2642 10.1688C13.1409 10.0902 13.1409 9.9102 13.2642 9.83158L14.8904 8.79394C14.9223 8.77356 14.9478 8.74453 14.9639 8.71023L15.8188 6.88647Z" fill="black"/>
<path d="M12.6831 12.919C12.6132 12.7593 12.3866 12.7593 12.3167 12.919L11.8158 14.0638C11.8008 14.0982 11.7764 14.1276 11.7455 14.1487L10.7414 14.8351C10.6253 14.9146 10.6253 15.0859 10.7414 15.1654L11.7455 15.8518C11.7764 15.8729 11.8008 15.9023 11.8158 15.9367L12.3167 17.0815C12.3866 17.2412 12.6132 17.2412 12.6831 17.0815L13.184 15.9367C13.1991 15.9023 13.2234 15.8729 13.2544 15.8518L14.2584 15.1654C14.3746 15.0859 14.3746 14.9146 14.2584 14.8351L13.2544 14.1487C13.2234 14.1276 13.1991 14.0982 13.184 14.0638L12.6831 12.919Z" fill="black"/>
<path d="M7.79289 3.64504L4.60485 4.49928C1.93752 5.21399 0.354608 7.95567 1.06932 10.623L3.13987 18.3504C3.85458 21.0177 6.59626 22.6007 9.26359 21.8859L9.86149 21.7257C10.3748 21.9037 10.9261 22.0004 11.4999 22.0004H17.4999C20.2614 22.0004 22.4999 19.7618 22.4999 17.0004V7.00037C22.4999 4.23894 20.2614 2.00037 17.4999 2.00037H11.4999C10.0297 2.00037 8.70776 2.6349 7.79289 3.64504ZM6.59262 6.03721C6.53181 6.34887 6.49994 6.6709 6.49994 7.00037V17.0004C6.49994 18.136 6.87854 19.1832 7.51642 20.0227C6.37562 19.8478 5.38958 19.019 5.07172 17.8328L3.00117 10.1054C2.57234 8.50496 3.52209 6.85995 5.12249 6.43113L6.59262 6.03721ZM8.49994 7.00037C8.49994 5.34351 9.84308 4.00037 11.4999 4.00037H17.4999C19.1568 4.00037 20.4999 5.34351 20.4999 7.00037V17.0004C20.4999 18.6572 19.1568 20.0004 17.4999 20.0004H11.4999C9.84308 20.0004 8.49994 18.6572 8.49994 17.0004V7.00037Z" fill="black"/>
</svg>
