<svg width="24" height="24" viewBox="0 0 24 24" fill="none" xmlns="http://www.w3.org/2000/svg">
<path d="M12.0001 1.83319C17.6148 1.83343 22.1661 6.38548 22.1661 12.0002C22.1659 17.6147 17.6147 22.166 12.0001 22.1662C6.38538 22.1662 1.83335 17.6148 1.8331 12.0002C1.83313 6.38535 6.38525 1.83321 12.0001 1.83319ZM11.88 5.67694C11.3277 5.6769 10.88 6.12467 10.88 6.67694L10.879 12.1808C10.879 12.4461 10.9844 12.7013 11.172 12.8889L15.0577 16.7746C15.4481 17.165 16.0812 17.1648 16.4718 16.7746C16.8378 16.4086 16.8611 15.8295 16.5411 15.4367L16.4718 15.3605L12.879 11.7668L12.88 6.67694C12.88 6.12479 12.4321 5.67714 11.88 5.67694Z" fill="black"/>
<path d="M4.91904 0.186705C5.36845 -0.134299 5.99256 -0.0302841 6.31357 0.419127C6.63432 0.868515 6.53045 1.49272 6.08114 1.81366L2.58114 4.31366C2.13183 4.6346 1.50769 4.5304 1.18661 4.08124C0.865604 3.63182 0.969623 3.00771 1.41904 2.6867L4.91904 0.186705Z" fill="black"/>
<path d="M17.6866 0.419127C18.0076 -0.0302858 18.6317 -0.134304 19.0811 0.186705L22.5811 2.6867L22.6612 2.75018C23.0417 3.08496 23.1145 3.65997 22.8136 4.08124C22.5127 4.50239 21.945 4.62049 21.505 4.36932L21.419 4.31366L17.919 1.81366C17.4697 1.49267 17.3657 0.868533 17.6866 0.419127Z" fill="black"/>
</svg>
