<svg width="24" height="24" viewBox="0 0 24 24" fill="none" xmlns="http://www.w3.org/2000/svg">
<path d="M9.5 7.75C9.5 8.71649 8.71649 9.5 7.75 9.5C6.78351 9.5 6 8.71649 6 7.75C6 6.78351 6.78351 6 7.75 6C8.71649 6 9.5 6.78351 9.5 7.75Z" fill="black"/>
<path d="M11.0706 2H8.92943C7.57533 1.99997 6.45869 1.99994 5.57494 2.11876C4.64711 2.2435 3.82769 2.51547 3.17158 3.17158C2.51547 3.82769 2.2435 4.64711 2.11876 5.57494C1.99994 6.45869 1.99997 7.57529 2 8.92939V11.0706C1.99997 12.4247 1.99994 13.5413 2.11876 14.4251C2.2435 15.3529 2.51547 16.1723 3.17158 16.8284C3.82769 17.4845 4.64711 17.7565 5.57494 17.8813C6.4587 18.0001 7.57531 18 8.92943 18H11.0706C12.4247 18 13.5413 18.0001 14.4251 17.8813C15.3529 17.7565 16.1723 17.4845 16.8284 16.8284C17.4845 16.1723 17.7565 15.3529 17.8813 14.4251C18.0001 13.5413 18 12.4247 18 11.0706V8.92943C18 7.57531 18.0001 6.4587 17.8813 5.57494C17.7565 4.64711 17.4845 3.82769 16.8284 3.17158C16.1723 2.51547 15.3529 2.2435 14.4251 2.11876C13.5413 1.99994 12.4247 1.99997 11.0706 2ZM4.58579 4.58579C4.80836 4.36322 5.13538 4.19585 5.84144 4.10092C6.57626 4.00213 7.55752 4 9 4H11C12.4425 4 13.4238 4.00213 14.1586 4.10092C14.8646 4.19585 15.1916 4.36322 15.4142 4.58579C15.6368 4.80836 15.8042 5.13538 15.8991 5.84144C15.9979 6.57626 16 7.55752 16 9V11C16 11.2471 15.9999 11.4806 15.9993 11.7017C15.708 11.6369 15.4312 11.5803 15.1672 11.5326C14.0535 11.3317 13.0966 11.2771 12.1321 11.4611C11.4016 11.6004 10.6937 11.8396 10.0283 12.1718C9.14979 12.6105 8.42214 13.2342 7.65843 14.0694C7.18657 14.5855 6.68325 15.2026 6.11182 15.9301C6.20748 15.9394 6.30708 15.9475 6.41097 15.9545C6.20523 15.9406 6.01635 15.9226 5.84144 15.8991C5.13538 15.8042 4.80836 15.6368 4.58579 15.4142C4.36322 15.1916 4.19585 14.8646 4.10092 14.1586C4.00213 13.4238 4 12.4425 4 11V9C4 7.55752 4.00213 6.57626 4.10092 5.84144C4.19585 5.13538 4.36322 4.80836 4.58579 4.58579ZM14.8122 13.5009C15.1582 13.5633 15.5316 13.6435 15.9432 13.7408C15.9312 13.8887 15.9167 14.0275 15.8991 14.1586C15.8042 14.8646 15.6368 15.1916 15.4142 15.4142C15.1916 15.6368 14.8646 15.8042 14.1586 15.8991C13.4238 15.9979 12.4425 16 11 16L8.62644 15.9999C8.80292 15.7904 8.97126 15.5975 9.1344 15.4191C9.80623 14.6844 10.3429 14.2502 10.9218 13.9612C11.4231 13.7108 11.9564 13.5307 12.5068 13.4257C13.1424 13.3044 13.8324 13.3241 14.8122 13.5009Z" fill="black"/>
<path d="M22 9C22 8.44772 21.5523 8 21 8C20.4477 8 20 8.44772 20 9C20 11.8567 19.9979 13.8986 19.7892 15.4504C19.5845 16.9734 19.1974 17.8736 18.5355 18.5355C17.8736 19.1974 16.9734 19.5845 15.4504 19.7892C13.8986 19.9979 11.8567 20 9 20H8C7.44772 20 7 20.4477 7 21C7 21.5523 7.44772 22 8 22H9.07593C11.84 22 14.0164 22 15.7169 21.7714C17.4617 21.5368 18.8543 21.0452 19.9497 19.9497C21.0452 18.8543 21.5368 17.4617 21.7714 15.7169C22 14.0164 22 11.84 22 9.07593V9Z" fill="black"/>
</svg>
