<svg width="24" height="24" viewBox="0 0 24 24" fill="none" xmlns="http://www.w3.org/2000/svg">
<path d="M20.8932 7.84148C20.7578 7.94499 18.368 9.27223 18.368 12.2234C18.368 15.637 21.409 16.8446 21.5 16.8745C21.486 16.9481 21.0169 18.5284 19.8966 20.1385C18.8977 21.5555 17.8545 22.9701 16.2675 22.9701C14.6804 22.9701 14.272 22.0615 12.4399 22.0615C10.6545 22.0615 10.0197 23 8.56805 23C7.11639 23 6.10349 21.6889 4.93889 20.0787C3.58992 18.1879 2.5 15.2505 2.5 12.4626C2.5 7.991 5.45001 5.61946 8.35334 5.61946C9.89602 5.61946 11.182 6.61776 12.1505 6.61776C13.0724 6.61776 14.5101 5.55966 16.2651 5.55966C16.9303 5.55966 19.3202 5.61946 20.8932 7.84148ZM15.4319 3.66657C16.1578 2.81778 16.6712 1.64006 16.6712 0.462346C16.6712 0.29903 16.6572 0.133413 16.6269 0C15.446 0.0437044 14.041 0.775178 13.1938 1.74357C12.5286 2.48885 11.9078 3.66657 11.9078 4.86039C11.9078 5.0398 11.9382 5.21922 11.9522 5.27673C12.0268 5.29053 12.1482 5.30663 12.2696 5.30663C13.3291 5.30663 14.6618 4.60736 15.4319 3.66657Z" fill="black" fill-opacity="0.85"/>
</svg>
