<svg width="24" height="24" viewBox="0 0 24 24" fill="none" xmlns="http://www.w3.org/2000/svg">
<path d="M6.58398 20.4678C6.81852 20.0063 7.36227 19.8047 7.83496 19.9873L7.92871 20.0293L8.16309 20.1436L8.40039 20.252L8.49219 20.2969C8.93376 20.5457 9.12332 21.0939 8.91602 21.5684C8.70863 22.0427 8.17787 22.2752 7.69531 22.1201L7.59961 22.084L7.30859 21.9521L7.02246 21.8115L6.93359 21.7607C6.50759 21.4867 6.34977 20.9292 6.58398 20.4678ZM2.83008 16.1182C3.30861 15.8426 3.91967 16.0069 4.19531 16.4854C4.36937 16.7875 4.56064 17.0786 4.76758 17.3574C5.09671 17.8009 5.00405 18.4277 4.56055 18.7568C4.11709 19.0858 3.49026 18.9932 3.16113 18.5498C2.90838 18.2092 2.67471 17.8528 2.46191 17.4834C2.1865 17.0049 2.35163 16.3938 2.83008 16.1182ZM1 12C1 11.8072 1.00482 11.6153 1.01465 11.4248L1.02539 11.3232C1.10248 10.8223 1.54833 10.4509 2.06543 10.4775C2.61677 10.5062 3.04016 10.9769 3.01172 11.5283L3 12L3.01465 12.5225L3.01562 12.625C2.99334 13.1314 2.59021 13.5486 2.07324 13.5781C1.55634 13.6075 1.10902 13.2389 1.0293 12.7383L1.01855 12.6367L1.00488 12.3193C1.00185 12.2132 1 12.1068 1 12ZM2.83398 5.9248C3.15183 5.53007 3.72324 5.43268 4.15723 5.71484C4.62013 6.01607 4.75142 6.63573 4.4502 7.09863L4.2041 7.49902C4.12538 7.63505 4.05018 7.77369 3.97852 7.91406C3.72736 8.40565 3.12553 8.60046 2.63379 8.34961C2.1419 8.09848 1.94613 7.49579 2.19727 7.00391C2.3724 6.66089 2.5656 6.32871 2.77441 6.00781L2.83398 5.9248ZM7.00391 2.19727C7.49579 1.94613 8.09848 2.1419 8.34961 2.63379C8.60046 3.12553 8.40565 3.72736 7.91406 3.97852C7.6336 4.12171 7.36126 4.27931 7.09863 4.4502L7.00977 4.50195C6.55921 4.73393 5.99721 4.59114 5.71484 4.15723C5.4139 3.69436 5.54503 3.07557 6.00781 2.77441L6.25098 2.62012C6.49578 2.46979 6.74685 2.32852 7.00391 2.19727ZM12.501 1.01172L12.6035 1.02051C13.1047 1.09437 13.4781 1.53769 13.4551 2.05469C13.4303 2.60642 12.9629 3.03357 12.4111 3.00879L12 3C11.8417 3 11.6844 3.00367 11.5283 3.01172L11.4258 3.0127C10.9196 2.98761 10.5044 2.58235 10.4775 2.06543C10.4491 1.51394 10.8733 1.04319 11.4248 1.01465L12 1C12.1678 1 12.3348 1.00426 12.501 1.01172Z" fill="black"/>
<path d="M23.0049 10.7762C22.8943 10.2816 22.4249 9.94141 21.9109 10.0026C21.3967 10.0639 21.0202 10.505 21.0291 11.0118L21.0366 11.1142L21.0757 11.5229C21.1159 12.0735 21.5946 12.4879 22.1453 12.4479C22.6961 12.4078 23.1105 11.9281 23.0704 11.3773L23.0225 10.8769L23.0049 10.7762Z" fill="black"/>
<path d="M11.4258 10.1807C11.7379 9.96193 12.1474 9.94044 12.4814 10.124L22.4814 15.624C22.8642 15.8345 23.0665 16.2691 22.9805 16.6973C22.8944 17.1252 22.5405 17.4477 22.1064 17.4941L17.1816 18.0186L14.5771 22.502C14.3644 22.8682 13.9445 23.0606 13.5283 22.9824C13.1641 22.9139 12.8717 22.6516 12.7607 22.3066L12.7246 22.1543L11.0117 11.1543C10.9531 10.7776 11.1136 10.3995 11.4258 10.1807ZM14.2666 19.0547L15.707 16.5762L15.7725 16.4775C15.9379 16.2577 16.1887 16.1145 16.4658 16.085L18.7314 15.8428L13.3008 12.8564L14.2666 19.0547Z" fill="black"/>
<path d="M19.8428 5.71492C20.2768 5.43275 20.8482 5.53014 21.1661 5.92488L21.2256 6.00789C21.4345 6.32878 21.6276 6.66097 21.8028 7.00398C22.0539 7.49586 21.8581 8.09855 21.3663 8.34968C20.8745 8.60053 20.2727 8.40573 20.0215 7.91414C19.9499 7.77376 19.8747 7.63512 19.7959 7.4991L19.5499 7.09871C19.2486 6.6358 19.3799 6.01614 19.8428 5.71492Z" fill="black"/>
<path d="M15.6504 2.63386C15.9016 2.14198 16.5043 1.94621 16.9961 2.19734C17.2532 2.32859 17.5043 2.46986 17.7491 2.62019L17.9922 2.77449C18.455 3.07564 18.5861 3.69443 18.2852 4.1573C18.0028 4.59122 17.4408 4.73401 16.9903 4.50203L16.9014 4.45027C16.6388 4.27938 16.3665 4.12178 16.086 3.97859C15.5944 3.72743 15.3996 3.1256 15.6504 2.63386Z" fill="black"/>
</svg>
