<svg width="24" height="24" viewBox="0 0 24 24" fill="none" xmlns="http://www.w3.org/2000/svg">
<path d="M9 6C9.55229 6 10 6.44772 10 7C10 7.55228 9.55229 8 9 8H6C3.79086 8 2 9.79086 2 12C2 14.2091 3.79086 16 6 16H9C9.55228 16 10 16.4477 10 17C10 17.5523 9.55229 18 9 18H6C2.68629 18 0 15.3137 0 12C1.28855e-07 8.68629 2.68629 6 6 6H9Z" fill="black"/>
<path d="M18 6C21.3137 6 24 8.68629 24 12C24 15.3137 21.3137 18 18 18H14.5C13.9477 18 13.5 17.5523 13.5 17C13.5 16.4477 13.9477 16 14.5 16H18C20.2091 16 22 14.2091 22 12C22 9.79086 20.2091 8 18 8H14.5C13.9477 8 13.5 7.55228 13.5 7C13.5 6.44772 13.9477 6 14.5 6H18Z" fill="black"/>
<path d="M15 11C15.5523 11 16 11.4477 16 12C16 12.5523 15.5523 13 15 13H9C8.44772 13 8 12.5523 8 12C8 11.4477 8.44772 11 9 11H15Z" fill="black"/>
</svg>
