<svg width="24" height="24" viewBox="0 0 24 24" fill="none" xmlns="http://www.w3.org/2000/svg">
<path d="M17.8589 2.1002C18.9747 0.984421 20.7837 0.98442 21.8995 2.1002C23.0153 3.21599 23.0153 5.02503 21.8995 6.14081L19.3573 8.68303C19.1661 8.87421 19.062 8.97926 18.9922 9.06028L18.9837 9.07026L18.9922 9.08023C19.062 9.16126 19.1661 9.2663 19.3573 9.45748L19.3821 9.4823C19.7221 9.82223 20.0154 10.1155 20.2395 10.3758C20.4757 10.6502 20.6885 10.9469 20.8231 11.3096C21.0729 11.983 21.0729 12.7236 20.8231 13.3969C20.6885 13.7596 20.4757 14.0563 20.2395 14.3307C20.0154 14.591 19.7221 14.8842 19.3822 15.2241L18.0104 16.5959C17.6199 16.9864 16.9868 16.9864 16.5962 16.5959L13.3677 19.8245C12.7409 20.4514 12.2008 20.9915 11.7102 21.3658C11.1843 21.767 10.5995 22.0708 9.8787 22.0708C9.15792 22.0708 8.57308 21.767 8.04724 21.3658C7.55658 20.9915 7.01652 20.4514 6.38971 19.8245L2.82262 16.2575C2.47255 15.9081 2.17433 15.6105 1.98405 15.2961C1.28848 14.1468 1.4417 12.6752 2.35912 11.6939C2.6101 11.4255 2.96323 11.1957 3.37778 10.9259L3.47173 10.8647C3.78328 10.6615 3.92327 10.5701 4.05941 10.4758C4.55683 10.131 5.02746 9.74917 5.46726 9.33345C5.58764 9.21966 5.70592 9.10151 5.96893 8.8385L7.40388 7.40354C7.01336 7.01302 7.01332 6.37982 7.40384 5.98929L8.77553 4.6176C9.11546 4.27766 9.40874 3.98436 9.66903 3.76023C9.94339 3.52399 10.2401 3.31127 10.6029 3.17666C11.2762 2.92683 12.0168 2.92683 12.6901 3.17666C13.0529 3.31127 13.3496 3.52399 13.6239 3.76023C13.8842 3.98436 14.1775 4.27765 14.5174 4.6176L14.5423 4.64242C14.7334 4.8336 14.8385 4.93773 14.9195 5.0075L14.9295 5.016L14.9395 5.0075C15.0205 4.93773 15.1255 4.8336 15.3167 4.64242L17.8589 2.1002ZM20.4853 3.51442C20.1506 3.17968 19.6079 3.17968 19.2731 3.51442L16.7104 6.07718C16.5477 6.23994 16.3891 6.39854 16.2445 6.52307C16.086 6.65954 15.8856 6.80812 15.6252 6.90473C15.1763 7.07128 14.6826 7.07128 14.2337 6.90473C13.9734 6.80812 13.773 6.65954 13.6145 6.52307C13.4699 6.39852 13.3113 6.23997 13.1486 6.07719L13.128 6.05664C12.7563 5.6849 12.5158 5.44535 12.3189 5.27581C12.1298 5.11294 12.0412 5.06912 11.9944 5.05175C11.7699 4.96847 11.523 4.96847 11.2986 5.05175C11.2518 5.06912 11.1632 5.11294 10.974 5.27581C10.7771 5.44535 10.5367 5.6849 10.1649 6.05664L9.52516 6.6964L17.3033 14.4746L17.9431 13.8348C18.3148 13.4631 18.5544 13.2226 18.7239 13.0257C18.8868 12.8366 18.9306 12.7479 18.948 12.7011C19.0313 12.4767 19.0313 12.2298 18.948 12.0054C18.9306 11.9586 18.8868 11.8699 18.7239 11.6808C18.5544 11.4839 18.3148 11.2434 17.9431 10.8717L17.9226 10.8512C17.7598 10.6884 17.6012 10.5299 17.4767 10.3852C17.3402 10.2267 17.1916 10.0264 17.095 9.766C16.9285 9.31712 16.9284 8.82339 17.095 8.37452C17.1916 8.11414 17.3402 7.91376 17.4767 7.75528C17.6012 7.61064 17.7598 7.45212 17.9225 7.28938L20.4853 4.7266C20.8201 4.39187 20.8201 3.84915 20.4853 3.51442ZM8.81805 8.8178L7.37126 10.2646C7.12319 10.5127 6.98433 10.6515 6.84113 10.7869C6.32802 11.2719 5.77896 11.7174 5.19864 12.1196C5.03668 12.2318 4.87218 12.3391 4.57833 12.5307L4.56426 12.5399C4.0022 12.9065 3.88132 12.9943 3.82009 13.0598C3.51429 13.3869 3.46321 13.8774 3.69507 14.2605C3.74149 14.3372 3.84169 14.448 4.31617 14.9225L6.77255 17.3789C6.78208 17.3736 6.79197 17.3682 6.8022 17.3625C6.93704 17.2876 7.12953 17.1762 7.35312 17.0339C7.80675 16.7452 8.35902 16.3479 8.81807 15.8888C9.20859 15.4983 9.84176 15.4983 10.2323 15.8888C10.6228 16.2794 10.6228 16.9125 10.2323 17.303C9.63067 17.9047 8.94551 18.3912 8.42687 18.7212C8.36087 18.7632 8.29709 18.803 8.236 18.8404C8.66516 19.2645 8.98349 19.5645 9.2604 19.7758C9.60834 20.0413 9.77104 20.0708 9.8787 20.0708C9.98635 20.0708 10.1491 20.0413 10.497 19.7758C10.868 19.4927 11.3134 19.0504 12 18.3637L15.182 15.1817L8.81805 8.8178Z" fill="black"/>
</svg>
