<svg width="24" height="24" viewBox="0 0 24 24" fill="none" xmlns="http://www.w3.org/2000/svg">
<path d="M12 2C9.23858 2 7 4.23858 7 7C7 9.76142 9.23858 12 12 12C14.7614 12 17 9.76142 17 7C17 4.23858 14.7614 2 12 2ZM9 7C9 5.34315 10.3431 4 12 4C13.6569 4 15 5.34315 15 7C15 8.65685 13.6569 10 12 10C10.3431 10 9 8.65685 9 7Z" fill="black" fill-opacity="0.85"/>
<path d="M8.5 13C6.01472 13 4 15.0147 4 17.5C4 19.9853 6.01472 22 8.5 22H15.5C17.9853 22 20 19.9853 20 17.5C20 15.0147 17.9853 13 15.5 13H8.5ZM6 17.5C6 16.1193 7.11929 15 8.5 15H15.5C16.8807 15 18 16.1193 18 17.5C18 18.8807 16.8807 20 15.5 20H8.5C7.11929 20 6 18.8807 6 17.5Z" fill="black" fill-opacity="0.85"/>
</svg>
