<svg width="24" height="24" viewBox="0 0 24 24" fill="none" xmlns="http://www.w3.org/2000/svg">
<path d="M15.037 3.50658C13.4407 1.64413 10.5594 1.64413 8.96299 3.50658L2.24076 11.3492C1.9866 11.6457 1.92832 12.063 2.0915 12.4178C2.25469 12.7726 2.60948 13 3.00001 13H3.61798L3.81978 17.2378C3.94673 19.9038 6.14516 22 8.81412 22H15.186C17.855 22 20.0534 19.9038 20.1803 17.2378L20.3822 13H21C21.3905 13 21.7453 12.7726 21.9085 12.4178C22.0717 12.063 22.0134 11.6457 21.7593 11.3492L15.037 3.50658ZM12 18C10.8954 18 10 17.1046 10 16C10 14.8954 10.8954 14 12 14C13.1046 14 14 14.8954 14 16C14 17.1046 13.1046 18 12 18Z" fill="black" fill-opacity="0.85"/>
</svg>
