<svg width="24" height="24" viewBox="0 0 24 24" fill="none" xmlns="http://www.w3.org/2000/svg">
<path d="M12 18C13.1046 18 14 17.1046 14 16C14 14.8954 13.1046 14 12 14C10.8954 14 10 14.8954 10 16C10 17.1046 10.8954 18 12 18Z" fill="black" fill-opacity="0.85"/>
<path d="M8.96299 3.50658C10.5594 1.64413 13.4407 1.64413 15.037 3.50658L21.7593 11.3492C22.0134 11.6457 22.0717 12.063 21.9085 12.4178C21.7453 12.7726 21.3905 13 21 13H20.3822L20.1804 17.2378C20.0534 19.9037 17.855 22 15.186 22H8.81413C6.14517 22 3.94674 19.9037 3.81979 17.2378L3.61799 13H3.00001C2.60948 13 2.25469 12.7726 2.0915 12.4178C1.92832 12.063 1.9866 11.6457 2.24076 11.3492L8.96299 3.50658ZM13.5365 4.90579C12.7369 3.94628 11.2632 3.94628 10.4636 4.90579L6.26492 9.94423C5.78416 10.5211 5.53726 11.2574 5.57298 12.0075L5.81751 17.1427C5.89368 18.7423 7.21274 20 8.81412 20H15.186C16.7874 20 18.1064 18.7423 18.1826 17.1427L18.4642 11.23C18.4761 10.9799 18.3938 10.7345 18.2335 10.5422L13.5365 4.90579Z" fill="black" fill-opacity="0.85"/>
</svg>
