<svg width="24" height="24" viewBox="0 0 24 24" fill="none" xmlns="http://www.w3.org/2000/svg">
<path d="M5.5 2C3.567 2 2 3.567 2 5.5V14.7929C2 15.6838 3.07714 16.13 3.70711 15.5L4.47487 14.7322C4.88617 14.3209 5.42603 14.0677 6 14.0118V12.2983C6 9.39037 8.33983 7 11.2667 7H17V5.5C17 3.567 15.433 2 13.5 2H5.5Z" fill="black"/>
<path d="M22 12.2983C22 10.4767 20.5375 9 18.7333 9H11.2667C9.46254 9 8 10.4767 8 12.2983V17.0102C8 18.8318 9.46254 20.3085 11.2667 20.3085H18.0402C18.659 20.3085 19.2525 20.5567 19.6901 20.9986L20.4067 21.7221C20.9947 22.3158 22 21.8953 22 21.0557V12.2983Z" fill="black"/>
</svg>
