<svg width="24" height="24" viewBox="0 0 24 24" fill="none" xmlns="http://www.w3.org/2000/svg">
<path d="M2 6C2 3.79086 3.79086 2 6 2H14C16.2091 2 18 3.79086 18 6V8C20.2091 8 22 9.79086 22 12V21.2929C22 22.6292 20.3843 23.2985 19.4393 22.3536L18.6716 21.5858C18.2965 21.2107 17.7878 21 17.2574 21H10C7.79086 21 6 19.2091 6 17V15.143C5.75083 15.2426 5.52186 15.3924 5.32843 15.5858L4.56066 16.3536C3.61571 17.2985 2 16.6292 2 15.2929V6ZM6 13.0695V12C6 9.79086 7.79086 8 10 8H16V6C16 4.89543 15.1046 4 14 4H6C4.89543 4 4 4.89543 4 6V14.0883C4.55883 13.5619 5.25402 13.2105 6 13.0695ZM20 12C20 10.8954 19.1046 10 18 10H10C8.89543 10 8 10.8954 8 12V17C8 18.1046 8.89543 19 10 19H17.2574C18.2783 19 19.259 19.3903 20 20.0883V12Z" fill="black"/>
</svg>
