<svg width="24" height="24" viewBox="0 0 24 24" fill="none" xmlns="http://www.w3.org/2000/svg">
<path d="M23 12C23 18.0751 18.0751 23 12 23C5.92486 23 1 18.0751 1 12C1 5.92486 5.92486 1 12 1C18.0751 1 23 5.92486 23 12ZM16.7372 9.67573C17.1104 9.26861 17.0828 8.63604 16.6757 8.26285C16.2686 7.88966 15.636 7.91716 15.2629 8.32428L10.5 13.5201L8.73716 11.597C8.36397 11.1899 7.7314 11.1624 7.32428 11.5356C6.91716 11.9088 6.88966 12.5413 7.26285 12.9485L9.76285 15.6757C9.95226 15.8824 10.2197 16 10.5 16C10.7803 16 11.0478 15.8824 11.2372 15.6757L16.7372 9.67573Z" fill="black"/>
</svg>
