<svg width="24" height="24" viewBox="0 0 24 24" fill="none" xmlns="http://www.w3.org/2000/svg">
<path d="M1 12C1 5.92487 5.92487 1 12 1C14.3833 1 16.5896 1.75796 18.391 3.04598L16.918 4.4613C15.5044 3.53721 13.8149 3 12 3C7.02943 3 3 7.02943 3 12C3 16.9706 7.02943 21 12 21C16.9706 21 21 16.9706 21 12C21 11.679 20.9832 11.362 20.9504 11.0497L22.673 9.32708C22.8866 10.1828 23 11.0781 23 12C23 18.0751 18.0751 23 12 23C5.92487 23 1 18.0751 1 12Z" fill="black"/>
<path d="M12.0571 16.123L21.8284 6.4176L20.4176 5L11.3517 14.0034L8.41082 11.0909L7 12.5085L10.6463 16.123C11.0364 16.5113 11.667 16.5113 12.0571 16.123Z" fill="black"/>
</svg>
