<svg width="24" height="24" viewBox="0 0 24 24" fill="none" xmlns="http://www.w3.org/2000/svg">
<path d="M11.968 1.95703H12.032C12.4706 1.95702 12.8491 1.95701 13.1624 1.97838C13.4922 2.00089 13.8221 2.05039 14.1481 2.18539C14.8831 2.48988 15.4672 3.0739 15.7716 3.80898C15.9066 4.13491 15.9561 4.46482 15.9787 4.79465C16 5.1079 16 5.48637 16 5.925V5.95703L19.5 5.95705C21.1569 5.95705 22.5 7.3002 22.5 8.95705C22.5 10.2294 21.7079 11.3168 20.5899 11.7529L20.7619 13.3015C20.9277 14.7927 21.0636 16.0163 21.0363 16.9886C21.0076 18.0056 20.7992 18.9187 20.1288 19.6677C19.4584 20.4167 18.5739 20.7247 17.5663 20.8655C16.603 21.0001 15.372 21 13.8716 21H10.1286C8.62826 21 7.39711 21.0001 6.43385 20.8655C5.42621 20.7247 4.54173 20.4167 3.87134 19.6677C3.20094 18.9187 2.99251 18.0056 2.96386 16.9886C2.93646 16.0163 3.07244 14.7928 3.23817 13.3016L3.41023 11.753C2.29217 11.3169 1.5 10.2295 1.5 8.95705C1.5 7.3002 2.84315 5.95705 4.5 5.95705H8L8 5.92504C7.99999 5.48639 7.99998 5.10791 8.02135 4.79465C8.04385 4.46482 8.09336 4.13491 8.22836 3.80898C8.53284 3.0739 9.11687 2.48988 9.85195 2.18539C10.1779 2.05039 10.5078 2.00089 10.8376 1.97838C11.1509 1.95701 11.5294 1.95702 11.968 1.95703ZM10.9738 3.97374C10.7458 3.9893 10.6589 4.01592 10.6173 4.03315C10.3723 4.13465 10.1776 4.32932 10.0761 4.57435C10.0589 4.61596 10.0323 4.70279 10.0167 4.93079C10.0005 5.16777 10 5.47741 10 5.95703V6.95705C10 7.50934 9.55228 7.95705 9 7.95705H4.5C3.94772 7.95705 3.5 8.40477 3.5 8.95705C3.5 9.50934 3.94772 9.95705 4.5 9.95705H19.5C20.0523 9.95705 20.5 9.50934 20.5 8.95705C20.5 8.40477 20.0523 7.95705 19.5 7.95705H15C14.4477 7.95705 14 7.50934 14 6.95705V5.95703C14 5.47741 13.9995 5.16777 13.9833 4.93079C13.9677 4.70279 13.9411 4.61596 13.9239 4.57435C13.8224 4.32932 13.6277 4.13465 13.3827 4.03315C13.3411 4.01592 13.2542 3.9893 13.0262 3.97374C12.7893 3.95757 12.4796 3.95703 12 3.95703C11.5204 3.95703 11.2107 3.95757 10.9738 3.97374ZM5.3951 12L5.23422 13.4478C5.05818 15.0322 4.94007 16.1161 4.96306 16.9322C4.98525 17.7197 5.13763 18.0836 5.36159 18.3338C5.58556 18.5841 5.9304 18.7757 6.71061 18.8847C6.80326 18.8977 6.89962 18.9092 7 18.9194V16.957C7 16.4047 7.44772 15.957 8 15.957C8.55228 15.957 9 16.4047 9 16.957V18.9972C9.36631 18.9998 9.76599 19 10.2036 19H11V16.9489C11 16.3966 11.4477 15.9489 12 15.9489C12.5523 15.9489 13 16.3966 13 16.9489V19H13.7965C14.2341 19 14.6337 18.9998 15 18.9972V16.957C15 16.4047 15.4477 15.957 16 15.957C16.5523 15.957 17 16.4047 17 16.957V18.9194C17.1004 18.9092 17.1968 18.8977 17.2895 18.8847C18.0697 18.7757 18.4145 18.5841 18.6385 18.3338C18.8625 18.0836 19.0149 17.7197 19.037 16.9322C19.06 16.1161 18.9419 15.0322 18.7659 13.4478L18.605 12H5.3951Z" fill="black"/>
</svg>
