<svg width="24" height="24" viewBox="0 0 24 24" fill="none" xmlns="http://www.w3.org/2000/svg">
<path d="M15.5355 8.46449C15.926 8.85502 15.926 9.48818 15.5355 9.87871L13.4142 12L15.5356 14.1213C15.9261 14.5119 15.9261 15.145 15.5356 15.5356C15.1451 15.9261 14.5119 15.9261 14.1214 15.5356L12 13.4142L9.87862 15.5356C9.48809 15.9261 8.85493 15.9261 8.4644 15.5356C8.07388 15.145 8.07388 14.5119 8.4644 14.1213L10.5858 12L8.46452 9.87871C8.074 9.48818 8.074 8.85502 8.46452 8.46449C8.85505 8.07397 9.48821 8.07397 9.87874 8.46449L12 10.5858L14.1213 8.46449C14.5118 8.07397 15.1449 8.07397 15.5355 8.46449Z" fill="black"/>
<path d="M1 12C1 5.92487 5.92487 1 12 1C18.0751 1 23 5.92487 23 12C23 18.0751 18.0751 23 12 23C5.92487 23 1 18.0751 1 12ZM12 3C7.02943 3 3 7.02943 3 12C3 16.9706 7.02943 21 12 21C16.9706 21 21 16.9706 21 12C21 7.02943 16.9706 3 12 3Z" fill="black"/>
</svg>
