<svg width="24" height="24" viewBox="0 0 24 24" fill="none" xmlns="http://www.w3.org/2000/svg">
<path d="M12.0438 6.80548C11.3267 5.89573 10.3272 4.88641 9.08039 4.02678C7.23614 2.75519 4.80439 1.7814 1.92356 2.003C1.43554 2.04054 1.04642 2.42581 1.00401 2.91343C0.824903 4.97321 1.13707 8.05764 2.7258 10.6152C4.2402 13.0531 6.85922 14.9147 11.0002 15.0113V22H13.0002V15.969C17.1459 15.7071 19.7584 13.813 21.2717 11.4075C22.8603 8.88214 23.1768 5.89708 22.9961 3.90945C22.9545 3.45185 22.6064 3.08149 22.1523 3.01162C17.3903 2.279 13.847 4.77929 12.0438 6.80548ZM13.0003 13.9646V8.80425C14.1207 7.21825 17.0137 4.64562 21.0417 4.90068C21.0488 6.51593 20.6787 8.59411 19.5788 10.3425C18.4336 12.163 16.4465 13.7138 13.0003 13.9646ZM11.0002 8.781V13.0109C7.54803 12.9183 5.56842 11.4011 4.42471 9.55989C3.33236 7.8014 2.95678 5.66453 2.95874 3.97436C4.90188 4.02428 6.58307 4.73422 7.94512 5.67333C9.39332 6.67185 10.4411 7.90402 11.0002 8.781Z" fill="black"/>
</svg>
