<svg width="24" height="24" viewBox="0 0 24 24" fill="none" xmlns="http://www.w3.org/2000/svg">
<path d="M12.9294 1H16.0705C17.4246 0.999968 18.5413 0.999941 19.425 1.11876C20.3529 1.2435 21.1723 1.51547 21.8284 2.17158C22.4845 2.82769 22.7565 3.64711 22.8812 4.57494C23 5.4587 23 6.5753 23 7.92942V11.0705C23 12.4247 23 13.5413 22.8812 14.4251C22.7565 15.3529 22.4845 16.1723 21.8284 16.8284C21.1723 17.4845 20.3529 17.7565 19.425 17.8813C18.9989 17.9386 18.5185 17.9682 17.9836 17.9836C17.9682 18.5186 17.9386 18.9989 17.8813 19.4251C17.7565 20.3529 17.4845 21.1723 16.8284 21.8284C16.1723 22.4845 15.3529 22.7565 14.4251 22.8813C13.5413 23.0001 12.4247 23 11.0706 23H7.92946C6.57534 23 5.4587 23.0001 4.57494 22.8813C3.64711 22.7565 2.82769 22.4845 2.17158 21.8284C1.51547 21.1723 1.2435 20.3529 1.11876 19.4251C0.999939 18.5413 0.999967 17.4247 1 16.0706V12.9294C0.999967 11.5753 0.999939 10.4587 1.11876 9.57494C1.2435 8.64711 1.51547 7.82768 2.17158 7.17158C2.82769 6.51547 3.64711 6.2435 4.57494 6.11876C5.00111 6.06146 5.48142 6.0318 6.01641 6.01645C6.03176 5.48145 6.06142 5.00112 6.11872 4.57494C6.24346 3.64711 6.51543 2.82769 7.17154 2.17158C7.82765 1.51547 8.64707 1.2435 9.5749 1.11876C10.4586 0.999941 11.5753 0.999968 12.9294 1ZM8.01771 6H11.0706C12.4247 5.99997 13.5413 5.99994 14.4251 6.11876C15.3529 6.2435 16.1723 6.51547 16.8284 7.17158C17.4845 7.82768 17.7565 8.64711 17.8813 9.57494C18.0001 10.4587 18 11.5753 18 12.9294V15.9823C18.4488 15.9683 18.8285 15.9435 19.1585 15.8991C19.8646 15.8042 20.1916 15.6368 20.4142 15.4142C20.6368 15.1916 20.8041 14.8646 20.899 14.1586C20.9978 13.4238 21 12.4425 21 11V8C21 6.55752 20.9978 5.57626 20.899 4.84144C20.8041 4.13538 20.6368 3.80836 20.4142 3.58579C20.1916 3.36322 19.8646 3.19585 19.1585 3.10092C18.4237 3.00213 17.4425 3 16 3H13C11.5575 3 10.5762 3.00213 9.8414 3.10092C9.13534 3.19585 8.80832 3.36322 8.58575 3.58579C8.36318 3.80836 8.19581 4.13538 8.10088 4.84144C8.05652 5.17144 8.03165 5.55114 8.01771 6ZM3.58579 8.58579C3.36322 8.80836 3.19585 9.13538 3.10092 9.84144C3.00213 10.5763 3 11.5575 3 13V16C3 17.4425 3.00213 18.4238 3.10092 19.1586C3.19585 19.8646 3.36322 20.1916 3.58579 20.4142C3.80836 20.6368 4.13538 20.8042 4.84144 20.8991C5.57626 20.9979 6.55752 21 8 21H11C12.4425 21 13.4238 20.9979 14.1586 20.8991C14.8646 20.8042 15.1916 20.6368 15.4142 20.4142C15.6368 20.1916 15.8042 19.8646 15.8991 19.1586C15.9979 18.4238 16 17.4425 16 16V13C16 11.5575 15.9979 10.5763 15.8991 9.84144C15.8042 9.13538 15.6368 8.80836 15.4142 8.58579C15.1916 8.36322 14.8646 8.19585 14.1586 8.10092C13.4238 8.00213 12.4425 8 11 8H8C6.55752 8 5.57626 8.00213 4.84144 8.10092C4.13538 8.19585 3.80836 8.36322 3.58579 8.58579Z" fill="black"/>
</svg>
