<svg width="24" height="24" viewBox="0 0 24 24" fill="none" xmlns="http://www.w3.org/2000/svg">
<path d="M15 2C15 1.44772 14.5523 1 14 1C13.4477 1 13 1.44772 13 2V5H2C1.44772 5 1 5.44772 1 6C1 6.55228 1.44772 7 2 7H13V10C13 10.5523 13.4477 11 14 11C14.5523 11 15 10.5523 15 10V2Z" fill="black"/>
<path d="M18 5C17.4477 5 17 5.44772 17 6C17 6.55228 17.4477 7 18 7L22 7C22.5523 7 23 6.55229 23 6C23 5.44772 22.5523 5 22 5L18 5Z" fill="black"/>
<path d="M2 17C1.44772 17 1 17.4477 1 18C1 18.5523 1.44772 19 2 19H6C6.55228 19 7 18.5523 7 18C7 17.4477 6.55228 17 6 17H2Z" fill="black"/>
<path d="M10 13C10.5523 13 11 13.4477 11 14V17H22C22.5523 17 23 17.4477 23 18C23 18.5523 22.5523 19 22 19H11V22C11 22.5523 10.5523 23 10 23C9.44772 23 9 22.5523 9 22V14C9 13.4477 9.44771 13 10 13Z" fill="black"/>
</svg>
