<svg width="24" height="24" viewBox="0 0 24 24" fill="none" xmlns="http://www.w3.org/2000/svg">
<path d="M12 23C18.0751 23 23 18.0751 23 12C23 5.92487 18.0751 1 12 1C5.92487 1 1 5.92487 1 12C1 18.0751 5.92487 23 12 23Z" fill="black"/>
<path d="M10.1395 19.2L10.4099 18.9393L11.6549 16.5851L12.0462 16.3243H16.5V12.7225H14.0526L13.832 12.4617L16.5 7.42208V4.80005H16.4929H13.8534L13.5901 5.06084L12.3451 7.42208L11.9538 7.68287H7.5V11.2776H9.94743L10.168 11.5384L7.5 16.5851V19.2H10.1395Z" fill="#24E39D"/>
</svg>
