<svg width="24" height="24" viewBox="0 0 24 24" fill="none" xmlns="http://www.w3.org/2000/svg">
<path d="M20.3483 4.31245C20.3416 4.29938 20.3305 4.28913 20.3171 4.28355C18.761 3.56125 17.1189 3.04619 15.4319 2.75126C15.4166 2.74838 15.4008 2.75046 15.3867 2.75721C15.3726 2.76395 15.3609 2.77502 15.3534 2.78884C15.1298 3.19943 14.9269 3.62117 14.7453 4.05246C12.9268 3.77318 11.077 3.77318 9.25848 4.05246C9.07569 3.62008 8.86946 3.19823 8.64072 2.78884C8.63287 2.77532 8.62119 2.76451 8.60718 2.75781C8.59317 2.7511 8.57749 2.74882 8.56219 2.75126C6.87499 3.04557 5.2328 3.56066 3.67695 4.28359C3.66363 4.2893 3.65239 4.29905 3.64478 4.3115C0.533384 9.01242 -0.318946 13.5977 0.0991784 18.1263C0.100355 18.1374 0.103725 18.1481 0.109089 18.1579C0.114453 18.1676 0.121702 18.1762 0.130403 18.1831C1.94214 19.5402 3.96859 20.5762 6.12328 21.2467C6.13845 21.2513 6.15466 21.2511 6.16971 21.2461C6.18477 21.2411 6.19795 21.2316 6.20748 21.2188C6.67027 20.5817 7.08032 19.9071 7.43349 19.2019C7.43834 19.1922 7.44111 19.1816 7.44162 19.1707C7.44212 19.1599 7.44035 19.1491 7.43642 19.139C7.4325 19.1289 7.4265 19.1197 7.41882 19.1122C7.41115 19.1046 7.40197 19.0987 7.3919 19.095C6.74527 18.8447 6.11925 18.5429 5.51973 18.1926C5.50884 18.1861 5.49969 18.177 5.4931 18.1661C5.4865 18.1552 5.48266 18.1428 5.48191 18.1301C5.48117 18.1173 5.48354 18.1046 5.48882 18.0929C5.49409 18.0813 5.50212 18.0712 5.51218 18.0635C5.63833 17.9681 5.7623 17.8699 5.88397 17.7688C5.89465 17.7599 5.90756 17.7542 5.92126 17.7523C5.93496 17.7504 5.94891 17.7525 5.96153 17.7582C9.88925 19.5717 14.1416 19.5717 18.0228 17.7582C18.0354 17.7521 18.0495 17.7498 18.0634 17.7515C18.0773 17.7532 18.0905 17.7589 18.1013 17.7678C18.2231 17.8695 18.3474 17.9681 18.4741 18.0635C18.4842 18.0711 18.4923 18.0812 18.4976 18.0928C18.503 18.1043 18.5055 18.1171 18.5048 18.1298C18.5041 18.1426 18.5004 18.155 18.4939 18.1659C18.4874 18.1769 18.4783 18.186 18.4674 18.1926C17.8693 18.5459 17.2427 18.8474 16.5944 19.094C16.5843 19.0979 16.5752 19.1039 16.5675 19.1116C16.5599 19.1193 16.554 19.1285 16.5501 19.1387C16.5463 19.1489 16.5446 19.1598 16.5452 19.1707C16.5458 19.1815 16.5486 19.1922 16.5536 19.2019C16.9126 19.9032 17.3221 20.5769 17.7786 21.2177C17.7879 21.2308 17.801 21.2407 17.8161 21.2459C17.8312 21.251 17.8476 21.2513 17.8628 21.2466C20.0214 20.5783 22.0514 19.5423 23.8654 18.1831C23.8742 18.1766 23.8816 18.1682 23.887 18.1586C23.8923 18.1489 23.8956 18.1383 23.8966 18.1272C24.3972 12.8918 23.0586 8.34402 20.3483 4.31245ZM8.02006 15.3689C6.83753 15.3689 5.86316 14.271 5.86316 12.9226C5.86316 11.5743 6.81863 10.4763 8.02006 10.4763C9.23088 10.4763 10.1958 11.5838 10.1769 12.9225C10.1769 14.271 9.22141 15.3689 8.02006 15.3689ZM15.9948 15.3689C14.8123 15.3689 13.8379 14.271 13.8379 12.9226C13.8379 11.5743 14.7934 10.4763 15.9948 10.4763C17.2057 10.4763 18.1706 11.5838 18.1517 12.9225C18.1517 14.271 17.2057 15.3689 15.9948 15.3689Z" fill="black"/>
</svg>
