<svg width="24" height="24" viewBox="0 0 24 24" fill="none" xmlns="http://www.w3.org/2000/svg">
<g clip-path="url(#clip0_12491_233978)">
<path d="M3.50033 7.24878C4.09528 7.24878 4.59078 6.91198 4.83997 6.43543C5.09392 6.92114 5.60047 7.24878 6.18018 7.24878H7.32452C7.98351 7.24878 8.54848 6.82526 8.75463 6.22674L8.80581 6.07812C8.96031 6.7347 9.54356 7.24878 10.2786 7.24878H13.2158C13.47 7.24878 13.7061 7.1873 13.9125 7.07971C14.1189 7.1873 14.355 7.24878 14.6092 7.24878H15.3253C15.783 7.24878 16.1818 7.04945 16.4549 6.74051C16.7341 7.05471 17.1396 7.24878 17.5847 7.24878H18.8343C19.3903 7.24878 19.8595 6.95461 20.1219 6.52711C20.3843 6.95461 20.8535 7.24878 21.4095 7.24878H21.9078C23.551 10.5907 24.2891 14.2726 23.8966 18.3773C23.8956 18.3883 23.8923 18.399 23.887 18.4086C23.8816 18.4182 23.8742 18.4266 23.8654 18.4331C22.0514 19.7923 20.0214 20.8284 17.8628 21.4966C17.8476 21.5013 17.8312 21.5011 17.8161 21.4959C17.801 21.4907 17.7879 21.4808 17.7786 21.4677C17.3221 20.827 16.9126 20.1532 16.5536 19.4519C16.5486 19.4422 16.5458 19.4316 16.5452 19.4207C16.5446 19.4098 16.5463 19.3989 16.5501 19.3887C16.554 19.3786 16.5599 19.3693 16.5675 19.3616C16.5752 19.3539 16.5843 19.3479 16.5944 19.3441C17.2427 19.0975 17.8693 18.7959 18.4674 18.4426C18.4783 18.436 18.4874 18.4269 18.4939 18.4159C18.5004 18.405 18.5041 18.3926 18.5048 18.3798C18.5055 18.3671 18.503 18.3543 18.4976 18.3428C18.4923 18.3312 18.4842 18.3212 18.4741 18.3135C18.3474 18.2181 18.2231 18.1195 18.1013 18.0178C18.0905 18.0089 18.0773 18.0032 18.0634 18.0015C18.0495 17.9998 18.0354 18.0021 18.0228 18.0082C14.1416 19.8218 9.88925 19.8218 5.96153 18.0082C5.94891 18.0025 5.93496 18.0005 5.92126 18.0023C5.90756 18.0042 5.89465 18.0099 5.88397 18.0188C5.7623 18.1199 5.63833 18.2182 5.51218 18.3135C5.50212 18.3212 5.49409 18.3314 5.48882 18.343C5.48354 18.3546 5.48117 18.3673 5.48191 18.3801C5.48266 18.3928 5.4865 18.4052 5.4931 18.4161C5.49969 18.427 5.50884 18.4361 5.51973 18.4426C6.11925 18.7929 6.74527 19.0947 7.3919 19.345C7.40197 19.3487 7.41115 19.3546 7.41882 19.3622C7.4265 19.3698 7.4325 19.3789 7.43642 19.389C7.44035 19.3991 7.44212 19.4099 7.44162 19.4208C7.44111 19.4316 7.43834 19.4422 7.43349 19.4519C7.08032 20.1571 6.67027 20.8317 6.20748 21.4688C6.19795 21.4816 6.18477 21.4911 6.16971 21.4961C6.15466 21.5011 6.13845 21.5013 6.12328 21.4967C3.96859 20.8262 1.94214 19.7903 0.130403 18.4331C0.121702 18.4262 0.114453 18.4177 0.109089 18.4079C0.103725 18.3982 0.100355 18.3874 0.0991784 18.3763C-0.238908 14.7146 0.253629 11.0158 2.09942 7.24878H3.50033ZM5.86316 13.1726C5.86316 14.521 6.83753 15.6189 8.02006 15.6189C9.22141 15.6189 10.1769 14.521 10.1769 13.1726C10.1958 11.8338 9.23088 10.7263 8.02006 10.7263C6.81863 10.7263 5.86316 11.8243 5.86316 13.1726ZM13.8379 13.1726C13.8379 14.521 14.8123 15.6189 15.9948 15.6189C17.2057 15.6189 18.1517 14.521 18.1517 13.1726C18.1706 11.8338 17.2057 10.7263 15.9948 10.7263C14.7934 10.7263 13.8379 11.8243 13.8379 13.1726Z" fill="black" fill-opacity="0.85"/>
<path d="M7.90363 0.587383C7.95889 0.413927 8.11899 0.292725 8.30374 0.292725H9.05117C9.34631 0.292725 9.54132 0.586833 9.44814 0.857383L7.72131 5.87094C7.6632 6.03966 7.50535 6.15613 7.32434 6.15613H6.18001C5.99799 6.15613 5.83952 6.03839 5.78217 5.86838L4.09073 0.854821C3.9996 0.58472 4.1946 0.292725 4.48857 0.292725H5.3135C5.49987 0.292725 5.66093 0.416007 5.7149 0.591497L6.78931 4.08525L7.90363 0.587383ZM1.71483 4.69206C1.71483 4.70972 1.72779 4.71698 1.73517 4.71698H3.50015C3.73616 4.71698 3.9205 4.91112 3.9205 5.1419V5.73121C3.9205 5.96199 3.73616 6.15613 3.50015 6.15613H0.562925C0.326918 6.15613 0.142578 5.96199 0.142578 5.73121V0.717648C0.142578 0.486865 0.326918 0.292725 0.562925 0.292725H3.39218C3.62819 0.292725 3.81253 0.486866 3.81253 0.717649V1.30695C3.81253 1.53773 3.62819 1.73187 3.39218 1.73187H1.73517C1.72779 1.73187 1.71483 1.73914 1.71483 1.7568V2.43269C1.71483 2.45035 1.72779 2.45762 1.73517 2.45762H3.23794C3.47395 2.45762 3.65829 2.65176 3.65829 2.88254V3.43248C3.65829 3.66326 3.47395 3.8574 3.23794 3.8574H1.73517C1.72779 3.8574 1.71483 3.86467 1.71483 3.88233V4.69206ZM11.4303 4.69206C11.4303 4.70972 11.4433 4.71698 11.4507 4.71698H13.2157C13.4517 4.71698 13.636 4.91112 13.636 5.1419V5.73121C13.636 5.96199 13.4517 6.15613 13.2157 6.15613H10.2784C10.0424 6.15613 9.85808 5.96199 9.85808 5.73121V0.717648C9.85808 0.486866 10.0424 0.292725 10.2784 0.292725H13.1077C13.3437 0.292725 13.528 0.486865 13.528 0.717649V1.30695C13.528 1.53773 13.3437 1.73187 13.1077 1.73187H11.4507C11.4433 1.73187 11.4303 1.73914 11.4303 1.7568V2.43269C11.4303 2.45035 11.4433 2.45762 11.4507 2.45762H12.9534C13.1894 2.45762 13.3738 2.65176 13.3738 2.88254V3.43248C13.3738 3.66326 13.1894 3.8574 12.9534 3.8574H11.4507C11.4433 3.8574 11.4303 3.86467 11.4303 3.88233V4.69206ZM14.609 6.15613C14.373 6.15613 14.1886 5.96199 14.1886 5.73121V0.717648C14.1886 0.486865 14.373 0.292725 14.609 0.292725H16.034C16.2031 0.292725 16.3534 0.394675 16.4194 0.548053L17.7054 3.53465V0.717649C17.7054 0.486865 17.8897 0.292725 18.1257 0.292725H18.8341C19.0701 0.292725 19.2545 0.486865 19.2545 0.717649V5.73121C19.2545 5.96199 19.0701 6.15613 18.8341 6.15613H17.5845C17.4174 6.15613 17.2684 6.05647 17.2012 5.90564L15.7455 2.63641V5.73121C15.7455 5.96199 15.5611 6.15613 15.3251 6.15613H14.609ZM23.5368 0.292725C23.7728 0.292725 23.9572 0.486867 23.9572 0.717649V1.31482C23.9572 1.5456 23.7728 1.73975 23.5368 1.73975H22.5739C22.5665 1.73975 22.5536 1.74701 22.5536 1.76467V5.73121C22.5536 5.96199 22.3692 6.15613 22.1332 6.15613H21.4094C21.1734 6.15613 20.989 5.96199 20.989 5.73121V1.76467C20.989 1.74701 20.9761 1.73975 20.9687 1.73975H20.0058C19.7698 1.73975 19.5854 1.5456 19.5854 1.31482V0.717649C19.5854 0.486864 19.7698 0.292725 20.0058 0.292725H23.5368Z" fill="#21D087"/>
</g>
<defs>
<clipPath id="clip0_12491_233978">
<rect width="24" height="24" fill="white"/>
</clipPath>
</defs>
</svg>
