<svg width="24" height="24" viewBox="0 0 24 24" fill="none" xmlns="http://www.w3.org/2000/svg">
<circle cx="12" cy="12" r="11" fill="url(#paint0_linear_33334_225997)"/>
<g filter="url(#filter0_d_33334_225997)">
<path fill-rule="evenodd" clip-rule="evenodd" d="M13.1999 11C13.0895 11 13 10.9105 13 10.8001V7.79998C13 7.68952 13.0895 7.59998 13.2 7.59998H15.3C15.4104 7.59998 15.5 7.51043 15.5 7.39996L15.4999 5.79996C15.4999 5.68951 15.4103 5.59998 15.2999 5.59998H13.2C13.0895 5.59998 13 5.51043 13 5.39998V4.7C13 4.58954 12.9105 4.5 12.8 4.5H11.2C11.0895 4.5 11 4.58954 11 4.7V5.40007C11 5.51048 10.9105 5.59998 10.8001 5.59998C8.75663 5.59998 7.1001 7.25651 7.1001 9.29998C7.1001 11.3434 8.75653 12.9999 10.7999 13C10.9104 13 11 13.0895 11 13.2L11 16.2C11 16.3105 10.9105 16.4 10.8 16.4H8.70001C8.58955 16.4 8.5 16.4895 8.50001 16.6L8.5001 18.2C8.50011 18.3105 8.58965 18.4 8.7001 18.4H10.8C10.9105 18.4 11 18.4895 11 18.6V19.3C11 19.4105 11.0895 19.5 11.2 19.5H12.8C12.9105 19.5 13 19.4105 13 19.3V18.5999C13 18.4895 13.0895 18.4 13.1999 18.4C15.2434 18.4 16.8999 16.7435 16.8999 14.7C16.8999 12.6565 15.2434 11 13.1999 11ZM10.8001 11C10.9105 11 11 10.9105 11 10.8001V7.79988C11 7.68948 10.9105 7.59998 10.8001 7.59998C9.8612 7.59998 9.1001 8.36108 9.1001 9.29998C9.1001 10.2389 9.8612 11 10.8001 11ZM13 13.1999C13 13.0895 13.0895 13 13.1999 13C14.1388 13 14.8999 13.7611 14.8999 14.7C14.8999 15.6389 14.1388 16.4 13.1999 16.4C13.0895 16.4 13 16.3105 13 16.2001L13 13.1999Z" fill="url(#paint1_linear_33334_225997)" shape-rendering="crispEdges"/>
</g>
<defs>
<filter id="filter0_d_33334_225997" x="3.1001" y="0.5" width="17.7998" height="23" filterUnits="userSpaceOnUse" color-interpolation-filters="sRGB">
<feFlood flood-opacity="0" result="BackgroundImageFix"/>
<feColorMatrix in="SourceAlpha" type="matrix" values="0 0 0 0 0 0 0 0 0 0 0 0 0 0 0 0 0 0 127 0" result="hardAlpha"/>
<feOffset/>
<feGaussianBlur stdDeviation="2"/>
<feComposite in2="hardAlpha" operator="out"/>
<feColorMatrix type="matrix" values="0 0 0 0 0.376471 0 0 0 0 0.466667 0 0 0 0 0.960784 0 0 0 0.2 0"/>
<feBlend mode="normal" in2="BackgroundImageFix" result="effect1_dropShadow_33334_225997"/>
<feBlend mode="normal" in="SourceGraphic" in2="effect1_dropShadow_33334_225997" result="shape"/>
</filter>
<linearGradient id="paint0_linear_33334_225997" x1="12" y1="1" x2="12" y2="23" gradientUnits="userSpaceOnUse">
<stop stop-color="#7CDFFF"/>
<stop offset="1" stop-color="#0DC5FF"/>
</linearGradient>
<linearGradient id="paint1_linear_33334_225997" x1="9.5" y1="5.5" x2="15.5" y2="21.5" gradientUnits="userSpaceOnUse">
<stop stop-color="white"/>
<stop offset="1" stop-color="white" stop-opacity="0.72"/>
</linearGradient>
</defs>
</svg>
