<svg width="24" height="24" viewBox="0 0 24 24" fill="none" xmlns="http://www.w3.org/2000/svg">
<path d="M13 11V4H17.4999L17.4998 2H13V1H11V2H10C6.96242 2 4.5 4.46242 4.5 7.5C4.5 10.5376 6.96238 13 9.99994 13C9.99992 13 9.99996 13 9.99994 13H11V20H6.5L6.50017 22H11V23H13V22H13.9999C17.0375 22 19.4999 19.5376 19.4999 16.5C19.4999 13.4624 17.0375 11 13.9999 11H13ZM13 13H13.9999C15.933 13 17.4999 14.567 17.4999 16.5C17.4999 18.433 15.933 20 13.9999 20H13V13ZM11 11H10C9.99998 11 10 11 10 11C8.06701 11 6.5 9.433 6.5 7.5C6.5 5.56698 8.06698 4 10 4H11V11Z" fill="black"/>
</svg>
