<svg width="24" height="24" viewBox="0 0 24 24" fill="none" xmlns="http://www.w3.org/2000/svg">
<path d="M8 8C8 7.44772 8.44772 7 9 7H15C15.5523 7 16 7.44772 16 8C16 8.55228 15.5523 9 15 9H9C8.44772 9 8 8.55228 8 8Z" fill="black"/>
<path d="M4.59547 4.05132C5.00381 2.82629 6.15023 2 7.44152 2H16.5585C17.8498 2 18.9962 2.82629 19.4045 4.05132L21.7434 11.068C21.9134 11.5778 22 12.1117 22 12.6491V19C22 20.6569 20.6569 22 19 22H5C3.34315 22 2 20.6569 2 19V12.6491C2 12.1117 2.08664 11.5778 2.25658 11.068L4.59547 4.05132ZM7.44152 4C7.01109 4 6.62895 4.27543 6.49284 4.68377L4.15395 11.7004C4.12112 11.7989 4.09347 11.8989 4.07107 12H8C9.15251 12 9.85628 12.9238 10.1093 13.6547C10.3809 14.4391 11.1262 15 12 15C12.8738 15 13.6191 14.4391 13.8907 13.6547C14.1437 12.9238 14.8475 12 16 12H19.9289C19.9065 11.8989 19.8789 11.7989 19.8461 11.7004L17.5072 4.68377C17.3711 4.27543 16.9889 4 16.5585 4H7.44152ZM20 14H16.0027C15.9952 14.0026 15.9774 14.0114 15.9489 14.0372C15.8901 14.0903 15.8232 14.186 15.7806 14.3091C15.2388 15.874 13.7522 17 12 17C10.2478 17 8.76121 15.874 8.2194 14.3091C8.1768 14.186 8.10987 14.0903 8.05111 14.0372C8.02257 14.0114 8.00484 14.0026 7.99732 14H4V19C4 19.5523 4.44772 20 5 20H19C19.5523 20 20 19.5523 20 19V14Z" fill="black"/>
</svg>
