<svg width="24" height="24" viewBox="0 0 24 24" fill="none" xmlns="http://www.w3.org/2000/svg">
<path d="M8.44017 1.72793C7.17261 1.12128 5.69114 1.97662 5.58273 3.37767L5.24146 7.78819L2.19216 10.993C1.22351 12.0111 1.57918 13.6844 2.87816 14.2204L6.96736 15.9079L9.07305 19.7983C9.74195 21.0341 11.4432 21.2129 12.3545 20.1432L15.223 16.7756L19.5737 15.9752C20.9557 15.7209 21.6515 14.1581 20.9157 12.9609L18.5994 9.19216L19.1825 4.80707C19.3678 3.41408 18.0965 2.26943 16.7305 2.59928L12.4304 3.63764L8.44017 1.72793ZM7.57677 3.53196L11.567 5.44167C11.982 5.64026 12.4527 5.68974 12.8999 5.58176L17.2 4.5434L16.6168 8.9285C16.5562 9.38451 16.6546 9.84748 16.8955 10.2394L19.2118 14.0082L14.8611 14.8086C14.4087 14.8918 13.9988 15.1285 13.7005 15.4787L10.8319 18.8463L8.72625 14.9559C8.50728 14.5513 8.15553 14.2346 7.73029 14.0591L3.6411 12.3716L6.6904 9.16681C7.00749 8.83354 7.20001 8.40114 7.2355 7.94248L7.57677 3.53196Z" fill="black" fill-opacity="0.85"/>
<path d="M15.3262 18.9545L17.3262 22.4186L19.0583 21.4186L17.0583 17.9545L15.3262 18.9545Z" fill="black" fill-opacity="0.85"/>
</svg>
