<svg width="24" height="24" viewBox="0 0 24 24" fill="none" xmlns="http://www.w3.org/2000/svg">
<g opacity="0.2">
<rect width="24" height="24" fill="#D03050"/>
<path d="M1 12C1 5.92487 5.92487 1 12 1C18.0751 1 23 5.92487 23 12C23 18.0751 18.0751 23 12 23C5.92487 23 1 18.0751 1 12ZM7.80316 15.2346C8.5849 16.3838 9.92968 17.5 12 17.5C14.0703 17.5 15.4151 16.3838 16.1968 15.2346C16.7457 14.4278 16.0547 13.5 15.0788 13.5H8.92116C7.94531 13.5 7.25428 14.4278 7.80316 15.2346ZM16.5 7C15.9477 7 15.5 7.44772 15.5 8V10C15.5 10.5523 15.9477 11 16.5 11C17.0523 11 17.5 10.5523 17.5 10V8C17.5 7.44772 17.0523 7 16.5 7ZM8.5 8C8.5 7.44772 8.05228 7 7.5 7C6.94772 7 6.5 7.44772 6.5 8V10C6.5 10.5523 6.94772 11 7.5 11C8.05228 11 8.5 10.5523 8.5 10V8Z" fill="black"/>
</g>
</svg>
