<svg width="24" height="24" viewBox="0 0 24 24" fill="none" xmlns="http://www.w3.org/2000/svg">
<g clip-path="url(#clip0_721_25713)">
<path d="M20 10.5V7L15.5 2H5C4.44771 2 4 2.44771 4 3V21C4 21.5523 4.44771 22 5 22H9" stroke="black" stroke-width="2" stroke-linejoin="round"/>
<path d="M22 17.5C22 20.5376 19.5376 23 16.5 23C13.4624 23 11 20.5376 11 17.5C11 14.4624 13.4624 12 16.5 12C17.4002 12 18.2499 12.2163 19 12.5997" stroke="black" stroke-width="2"/>
<path d="M15 2V7H20" stroke="black" stroke-width="2" stroke-linejoin="round"/>
<path d="M22 14L17.1875 19L15 16.7273" stroke="black" stroke-width="2" stroke-linecap="square" stroke-linejoin="round"/>
</g>
<defs>
<clipPath id="clip0_721_25713">
<rect width="24" height="24" fill="white"/>
</clipPath>
</defs>
</svg>
