<svg width="24" height="24" viewBox="0 0 24 24" fill="none" xmlns="http://www.w3.org/2000/svg">
<path d="M8 12.5C8 10.2909 9.79086 8.5 12 8.5C14.2091 8.5 16 10.2909 16 12.5C16 14.7091 14.2091 16.5 12 16.5C9.79086 16.5 8 14.7091 8 12.5ZM12 10.5C10.8954 10.5 10 11.3954 10 12.5C10 13.6046 10.8954 14.5 12 14.5C13.1046 14.5 14 13.6046 14 12.5C14 11.3954 13.1046 10.5 12 10.5Z" fill="black"/>
<path d="M13 2.99824C12.999 2.44596 12.5505 1.99903 11.9982 2C11.446 2.00097 10.999 2.44948 11 3.00176L11.0027 4.55006C10.0437 4.64636 9.12798 4.8775 8.27404 5.20772L7.44473 4.05055C7.12301 3.60165 6.49829 3.49854 6.04939 3.82026C5.60048 4.14198 5.49738 4.76669 5.8191 5.2156L6.45791 6.10696C5.92702 6.43178 5.434 6.79271 4.98539 7.17709C3.24791 8.6658 2 10.6684 2 12.5C2 14.3316 3.24791 16.3342 4.98539 17.8229C6.76222 19.3453 9.23586 20.5 12 20.5C14.7639 20.5 17.2376 19.3462 19.0145 17.8241C20.7522 16.3356 22 14.333 22 12.5C22 10.667 20.7522 8.66444 19.0145 7.17592C18.6848 6.89348 18.3311 6.62373 17.956 6.37168L18.6253 5.43777C18.947 4.98886 18.8439 4.36415 18.395 4.04243C17.9461 3.72071 17.3214 3.82381 16.9997 4.27271L16.1919 5.3998C15.2098 4.96774 14.1366 4.66499 13.0027 4.55058L13 2.99824ZM6.28669 8.69584C7.76723 7.42729 9.79359 6.5 12 6.5C14.2066 6.5 16.233 7.42672 17.7134 8.69484C19.233 9.99656 20 11.494 20 12.5C20 13.506 19.233 15.0034 17.7134 16.3052C16.233 17.5733 14.2066 18.5 12 18.5C9.79359 18.5 7.76723 17.5727 6.28669 16.3042C4.76682 15.0019 4 13.5045 4 12.5C4 11.4955 4.76682 9.9981 6.28669 8.69584Z" fill="black"/>
</svg>
