<svg width="24" height="24" viewBox="0 0 24 24" fill="none" xmlns="http://www.w3.org/2000/svg">
<path d="M17.7929 5.20708C16.2504 3.66461 13.7496 3.66461 12.2071 5.20709L4.70711 12.7071C4.31658 13.0976 3.68342 13.0976 3.29289 12.7071C2.90237 12.3166 2.90237 11.6834 3.29289 11.2929L10.7929 3.79287C13.1164 1.46935 16.8836 1.46935 19.2071 3.79287C21.5306 6.11639 21.5306 9.88356 19.2071 12.2071L10.4571 20.9571C9.10008 22.3141 6.89991 22.3141 5.54289 20.9571C4.18587 19.6001 4.18587 17.3999 5.54289 16.0429L13.2929 8.29287C13.6834 7.90235 14.3166 7.90235 14.7071 8.29287C15.0976 8.6834 15.0976 9.31656 14.7071 9.70708L6.95711 17.4571C6.38113 18.0331 6.38113 18.9669 6.95711 19.5429C7.53308 20.1188 8.46692 20.1188 9.04289 19.5429L17.7929 10.7929C19.3354 9.2504 19.3354 6.74956 17.7929 5.20708Z" fill="black"/>
</svg>
