<svg width="24" height="24" viewBox="0 0 24 24" fill="none" xmlns="http://www.w3.org/2000/svg">
<path d="M11.4657 2H12.5343C14.5563 1.99996 16.1885 1.99993 17.3976 2.17831C18.6227 2.35905 19.7434 2.7675 20.3242 3.87708C20.9049 4.98666 20.6017 6.14031 20.0519 7.25C19.5093 8.34514 18.579 9.68616 17.4264 11.3475L16.535 12.6325C16.1467 13.1923 16.0808 13.3058 16.0456 13.4181C16.0105 13.5303 16 13.6612 16 14.3425V21C16 21.5523 15.5523 22 15 22C14.4477 22 14 21.5523 14 21V14.3425C14 14.3073 14 14.2723 13.9999 14.2376C13.9993 13.7204 13.9988 13.2623 14.1369 12.8208C14.275 12.3794 14.5366 12.0033 14.8319 11.5787C14.8517 11.5502 14.8717 11.5215 14.8917 11.4926L15.7329 10.2799C16.9474 8.52919 17.7906 7.30906 18.2598 6.36207C18.7296 5.41378 18.6732 5.03565 18.5522 4.80446C18.4312 4.57328 18.1527 4.31134 17.1057 4.15689C16.0601 4.00265 14.577 4 12.4463 4H11.5537C9.42302 4 7.9399 4.00265 6.89436 4.15689C5.84738 4.31134 5.56888 4.57328 5.44789 4.80446C5.32689 5.03565 5.27041 5.41378 5.74026 6.36208C6.20946 7.30906 7.05264 8.52919 8.26711 10.2799L9.10832 11.4926C9.12839 11.5215 9.14834 11.5502 9.16814 11.5787C9.46344 12.0033 9.72503 12.3794 9.86314 12.8208C10.0013 13.2623 10.0007 13.7204 10.0001 14.2376C10.0001 14.2723 10 14.3073 10 14.3425V18.5C10 19.0523 9.55231 19.5 9.00002 19.5C8.44774 19.5 8.00002 19.0523 8.00002 18.5V14.3425C8.00002 13.6612 7.98952 13.5303 7.9544 13.4181C7.91927 13.3058 7.85331 13.1923 7.465 12.6325L6.57363 11.3476C5.42109 9.68619 4.49078 8.34515 3.94817 7.25C3.39836 6.14031 3.09519 4.98666 3.67589 3.87708C4.2566 2.7675 5.37731 2.35905 6.60247 2.17831C7.81158 1.99993 9.44372 1.99996 11.4657 2Z" fill="black"/>
</svg>
