<svg width="24" height="24" viewBox="0 0 24 24" fill="none" xmlns="http://www.w3.org/2000/svg">
<path d="M7.42943 4.69995H16.5706C17.9247 4.69992 19.0413 4.69989 19.9251 4.81871C20.8529 4.94345 21.6723 5.21542 22.3284 5.87153C22.9845 6.52764 23.2565 7.34706 23.3813 8.27489C23.5001 9.15865 23.5 10.2753 23.5 11.6294V12.3705C23.5 13.7246 23.5001 14.8413 23.3813 15.725C23.2565 16.6528 22.9845 17.4723 22.3284 18.1284C21.6723 18.7845 20.8529 19.0565 19.9251 19.1812C19.0413 19.3 17.9247 19.3 16.5706 19.3H7.42943C6.07531 19.3 4.9587 19.3 4.07494 19.1812C3.14711 19.0565 2.32768 18.7845 1.67158 18.1284C1.01547 17.4723 0.743498 16.6528 0.618755 15.725C0.499936 14.8413 0.499966 13.7246 0.500001 12.3705V11.6294C0.499966 10.2753 0.499936 9.15865 0.618755 8.27489C0.743498 7.34706 1.01547 6.52764 1.67158 5.87153C2.32768 5.21542 3.14711 4.94345 4.07494 4.81871C4.9587 4.69989 6.07531 4.69992 7.42943 4.69995ZM4.34143 6.80087C3.63538 6.8958 3.30836 7.06317 3.08579 7.28574C2.86322 7.50831 2.69585 7.83533 2.60092 8.54139C2.50213 9.27621 2.5 10.2575 2.5 11.7V12.3C2.5 13.7424 2.50213 14.7237 2.60092 15.4585C2.69585 16.1646 2.86322 16.4916 3.08579 16.7142C3.30836 16.9367 3.63538 17.1041 4.34143 17.199C5.07625 17.2978 6.05752 17.3 7.5 17.3H16.5C17.9425 17.3 18.9237 17.2978 19.6586 17.199C20.3646 17.1041 20.6916 16.9367 20.9142 16.7142C21.1368 16.4916 21.3042 16.1646 21.3991 15.4585C21.4979 14.7237 21.5 13.7424 21.5 12.3V11.7C21.5 10.2575 21.4979 9.27621 21.3991 8.54139C21.3042 7.83533 21.1368 7.50831 20.9142 7.28574C20.6916 7.06317 20.3646 6.8958 19.6586 6.80087C18.9237 6.70208 17.9425 6.69995 16.5 6.69995H7.5C6.05752 6.69995 5.07625 6.70208 4.34143 6.80087Z" fill="black"/>
</svg>
