<svg width="24" height="24" viewBox="0 0 24 24" fill="none" xmlns="http://www.w3.org/2000/svg">
<path d="M16.4162 1.99998H18.584C18.9647 1.99968 19.2925 1.99942 19.5854 2.05767C20.7754 2.29439 21.7057 3.22468 21.9424 4.41476C22.0007 4.70761 22.0004 5.03544 22.0001 5.41614L22.0001 5.50003L22.0001 5.58391C22.0004 5.96461 22.0007 6.29244 21.9424 6.5853C21.7057 7.77537 20.7754 8.70566 19.5854 8.94238C19.2925 9.00063 18.9647 9.00037 18.584 9.00007H16.4162C16.0355 9.00037 15.7077 9.00063 15.4148 8.94238C14.2247 8.70566 13.2945 7.77537 13.0577 6.5853C12.9995 6.29244 12.9997 5.96461 13 5.58391L13.0001 5.50003L13 5.41614C12.9997 5.03544 12.9995 4.70761 13.0577 4.41476C13.2945 3.22468 14.2247 2.29439 15.4148 2.05767C15.7077 1.99942 16.0355 1.99968 16.4162 1.99998ZM16.5001 4.00003C15.9875 4.00003 15.8772 4.00487 15.805 4.01924C15.4083 4.09815 15.0982 4.40825 15.0193 4.80494C15.0049 4.87718 15.0001 4.98744 15.0001 5.50003C15.0001 6.01261 15.0049 6.12287 15.0193 6.19512C15.0982 6.59181 15.4083 6.90191 15.805 6.98081C15.8772 6.99518 15.9875 7.00003 16.5001 7.00003H18.5001C19.0127 7.00003 19.1229 6.99518 19.1952 6.98081C19.5919 6.90191 19.902 6.59181 19.9809 6.19512C19.9952 6.12287 20.0001 6.01261 20.0001 5.50003C20.0001 4.98744 19.9952 4.87718 19.9809 4.80494C19.902 4.40825 19.5919 4.09815 19.1952 4.01924C19.1229 4.00487 19.0127 4.00003 18.5001 4.00003H16.5001Z" fill="black"/>
<path d="M6.45145 2C5.7907 1.99997 5.22089 1.99995 4.75572 2.04727C4.26248 2.09745 3.77721 2.20898 3.33329 2.50559C3.00572 2.72447 2.72447 3.00572 2.5056 3.33329C2.20898 3.77721 2.09745 4.26248 2.04727 4.75572C1.99995 5.22088 1.99997 5.79067 2 6.4514V8.54856C1.99997 9.20929 1.99995 9.77912 2.04727 10.2443C2.09745 10.7375 2.20898 11.2228 2.5056 11.6667C2.72447 11.9943 3.00572 12.2755 3.33329 12.4944C3.77721 12.791 4.26248 12.9026 4.75572 12.9527C5.22089 13.0001 5.79069 13 6.45143 13H6.54858C7.20932 13 7.77912 13.0001 8.24429 12.9527C8.73753 12.9026 9.22279 12.791 9.66672 12.4944C9.99429 12.2755 10.2755 11.9943 10.4944 11.6667C10.791 11.2228 10.9026 10.7375 10.9527 10.2443C11.0001 9.77912 11 9.20931 11 8.54857V6.45143C11 5.79069 11.0001 5.22089 10.9527 4.75572C10.9026 4.26248 10.791 3.77721 10.4944 3.33329C10.2755 3.00572 9.99429 2.72447 9.66672 2.50559C9.22279 2.20898 8.73753 2.09745 8.24429 2.04727C7.77912 1.99995 7.20931 1.99997 6.54856 2H6.45145ZM4.44443 4.16853C4.50496 4.12809 4.62303 4.07109 4.95813 4.037C5.30995 4.00121 5.77696 4 6.5 4C7.22305 4 7.69006 4.00121 8.04187 4.037C8.37698 4.07109 8.49505 4.12809 8.55557 4.16853C8.66476 4.24149 8.75852 4.33524 8.83147 4.44443C8.87192 4.50496 8.92892 4.62303 8.96301 4.95813C8.9988 5.30995 9 5.77696 9 6.5V8.5C9 9.22305 8.9988 9.69006 8.96301 10.0419C8.92892 10.377 8.87192 10.495 8.83147 10.5556C8.75852 10.6648 8.66476 10.7585 8.55557 10.8315C8.49505 10.8719 8.37698 10.9289 8.04187 10.963C7.69006 10.9988 7.22305 11 6.5 11C5.77696 11 5.30995 10.9988 4.95813 10.963C4.62303 10.9289 4.50496 10.8719 4.44443 10.8315C4.33524 10.7585 4.24149 10.6648 4.16853 10.5556C4.12809 10.495 4.07109 10.377 4.037 10.0419C4.00121 9.69006 4 9.22305 4 8.5V6.5C4 5.77696 4.00121 5.30995 4.037 4.95813C4.07109 4.62303 4.12809 4.50496 4.16853 4.44443C4.24149 4.33524 4.33524 4.24149 4.44443 4.16853Z" fill="black"/>
<path d="M5.4162 15C5.03551 14.9997 4.70767 14.9994 4.41482 15.0577C3.22475 15.2944 2.29445 16.2247 2.05773 17.4148C1.99948 17.7076 1.99974 18.0354 2.00004 18.4161L2.00009 18.5L2.00004 18.5839C1.99974 18.9646 1.99948 19.2924 2.05773 19.5853C2.29445 20.7754 3.22475 21.7057 4.41482 21.9424C4.70767 22.0006 5.03551 22.0004 5.4162 22.0001H7.58397C7.96467 22.0004 8.29251 22.0006 8.58536 21.9424C9.77543 21.7057 10.7057 20.7754 10.9424 19.5853C11.0007 19.2924 11.0004 18.9646 11.0001 18.5839L11.0001 18.5L11.0001 18.4161C11.0004 18.0354 11.0007 17.7076 10.9424 17.4148C10.7057 16.2247 9.77543 15.2944 8.58536 15.0577C8.29251 14.9994 7.96467 14.9997 7.58397 15H5.4162ZM4.805 17.0192C4.87725 17.0049 4.9875 17 5.50009 17H7.50009C8.01267 17 8.12293 17.0049 8.19518 17.0192C8.59187 17.0981 8.90197 17.4082 8.98087 17.8049C8.99524 17.8772 9.00009 17.9874 9.00009 18.5C9.00009 19.0126 8.99524 19.1229 8.98087 19.1951C8.90197 19.5918 8.59187 19.9019 8.19518 19.9808C8.12293 19.9952 8.01267 20 7.50009 20H5.50009C4.9875 20 4.87725 19.9952 4.805 19.9808C4.40831 19.9019 4.09821 19.5918 4.0193 19.1951C4.00493 19.1229 4.00009 19.0126 4.00009 18.5C4.00009 17.9874 4.00493 17.8772 4.0193 17.8049C4.09821 17.4082 4.40831 17.0981 4.805 17.0192Z" fill="black"/>
<path d="M17.4514 11C16.7907 11 16.2209 10.9999 15.7557 11.0473C15.2625 11.0974 14.7772 11.209 14.3333 11.5056C14.0057 11.7245 13.7245 12.0057 13.5056 12.3333C13.209 12.7772 13.0974 13.2625 13.0473 13.7557C13 14.2209 13 14.7907 13 15.4514V17.5486C13 18.2093 13 18.7791 13.0473 19.2443C13.0974 19.7375 13.209 20.2228 13.5056 20.6667C13.7245 20.9943 14.0057 21.2755 14.3333 21.4944C14.7772 21.791 15.2625 21.9026 15.7557 21.9527C16.2209 22.0001 16.7907 22 17.4514 22H17.5486C18.2093 22 18.7791 22.0001 19.2443 21.9527C19.7375 21.9026 20.2228 21.791 20.6667 21.4944C20.9943 21.2755 21.2755 20.9943 21.4944 20.6667C21.791 20.2228 21.9026 19.7375 21.9527 19.2443C22.0001 18.7791 22 18.2093 22 17.5486V15.4514C22 14.7907 22.0001 14.2209 21.9527 13.7557C21.9026 13.2625 21.791 12.7772 21.4944 12.3333C21.2755 12.0057 20.9943 11.7245 20.6667 11.5056C20.2228 11.209 19.7375 11.0974 19.2443 11.0473C18.7791 10.9999 18.2093 11 17.5486 11H17.4514ZM15.4444 13.1685C15.505 13.1281 15.623 13.0711 15.9581 13.037C16.3099 13.0012 16.777 13 17.5 13C18.223 13 18.6901 13.0012 19.0419 13.037C19.377 13.0711 19.495 13.1281 19.5556 13.1685C19.6648 13.2415 19.7585 13.3352 19.8315 13.4444C19.8719 13.505 19.9289 13.623 19.963 13.9581C19.9988 14.3099 20 14.777 20 15.5V17.5C20 18.223 19.9988 18.6901 19.963 19.0419C19.9289 19.377 19.8719 19.495 19.8315 19.5556C19.7585 19.6648 19.6648 19.7585 19.5556 19.8315C19.495 19.8719 19.377 19.9289 19.0419 19.963C18.6901 19.9988 18.223 20 17.5 20C16.777 20 16.3099 19.9988 15.9581 19.963C15.623 19.9289 15.505 19.8719 15.4444 19.8315C15.3352 19.7585 15.2415 19.6648 15.1685 19.5556C15.1281 19.495 15.0711 19.377 15.037 19.0419C15.0012 18.6901 15 18.223 15 17.5V15.5C15 14.777 15.0012 14.3099 15.037 13.9581C15.0711 13.623 15.1281 13.505 15.1685 13.4444C15.2415 13.3352 15.3352 13.2415 15.4444 13.1685Z" fill="black"/>
</svg>
