<svg width="24" height="24" viewBox="0 0 24 24" fill="none" xmlns="http://www.w3.org/2000/svg">
<path d="M1.79286 5.56621C2.01423 3.537 3.72802 2 5.76927 2H18.2309C20.2721 2 21.9859 3.537 22.2073 5.56621L23.5164 17.5662C23.7746 19.933 21.9208 22 19.54 22H19.4646C18.2 22 17.0098 21.402 16.2551 20.3872L13.6048 16.8242C12.8051 15.749 11.195 15.749 10.3953 16.8242L7.7451 20.3872C6.99035 21.402 5.80021 22 4.53558 22H4.46017C2.07932 22 0.225569 19.933 0.483766 17.5662L1.79286 5.56621Z" fill="#2491FF"/>
<path d="M1.79286 5.56621C2.01423 3.537 3.72802 2 5.76927 2H18.2309C20.2721 2 21.9859 3.537 22.2073 5.56621L23.5164 17.5662C23.7746 19.933 21.9208 22 19.54 22H19.4646C18.2 22 17.0098 21.402 16.2551 20.3872L13.6048 16.8242C12.8051 15.749 11.195 15.749 10.3953 16.8242L7.7451 20.3872C6.99035 21.402 5.80021 22 4.53558 22H4.46017C2.07932 22 0.225569 19.933 0.483766 17.5662L1.79286 5.56621Z" fill="black" fill-opacity="0.2"/>
<path d="M1.79463 5.56851C2.01492 3.5383 3.72915 2 5.77129 2H18.2287C20.2709 2 21.9851 3.5383 22.2054 5.56851L23.1596 14.3629C23.3592 16.2025 22.271 17.9389 20.5283 18.5613L19.1556 19.0516C17.5632 19.6203 15.7851 19.1263 14.7144 17.8176L13.5479 16.3919C12.7477 15.4139 11.2523 15.4139 10.4521 16.3919L9.28563 17.8176C8.21488 19.1263 6.43687 19.6203 4.84446 19.0516L3.47172 18.5613C1.72907 17.939 0.640791 16.2025 0.840401 14.3629L1.79463 5.56851Z" fill="#2491FF"/>
<path d="M1.79463 5.56851C2.01492 3.5383 3.72915 2 5.77129 2H18.2287C20.2709 2 21.9851 3.5383 22.2054 5.56851L23.1596 14.3629C23.3592 16.2025 22.271 17.9389 20.5283 18.5613L19.1556 19.0516C17.5632 19.6203 15.7851 19.1263 14.7144 17.8176L13.5479 16.3919C12.7477 15.4139 11.2523 15.4139 10.4521 16.3919L9.28563 17.8176C8.21488 19.1263 6.43687 19.6203 4.84446 19.0516L3.47172 18.5613C1.72907 17.939 0.640791 16.2025 0.840401 14.3629L1.79463 5.56851Z" fill="url(#paint0_linear_19626_117281)"/>
<g filter="url(#filter0_d_19626_117281)">
<path d="M10 10C10 11.6569 8.65685 13 7 13C5.34315 13 4 11.6569 4 10C4 8.34315 5.34315 7 7 7C8.65685 7 10 8.34315 10 10Z" fill="#1AFF9F" fill-opacity="0.8" shape-rendering="crispEdges"/>
</g>
<g filter="url(#filter1_d_19626_117281)">
<path d="M18 8C18 7.44772 17.5523 7 17 7C16.4477 7 16 7.44772 16 8V9H15C14.4477 9 14 9.44772 14 10C14 10.5523 14.4477 11 15 11H16V12C16 12.5523 16.4477 13 17 13C17.5523 13 18 12.5523 18 12V11H19C19.5523 11 20 10.5523 20 10C20 9.44772 19.5523 9 19 9H18V8Z" fill="#1AFF9F" fill-opacity="0.8" shape-rendering="crispEdges"/>
</g>
<path d="M10.5 4.25C10.5 3.83579 10.8358 3.5 11.25 3.5H12.75C13.1642 3.5 13.5 3.83579 13.5 4.25C13.5 4.66421 13.1642 5 12.75 5H11.25C10.8358 5 10.5 4.66421 10.5 4.25Z" fill="#2491FF"/>
<path d="M10.5 4.25C10.5 3.83579 10.8358 3.5 11.25 3.5H12.75C13.1642 3.5 13.5 3.83579 13.5 4.25C13.5 4.66421 13.1642 5 12.75 5H11.25C10.8358 5 10.5 4.66421 10.5 4.25Z" fill="black" fill-opacity="0.2"/>
<defs>
<filter id="filter0_d_19626_117281" x="1" y="4" width="12" height="12" filterUnits="userSpaceOnUse" color-interpolation-filters="sRGB">
<feFlood flood-opacity="0" result="BackgroundImageFix"/>
<feColorMatrix in="SourceAlpha" type="matrix" values="0 0 0 0 0 0 0 0 0 0 0 0 0 0 0 0 0 0 127 0" result="hardAlpha"/>
<feOffset/>
<feGaussianBlur stdDeviation="1.5"/>
<feComposite in2="hardAlpha" operator="out"/>
<feColorMatrix type="matrix" values="0 0 0 0 0.101961 0 0 0 0 1 0 0 0 0 0.623529 0 0 0 0.5 0"/>
<feBlend mode="normal" in2="BackgroundImageFix" result="effect1_dropShadow_19626_117281"/>
<feBlend mode="normal" in="SourceGraphic" in2="effect1_dropShadow_19626_117281" result="shape"/>
</filter>
<filter id="filter1_d_19626_117281" x="11" y="4" width="12" height="12" filterUnits="userSpaceOnUse" color-interpolation-filters="sRGB">
<feFlood flood-opacity="0" result="BackgroundImageFix"/>
<feColorMatrix in="SourceAlpha" type="matrix" values="0 0 0 0 0 0 0 0 0 0 0 0 0 0 0 0 0 0 127 0" result="hardAlpha"/>
<feOffset/>
<feGaussianBlur stdDeviation="1.5"/>
<feComposite in2="hardAlpha" operator="out"/>
<feColorMatrix type="matrix" values="0 0 0 0 0.101961 0 0 0 0 1 0 0 0 0 0.623529 0 0 0 0.5 0"/>
<feBlend mode="normal" in2="BackgroundImageFix" result="effect1_dropShadow_19626_117281"/>
<feBlend mode="normal" in="SourceGraphic" in2="effect1_dropShadow_19626_117281" result="shape"/>
</filter>
<linearGradient id="paint0_linear_19626_117281" x1="0.816895" y1="2" x2="17.5432" y2="23.6435" gradientUnits="userSpaceOnUse">
<stop stop-color="white" stop-opacity="0.16"/>
<stop offset="1" stop-opacity="0.03"/>
</linearGradient>
</defs>
</svg>
