<svg width="24" height="24" viewBox="0 0 24 24" fill="none" xmlns="http://www.w3.org/2000/svg">
<g clip-path="url(#clip0_9238_139480)">
<path d="M12 0C5.3726 0 0 5.3726 0 12C0 18.6274 5.3726 24 12 24C18.6274 24 24 18.6274 24 12C24 5.3726 18.6274 0 12 0ZM2 12C2 6.47715 6.47715 2 12 2C17.5229 2 22 6.47715 22 12C22 16.5003 19.0272 20.3063 14.9383 21.5614C15.0499 19.5404 15.0116 18.2885 14.8232 17.8058C14.6245 17.2963 14.4624 17.0874 14.3652 16.9622C14.3015 16.8802 14.2657 16.834 14.2657 16.7627C14.2657 16.6427 14.3502 16.5557 14.5192 16.5018C15.9926 16.1761 16.9807 15.2706 17.4833 13.7853C18.1798 11.7273 17.1856 10.2307 16.7834 9.62529C16.7502 9.5753 16.721 9.5314 16.6971 9.49375C16.3844 9.00005 16.7941 7.79845 17.2834 6.83685C15.6196 6.50329 14.9841 7.27631 14.6196 7.71966C14.4708 7.90074 14.3671 8.02683 14.2571 8.00005C14.1588 7.97612 14.053 7.92961 13.926 7.87381C13.5629 7.71419 13.027 7.4786 12.0001 7.4786C10.7267 7.4786 9.88295 7.9234 9.75395 7.99141C9.74257 7.99741 9.7367 8.00005 9.7367 8.00005C9.06735 7.06715 8.11675 6.67945 6.88495 6.83685C7.22425 8.1926 7.24975 9.0782 6.96145 9.49375C6.52905 10.117 5.7185 11.567 6.34775 13.7853C6.97695 16.0036 9.26775 16.5018 9.70385 16.5018L9.70672 16.5025C9.74136 16.51 10.0622 16.5792 9.96585 16.8503C9.94693 16.9225 9.93436 17.0207 9.9202 17.1313C9.87477 17.4863 9.81299 17.969 9.4724 18.1259C9.02575 18.3317 8.0403 18.4441 7.62815 18.1872C7.49082 18.1017 7.39217 17.9226 7.27335 17.707C7.03553 17.2755 6.71691 16.6973 5.84565 16.4282C4.53904 16.0248 4.62091 16.5582 4.94702 16.6891C5.01884 16.718 5.114 16.7449 5.22263 16.7757C5.6073 16.8847 6.16082 17.0415 6.44455 17.4979C6.52776 17.6318 6.61338 17.7785 6.70086 17.9283C6.99595 18.4339 7.31217 18.9756 7.62815 19.1833C7.9012 19.3629 8.5557 19.4348 9.59165 19.399C9.54659 20.3768 9.52252 21.1404 9.51943 21.6899C5.1965 20.5866 2 16.6666 2 12Z" fill="black" fill-opacity="0.85"/>
</g>
<defs>
<clipPath id="clip0_9238_139480">
<rect width="24" height="24" fill="white"/>
</clipPath>
</defs>
</svg>
