<svg width="24" height="24" viewBox="0 0 24 24" fill="none" xmlns="http://www.w3.org/2000/svg">
<path fill-rule="evenodd" clip-rule="evenodd" d="M3.50009 4.9999C3.91664 4.9999 4.271 4.99511 4.58505 5.05752L4.80575 5.11025C5.88913 5.41197 6.72052 6.29949 6.94247 7.41494L6.97762 7.6581C7.00262 7.90981 7.00009 8.18741 7.00009 8.4999V15.4999C7.00009 15.8124 7.00261 16.09 6.97762 16.3417L6.94247 16.5849C6.72057 17.7004 5.88919 18.5878 4.80575 18.8896L4.58505 18.9423C4.27098 19.0047 3.91667 18.9999 3.50009 18.9999C3.18754 18.9999 2.91003 19.0024 2.65829 18.9774L2.41512 18.9423C1.29963 18.7204 0.412166 17.889 0.110437 16.8056L0.0577028 16.5849C-0.00468502 16.2708 8.5619e-05 15.9164 8.5619e-05 15.4999V8.4999C8.43034e-05 8.08339 -0.00471289 7.72897 0.0577028 7.41494L0.110437 7.19424C0.412211 6.11087 1.29964 5.27941 2.41512 5.05752L2.65829 5.02236C2.91003 4.99736 3.18754 4.9999 3.50009 4.9999ZM2.98739 7.00381L2.80477 7.01943C2.45798 7.08852 2.17737 7.33421 2.05966 7.66006L2.01962 7.80459C2.00525 7.87683 2.00009 7.98746 2.00009 8.4999V15.4999C2.00009 16.0121 2.00527 16.123 2.01962 16.1952C2.09859 16.5917 2.40834 16.9014 2.80477 16.9804L2.98739 16.996C3.08805 16.999 3.24381 16.9999 3.50009 16.9999C4.01264 16.9999 4.12315 16.9947 4.1954 16.9804L4.33993 16.9403C4.66584 16.8226 4.91146 16.5421 4.98055 16.1952L4.99618 16.0126C4.99918 15.9119 5.00009 15.7561 5.00009 15.4999V8.4999C5.00009 8.2437 4.99919 8.08785 4.99618 7.98721L4.98055 7.80459C4.91141 7.45782 4.66579 7.17714 4.33993 7.05947L4.1954 7.01943C4.12315 7.00507 4.01248 6.9999 3.50009 6.9999C3.24381 6.9999 3.08805 7.0008 2.98739 7.00381Z" fill="black"/>
<path fill-rule="evenodd" clip-rule="evenodd" d="M12.0001 4.9999C12.4166 4.9999 12.771 4.99511 13.085 5.05752L13.3057 5.11025C14.3891 5.41197 15.2205 6.29949 15.4425 7.41494L15.4776 7.6581C15.5026 7.90981 15.5001 8.18741 15.5001 8.4999V15.4999C15.5001 15.8124 15.5026 16.09 15.4776 16.3417L15.4425 16.5849C15.2206 17.7004 14.3892 18.5878 13.3057 18.8896L13.085 18.9423C12.771 19.0047 12.4167 18.9999 12.0001 18.9999C11.6875 18.9999 11.41 19.0024 11.1583 18.9774L10.9151 18.9423C9.79963 18.7204 8.91217 17.889 8.61044 16.8056L8.5577 16.5849C8.49532 16.2708 8.50009 15.9164 8.50009 15.4999V8.4999C8.50008 8.08339 8.49529 7.72897 8.5577 7.41494L8.61044 7.19424C8.91221 6.11087 9.79965 5.27941 10.9151 5.05752L11.1583 5.02236C11.41 4.99736 11.6875 4.9999 12.0001 4.9999ZM10.753 16.6601C10.8949 16.8206 11.0855 16.9367 11.3048 16.9804L11.4874 16.996C11.5881 16.999 11.7438 16.9999 12.0001 16.9999C12.5126 16.9999 12.6231 16.9947 12.6954 16.9804L12.8399 16.9403C13.1658 16.8226 13.4115 16.5421 13.4806 16.1952L13.4962 16.0126C13.4992 15.9119 13.5001 15.7561 13.5001 15.4999V13.914L10.753 16.6601ZM10.5001 12.914V14.0858L13.5001 11.0858V9.91396L10.5001 12.914ZM11.4874 7.00381L11.3048 7.01943C10.958 7.08852 10.6774 7.33421 10.5597 7.66006L10.5196 7.80459C10.5052 7.87683 10.5001 7.98746 10.5001 8.4999V10.0858L13.2481 7.33682C13.1386 7.21321 12.9988 7.11685 12.8399 7.05947L12.6954 7.01943C12.6231 7.00507 12.5125 6.9999 12.0001 6.9999C11.7438 6.9999 11.5881 7.0008 11.4874 7.00381Z" fill="black"/>
<path fill-rule="evenodd" clip-rule="evenodd" d="M20.5001 4.9999C20.9166 4.9999 21.271 4.99511 21.585 5.05752L21.8057 5.11025C22.8891 5.41197 23.7205 6.29949 23.9425 7.41494L23.9776 7.6581C24.0026 7.90981 24.0001 8.18741 24.0001 8.4999V15.4999C24.0001 15.8124 24.0026 16.09 23.9776 16.3417L23.9425 16.5849C23.7206 17.7004 22.8892 18.5878 21.8057 18.8896L21.585 18.9423C21.271 19.0047 20.9167 18.9999 20.5001 18.9999C20.1875 18.9999 19.91 19.0024 19.6583 18.9774L19.4151 18.9423C18.2996 18.7204 17.4122 17.889 17.1104 16.8056L17.0577 16.5849C16.9953 16.2708 17.0001 15.9164 17.0001 15.4999V8.4999C17.0001 8.08339 16.9953 7.72897 17.0577 7.41494L17.1104 7.19424C17.4122 6.11087 18.2996 5.27941 19.4151 5.05752L19.6583 5.02236C19.91 4.99736 20.1875 4.9999 20.5001 4.9999ZM20.4141 16.9989C20.4415 16.999 20.4701 16.9999 20.5001 16.9999C21.0126 16.9999 21.1231 16.9947 21.1954 16.9804L21.3399 16.9403C21.6658 16.8226 21.9115 16.5421 21.9806 16.1952L21.9962 16.0126C21.9992 15.9119 22.0001 15.7561 22.0001 15.4999V15.414L20.4141 16.9989ZM19.0001 14.914V15.5849L22.0001 12.5858V11.914L19.0001 14.914ZM19.0001 11.414V12.0858L22.0001 9.08584V8.4999C22.0001 8.4699 21.9991 8.44128 21.9991 8.41396L19.0001 11.414ZM19.9874 7.00381L19.8048 7.01943C19.458 7.08852 19.1774 7.33421 19.0597 7.66006L19.0196 7.80459C19.0052 7.87683 19.0001 7.98746 19.0001 8.4999V8.58584L20.585 6.9999C20.558 6.99987 20.5297 6.9999 20.5001 6.9999C20.2438 6.9999 20.0881 7.0008 19.9874 7.00381Z" fill="black"/>
</svg>
