<svg width="24" height="24" viewBox="0 0 24 24" fill="none" xmlns="http://www.w3.org/2000/svg">
<path d="M12 2C8.71032 2 6 4.60662 6 7.875V8.875H8V7.875C8 5.75862 9.76685 4 12 4C14.2331 4 16 5.75862 16 7.875C16 9.99138 14.2331 11.75 12 11.75C11.4477 11.75 11 12.1977 11 12.75V17H13V13.6685C15.8214 13.2036 18 10.8053 18 7.875C18 4.60662 15.2897 2 12 2Z" fill="black"/>
<path d="M13.5 20.5C13.5 21.3284 12.8284 22 12 22C11.1716 22 10.5 21.3284 10.5 20.5C10.5 19.6716 11.1716 19 12 19C12.8284 19 13.5 19.6716 13.5 20.5Z" fill="black"/>
</svg>
