<svg width="24" height="24" viewBox="0 0 24 24" fill="none" xmlns="http://www.w3.org/2000/svg">
<path d="M12 18C12.8284 18 13.5 17.3284 13.5 16.5C13.5 15.6716 12.8284 15 12 15C11.1716 15 10.5 15.6716 10.5 16.5C10.5 17.3284 11.1716 18 12 18Z" fill="black"/>
<path d="M10.5 9.5C10.5 8.67157 11.1716 8 12 8C12.8284 8 13.5 8.67157 13.5 9.5C13.5 10.1196 13.1241 10.6537 12.5839 10.8824C11.9315 11.1586 11 11.8474 11 13C11 13.5523 11.4477 14 12 14C12.551 14 12.9979 13.5544 13 13.004C13.0031 12.9951 13.0137 12.9734 13.045 12.938C13.1077 12.8672 13.2188 12.7854 13.3635 12.7242C14.6173 12.1935 15.5 10.951 15.5 9.5C15.5 7.567 13.933 6 12 6C10.067 6 8.5 7.567 8.5 9.5C8.5 10.0523 8.94772 10.5 9.5 10.5C10.0523 10.5 10.5 10.0523 10.5 9.5Z" fill="black"/>
<path d="M4.22183 4.22182C6.21136 2.23232 8.96273 1 12 1C15.0373 1 17.7886 2.23231 19.7782 4.22182C21.7677 6.21135 23 8.96273 23 12C23 15.0373 21.7677 17.7886 19.7782 19.7782C17.7886 21.7677 15.0373 23 12 23C8.96273 23 6.21136 21.7677 4.22183 19.7782C2.23232 17.7886 1 15.0373 1 12C1 8.96273 2.23233 6.21135 4.22183 4.22182ZM12 3C9.51447 3 7.26584 4.00626 5.63603 5.63604C4.00625 7.26585 3 9.51447 3 12C3 14.4855 4.00627 16.7342 5.63604 18.3639C7.26584 19.9937 9.51447 21 12 21C14.4855 21 16.7342 19.9937 18.3639 18.3639C19.9937 16.7342 21 14.4855 21 12C21 9.51447 19.9937 7.26584 18.3639 5.63604C16.7342 4.00627 14.4855 3 12 3Z" fill="black"/>
</svg>
