<svg width="24" height="24" viewBox="0 0 24 24" fill="none" xmlns="http://www.w3.org/2000/svg">
<path d="M21.6705 17.5557C22.1916 17.3738 22.7626 17.649 22.945 18.17C23.127 18.691 22.8516 19.2619 22.3307 19.4444L12.6617 22.8282C12.2341 22.9779 11.7671 22.9778 11.3394 22.8282L1.67047 19.4444C1.14932 19.262 0.874034 18.6911 1.05621 18.17C1.23866 17.6489 1.8095 17.3736 2.33063 17.5557L12.0006 20.9405L21.6705 17.5557ZM21.6705 12.5557C22.1916 12.3738 22.7626 12.6489 22.945 13.17C23.127 13.691 22.8516 14.2618 22.3307 14.4444L12.6617 17.8282C12.2341 17.9778 11.7671 17.9778 11.3394 17.8282L1.67047 14.4444C1.14932 14.262 0.874034 13.6911 1.05621 13.17C1.23866 12.6489 1.8095 12.3735 2.33063 12.5557L12.0006 15.9405L21.6705 12.5557ZM17.4625 7.24123C17.6055 6.70788 18.1538 6.39137 18.6871 6.5342L22.2594 7.49123C22.6823 7.60473 22.9824 7.98044 22.9997 8.41799C23.0168 8.85543 22.7471 9.25303 22.3346 9.39944L12.3346 12.9424C12.1186 13.0189 11.8825 13.0188 11.6666 12.9424L1.66656 9.39944C1.2538 9.25314 0.984361 8.85557 1.00152 8.41799C1.01876 7.98031 1.31866 7.6046 1.74176 7.49123L5.24177 6.55373C5.77511 6.41105 6.32348 6.72743 6.46639 7.26076C6.60909 7.794 6.29247 8.34229 5.75935 8.48537L5.36872 8.58889L12.0006 10.9385L18.6315 8.58889L18.1696 8.46584C17.6362 8.32284 17.3196 7.77463 17.4625 7.24123ZM12.0006 1C12.5527 1.00023 13.0006 1.44786 13.0006 2V4.00001H15.0006C15.5527 4.00024 16.0006 4.44787 16.0006 5.00001C16.0006 5.55215 15.5527 5.99978 15.0006 6.00002H13.0006V8.00002C13.0006 8.55216 12.5527 8.99979 12.0006 9.00002C11.4483 9.00002 11.0006 8.55231 11.0006 8.00002V6.00002H9.00057C8.44829 6.00002 8.00057 5.5523 8.00057 5.00001C8.00057 4.44773 8.44829 4.00001 9.00057 4.00001H11.0006V2C11.0006 1.44772 11.4483 1 12.0006 1Z" fill="black"/>
</svg>
