<svg width="24" height="24" viewBox="0 0 24 24" fill="none" xmlns="http://www.w3.org/2000/svg">
<path d="M11 2.99999C11 2.99931 11 3.00103 11 3.00102C11 2.44875 10.5491 1.99927 9.9968 2.00104C9.9968 2.00104 10.0021 2.00102 9.99999 2.00103C8.60892 2.00548 7.41584 2.02923 6.47767 2.15537C5.27752 2.31672 4.26702 2.66191 3.46447 3.46447C2.66191 4.26702 2.31672 5.27752 2.15537 6.47767C1.99995 7.63362 1.99997 9.10337 2 10.9268V13.0732C1.99997 14.8966 1.99995 16.3664 2.15537 17.5223C2.31672 18.7225 2.66191 19.733 3.46447 20.5355C4.26702 21.3381 5.27752 21.6833 6.47767 21.8446C7.63363 22.0001 9.1034 22 10.9269 22H13.0731C14.8966 22 16.3664 22.0001 17.5223 21.8446C18.7225 21.6833 19.733 21.3381 20.5355 20.5355C21.3381 19.733 21.6833 18.7225 21.8446 17.5223C21.9708 16.5842 21.9945 15.3911 21.999 14C21.999 13.9979 21.999 14.0032 21.999 14.0032C22.0007 13.4509 21.5513 13 20.999 13C20.999 13 21.0007 13 21 13C20.9993 13 20.999 13 20.999 13C20.4467 13 20.0007 13.4447 19.999 13.9969C19.999 13.9969 19.999 13.998 19.999 14.0002C19.9947 15.3945 19.9729 16.4342 19.8625 17.2558C19.7309 18.2342 19.4903 18.7523 19.1213 19.1213C18.7523 19.4903 18.2342 19.7309 17.2558 19.8625C16.2487 19.9979 14.9139 20 13 20H11C9.08611 20 7.7513 19.9979 6.74416 19.8625C5.76579 19.7309 5.2477 19.4903 4.87868 19.1213C4.50966 18.7523 4.26907 18.2342 4.13753 17.2558C4.00213 16.2487 4 14.9139 4 13V11C4 9.08611 4.00213 7.7513 4.13753 6.74416C4.26907 5.76579 4.50966 5.2477 4.87868 4.87868C5.2477 4.50966 5.7658 4.26907 6.74416 4.13753C7.5658 4.02707 8.60553 4.00531 9.99985 4.00104C10.002 4.00103 10.0031 4.00103 10.0031 4.00103C10.5553 3.99933 11 3.55332 11 3.00104C11 3.00104 11 3.00069 11 2.99999Z" fill="black"/>
<path d="M12.8518 9.38831C12.2618 10.2862 11.7839 11.1323 11.4215 11.8276L10.5895 8.77294C10.4444 8.24007 9.89472 7.92575 9.36185 8.07089C8.82898 8.21603 8.51466 8.76567 8.6598 9.29854L9.6368 12.8855C9.76706 13.3641 9.89124 13.8203 10.0443 14.1755C10.2147 14.5708 10.4889 15.0087 11.016 15.2544C11.543 15.5002 12.0547 15.4288 12.467 15.3052C12.8375 15.1942 13.2668 14.9961 13.7172 14.7882L17.0929 13.231C17.5944 12.9996 17.8135 12.4056 17.5821 11.9041C17.3508 11.4026 16.7567 11.1836 16.2552 11.4149L13.1443 12.8499C13.4868 12.186 13.9481 11.3618 14.5232 10.4867C15.9238 8.35532 17.9203 6.04377 20.4138 4.91036C20.9166 4.68183 21.1389 4.08898 20.9104 3.58619C20.6818 3.08341 20.089 2.86109 19.5862 3.08963C16.5797 4.45622 14.3262 7.14466 12.8518 9.38831Z" fill="black"/>
</svg>
