<svg width="24" height="24" viewBox="0 0 24 24" fill="none" xmlns="http://www.w3.org/2000/svg">
<path fill-rule="evenodd" clip-rule="evenodd" d="M2 5C2 3.34315 3.34315 2 5 2H11C12.6569 2 14 3.34315 14 5V18C14 19.6569 12.6569 21 11 21H5C3.34315 21 2 19.6569 2 18V5ZM5 4C4.44772 4 4 4.44772 4 5V18C4 18.5523 4.44772 19 5 19H11C11.5523 19 12 18.5523 12 18V5C12 4.44772 11.5523 4 11 4H5ZM15 5C15 3.34315 16.3431 2 18 2C19.6569 2 21 3.34315 21 5V8C21 9.65685 19.6569 11 18 11C16.3431 11 15 9.65685 15 8V5ZM18 4C17.4477 4 17 4.44772 17 5V8C17 8.55228 17.4477 9 18 9C18.5523 9 19 8.55229 19 8V5C19 4.44772 18.5523 4 18 4ZM18 14C17.4477 14 17 14.4477 17 15V18C17 18.5523 17.4477 19 18 19C18.5523 19 19 18.5523 19 18V15C19 14.4477 18.5523 14 18 14ZM15 15C15 13.3431 16.3431 12 18 12C19.6569 12 21 13.3431 21 15V18C21 19.6569 19.6569 21 18 21C16.3431 21 15 19.6569 15 18V15Z" fill="black" fill-opacity="0.85"/>
</svg>
