<svg width="24" height="24" viewBox="0 0 24 24" fill="none" xmlns="http://www.w3.org/2000/svg">
<path d="M8.66667 12C8.66667 10.1645 10.1645 8.66667 12 8.66667C13.8355 8.66667 15.3333 10.1645 15.3333 12C15.3333 13.8355 13.8355 15.3333 12 15.3333C10.1645 15.3333 8.66667 13.8355 8.66667 12Z" fill="black" fill-opacity="0.85"/>
<path d="M21.9993 11.4949C21.9991 11.6631 21.9989 11.8315 21.9989 12C21.9989 12.1885 21.9992 12.3768 21.9994 12.5648C22.0012 13.7547 22.003 14.9375 21.9338 16.1278C21.8563 17.7289 21.4936 19.1473 20.3203 20.3206C19.1495 21.4914 17.7286 21.8567 16.1275 21.9342C14.9174 22.0023 13.7149 22.001 12.5049 21.9996C12.3367 21.9994 12.1684 21.9993 11.9998 21.9993C11.8316 21.9993 11.6636 21.9994 11.4956 21.9996C10.2873 22.001 9.0845 22.0023 7.8721 21.9342C6.27105 21.8567 4.85262 21.4939 3.67935 20.3206C2.50858 19.1498 2.14334 17.7289 2.06579 16.1278C1.9977 14.9175 1.99903 13.7131 2.00037 12.5043C2.00056 12.3363 2.00074 12.1682 2.00074 12C2.00074 11.8318 2.00056 11.6637 2.00037 11.4958C1.99903 10.2874 1.9977 9.08463 2.06579 7.87221C2.14334 6.27113 2.50608 4.85267 3.67935 3.67938C4.85012 2.50859 6.27105 2.14334 7.8721 2.06579C9.08226 1.9977 10.2847 1.99903 11.4947 2.00037C11.6629 2.00056 11.8313 2.00074 11.9998 2.00074C12.168 2.00074 12.3361 2.00056 12.504 2.00037C13.7124 1.99903 14.9151 1.9977 16.1275 2.06579C17.7286 2.14334 19.147 2.50609 20.3203 3.67938C21.4911 4.85017 21.8563 6.27113 21.9338 7.87221C22.0019 9.0824 22.0006 10.2849 21.9993 11.4949ZM6.86644 12C6.86644 14.8394 9.15795 17.131 11.9973 17.131C14.8367 17.131 17.1282 14.8394 17.1282 12C17.1282 9.16058 14.8367 6.86903 11.9973 6.86903C9.15795 6.86903 6.86644 9.16058 6.86644 12ZM16.14 6.65889C16.14 7.32184 16.6754 7.8572 17.3383 7.8572C18.0013 7.8572 18.5341 7.32434 18.5366 6.65889C18.5366 5.99594 18.0013 5.46058 17.3383 5.46058C16.6754 5.46058 16.14 5.99594 16.14 6.65889Z" fill="black" fill-opacity="0.85"/>
</svg>
