<svg width="24" height="24" viewBox="0 0 24 24" fill="none" xmlns="http://www.w3.org/2000/svg">
<path d="M7.5 10C8.05228 10 8.5 9.55228 8.5 9C8.5 8.44772 8.05228 8 7.5 8C6.94772 8 6.5 8.44772 6.5 9C6.5 9.55228 6.94772 10 7.5 10Z" fill="black" fill-opacity="0.85"/>
<path d="M10.5 10C11.0523 10 11.5 9.55228 11.5 9C11.5 8.44772 11.0523 8 10.5 8C9.94772 8 9.5 8.44772 9.5 9C9.5 9.55228 9.94772 10 10.5 10Z" fill="black" fill-opacity="0.85"/>
<path d="M14.5 9C14.5 9.55228 14.0523 10 13.5 10C12.9477 10 12.5 9.55228 12.5 9C12.5 8.44772 12.9477 8 13.5 8C14.0523 8 14.5 8.44772 14.5 9Z" fill="black" fill-opacity="0.85"/>
<path d="M9 13C9.55228 13 10 12.5523 10 12C10 11.4477 9.55228 11 9 11C8.44772 11 8 11.4477 8 12C8 12.5523 8.44772 13 9 13Z" fill="black" fill-opacity="0.85"/>
<path d="M13 12C13 12.5523 12.5523 13 12 13C11.4477 13 11 12.5523 11 12C11 11.4477 11.4477 11 12 11C12.5523 11 13 11.4477 13 12Z" fill="black" fill-opacity="0.85"/>
<path d="M15 13C15.5523 13 16 12.5523 16 12C16 11.4477 15.5523 11 15 11C14.4477 11 14 11.4477 14 12C14 12.5523 14.4477 13 15 13Z" fill="black" fill-opacity="0.85"/>
<path d="M17.5 9C17.5 9.55228 17.0523 10 16.5 10C15.9477 10 15.5 9.55228 15.5 9C15.5 8.44772 15.9477 8 16.5 8C17.0523 8 17.5 8.44772 17.5 9Z" fill="black" fill-opacity="0.85"/>
<path d="M8.5 16.45V14.45H15.5V16.45H8.5Z" fill="black" fill-opacity="0.85"/>
<path fill-rule="evenodd" clip-rule="evenodd" d="M2 8C2 5.79086 3.79086 4 6 4H18C20.2091 4 22 5.79086 22 8V16C22 18.2091 20.2091 20 18 20H6C3.79086 20 2 18.2091 2 16V8ZM6 6H18C19.1046 6 20 6.89543 20 8V16C20 17.1046 19.1046 18 18 18H6C4.89543 18 4 17.1046 4 16V8C4 6.89543 4.89543 6 6 6Z" fill="black" fill-opacity="0.85"/>
</svg>
