<svg width="24" height="24" viewBox="0 0 24 24" fill="none" xmlns="http://www.w3.org/2000/svg">
<path d="M16.2427 12C14.6806 13.5621 12.1479 13.5621 10.5858 12L9.17161 13.4142C11.5148 15.7574 15.3137 15.7574 17.6569 13.4142L20.4853 10.5858C22.4379 8.63317 22.4379 5.46735 20.4853 3.51473C18.5327 1.56211 15.3669 1.56211 13.4143 3.51473L10.4549 6.4741L11.8691 7.88831L14.8285 4.92894C16 3.75737 17.8995 3.75737 19.0711 4.92894C20.2427 6.10051 20.2427 8.00001 19.0711 9.17158L16.2427 12Z" fill="black"/>
<path d="M7.7574 12C9.3195 10.4379 11.8522 10.4379 13.4143 12L14.8285 10.5858C12.4853 8.24265 8.68633 8.24265 6.34319 10.5858L3.51476 13.4142C1.56214 15.3668 1.56214 18.5327 3.51476 20.4853C5.46738 22.4379 8.63321 22.4379 10.5858 20.4853L13.5452 17.5259L12.131 16.1117L9.17161 19.0711C8.00004 20.2426 6.10054 20.2426 4.92897 19.0711C3.7574 17.8995 3.7574 16 4.92897 14.8284L7.7574 12Z" fill="black"/>
</svg>
