<svg width="24" height="24" viewBox="0 0 24 24" fill="none" xmlns="http://www.w3.org/2000/svg">
<path d="M12 14C12.5523 14 13 14.4477 13 15V17C13 17.5523 12.5523 18 12 18C11.4477 18 11 17.5523 11 17V15C11 14.4477 11.4477 14 12 14Z" fill="black"/>
<path d="M18 9.10002V7C18 3.68629 15.3137 1 12 1C8.68632 1 6 3.68629 6 7V9.10002C3.71776 9.56329 2 11.581 2 14V18C2 20.7614 4.23858 23 7 23H17C19.7614 23 22 20.7614 22 18V14C22 11.581 20.2822 9.56329 18 9.10002ZM12 3C14.2091 3 16 4.79086 16 7V9H8V7C8 4.79086 9.79088 3 12 3ZM17 11C18.6569 11 20 12.3431 20 14V18C20 19.6569 18.6569 21 17 21H7C5.34315 21 4 19.6569 4 18V14C4 12.3431 5.34315 11 7 11H17Z" fill="black"/>
</svg>
