<?xml version="1.0" encoding="utf-8"?>
<svg xmlns="http://www.w3.org/2000/svg" fill="none" height="40" viewBox="0 0 138 40" width="138">
<path d="M26.5118 30.1229C23.8722 30.1229 21.874 29.4898 20.5173 28.2234C19.1241 26.9994 18.4271 25.175 18.4262 22.7501C18.4262 20.3029 19.1515 18.4677 20.6019 17.2444C21.9769 15.935 23.8726 15.2803 26.2892 15.2803C28.4818 15.2803 30.1819 15.8276 31.3893 16.9223C32.6332 18.0385 33.2747 19.7236 33.3137 21.9776C33.3185 22.5696 33.2811 23.1611 33.2017 23.7477H24.2255C24.4121 24.4352 24.7853 24.8756 25.345 25.0688C25.792 25.3052 26.545 25.4229 27.604 25.4221C29.4807 25.4221 31.0978 25.0145 32.4554 24.1993H32.5673V28.7061C31.0398 29.6506 29.0213 30.1229 26.5118 30.1229ZM28.1849 20.8817C28.1871 20.6672 28.1406 20.4549 28.0488 20.261C27.957 20.067 27.8223 19.8965 27.655 19.7622C27.3573 19.4835 26.9298 19.3438 26.3725 19.343C25.2389 19.343 24.5232 19.9119 24.2255 21.0497H28.1849V20.8817Z" fill="white" fill-opacity="0.85"/>
<path d="M35.2666 29.3506V15.9559H40.8991V17.9524C41.3179 17.2141 41.9495 16.6194 42.7116 16.2457C43.5173 15.8797 44.3929 15.6929 45.2778 15.6984C47.7491 15.6984 49.2547 16.5355 49.7945 18.2099C49.9985 18.768 50.1005 19.6159 50.1005 20.7537V29.3506H44.2453V22.1706C44.2453 21.3985 44.1989 20.9585 44.106 20.8507C43.9785 20.6341 43.7941 20.4566 43.5729 20.3373C43.3516 20.218 43.1019 20.1615 42.8509 20.174C42.015 20.174 41.4204 20.5389 41.0671 21.2687V29.3543L35.2666 29.3506Z" fill="white" fill-opacity="0.85"/>
<path d="M52.0524 23.7478H52.2191C53.0185 24.3068 54.0688 24.7791 55.37 25.1647C56.7085 25.4657 57.8238 25.6158 58.7162 25.615C59.2137 25.615 59.4687 25.4906 59.4687 25.2294C59.476 25.1658 59.4699 25.1015 59.4509 25.0404C59.4318 24.9794 59.4002 24.923 59.358 24.8748C59.2647 24.8102 59.0321 24.7504 58.6602 24.682L56.8764 24.2305C55.2966 23.8449 54.107 23.3083 53.3075 22.6208C52.5819 21.9781 52.2191 21.0875 52.2191 19.9489C52.2191 18.622 52.8236 17.57 54.0328 16.793C55.2593 15.9994 57.0713 15.6025 59.4687 15.6025C60.4878 15.6255 61.5038 15.722 62.5089 15.8911C63.587 16.1067 64.3491 16.3862 64.7953 16.7295V21.398H64.6833C64.1999 20.99 63.412 20.6355 62.3199 20.3345C61.4193 20.0919 60.4921 19.9624 59.5596 19.9489C58.8343 19.9489 58.4711 20.0732 58.4711 20.3345C58.4674 20.4002 58.4781 20.466 58.5024 20.5272C58.5266 20.5884 58.5639 20.6436 58.6117 20.689C58.8239 20.7851 59.0489 20.85 59.2797 20.8818L60.9528 21.301C62.8485 21.7513 64.1219 22.3202 64.7729 23.0077C65.4612 23.6943 65.8054 24.5531 65.8054 25.5839C65.8054 26.8063 65.229 27.8362 64.0763 28.6738C62.9418 29.5321 61.1107 29.9617 58.5831 29.9625C55.7942 29.9625 53.6193 29.4687 52.0586 28.481L52.0524 23.7478Z" fill="white" fill-opacity="0.85"/>
<path d="M80.072 28.066C78.7891 29.4186 77.0509 30.0949 74.8574 30.0949C72.6639 30.0949 70.9353 29.4294 69.6714 28.0983C68.3885 26.8105 67.7471 25.0275 67.7471 22.7494C67.7471 20.5394 68.4163 18.79 69.7548 17.5012C71.0933 16.1487 72.8223 15.4728 74.942 15.4736C77.2283 15.4736 78.957 16.1371 80.128 17.4639C81.3545 18.6664 81.9678 20.4158 81.9678 22.7121C81.9861 23.7348 81.8305 24.7532 81.5075 25.7237C81.2014 26.5978 80.7119 27.3964 80.072 28.066ZM76.3588 21.0154C76.0603 20.5858 75.5677 20.371 74.881 20.371C74.2483 20.371 73.7553 20.5858 73.402 21.0154C73.2043 21.2305 73.0609 21.4898 72.984 21.7717C72.8915 22.0795 72.8445 22.3993 72.8447 22.7208C72.8447 23.5592 73.0305 24.1712 73.402 24.5569C73.7553 24.9649 74.2483 25.1689 74.881 25.1689C75.5677 25.1689 76.0603 24.9433 76.3588 24.4922C76.7113 24.085 76.8875 23.4945 76.8875 22.7208C76.8908 21.9288 76.7146 21.3604 76.3588 21.0154Z" fill="white" fill-opacity="0.85"/>
<path d="M83.9221 29.4158V16.0211H88.6341V18.1744C88.8176 17.5355 89.1521 16.9501 89.6094 16.4677C90.0937 15.9751 90.7156 15.7284 91.4753 15.7275C92.1636 15.7275 92.6375 15.8349 92.8971 16.0497V20.8787H92.8137C92.3485 20.5793 91.763 20.4292 91.0573 20.4284C90.3881 20.4284 89.8627 20.5785 89.4812 20.8787C89.1006 21.181 88.8729 21.625 88.7983 22.1997V29.4146L83.9221 29.4158Z" fill="white" fill-opacity="0.85"/>
<path d="M117.623 28.9636V15.5702H122.336V17.7271C122.519 17.0878 122.853 16.5022 123.312 16.0205C123.795 15.5229 124.417 15.2762 125.177 15.2803C125.865 15.2803 126.339 15.3877 126.599 15.6025V20.4315H126.516C126.051 20.1321 125.465 19.982 124.759 19.9812C124.09 19.9812 123.565 20.1313 123.183 20.4315C122.802 20.7317 122.577 21.1716 122.509 21.7513V28.9661L117.623 28.9636Z" fill="white" fill-opacity="0.85"/>
<path d="M134.202 29.415C132.62 29.415 131.486 28.9535 130.8 28.0305C130.452 27.5958 130.205 27.09 130.075 26.5489C129.913 25.8526 129.838 25.139 129.852 24.4243V19.4013H128.405V15.57H129.939C129.939 15.463 129.958 15.028 129.995 14.2651C130.032 13.5021 130.051 12.6276 130.051 11.6416H134.824V15.57H136.971V19.4013H134.824V22.9104C134.824 23.5548 134.898 24.0055 135.047 24.2626C135.167 24.4014 135.318 24.5111 135.487 24.5837C135.656 24.6563 135.839 24.6898 136.023 24.6818C136.58 24.6818 136.989 24.5852 137.25 24.3919H137.389V28.7059C136.698 29.1786 135.636 29.415 134.202 29.415Z" fill="white" fill-opacity="0.85"/>
<path d="M107.209 10.1924H100.491L92.4057 29.2246H99.5708C99.5708 29.2246 103.651 17.3338 103.676 17.1833C103.825 17.6809 108.054 29.2246 108.054 29.2246H115.331L107.209 10.1924Z" fill="white" fill-opacity="0.85"/>
<path d="M103.762 22.1318L101.33 29.221H106.194L103.762 22.1318Z" fill="#37BCE5"/>
<path d="M74.8576 25.4486C76.1313 25.4486 77.1638 24.2562 77.1638 22.7853C77.1638 21.3145 76.1313 20.1221 74.8576 20.1221C73.5839 20.1221 72.5513 21.3145 72.5513 22.7853C72.5513 24.2562 73.5839 25.4486 74.8576 25.4486Z" fill="#37BCE5"/>
<path d="M5.17092 10H1V15.4099H5.17092V10Z" fill="#37BCE5"/>
<path d="M6.32038 10L6.26938 29.4154H12.9891V15.4086H18.4264V10H6.32038Z" fill="white" fill-opacity="0.85"/>
</svg>