<svg width="24" height="24" viewBox="0 0 24 24" fill="none" xmlns="http://www.w3.org/2000/svg">
<path fill-rule="evenodd" clip-rule="evenodd" d="M4.5 2C2.84315 2 1.5 3.34315 1.5 5V17.5C1.5 19.1569 2.84315 20.5 4.5 20.5H9C9.80275 20.5 10.3365 20.5915 10.6465 20.7588C10.7791 20.8303 10.8506 20.9054 10.8964 20.9854C10.9444 21.0692 11 21.2219 11 21.5C11 22.0523 11.4477 22.5 12 22.5C12.5523 22.5 13 22.0523 13 21.5C13 21.2219 13.0556 21.0692 13.1036 20.9854C13.1494 20.9054 13.2209 20.8303 13.3535 20.7588C13.6635 20.5915 14.1972 20.5 15 20.5H19.5C21.1569 20.5 22.5 19.1569 22.5 17.5V5C22.5 3.34315 21.1569 2 19.5 2H16C14.3644 2 12.9122 2.78534 12 3.99951C11.0878 2.78534 9.6356 2 8 2H4.5ZM11 7C11 5.34313 9.65687 4 8 4H4.5C3.94772 4 3.5 4.44772 3.5 5V17.5C3.5 18.0523 3.94772 18.5 4.5 18.5H9C9.64616 18.5 10.3565 18.5458 11 18.7494V7ZM13 18.7494C13.6435 18.5458 14.3538 18.5 15 18.5H19.5C20.0523 18.5 20.5 18.0523 20.5 17.5V5C20.5 4.44772 20.0523 4 19.5 4H16C14.3431 4 13 5.34313 13 7V18.7494Z" fill="black"/>
</svg>
