<svg width="24" height="24" viewBox="0 0 24 24" fill="none" xmlns="http://www.w3.org/2000/svg">
<path d="M7.9995 8.00101C9.10379 8.00101 9.999 7.10581 9.999 6.00151C9.999 4.89722 9.10379 4.00201 7.9995 4.00201C6.89521 4.00201 6 4.89722 6 6.00151C6 7.10581 6.89521 8.00101 7.9995 8.00101Z" fill="black"/>
<path d="M7.9995 14.001C9.10379 14.001 9.999 13.1058 9.999 12.0015C9.999 10.8972 9.10379 10.002 7.9995 10.002C6.89521 10.002 6 10.8972 6 12.0015C6 13.1058 6.89521 14.001 7.9995 14.001Z" fill="black"/>
<path d="M7.9995 20.001C9.10379 20.001 9.999 19.1058 9.999 18.0015C9.999 16.8972 9.10379 16.002 7.9995 16.002C6.89521 16.002 6 16.8972 6 18.0015C6 19.1058 6.89521 20.001 7.9995 20.001Z" fill="black"/>
<path d="M16.0005 8.00101C17.1048 8.00101 18 7.10581 18 6.00151C18 4.89722 17.1048 4.00201 16.0005 4.00201C14.8962 4.00201 14.001 4.89722 14.001 6.00151C14.001 7.10581 14.8962 8.00101 16.0005 8.00101Z" fill="black"/>
<path d="M16.0005 14.001C17.1048 14.001 18 13.1058 18 12.0015C18 10.8972 17.1048 10.002 16.0005 10.002C14.8962 10.002 14.001 10.8972 14.001 12.0015C14.001 13.1058 14.8962 14.001 16.0005 14.001Z" fill="black"/>
<path d="M16.0005 20.001C17.1048 20.001 18 19.1058 18 18.0015C18 16.8972 17.1048 16.002 16.0005 16.002C14.8962 16.002 14.001 16.8972 14.001 18.0015C14.001 19.1058 14.8962 20.001 16.0005 20.001Z" fill="black"/>
</svg>
