<svg width="24" height="24" viewBox="0 0 24 24" fill="none" xmlns="http://www.w3.org/2000/svg">
<path d="M3.41919 2.18321C3.73009 1.96361 4.1387 1.93955 4.47321 2.12115L21.9732 11.6211C22.3582 11.8301 22.5623 12.2653 22.4769 12.695C22.3915 13.1246 22.0364 13.4487 21.6008 13.4945L12.6022 14.4417L7.85534 22.5072C7.6412 22.8711 7.22164 23.0612 6.80688 22.9824C6.39212 22.9036 6.07153 22.5729 6.00574 22.1558L3.00834 3.15583C2.94902 2.77985 3.1083 2.4028 3.41919 2.18321ZM5.29962 4.84546L7.54661 19.0887L11.1343 12.9928C11.2951 12.7195 11.5761 12.5387 11.8914 12.5055L18.1891 11.8426L5.29962 4.84546Z" fill="black"/>
</svg>
