<svg width="24" height="24" viewBox="0 0 24 24" fill="none" xmlns="http://www.w3.org/2000/svg">
<g clip-path="url(#clip0_2780_95901)">
<path d="M11.9294 1.21679e-06H12.0706C13.4247 -3.41884e-05 14.5413 -6.35162e-05 15.4251 0.118755C16.3529 0.243498 17.1723 0.515467 17.8284 1.17158C18.4845 1.82768 18.7565 2.64711 18.8813 3.57494C19.0001 4.4587 19 5.57531 19 6.92943V17.0706C19 18.4247 19.0001 19.5413 18.8813 20.4251C18.7565 21.3529 18.4845 22.1723 17.8284 22.8284C17.1723 23.4845 16.3529 23.7565 15.4251 23.8813C14.5413 24.0001 13.4247 24 12.0705 24H11.9295C10.5753 24 9.4587 24.0001 8.57494 23.8813C7.64711 23.7565 6.82768 23.4845 6.17158 22.8284C5.51547 22.1723 5.2435 21.3529 5.11875 20.4251C4.99994 19.5413 4.99997 18.4247 5 17.0706V6.92943C4.99997 5.57531 4.99994 4.4587 5.11875 3.57494C5.2435 2.64711 5.51547 1.82768 6.17158 1.17158C6.82768 0.515467 7.64711 0.243498 8.57494 0.118755C9.4587 -6.35162e-05 10.5753 -3.41884e-05 11.9294 1.21679e-06ZM8.84143 2.10092C8.13538 2.19585 7.80836 2.36322 7.58579 2.58579C7.36322 2.80836 7.19585 3.13538 7.10092 3.84143C7.00213 4.57625 7 5.55752 7 7V17C7 18.4425 7.00213 19.4237 7.10092 20.1586C7.19585 20.8646 7.36322 21.1916 7.58579 21.4142C7.80836 21.6368 8.13538 21.8042 8.84143 21.8991C9.57625 21.9979 10.5575 22 12 22C13.4425 22 14.4238 21.9979 15.1586 21.8991C15.8646 21.8042 16.1916 21.6368 16.4142 21.4142C16.6368 21.1916 16.8042 20.8646 16.8991 20.1586C16.9979 19.4237 17 18.4425 17 17V7C17 5.55752 16.9979 4.57625 16.8991 3.84143C16.8042 3.13538 16.6368 2.80836 16.4142 2.58579C16.1916 2.36322 15.8646 2.19585 15.1586 2.10092C14.4238 2.00213 13.4425 2 12 2C10.5575 2 9.57625 2.00213 8.84143 2.10092Z" fill="black"/>
</g>
<defs>
<clipPath id="clip0_2780_95901">
<rect width="24" height="24" fill="white"/>
</clipPath>
</defs>
</svg>
