<svg width="24" height="24" viewBox="0 0 24 24" fill="none" xmlns="http://www.w3.org/2000/svg">
<circle cx="12" cy="12" r="11" fill="#1AFF9F" fill-opacity="0.8"/>
<g filter="url(#filter0_d_20980_104840)">
<path fill-rule="evenodd" clip-rule="evenodd" d="M5 7.12126V8.94734H6.18767V18.4736H8.57131V10.6926L5 7.12126ZM11.2308 13.352C11.1878 13.4241 11.1475 13.4983 11.1099 13.5745C10.905 13.9842 10.8026 14.4438 10.8026 14.9532C10.8026 15.7117 10.9825 16.3513 11.3424 16.8717C11.7023 17.3867 12.1924 17.777 12.8125 18.0428C13.4326 18.303 14.1331 18.4331 14.9138 18.4331C15.3641 18.4331 15.7869 18.3898 16.182 18.3032L14.3788 16.5C14.2472 16.4659 14.1237 16.4181 14.0085 16.3568C13.7538 16.2128 13.5544 16.008 13.4105 15.7422C13.355 15.6357 13.3107 15.5212 13.2774 15.3987L11.2308 13.352ZM16.5681 14.4467C16.5364 14.2209 16.4722 14.0187 16.3755 13.8403C16.2371 13.569 16.0405 13.3613 15.7858 13.2174C15.5929 13.1083 15.3761 13.0406 15.1355 13.0141L11.087 8.96565C11.1383 8.41395 11.2955 7.93756 11.5584 7.53649C11.8906 7.03263 12.3446 6.65059 12.9205 6.39035C13.5018 6.13012 14.1607 6 14.8971 6C15.6446 6 16.3063 6.13012 16.8821 6.39035C17.4635 6.65059 17.9175 7.03263 18.2442 7.53649C18.5764 8.03482 18.7425 8.64941 18.7425 9.38029C18.7425 9.99488 18.5792 10.5403 18.2525 11.0164C17.9603 11.4375 17.5661 11.7766 17.07 12.0336C17.6601 12.3085 18.1262 12.6892 18.4685 13.1758C18.8228 13.6797 19 14.2722 19 14.9532C19 15.558 18.8874 16.0872 18.6621 16.5407L16.5681 14.4467ZM16.3506 9.48826C16.3506 9.16158 16.2924 8.8792 16.1762 8.64111C16.0599 8.39748 15.8938 8.20923 15.6779 8.07634C15.4674 7.94346 15.2072 7.87701 14.8971 7.87701C14.5982 7.87701 14.3407 7.94069 14.1247 8.06804C13.9143 8.19539 13.751 8.38087 13.6347 8.6245C13.524 8.86259 13.4686 9.1505 13.4686 9.48826C13.4686 9.81493 13.524 10.1029 13.6347 10.352C13.751 10.5956 13.9171 10.7867 14.1331 10.9251C14.349 11.0635 14.6092 11.1327 14.9138 11.1327C15.2183 11.1327 15.4758 11.0635 15.6862 10.9251C15.9021 10.7867 16.0654 10.5956 16.1762 10.352C16.2924 10.1029 16.3506 9.81493 16.3506 9.48826Z" fill="#2491FF"/>
</g>
<g filter="url(#filter1_d_20980_104840)">
<rect x="5.46582" y="6.78223" width="1.811" height="16.6319" transform="rotate(-45 5.46582 6.78223)" fill="#2491FF"/>
</g>
<defs>
<filter id="filter0_d_20980_104840" x="3" y="4" width="18" height="16.4736" filterUnits="userSpaceOnUse" color-interpolation-filters="sRGB">
<feFlood flood-opacity="0" result="BackgroundImageFix"/>
<feColorMatrix in="SourceAlpha" type="matrix" values="0 0 0 0 0 0 0 0 0 0 0 0 0 0 0 0 0 0 127 0" result="hardAlpha"/>
<feOffset/>
<feGaussianBlur stdDeviation="1"/>
<feComposite in2="hardAlpha" operator="out"/>
<feColorMatrix type="matrix" values="0 0 0 0 0.141176 0 0 0 0 0.568627 0 0 0 0 1 0 0 0 0.5 0"/>
<feBlend mode="normal" in2="BackgroundImageFix" result="effect1_dropShadow_20980_104840"/>
<feBlend mode="normal" in="SourceGraphic" in2="effect1_dropShadow_20980_104840" result="shape"/>
</filter>
<filter id="filter1_d_20980_104840" x="3.46582" y="3.50171" width="17.041" height="17.0411" filterUnits="userSpaceOnUse" color-interpolation-filters="sRGB">
<feFlood flood-opacity="0" result="BackgroundImageFix"/>
<feColorMatrix in="SourceAlpha" type="matrix" values="0 0 0 0 0 0 0 0 0 0 0 0 0 0 0 0 0 0 127 0" result="hardAlpha"/>
<feOffset/>
<feGaussianBlur stdDeviation="1"/>
<feComposite in2="hardAlpha" operator="out"/>
<feColorMatrix type="matrix" values="0 0 0 0 0.141176 0 0 0 0 0.568627 0 0 0 0 1 0 0 0 0.5 0"/>
<feBlend mode="normal" in2="BackgroundImageFix" result="effect1_dropShadow_20980_104840"/>
<feBlend mode="normal" in="SourceGraphic" in2="effect1_dropShadow_20980_104840" result="shape"/>
</filter>
</defs>
</svg>
