<svg width="24" height="24" viewBox="0 0 24 24" fill="none" xmlns="http://www.w3.org/2000/svg">
<path d="M12.4248 13.1621H10.2056V13.1328C10.8574 11.668 11.5459 10.4155 12.2856 9.08984H12.4248V13.1621Z" fill="black" fill-opacity="0.85"/>
<path fill-rule="evenodd" clip-rule="evenodd" d="M12 23C18.0751 23 23 18.0751 23 12C23 5.92487 18.0751 1 12 1C5.92487 1 1 5.92487 1 12C1 18.0751 5.92487 23 12 23ZM15.2739 7.00244H10.938C10.7948 7.25795 10.651 7.51382 10.5069 7.77016C9.52366 9.51979 8.52819 11.2911 7.62744 13.1182V15.4985H12.4248V17H15.2739V15.4985H16.3652V13.1621H15.2739V7.00244Z" fill="black" fill-opacity="0.85"/>
</svg>
