<svg width="24" height="24" viewBox="0 0 24 24" fill="none" xmlns="http://www.w3.org/2000/svg">
<path fill-rule="evenodd" clip-rule="evenodd" d="M12 23C18.0751 23 23 18.0751 23 12C23 5.92487 18.0751 1 12 1C5.92487 1 1 5.92487 1 12C1 18.0751 5.92487 23 12 23ZM8.06689 10.335H10.9233V10.1226C10.9233 9.58789 11.3408 9.17773 11.8755 9.17773C12.4248 9.17773 12.813 9.55127 12.813 10.0713C12.813 10.5693 12.5347 11.0088 11.7437 11.7705L8.28662 15.1177V17H15.9697V14.627H12.3882V14.5098L13.9702 12.957C15.3838 11.5728 15.8086 10.8257 15.8086 9.7417C15.8086 8.00586 14.2925 6.84131 12.0366 6.84131C9.75146 6.84131 8.06689 8.24023 8.06689 10.1519V10.335Z" fill="black" fill-opacity="0.85"/>
</svg>
