<svg width="24" height="24" viewBox="0 0 24 24" fill="none" xmlns="http://www.w3.org/2000/svg">
<path d="M11 3.00104C11 2.44876 10.5491 1.99928 9.9968 2.00105L9.99999 2.00104C8.60892 2.00549 7.41584 2.02924 6.47767 2.15538C5.27752 2.31673 4.26702 2.66192 3.46447 3.46448C2.66191 4.26704 2.31672 5.27753 2.15537 6.47768C1.99995 7.63363 1.99997 9.10338 2 10.9268V13.0732C1.99997 14.8966 1.99995 16.3664 2.15537 17.5223C2.31672 18.7225 2.66191 19.733 3.46447 20.5355C4.26702 21.3381 5.27752 21.6833 6.47767 21.8447C7.63363 22.0001 9.1034 22 10.9269 22H13.0731C14.8966 22 16.3664 22.0001 17.5223 21.8447C18.7225 21.6833 19.733 21.3381 20.5355 20.5355C21.3381 19.733 21.6833 18.7225 21.8446 17.5223C21.9708 16.5842 21.9945 15.3911 21.999 14C21.999 13.4492 21.5502 13 20.999 13C20.4467 13 20.0007 13.4447 19.999 13.9969L19.999 14.0002C19.9947 15.3945 19.9729 16.4342 19.8625 17.2559C19.7309 18.2342 19.4903 18.7523 19.1213 19.1213C18.7523 19.4904 18.2342 19.7309 17.2558 19.8625C16.2487 19.9979 14.9139 20 13 20H11C9.08611 20 7.7513 19.9979 6.74416 19.8625C5.76579 19.7309 5.2477 19.4904 4.87868 19.1213C4.50966 18.7523 4.26907 18.2342 4.13753 17.2559C4.00213 16.2487 4 14.9139 4 13V11C4 9.08612 4.00213 7.75131 4.13753 6.74417C4.26907 5.76581 4.50966 5.24771 4.87868 4.87869C5.2477 4.50968 5.7658 4.26908 6.74416 4.13754C7.5658 4.02708 8.60553 4.00532 9.99985 4.00105L10.0031 4.00104C10.5553 3.99935 11 3.55332 11 3.00104Z" fill="black"/>
<path d="M15.0831 4.49654L18.3625 4.22325L10.2929 12.2927C9.90237 12.6832 9.90237 13.3164 10.2929 13.7069C10.6834 14.0974 11.3166 14.0974 11.7071 13.7069L19.7768 5.63741L19.5035 8.91695C19.4576 9.46732 19.8666 9.95067 20.417 9.99654C20.9674 10.0424 21.4507 9.63341 21.4966 9.08304L21.8053 5.37822C21.8466 4.88395 21.886 4.41278 21.8636 4.02666C21.8387 3.59697 21.7308 3.09165 21.3196 2.68047C20.9084 2.26928 20.4031 2.16136 19.9734 2.13645C19.5873 2.11407 19.1161 2.15342 18.6218 2.1947L14.917 2.50345C14.3666 2.54931 13.9576 3.03266 14.0035 3.58304C14.0494 4.13341 14.5327 4.5424 15.0831 4.49654Z" fill="black"/>
</svg>
