<svg width="24" height="24" viewBox="0 0 24 24" fill="none" xmlns="http://www.w3.org/2000/svg">
<path d="M3 2.5C1.89543 2.5 1 3.39543 1 4.5V20.5C1 20.9943 1.36085 21.4128 1.84627 21.4881C1.86546 21.4911 1.88479 21.4935 1.90422 21.4954C1.94067 21.4989 1.97691 21.5004 2.01284 21.5H20C20.4767 21.5 20.8871 21.1635 20.9806 20.6961L22.9806 10.6961C23.0393 10.4023 22.9633 10.0977 22.7734 9.86601C22.5834 9.63432 22.2996 9.5 22 9.5H20.75V7.5C20.75 6.39542 19.8546 5.5 18.75 5.5H12.4684L10.2682 2.85982C10.0782 2.63182 9.79678 2.5 9.5 2.5H3ZM18.75 9.5H4.40626C3.94409 9.5 3.54213 9.81671 3.43401 10.2661L3 12.0697V4.5H9.03162L11.2318 7.14018C11.4218 7.36818 11.7032 7.5 12 7.5H18.75V9.5ZM3.28078 19.5L5.28078 11.5H20.7802L19.1802 19.5H3.28078Z" fill="black"/>
</svg>
