<svg width="24" height="24" viewBox="0 0 24 24" fill="none" xmlns="http://www.w3.org/2000/svg">
<path d="M9.99646 3.58302C9.9506 4.1334 9.46725 4.54239 8.91687 4.49653L5.63742 4.22324L9.20708 7.79289C9.5976 8.18342 9.5976 8.81658 9.20708 9.20711C8.81656 9.59763 8.18339 9.59763 7.79287 9.20711L4.22317 5.63741L4.49646 8.91693C4.54233 9.46731 4.13334 9.95066 3.58296 9.99652C3.03259 10.0424 2.54924 9.6334 2.50337 9.08302L2.19463 5.37821C2.15335 4.88394 2.114 4.41277 2.13638 4.02664C2.16129 3.59696 2.26921 3.09164 2.6804 2.68046C3.09158 2.26927 3.5969 2.16135 4.02658 2.13644C4.41271 2.11406 4.88387 2.15341 5.37815 2.19469L9.08296 2.50343C9.63334 2.5493 10.0423 3.03265 9.99646 3.58302Z" fill="black"/>
<path d="M19.5035 8.91693L19.7768 5.63741L16.2071 9.20711C15.8166 9.59763 15.1834 9.59763 14.7929 9.20711C14.4023 8.81658 14.4023 8.18342 14.7929 7.79289L18.3625 4.22324L15.0831 4.49653C14.5327 4.54239 14.0493 4.1334 14.0035 3.58302C13.9576 3.03265 14.3666 2.5493 14.917 2.50343L18.6218 2.19469C19.1161 2.15341 19.5872 2.11406 19.9734 2.13644C20.403 2.16135 20.9084 2.26927 21.3196 2.68046C21.7307 3.09164 21.8387 3.59696 21.8636 4.02664C21.8859 4.41277 21.8466 4.88394 21.8053 5.37821L21.4966 9.08302C21.4507 9.6334 20.9674 10.0424 20.417 9.99653C19.8666 9.95066 19.4576 9.46731 19.5035 8.91693Z" fill="black"/>
<path d="M4.49656 15.083C4.54242 14.5327 4.13344 14.0493 3.58306 14.0034C3.03268 13.9576 2.54933 14.3666 2.50347 14.9169L2.19473 18.6218C2.15345 19.116 2.1141 19.5872 2.13648 19.9733C2.16138 20.403 2.26931 20.9083 2.68049 21.3195C3.09168 21.7307 3.59699 21.8386 4.02668 21.8635C4.4128 21.8859 4.88397 21.8466 5.37824 21.8053L9.08306 21.4965C9.63344 21.4507 10.0424 20.9673 9.99656 20.4169C9.9507 19.8666 9.46735 19.4576 8.91697 19.5034L5.63745 19.7767L9.20708 16.2071C9.5976 15.8166 9.5976 15.1834 9.20708 14.7929C8.81656 14.4024 8.18339 14.4024 7.79287 14.7929L4.22327 18.3625L4.49656 15.083Z" fill="black"/>
<path d="M16.2071 14.7929L19.7767 18.3625L19.5034 15.083C19.4575 14.5327 19.8665 14.0493 20.4169 14.0034C20.9673 13.9576 21.4506 14.3666 21.4965 14.9169L21.8052 18.6218C21.8465 19.116 21.8858 19.5872 21.8635 19.9733C21.8386 20.403 21.7306 20.9083 21.3195 21.3195C20.9083 21.7307 20.403 21.8386 19.9733 21.8635C19.5871 21.8859 19.116 21.8466 18.6217 21.8053L14.9169 21.4965C14.3665 21.4507 13.9575 20.9673 14.0034 20.4169C14.0493 19.8666 14.5326 19.4576 15.083 19.5034L18.3625 19.7767L14.7929 16.2071C14.4023 15.8166 14.4023 15.1834 14.7929 14.7929C15.1834 14.4024 15.8166 14.4024 16.2071 14.7929Z" fill="black"/>
</svg>
