<svg width="24" height="24" viewBox="0 0 24 24" fill="none" xmlns="http://www.w3.org/2000/svg">
<path d="M12 8.5C10.3431 8.5 9 9.84315 9 11.5V12.5C9 14.1569 10.3431 15.5 12 15.5C13.6569 15.5 15 14.1569 15 12.5V11.5C15 9.84315 13.6569 8.5 12 8.5ZM11 11.5C11 10.9477 11.4477 10.5 12 10.5C12.5523 10.5 13 10.9477 13 11.5V12.5C13 13.0523 12.5523 13.5 12 13.5C11.4477 13.5 11 13.0523 11 12.5V11.5Z" fill="black"/>
<path d="M4 5C2.34315 5 1 6.34315 1 8V16C1 17.4497 2.02835 18.6593 3.3954 18.9391C3.59069 18.979 3.79289 19 4 19H20C21.6569 19 23 17.6569 23 16V8C23 6.34315 21.6569 5 20 5H4ZM21 8V8.90787C19.6464 8.65007 18.6685 7.88222 18.2404 7H20C20.5523 7 21 7.44772 21 8ZM21 10.9289V13.0711C18.6618 13.4048 16.6134 14.8884 16.1153 17H7.88475C7.38664 14.8884 5.33822 13.4048 3 13.0711V10.9289C5.33822 10.5952 7.38664 9.11157 7.88475 7H16.1153C16.6134 9.11157 18.6618 10.5952 21 10.9289ZM18.2404 17C18.6685 16.1178 19.6464 15.3499 21 15.0921V16C21 16.5523 20.5523 17 20 17H18.2404ZM3 16V15.0921C4.3536 15.3499 5.33154 16.1178 5.75957 17H4C3.44772 17 3 16.5523 3 16ZM5.75957 7C5.33154 7.88222 4.3536 8.65007 3 8.90787V8C3 7.96548 3.00175 7.93137 3.00516 7.89776C3.05637 7.3935 3.48223 7 4 7H5.75957Z" fill="black"/>
</svg>
