<svg width="24" height="24" viewBox="0 0 24 24" fill="none" xmlns="http://www.w3.org/2000/svg">
<path d="M7.92943 1H11.0706C12.4247 0.999968 13.5413 0.999941 14.4251 1.11876C15.3529 1.2435 16.1723 1.51547 16.8284 2.17158C17.4845 2.82769 17.7565 3.64711 17.8813 4.57494C17.9386 5.00112 17.9682 5.48145 17.9836 6.01645C18.5186 6.0318 18.9989 6.06146 19.4251 6.11876C20.3529 6.2435 21.1723 6.51547 21.8284 7.17158C22.4845 7.82769 22.7565 8.64711 22.8813 9.57494C22.9698 10.2336 22.9923 11.0608 22.9981 11.9999C22.9981 12.004 22.998 11.9939 22.998 11.9939C23.0014 12.5462 22.5504 13 21.9981 13C21.9981 13 22.0013 13 22 13C21.9988 13 21.9981 13 21.9981 13C21.4459 13 21.0013 12.558 20.9982 12.0057C20.9982 12.0057 20.9981 12.0038 20.9981 12C20.9929 11.0816 20.9731 10.3923 20.8991 9.84144C20.8042 9.13538 20.6368 8.80836 20.4142 8.58579C20.1916 8.36322 19.8646 8.19585 19.1586 8.10092C18.4238 8.00213 17.4425 8 16 8H13C11.5575 8 10.5763 8.00213 9.84144 8.10092C9.13538 8.19585 8.80836 8.36322 8.58579 8.58579C8.36322 8.80836 8.19585 9.13538 8.10092 9.84144C8.00213 10.5763 8 11.5575 8 13V16C8 17.4425 8.00213 18.4238 8.10092 19.1586C8.19585 19.8646 8.36322 20.1916 8.58579 20.4142C8.80836 20.6368 9.13538 20.8042 9.84144 20.8991C10.3923 20.9731 11.0816 20.9929 12 20.9981C12.0038 20.9981 12.0057 20.9982 12.0057 20.9982C12.558 21.0013 13 21.4458 13 21.9981C13 21.9981 13 21.9988 13 22C13 22.0013 13 21.9981 13 21.9981C13 22.5503 12.5462 23.0014 11.9939 22.998C11.9939 22.998 12.004 22.9981 11.9999 22.9981C11.0608 22.9923 10.2336 22.9698 9.57494 22.8813C8.64711 22.7565 7.82769 22.4845 7.17158 21.8284C6.51547 21.1723 6.2435 20.3529 6.11876 19.4251C6.06146 18.9989 6.0318 18.5186 6.01645 17.9836C5.48145 17.9682 5.00112 17.9386 4.57494 17.8813C3.64711 17.7565 2.82769 17.4845 2.17158 16.8284C1.51547 16.1723 1.2435 15.3529 1.11876 14.4251C0.999941 13.5413 0.999968 12.4247 1 11.0706V7.92943C0.999968 6.57535 0.999941 5.45868 1.11876 4.57494C1.2435 3.64711 1.51547 2.82769 2.17158 2.17158C2.82769 1.51547 3.64711 1.2435 4.57494 1.11876C5.45868 0.999941 6.57535 0.999968 7.92943 1ZM6 15.9823V12.9294C5.99997 11.5753 5.99994 10.4587 6.11876 9.57494C6.2435 8.64711 6.51547 7.82769 7.17158 7.17158C7.82769 6.51547 8.64711 6.2435 9.57494 6.11876C10.4587 5.99994 11.5753 5.99997 12.9294 6H15.9823C15.9683 5.55114 15.9435 5.17144 15.8991 4.84144C15.8042 4.13538 15.6368 3.80836 15.4142 3.58579C15.1916 3.36322 14.8646 3.19585 14.1586 3.10092C13.4238 3.00213 12.4425 3 11 3H8C6.55752 3 5.57626 3.00213 4.84144 3.10092C4.13538 3.19585 3.80836 3.36322 3.58579 3.58579C3.36322 3.80836 3.19585 4.13538 3.10092 4.84144C3.00213 5.57626 3 6.55752 3 8V11C3 12.4425 3.00213 13.4238 3.10092 14.1586C3.19585 14.8646 3.36322 15.1916 3.58579 15.4142C3.80836 15.6368 4.13538 15.8042 4.84144 15.8991C5.17144 15.9435 5.55114 15.9683 6 15.9823Z" fill="black"/>
<path d="M10.5 11.9999C10.5 11.4476 10.9477 10.9999 11.5 10.9999H17.5C18.0523 10.9999 18.5 11.4476 18.5 11.9999C18.5 12.5522 18.0523 12.9999 17.5 12.9999H11.5C10.9477 12.9999 10.5 12.5522 10.5 11.9999Z" fill="black"/>
<path d="M11.5 15.5C10.9477 15.5 10.5 15.9477 10.5 16.5C10.5 17.0523 10.9477 17.5 11.5 17.5H14C14.5523 17.5 15 17.0523 15 16.5C15 15.9477 14.5523 15.5 14 15.5H11.5Z" fill="black"/>
<path d="M20 15.5C20.5523 15.5 21 15.9477 21 16.5V20.238L21.7318 19.3598C22.0854 18.9355 22.7159 18.8782 23.1402 19.2318C23.5645 19.5853 23.6218 20.2159 23.2682 20.6402L22.2656 21.8433C21.9436 22.2299 21.6372 22.5977 21.3471 22.8597C21.0247 23.1508 20.5879 23.4379 20 23.4379C19.4121 23.4379 18.9754 23.1508 18.653 22.8597C18.3628 22.5977 18.0565 22.2299 17.7345 21.8434L16.7318 20.6402C16.3782 20.2159 16.4356 19.5853 16.8598 19.2318C17.2841 18.8782 17.9147 18.9355 18.2682 19.3598L19 20.2379V16.5C19 15.9477 19.4477 15.5 20 15.5Z" fill="black"/>
</svg>
