<svg width="24" height="24" viewBox="0 0 24 24" fill="none" xmlns="http://www.w3.org/2000/svg">
<path d="M18.364 2.80764C17.1925 1.63606 15.293 1.63606 14.1214 2.80763L4.4905 12.4385C4.11403 12.815 3.84453 13.2849 3.70966 13.7999L2.70634 17.6317C2.1252 19.8511 4.14901 21.8749 6.36841 21.2938L10.2002 20.2904C10.7152 20.1556 11.1851 19.8861 11.5616 19.5096L21.1925 9.8787C22.364 8.70713 22.364 6.80763 21.1925 5.63606L18.364 2.80764ZM18.7176 9.52515L14.475 5.28251L15.5356 4.22185C15.9261 3.83132 16.5593 3.83132 16.9498 4.22185L19.7783 7.05028C20.1688 7.4408 20.1688 8.07397 19.7783 8.46449L18.7176 9.52515ZM13.0607 6.69672L17.3034 10.9394L10.1474 18.0954C10.0219 18.2209 9.86524 18.3107 9.69355 18.3557L5.8618 19.359C5.122 19.5527 4.4474 18.8781 4.64111 18.1383L5.64444 14.3065C5.68939 14.1349 5.77922 13.9782 5.90472 13.8527L13.0607 6.69672Z" fill="black" fill-opacity="0.85"/>
</svg>
