<svg width="24" height="24" viewBox="0 0 24 24" fill="none" xmlns="http://www.w3.org/2000/svg">
<path d="M15.501 1.4996C15.8862 1.30641 16.3518 1.38166 16.6565 1.68635L22.3133 7.34319C22.6178 7.64763 22.6932 8.11275 22.5005 8.49778C22.3078 8.88281 21.8904 9.10131 21.4642 9.04016L19.6724 8.78306L16.7161 14.1034C17.0685 14.9246 17.2868 15.7559 17.2498 16.588C17.2036 17.6255 16.7665 18.5469 15.9547 19.3587C15.7672 19.5463 15.5128 19.6516 15.2476 19.6516C14.9824 19.6516 14.728 19.5463 14.5405 19.3588L11.2604 16.0787L3.81593 21.5824C3.41824 21.8764 2.86537 21.8355 2.51523 21.4862C2.16508 21.137 2.12284 20.5842 2.41585 20.1858L7.90444 12.7227L4.64135 9.45964C4.25083 9.06912 4.25044 8.43558 4.64095 8.04505C5.45667 7.22931 6.40575 6.78694 7.44866 6.73414C8.28683 6.6917 9.11737 6.90408 9.91673 7.27284L15.2209 4.33287L14.9598 2.53738C14.8978 2.11097 15.1159 1.69279 15.501 1.4996ZM6.8892 8.87906L9.92613 11.916C10.2755 12.2654 10.3173 12.8175 10.0246 13.2156L7.94627 16.0416L10.764 13.9584C11.1621 13.6641 11.7155 13.7054 12.0656 14.0554L15.1211 17.111C15.2035 16.9059 15.2427 16.7033 15.2518 16.499C15.2747 15.9837 15.1105 15.3424 14.6979 14.501C14.5538 14.207 14.5627 13.8612 14.7217 13.575L18.2586 7.20969C18.3925 6.96863 18.6162 6.79917 18.8717 6.73002L17.2753 5.13359C17.2061 5.38944 17.0363 5.61333 16.7947 5.74722L10.4238 9.27848C10.1236 9.44486 9.75906 9.44568 9.45814 9.28066C8.70539 8.86786 8.07388 8.70504 7.54979 8.73158C7.32946 8.74273 7.10959 8.78809 6.8892 8.87906Z" fill="black"/>
</svg>
