<svg width="24" height="24" viewBox="0 0 24 24" fill="none" xmlns="http://www.w3.org/2000/svg">
<path d="M12.0001 1C5.8834 1 0.924805 5.9249 0.924805 12C0.924805 16.6602 3.84406 20.644 7.96396 22.2467C7.86718 21.3764 7.77967 20.0379 8.00237 19.0878C8.20364 18.2293 9.30107 13.6201 9.30107 13.6201C9.30107 13.6201 8.96979 12.9611 8.96979 11.9869C8.96979 10.4574 9.86241 9.31546 10.9738 9.31546C11.9187 9.31546 12.3751 10.0201 12.3751 10.8649C12.3751 11.8088 11.7701 13.2198 11.4579 14.5275C11.197 15.6223 12.0107 16.5152 13.098 16.5152C15.0664 16.5152 16.5795 14.4537 16.5795 11.478C16.5795 8.84424 14.6741 7.00279 11.9533 7.00279C8.80202 7.00279 6.95233 9.35036 6.95233 11.7765C6.95233 12.7219 7.31901 13.7357 7.77658 14.2868C7.86709 14.3957 7.88035 14.4911 7.85338 14.6023C7.76932 14.9497 7.58248 15.6969 7.5458 15.8498C7.4975 16.0512 7.38529 16.0939 7.17539 15.9969C5.79216 15.3574 4.92732 13.3488 4.92732 11.7354C4.92732 8.26553 7.46572 5.07883 12.2452 5.07883C16.0872 5.07883 19.0729 7.798 19.0729 11.4319C19.0729 15.2229 16.6662 18.2739 13.3258 18.2739C12.2035 18.2739 11.1485 17.6949 10.7873 17.0108C10.7873 17.0108 10.232 19.1111 10.0974 19.6258C9.84734 20.5812 9.17234 21.7788 8.72085 22.5095C9.75709 22.8281 10.8583 23 12.0001 23C18.1168 23 23.0754 18.0751 23.0754 12C23.0754 5.9249 18.1168 1 12.0001 1Z" fill="#E60023"/>
</svg>
