<svg width="26" height="24" viewBox="0 0 26 24" fill="none" xmlns="http://www.w3.org/2000/svg">
<path d="M0.558623 7.40912C0.681301 5.48544 2.01116 4 3.61069 4H20.9387C22.7218 4 24.1276 5.83102 23.9908 7.97549L23.4414 16.5909C23.3187 18.5146 21.9888 20 20.3893 20H3.06126C1.27815 20 -0.12756 18.169 0.00919808 16.0245L0.558623 7.40912Z" fill="url(#paint0_linear_5262_45326)"/>
<g filter="url(#filter0_d_5262_45326)">
<path d="M3.1733 15.3734C3.00762 15.3734 2.8855 15.2397 2.90055 15.0747L3.4639 8.8964C3.47895 8.73139 3.62546 8.59763 3.79114 8.59763H5.96553C7.97253 8.59763 8.53517 9.26155 8.37581 11.0092C8.20221 12.9131 7.42214 13.5282 5.51595 13.5282H5.16528C4.99959 13.5282 4.85308 13.6619 4.83803 13.8269L4.72426 15.0747C4.70921 15.2397 4.5627 15.3734 4.39702 15.3734H3.1733ZM5.01502 11.886C5.01 11.941 5.05071 11.9855 5.10594 11.9855H5.39084C6.15148 11.9855 6.446 11.7707 6.51099 11.058C6.57954 10.3062 6.30587 10.0914 5.56355 10.0914H5.27865C5.22342 10.0914 5.17458 10.136 5.16957 10.191L5.01502 11.886Z" fill="url(#paint1_linear_5262_45326)"/>
<path d="M14.4845 15.2176C14.5239 15.2837 14.4682 15.3734 14.3878 15.3734H12.7134C12.5343 15.3734 12.3775 15.278 12.3025 15.1233L11.345 13.1486C11.33 13.1177 11.2986 13.0986 11.2628 13.0986H11.0633C11.0081 13.0986 10.9593 13.1432 10.9542 13.1982L10.7831 15.0747C10.7681 15.2397 10.6216 15.3734 10.4559 15.3734H9.23218C9.06649 15.3734 8.94438 15.2397 8.95942 15.0747L9.52278 8.8964C9.53782 8.73139 9.68433 8.59763 9.85002 8.59763H12.1344C13.7565 8.59763 14.5399 9.25178 14.3931 10.8627C14.2933 11.9562 13.8964 12.5909 13.099 12.8935L14.4845 15.2176ZM11.3384 10.0817C11.2832 10.0817 11.2343 10.1263 11.2293 10.1813L11.0988 11.6126C11.0938 11.6676 11.1345 11.7122 11.1897 11.7122H11.5296C12.2719 11.7122 12.539 11.4974 12.5968 10.8627C12.6538 10.2379 12.4206 10.0817 11.6783 10.0817H11.3384Z" fill="url(#paint2_linear_5262_45326)"/>
<path d="M17.8676 15.4711C15.9798 15.4711 14.9341 14.7779 15.1887 11.9855C15.4424 9.20297 16.6154 8.5 18.5033 8.5C20.4003 8.5 21.4359 9.20297 21.1822 11.9855C20.9276 14.7779 19.7647 15.4711 17.8676 15.4711ZM18.0136 13.8699C18.8843 13.8699 19.1342 13.4403 19.2669 11.9855C19.4013 10.5113 19.2306 10.0719 18.36 10.0719C17.4893 10.0719 17.2477 10.5113 17.1132 11.9855C16.9806 13.4403 17.143 13.8699 18.0136 13.8699Z" fill="url(#paint3_linear_5262_45326)"/>
</g>
<defs>
<filter id="filter0_d_5262_45326" x="0.899292" y="6.5" width="24.3208" height="12.9711" filterUnits="userSpaceOnUse" color-interpolation-filters="sRGB">
<feFlood flood-opacity="0" result="BackgroundImageFix"/>
<feColorMatrix in="SourceAlpha" type="matrix" values="0 0 0 0 0 0 0 0 0 0 0 0 0 0 0 0 0 0 127 0" result="hardAlpha"/>
<feOffset dx="1" dy="1"/>
<feGaussianBlur stdDeviation="1.5"/>
<feComposite in2="hardAlpha" operator="out"/>
<feColorMatrix type="matrix" values="0 0 0 0 0.576471 0 0 0 0 0.454902 0 0 0 0 0.231373 0 0 0 0.3 0"/>
<feBlend mode="normal" in2="BackgroundImageFix" result="effect1_dropShadow_5262_45326"/>
<feBlend mode="normal" in="SourceGraphic" in2="effect1_dropShadow_5262_45326" result="shape"/>
</filter>
<linearGradient id="paint0_linear_5262_45326" x1="0.545455" y1="12" x2="22.9091" y2="12" gradientUnits="userSpaceOnUse">
<stop stop-color="#DCBE86"/>
<stop offset="1" stop-color="#B2945C"/>
</linearGradient>
<linearGradient id="paint1_linear_5262_45326" x1="3.15334" y1="11.4167" x2="21.0252" y2="9.90345" gradientUnits="userSpaceOnUse">
<stop stop-color="white"/>
<stop offset="1" stop-color="#FFF8EA"/>
</linearGradient>
<linearGradient id="paint2_linear_5262_45326" x1="3.15334" y1="11.4167" x2="21.0252" y2="9.90345" gradientUnits="userSpaceOnUse">
<stop stop-color="white"/>
<stop offset="1" stop-color="#FFF8EA"/>
</linearGradient>
<linearGradient id="paint3_linear_5262_45326" x1="3.15334" y1="11.4167" x2="21.0252" y2="9.90345" gradientUnits="userSpaceOnUse">
<stop stop-color="white"/>
<stop offset="1" stop-color="#FFF8EA"/>
</linearGradient>
</defs>
</svg>
