<svg width="24" height="24" viewBox="0 0 24 24" fill="none" xmlns="http://www.w3.org/2000/svg">
<path fill-rule="evenodd" clip-rule="evenodd" d="M12 2C9.23858 2 7 4.23858 7 7C7 9.76142 9.23858 12 12 12C14.7614 12 17 9.76142 17 7C17 4.23858 14.7614 2 12 2ZM9 7C9 5.34315 10.3431 4 12 4C13.6569 4 15 5.34315 15 7C15 8.65685 13.6569 10 12 10C10.3431 10 9 8.65685 9 7Z" fill="black"/>
<path d="M10 13C7.23858 13 5 15.2386 5 18V22H7V18C7 16.3431 8.34315 15 10 15H14C15.6569 15 17 16.3431 17 18V22H19V18C19 15.2386 16.7614 13 14 13H10Z" fill="black"/>
</svg>
