<svg width="24" height="24" viewBox="0 0 24 24" fill="none" xmlns="http://www.w3.org/2000/svg">
<path d="M18.4142 9L17 7.58579L11 13.5858L7.5 10.0858L6.08579 11.5L10.2929 15.7071C10.6834 16.0976 11.3166 16.0976 11.7071 15.7071L18.4142 9Z" fill="black"/>
<path d="M12.2847 1.04012C12.1017 0.986652 11.9072 0.986627 11.7241 1.04004L2.71985 3.66786C2.29326 3.79236 2 4.18343 2 4.62782V10.0143C2 16.1105 5.90158 21.5224 11.6853 23.449C11.8904 23.5173 12.1122 23.5173 12.3174 23.449C18.0996 21.5223 22 16.1116 22 10.0169V4.62782C22 4.18353 21.7069 3.79252 21.2804 3.66794L12.2847 1.04012ZM4 10.0143V5.37769L12.0042 3.04175L20 5.37749V10.0169C20 15.1388 16.7922 19.6982 12.0013 21.4414C7.2089 19.6982 4 15.1377 4 10.0143Z" fill="black"/>
</svg>
