<svg width="24" height="24" viewBox="0 0 24 24" fill="none" xmlns="http://www.w3.org/2000/svg">
<path d="M23.3903 9.30189C23.6056 9.07639 23.4869 8.69773 23.1831 8.64082L16.0769 7.30975C15.9527 7.28649 15.8454 7.2074 15.7848 7.09456L12.3561 0.702687C12.2843 0.568435 12.142 0.501181 11.9999 0.5C11.8579 0.501155 11.7157 0.568461 11.6438 0.702687L8.21522 7.09456C8.15463 7.2074 8.04726 7.28649 7.92307 7.30975L0.816888 8.64082C0.513139 8.69773 0.394417 9.07639 0.609657 9.30189L5.7787 14.7146C5.87019 14.8105 5.91231 14.9444 5.8925 15.0766L4.71131 22.3163C4.66461 22.6275 4.97812 22.8658 5.25802 22.7316L11.8203 19.5596C11.8764 19.5327 11.9378 19.5188 12 19.519C12.0622 19.5188 12.1237 19.5327 12.1798 19.5596L18.742 22.7316C19.0219 22.8658 19.3354 22.6275 19.2887 22.3163L18.0853 14.9414L23.3903 9.30189Z" fill="#FFCD00"/>
<path d="M13.2171 10.9808C13.1012 10.884 10.3681 9.94553 6.18447 10.5701C6.10335 10.5822 6.03268 10.56 5.97808 10.519C5.95968 10.6217 6.07016 10.7026 6.2088 10.7122C9.16246 10.9181 10.8145 12.1237 11.3297 12.5476C12.3765 11.8052 13.1749 11.2486 13.2052 11.2249C13.2994 11.1516 13.3 11.0501 13.2171 10.9808M16.6992 10.2114C15.6277 11.1142 12.588 13.2121 11.5263 14.0226C11.4014 14.1178 11.4447 14.2645 11.5801 14.316C12.0177 14.4825 12.5101 14.6227 13.0284 14.7381L17.13 10.8305C17.452 10.492 17.2645 10.0821 16.8625 9.99207C16.8362 10.0694 16.7788 10.1444 16.6992 10.2114ZM19.8339 14.7381L19.8313 14.7393C18.0227 15.5019 13.6311 16.7832 8.23475 16.5959C7.5831 16.5734 6.9351 16.5006 6.57172 16.4336C6.51866 16.4238 6.47217 16.4076 6.43115 16.3862C6.1599 16.7 6.48437 16.9371 7.64143 17.1712C11.0269 17.8559 14.9842 18.1706 18.3021 17.9583L18.0741 16.5639C19.1965 15.757 19.7425 15.061 19.8074 14.9577C19.8818 14.8392 19.8339 14.7381 19.8339 14.7381Z" fill="#F1A308"/>
<path d="M19.877 14.9178C18.5085 15.0496 14.335 15.0124 11.8725 14.0664C11.7414 14.016 11.6971 13.8722 11.8178 13.779C12.8453 12.9874 15.7869 10.9379 16.8238 10.056C17.0259 9.88416 17.0792 9.65978 16.8334 9.47739C16.3621 9.1277 14.6985 8.54808 12.7725 8.53234C10.0163 8.50975 7.30853 9.28954 6.12066 9.92081C5.83874 10.0706 6.00792 10.4655 6.29599 10.4212C10.5115 9.77334 13.2652 10.7487 13.382 10.8492C13.4655 10.921 13.4609 11.0264 13.3691 11.0985C13.2912 11.1599 8.25412 14.7785 6.74046 16.0556C6.50209 16.2567 6.56475 16.678 6.9548 16.7491C7.31808 16.8154 7.96634 16.8881 8.61778 16.9105C14.0129 17.0956 18.406 15.8262 20.2142 15.0717C20.2142 15.0717 20.159 14.8906 19.877 14.9178Z" fill="white"/>
</svg>
