<svg width="24" height="24" viewBox="0 0 24 24" fill="none" xmlns="http://www.w3.org/2000/svg">
<rect width="24" height="24" fill="white"/>
<path d="M10 17V19C10 20.1046 9.10457 21 8 21H5C3.89543 21 3 20.1046 3 19V7C3 4.79086 4.79086 3 7 3H8.5" stroke="black" stroke-width="2"/>
<path d="M21 17V19C21 20.1046 20.1046 21 19 21H16C14.8954 21 14 20.1046 14 19V7C14 4.79086 15.7909 3 18 3H19.5" stroke="black" stroke-width="2"/>
<path d="M3 12H8C9.10457 12 10 12.8954 10 14V19C10 20.1046 9.10457 21 8 21H5C3.89543 21 3 20.1046 3 19V12Z" stroke="black" stroke-width="2"/>
<path d="M14 12H19C20.1046 12 21 12.8954 21 14V19C21 20.1046 20.1046 21 19 21H16C14.8954 21 14 20.1046 14 19V12Z" stroke="black" stroke-width="2"/>
<path fill-rule="evenodd" clip-rule="evenodd" d="M9.75 5.6C7.5 5.6 6.75 7.5 6.75 11.2H7.5C9.15685 11.2 10.5 12.8118 10.5 14.8V17.4C10.5 19.3882 9.15685 21 7.5 21H6C4.34315 21 3 19.3882 3 17.4V11.2C3 6 5.68629 3 9 3H9.75V5.6Z" stroke="black" stroke-width="2" stroke-linejoin="round"/>
<path fill-rule="evenodd" clip-rule="evenodd" d="M20.25 5.6C18 5.6 17.25 7.5 17.25 11.2H18C19.6569 11.2 21 12.8118 21 14.8V17.4C21 19.3882 19.6569 21 18 21H16.5C14.8431 21 13.5 19.3882 13.5 17.4V11.2C13.5 6 16.1863 3 19.5 3H20.25V5.6Z" stroke="black" stroke-width="2" stroke-linejoin="round"/>
</svg>
