<svg width="24" height="24" viewBox="0 0 24 24" fill="none" xmlns="http://www.w3.org/2000/svg">
<path d="M11.9998 1C6.03214 1 1.19531 5.92435 1.19531 12C1.19531 15.0374 2.40473 17.7874 4.35979 19.7783L2.30181 21.8735C1.89355 22.2891 2.18266 23 2.76004 23H11.9998C17.9675 23 22.8043 18.0757 22.8043 12C22.8043 5.92435 17.9675 1 11.9998 1Z" fill="#FF4500"/>
<g clip-path="url(#clip0_12607_247502)">
<path d="M18.1248 14.4634C19.5181 14.4634 20.6477 13.3134 20.6477 11.8948C20.6477 10.4762 19.5181 9.32617 18.1248 9.32617C16.7314 9.32617 15.6018 10.4762 15.6018 11.8948C15.6018 13.3134 16.7314 14.4634 18.1248 14.4634Z" fill="url(#paint0_radial_12607_247502)"/>
<path d="M5.87573 14.4634C7.26912 14.4634 8.39868 13.3134 8.39868 11.8948C8.39868 10.4762 7.26912 9.32617 5.87573 9.32617C4.48235 9.32617 3.35278 10.4762 3.35278 11.8948C3.35278 13.3134 4.48235 14.4634 5.87573 14.4634Z" fill="url(#paint1_radial_12607_247502)"/>
<path d="M12.0064 19.6014C15.9844 19.6014 19.2091 17.139 19.2091 14.1016C19.2091 11.0641 15.9844 8.60181 12.0064 8.60181C8.02847 8.60181 4.80371 11.0641 4.80371 14.1016C4.80371 17.139 8.02847 19.6014 12.0064 19.6014Z" fill="url(#paint2_radial_12607_247502)"/>
<path d="M9.87629 13.5667C9.83428 14.4984 9.22725 14.8365 8.51938 14.8365C7.81152 14.8365 7.27292 14.3595 7.31533 13.4278C7.35735 12.4961 7.96478 11.8793 8.67224 11.8793C9.37971 11.8793 9.91871 12.6346 9.87629 13.5667Z" fill="#842123"/>
<path d="M16.6968 13.4278C16.7388 14.3595 16.1998 14.8365 15.4928 14.8365C14.7857 14.8365 14.1783 14.4984 14.1358 13.5667C14.0938 12.635 14.6328 11.8793 15.3399 11.8793C16.047 11.8793 16.6544 12.4957 16.6968 13.4278Z" fill="#842123"/>
<path d="M9.8772 13.6482C9.83758 14.5204 9.26937 14.8365 8.60752 14.8365C7.94567 14.8365 7.44108 14.3627 7.4807 13.4909C7.52031 12.6187 8.08853 12.0483 8.75037 12.0483C9.41222 12.0483 9.91641 12.7759 9.8772 13.6482Z" fill="url(#paint3_radial_12607_247502)"/>
<path d="M14.1357 13.6482C14.1749 14.5204 14.7436 14.8365 15.4054 14.8365C16.0673 14.8365 16.5718 14.3627 16.5322 13.4909C16.4926 12.6187 15.9244 12.0483 15.2626 12.0483C14.6007 12.0483 14.0961 12.7759 14.1357 13.6482Z" fill="url(#paint4_radial_12607_247502)"/>
<path d="M9.16267 13.1629C9.31737 13.1629 9.44278 13.0235 9.44278 12.8517C9.44278 12.6798 9.31737 12.5404 9.16267 12.5404C9.00798 12.5404 8.88257 12.6798 8.88257 12.8517C8.88257 13.0235 9.00798 13.1629 9.16267 13.1629Z" fill="#FFC49C"/>
<path d="M15.8231 13.1629C15.9778 13.1629 16.1032 13.0235 16.1032 12.8517C16.1032 12.6798 15.9778 12.5404 15.8231 12.5404C15.6684 12.5404 15.543 12.6798 15.543 12.8517C15.543 13.0235 15.6684 13.1629 15.8231 13.1629Z" fill="#FFC49C"/>
<path d="M12.0061 15.4583C11.113 15.4583 10.2571 15.5022 9.46555 15.5821C9.3303 15.5959 9.24467 15.7361 9.29709 15.8616C9.74046 16.9196 10.7865 17.6626 12.0061 17.6626C13.2258 17.6626 14.2718 16.9196 14.7151 15.8616C14.7675 15.7361 14.6819 15.5959 14.5467 15.5821C13.7552 15.5018 12.8992 15.4583 12.0061 15.4583Z" fill="#BBCFDA"/>
<path d="M12.006 15.6603C11.1157 15.6603 10.2626 15.7047 9.47346 15.7862C9.33861 15.8 9.25298 15.9426 9.30539 16.0701C9.74756 17.1448 10.79 17.8997 12.006 17.8997C13.2221 17.8997 14.2645 17.1448 14.7066 16.0701C14.759 15.943 14.6734 15.8004 14.5386 15.7862C13.7495 15.7047 12.8963 15.6603 12.006 15.6603Z" fill="white"/>
<path d="M12.0061 15.5552C11.1298 15.5552 10.2899 15.5992 9.51317 15.679C9.38032 15.6929 9.29629 15.833 9.34791 15.9585C9.78288 17.0165 10.8093 17.7596 12.0065 17.7596C13.2038 17.7596 14.2297 17.0165 14.6651 15.9585C14.7167 15.833 14.6327 15.6929 14.4998 15.679C13.7232 15.5988 12.8832 15.5552 12.0061 15.5552Z" fill="url(#paint5_radial_12607_247502)"/>
<path d="M15.9512 7.85383C16.9386 7.85383 17.7391 7.03889 17.7391 6.0336C17.7391 5.02832 16.9386 4.21338 15.9512 4.21338C14.9638 4.21338 14.1633 5.02832 14.1633 6.0336C14.1633 7.03889 14.9638 7.85383 15.9512 7.85383Z" fill="url(#paint6_radial_12607_247502)"/>
<path d="M11.9805 8.83359C11.7664 8.83359 11.5928 8.74233 11.5928 8.60178C11.5928 6.971 12.8957 5.64453 14.4975 5.64453C14.7115 5.64453 14.8852 5.82134 14.8852 6.03929C14.8852 6.25725 14.7115 6.43406 14.4975 6.43406C13.3234 6.43406 12.3679 7.4065 12.3679 8.60219C12.3679 8.74274 12.1942 8.834 11.9801 8.834L11.9805 8.83359Z" fill="url(#paint7_radial_12607_247502)"/>
<path d="M9.40636 14.0796C9.40636 14.4169 9.05383 14.5685 8.61846 14.5685C8.1831 14.5685 7.83057 14.4169 7.83057 14.0796C7.83057 13.7423 8.1831 13.4685 8.61846 13.4685C9.05383 13.4685 9.40636 13.7423 9.40636 14.0796Z" fill="#FF6101"/>
<path d="M16.1815 14.0796C16.1815 14.4169 15.829 14.5685 15.3936 14.5685C14.9582 14.5685 14.6057 14.4169 14.6057 14.0796C14.6057 13.7423 14.9582 13.4685 15.3936 13.4685C15.829 13.4685 16.1815 13.7423 16.1815 14.0796Z" fill="#FF6101"/>
</g>
<defs>
<radialGradient id="paint0_radial_12607_247502" cx="0" cy="0" r="1" gradientUnits="userSpaceOnUse" gradientTransform="translate(18.1778 10.3656) scale(5.09992 4.51722)">
<stop stop-color="#FEFFFF"/>
<stop offset="0.4" stop-color="#FEFFFF"/>
<stop offset="0.51" stop-color="#F9FCFC"/>
<stop offset="0.62" stop-color="#EDF3F5"/>
<stop offset="0.7" stop-color="#DEE9EC"/>
<stop offset="0.72" stop-color="#D8E4E8"/>
<stop offset="0.76" stop-color="#CCD8DF"/>
<stop offset="0.8" stop-color="#C8D5DD"/>
<stop offset="0.83" stop-color="#CCD6DE"/>
<stop offset="0.85" stop-color="#D8DBE2"/>
<stop offset="0.88" stop-color="#EDE3E9"/>
<stop offset="0.9" stop-color="#FFEBEF"/>
</radialGradient>
<radialGradient id="paint1_radial_12607_247502" cx="0" cy="0" r="1" gradientUnits="userSpaceOnUse" gradientTransform="translate(5.92875 10.3891) scale(5.09992 5.1922)">
<stop stop-color="#FEFFFF"/>
<stop offset="0.4" stop-color="#FEFFFF"/>
<stop offset="0.51" stop-color="#F9FCFC"/>
<stop offset="0.62" stop-color="#EDF3F5"/>
<stop offset="0.7" stop-color="#DEE9EC"/>
<stop offset="0.72" stop-color="#D8E4E8"/>
<stop offset="0.76" stop-color="#CCD8DF"/>
<stop offset="0.8" stop-color="#C8D5DD"/>
<stop offset="0.83" stop-color="#CCD6DE"/>
<stop offset="0.85" stop-color="#D8DBE2"/>
<stop offset="0.88" stop-color="#EDE3E9"/>
<stop offset="0.9" stop-color="#FFEBEF"/>
</radialGradient>
<radialGradient id="paint2_radial_12607_247502" cx="0" cy="0" r="1" gradientUnits="userSpaceOnUse" gradientTransform="translate(12.1615 9.70934) scale(15.3834 10.9632)">
<stop stop-color="#FEFFFF"/>
<stop offset="0.4" stop-color="#FEFFFF"/>
<stop offset="0.51" stop-color="#F9FCFC"/>
<stop offset="0.62" stop-color="#EDF3F5"/>
<stop offset="0.7" stop-color="#DEE9EC"/>
<stop offset="0.72" stop-color="#D8E4E8"/>
<stop offset="0.76" stop-color="#CCD8DF"/>
<stop offset="0.8" stop-color="#C8D5DD"/>
<stop offset="0.83" stop-color="#CCD6DE"/>
<stop offset="0.85" stop-color="#D8DBE2"/>
<stop offset="0.88" stop-color="#EDE3E9"/>
<stop offset="0.9" stop-color="#FFEBEF"/>
</radialGradient>
<radialGradient id="paint3_radial_12607_247502" cx="0" cy="0" r="1" gradientUnits="userSpaceOnUse" gradientTransform="translate(8.74257 14.034) scale(1.28528 1.91047)">
<stop stop-color="#FF6600"/>
<stop offset="0.5" stop-color="#FF4500"/>
<stop offset="0.7" stop-color="#FC4301"/>
<stop offset="0.82" stop-color="#F43F07"/>
<stop offset="0.92" stop-color="#E53812"/>
<stop offset="1" stop-color="#D4301F"/>
</radialGradient>
<radialGradient id="paint4_radial_12607_247502" cx="0" cy="0" r="1" gradientUnits="userSpaceOnUse" gradientTransform="translate(15.2699 14.034) rotate(180) scale(1.28528 1.91047)">
<stop stop-color="#FF6600"/>
<stop offset="0.5" stop-color="#FF4500"/>
<stop offset="0.7" stop-color="#FC4301"/>
<stop offset="0.82" stop-color="#F43F07"/>
<stop offset="0.92" stop-color="#E53812"/>
<stop offset="1" stop-color="#D4301F"/>
</radialGradient>
<radialGradient id="paint5_radial_12607_247502" cx="0" cy="0" r="1" gradientUnits="userSpaceOnUse" gradientTransform="translate(11.9931 18.0571) scale(4.5321 3.04531)">
<stop stop-color="#172E35"/>
<stop offset="0.29" stop-color="#0E1C21"/>
<stop offset="0.73" stop-color="#030708"/>
<stop offset="1"/>
</radialGradient>
<radialGradient id="paint6_radial_12607_247502" cx="0" cy="0" r="1" gradientUnits="userSpaceOnUse" gradientTransform="translate(15.9898 4.35436) scale(3.9783 3.96928)">
<stop stop-color="#FEFFFF"/>
<stop offset="0.4" stop-color="#FEFFFF"/>
<stop offset="0.51" stop-color="#F9FCFC"/>
<stop offset="0.62" stop-color="#EDF3F5"/>
<stop offset="0.7" stop-color="#DEE9EC"/>
<stop offset="0.72" stop-color="#D8E4E8"/>
<stop offset="0.76" stop-color="#CCD8DF"/>
<stop offset="0.8" stop-color="#C8D5DD"/>
<stop offset="0.83" stop-color="#CCD6DE"/>
<stop offset="0.85" stop-color="#D8DBE2"/>
<stop offset="0.88" stop-color="#EDE3E9"/>
<stop offset="0.9" stop-color="#FFEBEF"/>
</radialGradient>
<radialGradient id="paint7_radial_12607_247502" cx="0" cy="0" r="1" gradientUnits="userSpaceOnUse" gradientTransform="translate(14.332 8.4429) scale(3.26083 3.31983)">
<stop offset="0.48" stop-color="#7A9299"/>
<stop offset="0.67" stop-color="#172E35"/>
<stop offset="0.75"/>
<stop offset="0.82" stop-color="#172E35"/>
</radialGradient>
<clipPath id="clip0_12607_247502">
<rect width="17.2949" height="15.388" fill="white" transform="translate(3.35278 4.21338)"/>
</clipPath>
</defs>
</svg>
