<svg width="24" height="24" viewBox="0 0 24 24" fill="none" xmlns="http://www.w3.org/2000/svg">
<path d="M4.80458 5.05547C6.62198 3.17282 9.17488 2 12 2C15.2712 2 18.1755 3.57069 20 5.99904V4C20 3.44772 20.4477 3 21 3C21.5523 3 22 3.44772 22 4V12C22 12.5523 21.5523 13 21 13C20.4477 13 20 12.5523 20 12C20 7.58173 16.4183 4 12 4C9.73962 4 7.69962 4.93614 6.24352 6.44453C5.85994 6.84188 5.22687 6.85304 4.82952 6.46947C4.43217 6.08589 4.42101 5.45282 4.80458 5.05547Z" fill="black"/>
<path d="M3 11C3.55228 11 4 11.4477 4 12C4 16.4183 7.58173 20 12 20C14.1584 20 16.1155 19.1465 17.5555 17.7565C17.9528 17.3729 18.5859 17.3841 18.9695 17.7814C19.353 18.1788 19.3419 18.8119 18.9445 19.1954C17.1467 20.9309 14.6972 22 12 22C8.72881 22 5.82446 20.4293 4 18.001V20C4 20.5523 3.55228 21 3 21C2.44772 21 2 20.5523 2 20V12C2 11.4477 2.44772 11 3 11Z" fill="black"/>
</svg>
