<svg width="24" height="24" viewBox="0 0 24 24" fill="none" xmlns="http://www.w3.org/2000/svg">
<path d="M12 18C12.8284 18 13.5 17.3284 13.5 16.5C13.5 15.6716 12.8284 15 12 15C11.1716 15 10.5 15.6716 10.5 16.5C10.5 17.3284 11.1716 18 12 18Z" fill="black"/>
<path d="M13 9C13 8.44772 12.5523 8 12 8C11.4477 8 11 8.44772 11 9V12.5C11 13.0523 11.4477 13.5 12 13.5C12.5523 13.5 13 13.0523 13 12.5V9Z" fill="black"/>
<path d="M9.35609 2.8154C10.4873 0.705373 13.5129 0.705373 14.6441 2.8154L22.5609 17.5825C23.6323 19.5811 22.1845 22 19.9169 22H4.08327C1.81565 22 0.367831 19.5811 1.43926 17.5825L9.35609 2.8154ZM12.8814 3.76039C12.5044 3.05704 11.4958 3.05704 11.1188 3.76039L3.20193 18.5275C2.84479 19.1937 3.3274 20 4.08327 20H19.9169C20.6728 20 21.1554 19.1937 20.7982 18.5275L12.8814 3.76039Z" fill="black"/>
</svg>
