<svg width="24" height="24" viewBox="0 0 24 24" fill="none" xmlns="http://www.w3.org/2000/svg">
<path d="M20 12C20 7.58173 16.4183 4 12 4C9.79056 4 7.79194 4.89434 6.34316 6.34315C6.12968 6.55663 5.84506 6.85727 5.54194 7.18397L7.81257 7.19432C8.36485 7.19684 8.81052 7.64659 8.80801 8.19887C8.80549 8.75115 8.35574 9.19682 7.80346 9.1943L5.08929 9.18193C4.59331 9.17976 4.1205 9.17769 3.73782 9.12158C3.31197 9.05913 2.81805 8.90736 2.44446 8.46175C2.07087 8.01613 2.00762 7.5033 2.02044 7.07308C2.03197 6.68648 2.11244 6.22056 2.19685 5.7318L2.6583 3.05714C2.75219 2.51289 3.26951 2.14781 3.81375 2.24171C4.358 2.3356 4.72308 2.85291 4.62918 3.39716L4.24119 5.64611C4.49745 5.37197 4.73714 5.12075 4.92893 4.92895C6.73746 3.12038 9.23884 2 12 2C17.5228 2 22 6.47717 22 12C22 17.5228 17.5228 22 12 22C9.23884 22 6.73746 20.8796 4.92893 19.071C4.53841 18.6805 4.53842 18.0474 4.92895 17.6568C5.31948 17.2663 5.95265 17.2663 6.34317 17.6569C7.79194 19.1057 9.79056 20 12 20C16.4183 20 20 16.4183 20 12Z" fill="black"/>
</svg>
