<svg width="24" height="24" viewBox="0 0 24 24" fill="none" xmlns="http://www.w3.org/2000/svg">
<path d="M10.9268 2H13.0732C14.8966 1.99997 16.3664 1.99995 17.5223 2.15537C18.7225 2.31672 19.733 2.66191 20.5355 3.46447C21.3381 4.26702 21.6833 5.27752 21.8446 6.47767C21.9409 7.19389 21.9776 8.03057 21.9915 8.99721C21.9994 9.55053 21.5495 10 20.9961 10C20.4451 10 19.9992 9.55402 19.9911 9.00298C19.9779 8.091 19.9449 7.35693 19.8625 6.74416C19.7309 5.7658 19.4903 5.2477 19.1213 4.87868C18.7523 4.50967 18.2342 4.26907 17.2558 4.13753C16.2487 4.00213 14.9139 4 13 4H11C9.08612 4 7.7513 4.00213 6.74416 4.13753C5.7658 4.26907 5.2477 4.50967 4.87868 4.87868C4.50967 5.2477 4.26907 5.7658 4.13753 6.74416C4.00213 7.7513 4 9.08611 4 11V13C4 14.9139 4.00213 16.2487 4.13753 17.2558C4.26907 18.2342 4.50967 18.7523 4.87868 19.1213C5.2477 19.4903 5.7658 19.7309 6.74416 19.8625C7.7513 19.9979 9.08611 20 11 20H21C21.5523 20 22 20.4477 22 21C22 21.5523 21.5523 22 21 22H10.9269C9.1034 22 7.63363 22.0001 6.47767 21.8446C5.27752 21.6833 4.26702 21.3381 3.46447 20.5355C2.66191 19.733 2.31672 18.7225 2.15537 17.5223C1.99995 16.3664 1.99997 14.8966 2 13.0732V10.9268C1.99997 9.1034 1.99995 7.63362 2.15537 6.47767C2.31672 5.27752 2.66191 4.26702 3.46447 3.46447C4.26702 2.66191 5.27752 2.31672 6.47767 2.15537C7.63362 1.99995 9.1034 1.99997 10.9268 2Z" fill="black"/>
<path d="M9 6C7.34316 6 6 7.34316 6 9C6 10.6568 7.34316 12 9 12C10.6568 12 12 10.6568 12 9C12 7.34316 10.6568 6 9 6ZM8 9C8 8.44773 8.44773 8 9 8C9.55228 8 10 8.44773 10 9C10 9.55228 9.55228 10 9 10C8.44773 10 8 9.55228 8 9Z" fill="black"/>
<path d="M12 17C12 16.4477 12.4477 16 13 16H21C21.5523 16 22 16.4477 22 17C22 17.5523 21.5523 18 21 18H13C12.4477 18 12 17.5523 12 17Z" fill="black"/>
<path d="M16 12C15.4477 12 15 12.4477 15 13C15 13.5523 15.4477 14 16 14L21 14C21.5523 14 22 13.5523 22 13C22 12.4477 21.5523 12 21 12L16 12Z" fill="black"/>
</svg>
