<svg width="24" height="24" viewBox="0 0 24 24" fill="none" xmlns="http://www.w3.org/2000/svg">
<path fill-rule="evenodd" clip-rule="evenodd" d="M1 12C1 5.92487 5.92487 1 12 1C18.0751 1 23 5.92487 23 12C23 18.0751 18.0751 23 12 23C5.92487 23 1 18.0751 1 12ZM12 3C7.02943 3 3 7.02943 3 12C3 16.9706 7.02943 21 12 21C16.9706 21 21 16.9706 21 12C21 7.02943 16.9706 3 12 3Z" fill="black"/>
<path fill-rule="evenodd" clip-rule="evenodd" d="M15.5 8C16.0523 8 16.5 8.44772 16.5 9V9.5C16.5 10.0523 16.0523 10.5 15.5 10.5C14.9477 10.5 14.5 10.0523 14.5 9.5V9C14.5 8.44772 14.9477 8 15.5 8Z" fill="black"/>
<path fill-rule="evenodd" clip-rule="evenodd" d="M8.5 8C9.05229 8 9.5 8.44772 9.5 9V9.5C9.5 10.0523 9.05229 10.5 8.5 10.5C7.94772 10.5 7.5 10.0523 7.5 9.5V9C7.5 8.44772 7.94772 8 8.5 8Z" fill="black"/>
<path fill-rule="evenodd" clip-rule="evenodd" d="M8.64814 13.7526C9.35443 13.1248 10.4572 12.5 12 12.5C13.5428 12.5 14.6456 13.1248 15.3519 13.7526C15.7008 14.0628 15.9532 14.373 16.1207 14.6095C16.2048 14.7282 16.2687 14.8301 16.3137 14.9064C16.3362 14.9446 16.3541 14.9766 16.3675 15.0013C16.3741 15.0136 16.3797 15.0242 16.3842 15.0328L16.3901 15.0443L16.3925 15.0489L16.394 15.0519C16.394 15.0519 16.3944 15.0528 15.5 15.5L16.3944 15.0528C16.6414 15.5468 16.4412 16.1474 15.9472 16.3944C15.4559 16.6401 14.859 16.4433 14.6096 15.9552L14.6089 15.9538C14.6064 15.9492 14.6003 15.9382 14.5906 15.9218C14.5711 15.8887 14.5373 15.8343 14.4887 15.7655C14.3905 15.627 14.2367 15.4372 14.0231 15.2474C13.6044 14.8752 12.9572 14.5 12 14.5C11.0428 14.5 10.3956 14.8752 9.97686 15.2474C9.7633 15.4372 9.60948 15.627 9.51134 15.7655C9.46265 15.8343 9.42889 15.8887 9.40939 15.9218C9.39968 15.9382 9.39362 15.9492 9.39113 15.9538L9.3904 15.9552C9.14095 16.4433 8.5441 16.6401 8.05279 16.3944C7.55881 16.1474 7.35858 15.5468 7.60557 15.0528L8.5 15.5C7.60557 15.0528 7.60602 15.0519 7.60602 15.0519L7.6065 15.0509L7.60752 15.0489L7.60987 15.0443L7.61579 15.0328C7.62027 15.0242 7.62586 15.0136 7.63255 15.0013C7.64593 14.9766 7.6638 14.9446 7.68631 14.9064C7.73127 14.8301 7.79516 14.7282 7.87929 14.6095C8.04677 14.373 8.2992 14.0628 8.64814 13.7526Z" fill="black"/>
</svg>
