<svg width="24" height="24" viewBox="0 0 24 24" fill="none" xmlns="http://www.w3.org/2000/svg">
<g opacity="0.2">
<rect width="24" height="24" fill="#D03050"/>
<path d="M3 2C3 1.73478 3.10536 1.48043 3.29289 1.29289C3.48043 1.10536 3.73478 1 4 1H20C20.2652 1 20.5196 1.10536 20.7071 1.29289C20.8946 1.48043 21 1.73478 21 2V22C20.9999 22.1615 20.9607 22.3207 20.8858 22.4637C20.8108 22.6068 20.7023 22.7296 20.5695 22.8216C20.4367 22.9136 20.2836 22.9721 20.1233 22.992C19.963 23.0119 19.8003 22.9927 19.649 22.936L12 20.068L4.351 22.936C4.19974 22.9927 4.03699 23.0119 3.87669 22.992C3.71638 22.9721 3.56329 22.9136 3.43051 22.8216C3.29772 22.7296 3.1892 22.6068 3.11423 22.4637C3.03925 22.3207 3.00006 22.1615 3 22V2ZM5 3V20.557L11.649 18.064C11.8753 17.9792 12.1247 17.9792 12.351 18.064L19 20.557V3H5Z" fill="black"/>
</g>
</svg>
