<svg width="24" height="24" viewBox="0 0 24 24" fill="none" xmlns="http://www.w3.org/2000/svg">
<g opacity="0.2">
<rect width="24" height="24" fill="#D03050"/>
<path d="M4 1C3.73478 1 3.48043 1.10536 3.29289 1.29289C3.10536 1.48043 3 1.73478 3 2V22C3.00006 22.1615 3.03925 22.3207 3.11423 22.4637C3.1892 22.6068 3.29772 22.7296 3.43051 22.8216C3.56329 22.9136 3.71638 22.9721 3.87669 22.992C4.03699 23.0119 4.19974 22.9927 4.351 22.936L12 20.068L19.649 22.936C19.8003 22.9927 19.963 23.0119 20.1233 22.992C20.2836 22.9721 20.4367 22.9136 20.5695 22.8216C20.7023 22.7296 20.8108 22.6068 20.8858 22.4637C20.9607 22.3207 20.9999 22.1615 21 22V2C21 1.73478 20.8946 1.48043 20.7071 1.29289C20.5196 1.10536 20.2652 1 20 1H4Z" fill="black"/>
</g>
</svg>
