<svg width="24" height="24" viewBox="0 0 24 24" fill="none" xmlns="http://www.w3.org/2000/svg">
<path d="M1.5 4C1.5 2.89543 2.39543 2 3.5 2H9.5C9.79678 2 10.0782 2.13182 10.2682 2.35982L12.4684 5H20.5C21.6046 5 22.5 5.89542 22.5 7V20C22.5 21.1046 21.6046 22 20.5 22H3.5C2.39544 22 1.5 21.1046 1.5 20V4ZM9.03162 4H3.5V20H20.5V7H12C11.7032 7 11.4218 6.86818 11.2318 6.64018L9.03162 4Z" fill="black" fill-opacity="0.85"/>
<path d="M11.793 17.6211L7.58594 13.4141L9 12L11 14L11 9L13 9L13 13.5859L14.5859 12L16 13.4141L11.793 17.6211Z" fill="black" fill-opacity="0.85"/>
</svg>
