<svg width="24" height="24" viewBox="0 0 24 24" fill="none" xmlns="http://www.w3.org/2000/svg">
<path d="M10.9268 2H13.0731C14.8965 1.99997 16.3663 1.99995 17.5223 2.15537C18.7224 2.31672 19.7329 2.66191 20.5355 3.46447C21.338 4.26702 21.6832 5.27752 21.8446 6.47767C21.8636 6.61952 21.8804 6.7661 21.8951 6.91749C21.941 7.47854 21.4634 7.9994 20.8995 8H20.8977C20.3629 7.9995 19.9597 7.63585 19.9041 7.10393L19.8978 7.04329C19.8872 6.94041 19.8754 6.84078 19.8624 6.74416C19.7309 5.7658 19.4903 5.2477 19.1213 4.87868C18.7522 4.50967 18.2341 4.26907 17.2558 4.13753C16.2486 4.00213 14.9138 4 12.9999 4H10.9999C9.08605 4 7.75123 4.00213 6.74409 4.13753C5.76573 4.26907 5.24763 4.50967 4.87861 4.87868C4.5096 5.2477 4.269 5.7658 4.13746 6.74416C4.12447 6.84078 4.11271 6.94041 4.10206 7.04329L4.09578 7.10393C4.04019 7.63585 3.63694 7.9995 3.10213 8H3.10034C2.5364 7.9994 2.05884 7.4785 2.10482 6.91743C2.1195 6.76607 2.13623 6.6195 2.1553 6.47767C2.31665 5.27752 2.66184 4.26702 3.4644 3.46447C4.26695 2.66191 5.27745 2.31672 6.4776 2.15537C7.63355 1.99995 9.10334 1.99997 10.9268 2Z" fill="black"/>
<path d="M2.10482 6.91743L2.1008 6.95957L2.10568 6.90757L2.10482 6.91743Z" fill="black"/>
<path d="M21.8951 6.91749L21.8942 6.90757L21.8991 6.95988L21.8951 6.91749Z" fill="black"/>
<path d="M21.8942 17.0924L21.8991 17.0401L21.8951 17.0825C21.941 16.5215 21.4634 16.0006 20.8995 16L20.8977 16C20.3629 16.0005 19.9597 16.3642 19.9041 16.8961L19.8978 16.9567C19.8872 17.0596 19.8754 17.1592 19.8624 17.2558C19.7309 18.2342 19.4903 18.7523 19.1213 19.1213C18.7522 19.4903 18.2341 19.7309 17.2558 19.8625C16.2486 19.9979 14.9138 20 12.9999 20H10.9999C9.08605 20 7.75123 19.9979 6.74409 19.8625C5.76573 19.7309 5.24763 19.4903 4.87861 19.1213C4.5096 18.7523 4.269 18.2342 4.13746 17.2558C4.12447 17.1592 4.11271 17.0596 4.10206 16.9567L4.09578 16.8961C4.04019 16.3642 3.63694 16.0005 3.10213 16L3.10034 16C2.53641 16.0006 2.05885 16.5215 2.10482 17.0826L2.1008 17.0404L2.10568 17.0924L2.10482 17.0826C2.1195 17.2339 2.13623 17.3805 2.1553 17.5223C2.31665 18.7225 2.66184 19.733 3.4644 20.5355C4.26695 21.3381 5.27745 21.6833 6.4776 21.8446C7.63356 22.0001 9.10333 22 10.9268 22H13.0731C14.8965 22 16.3663 22.0001 17.5223 21.8446C18.7224 21.6833 19.7329 21.3381 20.5355 20.5355C21.338 19.733 21.6832 18.7225 21.8446 17.5223C21.8636 17.3805 21.8804 17.2339 21.8951 17.0825L21.8942 17.0924Z" fill="black"/>
<path d="M1 11C0.447715 11 0 11.4477 0 12C0 12.5523 0.447715 13 1 13H23C23.5523 13 24 12.5523 24 12C24 11.4477 23.5523 11 23 11H1Z" fill="black"/>
</svg>
