<svg width="24" height="24" viewBox="0 0 24 24" fill="none" xmlns="http://www.w3.org/2000/svg">
<path d="M10.5 1C5.25332 1 1 5.25332 1 10.5C1 15.7467 5.25332 20 10.5 20C12.7631 20 14.8414 19.2086 16.4733 17.8875L20.1464 21.5606C20.5369 21.9511 21.1701 21.9511 21.5606 21.5606C21.9511 21.1701 21.9511 20.5369 21.5606 20.1464L17.8875 16.4733C19.2086 14.8414 20 12.7631 20 10.5C20 5.25332 15.7467 1 10.5 1ZM3 10.5C3 6.35788 6.35788 3 10.5 3C14.6421 3 18 6.35788 18 10.5C18 14.6421 14.6421 18 10.5 18C6.35788 18 3 14.6421 3 10.5Z" fill="black"/>
</svg>
