<svg width="24" height="24" viewBox="0 0 24 24" fill="none" xmlns="http://www.w3.org/2000/svg">
<g clip-path="url(#clip0_22030_113510)">
<rect width="24" height="24" fill="white"/>
<circle cx="12" cy="12" r="10" stroke="black" stroke-width="2" stroke-linecap="round" stroke-dasharray="3 4"/>
<rect x="4" y="4" width="16" height="16" rx="8" fill="white"/>
<g clip-path="url(#clip1_22030_113510)">
<path d="M12.8334 11.1666V7.83325H11.1667V11.1666H7.83337V12.8333H11.1667V16.1666H12.8334V12.8333H16.1667V11.1666H12.8334Z" fill="black"/>
</g>
<path d="M18.1719 1.58008C18.7257 0.509986 20.2743 0.509983 20.8281 1.58008L20.8799 1.69043L21.5449 3.25391L22.9932 4.27344C23.8427 4.87085 23.8427 6.12915 22.9932 6.72656L21.5449 7.74512L20.8799 9.30957C20.3621 10.5267 18.6379 10.5267 18.1201 9.30957L17.4541 7.74512L16.0068 6.72656C15.1573 6.12915 15.1573 4.87085 16.0068 4.27344L17.4541 3.25391L18.1201 1.69043L18.1719 1.58008Z" fill="black" stroke="white" stroke-width="2"/>
<path d="M3.10254 15.8281C3.58405 14.5957 5.28879 14.5574 5.84668 15.7129L5.89746 15.8281L6.21387 16.6387L7.08984 17.3086C7.87392 17.909 7.87392 19.091 7.08984 19.6914L6.21387 20.3604L5.89746 21.1719C5.40043 22.4441 3.59957 22.4441 3.10254 21.1719L2.78516 20.3604L1.91016 19.6914C1.12608 19.091 1.12608 17.909 1.91016 17.3086L2.78516 16.6387L3.10254 15.8281Z" fill="black" stroke="white" stroke-width="2"/>
</g>
<defs>
<clipPath id="clip0_22030_113510">
<rect width="24" height="24" fill="white"/>
</clipPath>
<clipPath id="clip1_22030_113510">
<rect width="10" height="10" fill="white" transform="translate(7 7)"/>
</clipPath>
</defs>
</svg>
