<svg width="24" height="24" viewBox="0 0 24 24" fill="none" xmlns="http://www.w3.org/2000/svg">
<path d="M12 8C9.79088 8 8 9.79088 8 12C8 14.2091 9.79088 16 12 16C14.2091 16 16 14.2091 16 12C16 9.79088 14.2091 8 12 8ZM10 12C10 10.8954 10.8954 10 12 10C13.1046 10 14 10.8954 14 12C14 13.1046 13.1046 14 12 14C10.8954 14 10 13.1046 10 12Z" fill="black"/>
<path d="M12.7044 2H11.2958C10.2161 1.99998 9.33376 1.99997 8.60831 2.07122C7.85005 2.14568 7.18556 2.30343 6.5573 2.66428C5.92904 3.02513 5.45796 3.51962 5.01157 4.13706C4.58448 4.72779 4.13989 5.48996 3.59588 6.42256L2.9626 7.50817C2.41038 8.45478 1.95919 9.2282 1.65168 9.9003C1.33029 10.6027 1.13086 11.2656 1.13086 12C1.13086 12.7344 1.33029 13.3973 1.65168 14.0997C1.95919 14.7718 2.41037 15.5452 2.96259 16.4918L3.59588 17.5774C4.13988 18.51 4.58449 19.2722 5.01157 19.8629C5.45796 20.4804 5.92904 20.9749 6.5573 21.3357C7.18556 21.6966 7.85005 21.8543 8.60831 21.9288C9.33375 22 10.2161 22 11.2957 22H12.7045C13.7841 22 14.6665 22 15.3919 21.9288C16.1502 21.8543 16.8147 21.6966 17.443 21.3357C18.0713 20.9748 18.5423 20.4803 18.9887 19.8629C19.4158 19.2721 19.8604 18.5099 20.4044 17.5773L21.0376 16.4917C21.5898 15.5451 22.041 14.7717 22.3485 14.0996C22.6698 13.3972 22.8692 12.7344 22.8692 12C22.8692 11.2656 22.6698 10.6028 22.3485 9.90039C22.041 9.22832 21.5898 8.45493 21.0377 7.50836L20.4044 6.42272C19.8604 5.49014 19.4158 4.72787 18.9887 4.13715C18.5423 3.51968 18.0713 3.02517 17.443 2.66431C16.8147 2.30344 16.1502 2.14569 15.3919 2.07122C14.6665 1.99997 13.7841 1.99998 12.7044 2ZM7.55341 4.39857C7.85039 4.228 8.20926 4.12003 8.80379 4.06164C9.42013 4.00111 10.2042 4 11.345 4H12.6551C13.796 4 14.5801 4.00111 15.1965 4.06164C15.791 4.12003 16.1499 4.228 16.4469 4.39858C16.7438 4.56917 17.0179 4.82475 17.3679 5.30889C17.7308 5.81079 18.1268 6.48751 18.7016 7.47299L19.285 8.47298C19.8683 9.47309 20.2684 10.1612 20.5298 10.7325C20.7819 11.2836 20.8692 11.653 20.8692 12C20.8692 12.347 20.7819 12.7164 20.5298 13.2675C20.2684 13.8388 19.8683 14.5269 19.285 15.527L18.7016 16.527C18.1268 17.5125 17.7308 18.1892 17.3679 18.6911C17.0179 19.1753 16.7438 19.4308 16.4469 19.6014C16.1499 19.772 15.791 19.88 15.1965 19.9384C14.5801 19.9989 13.796 20 12.6551 20H11.345C10.2042 20 9.42013 19.9989 8.80379 19.9384C8.20926 19.88 7.85039 19.772 7.55341 19.6014C7.25644 19.4309 6.98235 19.1753 6.63235 18.6912C6.2695 18.1893 5.87347 17.5126 5.29862 16.5271L4.71528 15.5272C4.13185 14.527 3.73174 13.8389 3.47036 13.2676C3.2182 12.7165 3.13086 12.347 3.13086 12C3.13086 11.653 3.2182 11.2835 3.47036 10.7324C3.73174 10.1611 4.13185 9.473 4.71528 8.47285L5.29862 7.47285C5.87347 6.48741 6.2695 5.81072 6.63235 5.30884C6.98235 4.82472 7.25644 4.56914 7.55341 4.39857Z" fill="black"/>
</svg>
