<svg width="24" height="24" viewBox="0 0 24 24" fill="none" xmlns="http://www.w3.org/2000/svg">
<path d="M2.46922 4H1.5V2H3.25C3.70887 2 4.10885 2.3123 4.22014 2.75746L4.78078 5H23.2808L20.2808 17H19.5H6.5H5.71922L2.46922 4ZM6.5 17C5.11929 17 4 18.1193 4 19.5C4 20.8807 5.11929 22 6.5 22C7.88071 22 9 20.8807 9 19.5C9 18.1193 7.88071 17 6.5 17ZM19.5 17C18.1193 17 17 18.1193 17 19.5C17 20.8807 18.1193 22 19.5 22C20.8807 22 22 20.8807 22 19.5C22 18.1193 20.8807 17 19.5 17ZM5.28078 7L7.28078 15H18.7192L20.7192 7H5.28078Z" fill="black"/>
</svg>
