<svg width="24" height="24" viewBox="0 0 24 24" fill="none" xmlns="http://www.w3.org/2000/svg">
<g clip-path="url(#clip0_2780_95900)">
<path d="M6.92943 5H17.0706C18.4247 4.99997 19.5413 4.99994 20.4251 5.11875C21.3529 5.2435 22.1723 5.51547 22.8284 6.17158C23.4845 6.82768 23.7565 7.64711 23.8813 8.57494C24.0001 9.4587 24 10.5753 24 11.9295V12.0705C24 13.4247 24.0001 14.5413 23.8813 15.4251C23.7565 16.3529 23.4845 17.1723 22.8284 17.8284C22.1723 18.4845 21.3529 18.7565 20.4251 18.8813C19.5413 19.0001 18.4247 19 17.0706 19H6.92943C5.57531 19 4.4587 19.0001 3.57494 18.8813C2.64711 18.7565 1.82768 18.4845 1.17158 17.8284C0.515467 17.1723 0.243498 16.3529 0.118755 15.4251C-6.35162e-05 14.5413 -3.41884e-05 13.4247 1.21679e-06 12.0706V11.9294C-3.41884e-05 10.5753 -6.35162e-05 9.4587 0.118755 8.57494C0.243498 7.64711 0.515467 6.82768 1.17158 6.17158C1.82768 5.51547 2.64711 5.2435 3.57494 5.11875C4.4587 4.99994 5.57531 4.99997 6.92943 5ZM3.84143 7.10092C3.13538 7.19585 2.80836 7.36322 2.58579 7.58579C2.36322 7.80836 2.19585 8.13538 2.10092 8.84143C2.00213 9.57625 2 10.5575 2 12C2 13.4425 2.00213 14.4238 2.10092 15.1586C2.19585 15.8646 2.36322 16.1916 2.58579 16.4142C2.80836 16.6368 3.13538 16.8042 3.84143 16.8991C4.57625 16.9979 5.55752 17 7 17H17C18.4425 17 19.4237 16.9979 20.1586 16.8991C20.8646 16.8042 21.1916 16.6368 21.4142 16.4142C21.6368 16.1916 21.8042 15.8646 21.8991 15.1586C21.9979 14.4238 22 13.4425 22 12C22 10.5575 21.9979 9.57625 21.8991 8.84143C21.8042 8.13538 21.6368 7.80836 21.4142 7.58579C21.1916 7.36322 20.8646 7.19585 20.1586 7.10092C19.4237 7.00213 18.4425 7 17 7H7C5.55752 7 4.57625 7.00213 3.84143 7.10092Z" fill="black"/>
</g>
<defs>
<clipPath id="clip0_2780_95900">
<rect width="24" height="24" fill="white"/>
</clipPath>
</defs>
</svg>
