<svg width="24" height="24" viewBox="0 0 24 24" fill="none" xmlns="http://www.w3.org/2000/svg">
<path fill-rule="evenodd" clip-rule="evenodd" d="M1 12C1 5.92487 5.92487 1 12 1C18.0751 1 23 5.92487 23 12C23 18.0751 18.0751 23 12 23C5.92487 23 1 18.0751 1 12ZM12 3C7.02943 3 3 7.02943 3 12C3 16.9706 7.02943 21 12 21C16.9706 21 21 16.9706 21 12C21 7.02943 16.9706 3 12 3Z" fill="black"/>
<path fill-rule="evenodd" clip-rule="evenodd" d="M15.5 8C16.0523 8 16.5 8.44772 16.5 9V9.5C16.5 10.0523 16.0523 10.5 15.5 10.5C14.9477 10.5 14.5 10.0523 14.5 9.5V9C14.5 8.44772 14.9477 8 15.5 8Z" fill="black"/>
<path fill-rule="evenodd" clip-rule="evenodd" d="M8.5 8C9.05229 8 9.5 8.44772 9.5 9V9.5C9.5 10.0523 9.05229 10.5 8.5 10.5C7.94772 10.5 7.5 10.0523 7.5 9.5V9C7.5 8.44772 7.94772 8 8.5 8Z" fill="black"/>
<path fill-rule="evenodd" clip-rule="evenodd" d="M9.3904 15.0448C9.14095 14.5567 8.5441 14.3599 8.05279 14.6056C7.55881 14.8526 7.35858 15.4532 7.60557 15.9472L8.5 15.5C7.60557 15.9472 7.6058 15.9477 7.60602 15.9481L7.6065 15.9491L7.60752 15.9511L7.60987 15.9557L7.61579 15.9672C7.62027 15.9758 7.62586 15.9864 7.63255 15.9987C7.64593 16.0234 7.6638 16.0554 7.68631 16.0936C7.73127 16.1699 7.79516 16.2718 7.87929 16.3905C8.04677 16.627 8.2992 16.9372 8.64814 17.2474C9.35443 17.8752 10.4572 18.5 12 18.5C13.5428 18.5 14.6456 17.8752 15.3519 17.2474C15.7008 16.9372 15.9532 16.627 16.1207 16.3905C16.2048 16.2718 16.2687 16.1699 16.3137 16.0936C16.3362 16.0554 16.3541 16.0234 16.3675 15.9987C16.3741 15.9864 16.3797 15.9758 16.3842 15.9672L16.3901 15.9557L16.3925 15.9511L16.394 15.9481C16.3942 15.9477 16.3944 15.9472 15.5 15.5L16.3944 15.9472C16.6414 15.4532 16.4412 14.8526 15.9472 14.6056C15.4559 14.3599 14.859 14.5567 14.6096 15.0448C14.61 15.044 14.6102 15.0437 14.6096 15.0448L14.6072 15.0496L14.6064 15.0511M14.6064 15.0511C14.6076 15.0487 14.6084 15.0472 14.6096 15.0448C14.6094 15.0452 14.6092 15.0456 14.6089 15.0462C14.6064 15.0508 14.6003 15.0618 14.5906 15.0782C14.5711 15.1113 14.5373 15.1657 14.4887 15.2345C14.3905 15.373 14.2367 15.5628 14.0231 15.7526C13.6044 16.1248 12.9572 16.5 12 16.5C11.0428 16.5 10.3956 16.1248 9.97686 15.7526C9.7633 15.5628 9.60948 15.373 9.51134 15.2345C9.46265 15.1657 9.42889 15.1113 9.40939 15.0782C9.39968 15.0618 9.39362 15.0508 9.39113 15.0462C9.39084 15.0456 9.39059 15.0452 9.3904 15.0448" fill="black"/>
</svg>
