<svg width="24" height="24" viewBox="0 0 24 24" fill="none" xmlns="http://www.w3.org/2000/svg">
<path d="M14 16.905C14 17.9289 13.9999 18.8038 14.0894 19.4492C14.1737 20.057 14.3957 20.9374 15.2788 21.2788C16.162 21.6203 16.9185 21.1181 17.3897 20.7251C17.8901 20.3077 18.4785 19.6604 19.1672 18.9027L21.74 16.0727C22.1115 15.664 22.0814 15.0316 21.6727 14.6601C21.264 14.2886 20.6316 14.3187 20.2601 14.7273L17.74 17.4995C16.984 18.331 16.4891 18.8718 16.1087 19.1892L16.0764 19.2157L16.0705 19.1744C16.0024 18.6837 16 17.9506 16 16.8268L16 3C16 2.44772 15.5523 2 15 2C14.4477 2 14 2.44772 14 3L14 16.905Z" fill="black"/>
<path d="M10 7.095C10.0001 6.07111 10.0001 5.19624 9.9106 4.55084C9.8263 3.94305 9.60435 3.0626 8.7212 2.72117C7.83805 2.37974 7.08157 2.88191 6.61035 3.27494C6.10997 3.69228 5.52151 4.33966 4.83281 5.09731L2.26007 7.92733C1.88856 8.33599 1.91868 8.96844 2.32733 9.33994C2.73599 9.71145 3.36844 9.68133 3.73995 9.27268L6.26007 6.50055C7.01605 5.66896 7.51091 5.12816 7.89137 4.81084L7.92358 4.7843L7.92956 4.8256C7.99763 5.31633 8.00001 6.04937 8.00001 7.17322L8.00001 21C8.00001 21.5523 8.44772 22 9.00001 22C9.55229 22 10 21.5523 10 21L10 7.095Z" fill="black"/>
</svg>
