<svg width="24" height="24" viewBox="0 0 24 24" fill="none" xmlns="http://www.w3.org/2000/svg">
<path d="M10.2066 2.37445C10.9402 0.887963 13.0599 0.887957 13.7935 2.37445L16.1908 7.23192L21.5513 8.01085C23.1918 8.24922 23.8468 10.2652 22.6598 11.4222L18.7809 15.2033L19.6965 20.5421C19.9768 22.1759 18.2619 23.4219 16.7946 22.6505L12 20.1298L7.20542 22.6505C5.73817 23.4219 4.0233 22.1759 4.30352 20.5421L5.21921 15.2033L1.34029 11.4222C0.153261 10.2652 0.808275 8.24922 2.44872 8.01085L7.80926 7.23192L10.2066 2.37445ZM14.3973 8.11705L12 3.25958L9.60273 8.11705C9.3114 8.70734 8.74827 9.11648 8.09685 9.21113L2.73632 9.99007L6.61524 13.7711C7.08661 14.2306 7.3017 14.8926 7.19043 15.5413L6.27474 20.8802L11.0693 18.3595C11.652 18.0532 12.3481 18.0532 12.9307 18.3595L17.7253 20.8802L16.8096 15.5413C16.6984 14.8926 16.9135 14.2306 17.3848 13.7711L21.2637 9.99007L15.9032 9.21113C15.2518 9.11648 14.6887 8.70734 14.3973 8.11705Z" fill="black"/>
</svg>
