<svg width="24" height="24" viewBox="0 0 24 24" fill="none" xmlns="http://www.w3.org/2000/svg">
<path d="M6 7.24983C6.60479 7.24983 7.06068 7.61785 7.33106 8.02327C7.60482 8.43393 7.74993 8.95837 7.75 9.49983C7.75 10.0413 7.60477 10.5657 7.33106 10.9764C7.0607 11.3819 6.60493 11.7498 6 11.7498C5.39508 11.7498 4.9393 11.3819 4.66895 10.9764C4.39524 10.5657 4.25 10.0413 4.25 9.49983C4.25008 8.95837 4.39519 8.43393 4.66895 8.02327C4.93933 7.61785 5.39522 7.24984 6 7.24983Z" fill="black"/>
<path d="M12.7236 2.71565C13.7911 2.67797 14.7601 2.8407 15.5674 3.51643C15.8154 3.72405 16.018 3.95561 16.1846 4.20686C17.0777 4.01927 17.8237 3.86703 18.4453 3.79768C19.1729 3.71654 19.854 3.7295 20.502 3.99202C21.24 4.29105 21.8724 4.80336 22.3174 5.4637C22.708 6.0435 22.8608 6.70774 22.9316 7.43635C23.0014 8.15466 23 9.05783 23 10.1649V13.8348C23 14.9418 23.0014 15.845 22.9316 16.5633C22.8608 17.2919 22.708 17.9561 22.3174 18.536C21.8724 19.1964 21.24 19.7086 20.502 20.0076C19.8539 20.2702 19.1729 20.2831 18.4453 20.202C17.8236 20.1326 17.0778 19.9794 16.1846 19.7918C16.0179 20.0434 15.8156 20.2754 15.5674 20.4832C14.7601 21.1591 13.7912 21.3217 12.7236 21.284C11.6839 21.2472 10.3745 21.011 8.76954 20.7244L6.76954 20.367C5.61276 20.1604 4.65373 19.9912 3.90235 19.7586C3.12466 19.5178 2.45251 19.1765 1.93262 18.5555C1.41302 17.9345 1.195 17.213 1.09473 16.4051C0.997939 15.6246 1 14.6511 1 13.4764V10.5233C1 9.34851 0.997897 8.375 1.09473 7.59456C1.19503 6.78675 1.41295 6.06508 1.93262 5.44417C2.45251 4.82333 3.1247 4.48181 3.90235 4.24104C4.65374 4.00847 5.61278 3.83921 6.76954 3.63264L8.76954 3.27522C10.3745 2.98862 11.6839 2.75242 12.7236 2.71565ZM14.2246 15.1776C13.3466 14.9866 12.0549 14.8763 10.459 15.2371C9.10104 15.5442 7.96895 16.5293 7.13672 17.5477C6.92351 17.8086 6.7357 18.0645 6.5752 18.2996C6.74779 18.3308 6.92945 18.364 7.1211 18.3983L9.1211 18.7557C10.7868 19.0531 11.9307 19.2545 12.7949 19.285C13.6312 19.3145 14.0174 19.1734 14.2842 18.95C14.5508 18.7266 14.7581 18.371 14.876 17.5428C14.9561 16.9796 14.9822 16.284 14.9922 15.3924C14.79 15.3221 14.5324 15.2445 14.2246 15.1776ZM19.751 5.84553C19.5498 5.76404 19.2546 5.72043 18.667 5.78596C18.196 5.8385 17.6178 5.95257 16.8447 6.11311C16.8478 6.13365 16.8525 6.15399 16.8555 6.17464C17.0021 7.20457 17 8.53554 17 10.1658V13.8338C17 15.4641 17.0021 16.7951 16.8555 17.825C16.8525 17.8456 16.8478 17.8661 16.8447 17.8865C17.6178 18.0471 18.196 18.1612 18.667 18.2137C19.2547 18.2793 19.5498 18.2356 19.751 18.1541C20.1198 18.0047 20.4358 17.7487 20.6582 17.4188C20.7794 17.2387 20.8833 16.9582 20.9404 16.3699C20.9986 15.771 21 14.9822 21 13.8348V10.1649C21 9.01748 20.9986 8.22869 20.9404 7.62971C20.8832 7.04144 20.7795 6.76088 20.6582 6.58089C20.4357 6.25103 20.1197 5.99496 19.751 5.84553ZM12.7949 4.71467C11.9308 4.74518 10.7867 4.94653 9.1211 5.24397L7.1211 5.60139C5.91418 5.81691 5.09958 5.9638 4.49414 6.1512C3.91575 6.33024 3.64654 6.51293 3.4668 6.72737C3.28711 6.942 3.15473 7.23957 3.08008 7.84065C3.00203 8.46953 3 9.29744 3 10.5233V13.4764C3 14.7022 3.00207 15.5301 3.08008 16.159C3.15469 16.7601 3.28717 17.0576 3.4668 17.2723C3.64622 17.4865 3.91473 17.6687 4.49121 17.8475C4.73914 17.4316 5.10704 16.8706 5.58789 16.2821C6.5366 15.1211 8.02367 13.7369 10.0176 13.286C11.9354 12.8523 13.5251 12.9789 14.6494 13.2235C14.772 13.2501 14.8887 13.2796 15 13.3084V10.1658C15 8.47436 14.9978 7.31281 14.876 6.45686C14.758 5.62878 14.5509 5.273 14.2842 5.04964C14.0174 4.82637 13.631 4.68519 12.7949 4.71467Z" fill="black"/>
</svg>
