<svg width="24" height="24" viewBox="0 0 24 24" fill="none" xmlns="http://www.w3.org/2000/svg">
<path d="M11 2.99999C11 2.9993 11 3.00103 11 3.00102C11 2.44875 10.5491 1.99927 9.9968 2.00103C9.9968 2.00103 10.0021 2.00102 9.99999 2.00102C8.60892 2.00548 7.41584 2.02923 6.47767 2.15536C5.27752 2.31672 4.26702 2.66191 3.46447 3.46447C2.66191 4.26702 2.31672 5.27752 2.15537 6.47766C1.99995 7.63362 1.99997 9.10337 2 10.9268V13.0732C1.99997 14.8966 1.99995 16.3664 2.15537 17.5223C2.31672 18.7225 2.66191 19.733 3.46447 20.5355C4.26702 21.3381 5.27752 21.6833 6.47767 21.8446C7.63363 22 9.1034 22 10.9269 22H13.0731C14.8966 22 16.3664 22 17.5223 21.8446C18.7225 21.6833 19.733 21.3381 20.5355 20.5355C21.3381 19.733 21.6833 18.7225 21.8446 17.5223C21.9708 16.5842 21.9945 15.3911 21.999 14C21.999 13.9979 21.999 14.0032 21.999 14.0032C22.0007 13.4509 21.5513 13 20.999 13C20.999 13 21.0007 13 21 13C20.9993 13 20.999 13 20.999 13C20.4467 13 20.0007 13.4447 19.999 13.9969C19.999 13.9969 19.999 13.998 19.999 14.0002C19.9947 15.3945 19.9729 16.4342 19.8625 17.2558C19.7309 18.2342 19.4903 18.7523 19.1213 19.1213C18.7523 19.4903 18.2342 19.7309 17.2558 19.8625C16.2487 19.9979 14.9139 20 13 20H11C9.08611 20 7.7513 19.9979 6.74416 19.8625C5.76579 19.7309 5.2477 19.4903 4.87868 19.1213C4.50966 18.7523 4.26907 18.2342 4.13753 17.2558C4.00213 16.2487 4 14.9139 4 13V11C4 9.08611 4.00213 7.75129 4.13753 6.74416C4.26907 5.76579 4.50966 5.2477 4.87868 4.87868C5.2477 4.50966 5.7658 4.26907 6.74416 4.13753C7.5658 4.02706 8.60553 4.0053 9.99985 4.00104C10.002 4.00103 10.0031 4.00103 10.0031 4.00103C10.5553 3.99933 11 3.55332 11 3.00104C11 3.00103 11 3.00069 11 2.99999Z" fill="black"/>
<path d="M17.0748 4.29694L18.3872 4.19851L13.1988 9.38694L13.2972 8.07453C13.3385 7.52379 12.9256 7.04385 12.3748 7.00254C11.8241 6.96124 11.3441 7.37422 11.3028 7.92495L11.1722 9.66692C11.1356 10.1538 11.1006 10.619 11.1257 11.0004C11.1536 11.4255 11.2637 11.9237 11.67 12.3299C12.0762 12.7362 12.5745 12.8463 12.9996 12.8742C13.381 12.8992 13.8461 12.8643 14.333 12.8276L16.0749 12.6969C16.6256 12.6556 17.0386 12.1757 16.9972 11.6249C16.9559 11.0742 16.476 10.6612 15.9252 10.7025L14.6132 10.801L19.8013 5.61292L19.7028 6.9252C19.6615 7.47594 20.0745 7.95588 20.6253 7.99718C21.176 8.03849 21.6559 7.62551 21.6972 7.07477L21.8279 5.3326C21.8645 4.8457 21.8995 4.3806 21.8744 3.99919C21.8465 3.57409 21.7364 3.07587 21.3301 2.66964C20.9239 2.26341 20.4257 2.15325 20.0006 2.12535C19.6192 2.10031 19.1541 2.13528 18.6672 2.17189L16.9253 2.30254C16.3745 2.34385 15.9615 2.82379 16.0028 3.37453C16.0442 3.92527 16.5241 4.33824 17.0748 4.29694Z" fill="black"/>
</svg>
