<svg width="24" height="24" viewBox="0 0 24 24" fill="none" xmlns="http://www.w3.org/2000/svg">
<path d="M15.47 15.4113C16.1055 15.0917 16.7459 15.2203 16.9959 15.3954C17.4483 15.7122 18.0719 15.6023 18.3887 15.1499C18.7055 14.6975 18.5956 14.0739 18.1432 13.7571C17.2348 13.121 15.8013 13.006 14.5714 13.6245C14.078 13.8726 13.8792 14.4738 14.1273 14.9672C14.3754 15.4606 14.9766 15.6594 15.47 15.4113Z" fill="black"/>
<path fill-rule="evenodd" clip-rule="evenodd" d="M8.72258 1C6.67529 1 4.80371 2.15669 3.88812 3.98784L3.60565 4.55279C2.71619 6.33171 1.80199 9.21319 1.62681 12.1913C1.45275 15.1504 2.0008 18.4079 4.28413 20.6982L4.29289 20.7071C4.55955 20.9738 4.91395 21.1835 5.26285 21.3508C5.62634 21.525 6.05218 21.685 6.51454 21.8285C7.43999 22.1157 8.57036 22.3548 9.7628 22.5047C12.0304 22.7897 14.7222 22.7769 16.7055 21.9965C19.924 21.8882 22.5 19.2449 22.5 16C22.5 12.6863 19.8137 10 16.5 10C14.9125 10 13.2611 10.5654 12.0671 11.0823C11.4574 11.3463 10.9398 11.6098 10.5735 11.8079C10.5375 11.8273 10.5029 11.8462 10.4698 11.8644C10.0159 10.7589 9.78155 9.4199 9.88625 8H10.14C12.4846 8 14.1661 5.73992 13.4924 3.49428C13.0483 2.01384 11.6857 1 10.14 1H8.72258ZM11.5248 13.5671L11.5055 13.5776C11.5714 13.6525 11.6387 13.7243 11.7072 13.7929C12.0977 14.1834 12.0977 14.8166 11.7072 15.2071C11.3167 15.5976 10.6835 15.5976 10.293 15.2071C8.64725 13.5613 7.70995 10.8461 7.88265 7.99317C7.38572 7.93503 7.00011 7.51255 7.00011 7C7.00011 6.44772 7.44783 6 8.00011 6H10.14C11.1448 6 11.8655 5.0314 11.5768 4.06898C11.3864 3.4345 10.8024 3 10.14 3H8.72258C7.43283 3 6.25377 3.72869 5.67697 4.88228L5.3945 5.44721C4.6173 7.00162 3.78151 9.62015 3.62336 12.3087C3.46432 15.0124 3.99797 17.5837 5.7072 19.2929L5.71044 19.2961C5.74802 19.332 5.86926 19.4235 6.12738 19.5473C6.37913 19.668 6.70876 19.7947 7.10734 19.9184C7.90376 20.1655 8.91714 20.3827 10.0122 20.5203C12.247 20.8012 14.6048 20.7243 16.1061 20.0809C16.2306 20.0275 16.3646 20 16.5 20C18.7091 20 20.5 18.2091 20.5 16C20.5 13.7909 18.7091 12 16.5 12C15.3261 12 13.9775 12.4346 12.8618 12.9177C12.3167 13.1537 11.8521 13.3902 11.5248 13.5671Z" fill="black"/>
</svg>
