<svg width="24" height="24" viewBox="0 0 24 24" fill="none" xmlns="http://www.w3.org/2000/svg">
<path fill-rule="evenodd" clip-rule="evenodd" d="M2.00003 6C2.00003 3.51474 4.01476 1.5 6.50003 1.5C8.98529 1.5 11 3.51474 11 6C11 8.48526 8.98529 10.5 6.50003 10.5C4.01476 10.5 2.00003 8.48526 2.00003 6ZM6.50003 3.5C5.11933 3.5 4.00003 4.6193 4.00003 6C4.00003 7.3807 5.11933 8.5 6.50003 8.5C7.88072 8.5 9.00003 7.3807 9.00003 6C9.00003 4.6193 7.88072 3.5 6.50003 3.5Z" fill="black"/>
<path d="M22.6569 9.62134L21.2427 8.20712L19.9317 9.51812C19.4543 6.11702 16.5328 3.5 13 3.5H12V5.5H13C15.227 5.5 17.114 6.95601 17.761 8.96802L17.0001 8.20712L15.5859 9.62134L18.4143 12.4498C18.8048 12.8403 19.438 12.8403 19.8285 12.4498L22.6569 9.62134Z" fill="black"/>
<path d="M1.58582 14.6213L3.00003 16.0356L4.1393 14.8963C4.78645 18.0933 7.6122 20.5 11 20.5H12V18.5H11C8.77302 18.5 6.88603 17.044 6.2391 15.032L7.24267 16.0356L8.65688 14.6213L5.82846 11.7929C5.43793 11.4024 4.80477 11.4024 4.41424 11.7929L1.58582 14.6213Z" fill="black"/>
<path fill-rule="evenodd" clip-rule="evenodd" d="M15 13.5C14.4477 13.5 14 13.9477 14 14.5V21.5C14 22.0523 14.4477 22.5 15 22.5H22C22.5523 22.5 23 22.0523 23 21.5V14.5C23 13.9477 22.5523 13.5 22 13.5H15ZM16 20.5V15.5H21V20.5H16Z" fill="black"/>
</svg>
