<svg width="24" height="24" viewBox="0 0 24 24" fill="none" xmlns="http://www.w3.org/2000/svg">
<path d="M12.4387 6.30207C12.249 5.9553 11.751 5.9553 11.5613 6.30207L10.3025 8.60373C10.2566 8.68762 10.1876 8.7566 10.1037 8.80249L7.80207 10.0613C7.4553 10.251 7.4553 10.749 7.80207 10.9387L10.1037 12.1975C10.1876 12.2434 10.2566 12.3123 10.3025 12.3962L11.5613 14.6979C11.751 15.0447 12.249 15.0447 12.4387 14.6979L13.6975 12.3962C13.7434 12.3123 13.8123 12.2434 13.8962 12.1975L16.1979 10.9387C16.5447 10.749 16.5447 10.251 16.1979 10.0613L13.8962 8.80249C13.8123 8.7566 13.7434 8.68762 13.6975 8.60373L12.4387 6.30207Z" fill="black"/>
<path d="M16.2413 1H7.7587C6.95373 0.999988 6.28937 0.999977 5.74818 1.04419C5.18608 1.09012 4.66938 1.18868 4.18404 1.43597C3.43139 1.81947 2.81947 2.43139 2.43598 3.18404C2.18869 3.66937 2.09012 4.18608 2.0442 4.74817C1.99998 5.28937 1.99999 5.95373 2 6.7587L2 18.9673C1.99998 19.5988 1.99996 20.1406 2.03945 20.5712C2.07952 21.0081 2.17033 21.4931 2.47021 21.9102C2.88047 22.4808 3.51195 22.8523 4.20998 22.9338C4.72021 22.9934 5.18825 22.8373 5.58967 22.6601C5.98523 22.4856 6.4588 22.2224 7.01081 21.9157L10.1546 20.1692C11.062 19.6651 11.3323 19.5273 11.5971 19.4729C11.8629 19.4182 12.1371 19.4182 12.4029 19.4729C12.6677 19.5273 12.938 19.6651 13.8454 20.1692L16.9892 21.9157C17.5412 22.2224 18.0148 22.4856 18.4103 22.6601C18.8118 22.8373 19.2798 22.9934 19.79 22.9338C20.4881 22.8523 21.1195 22.4808 21.5298 21.9102C21.8297 21.4931 21.9205 21.0081 21.9606 20.5712C22 20.1406 22 19.5989 22 18.9674V6.75868C22 5.95372 22 5.28936 21.9558 4.74817C21.9099 4.18608 21.8113 3.66937 21.564 3.18404C21.1805 2.43139 20.5686 1.81947 19.816 1.43597C19.3306 1.18868 18.8139 1.09012 18.2518 1.04419C17.7106 0.999977 17.0463 0.999988 16.2413 1ZM5.09202 3.21799C5.24842 3.1383 5.47262 3.07337 5.91104 3.03755C6.36113 3.00078 6.94342 3 7.8 3H16.2C17.0566 3 17.6389 3.00078 18.089 3.03755C18.5274 3.07337 18.7516 3.1383 18.908 3.21799C19.2843 3.40973 19.5903 3.7157 19.782 4.09202C19.8617 4.24842 19.9266 4.47262 19.9625 4.91104C19.9992 5.36113 20 5.94342 20 6.8V18.9212C20 19.6118 19.999 20.0605 19.9689 20.3885C19.9449 20.6508 19.9085 20.7351 19.903 20.7467C19.8219 20.8572 19.699 20.9295 19.5631 20.9467C19.5502 20.9459 19.4589 20.9368 19.2179 20.8304C18.9165 20.6974 18.5238 20.4804 17.9201 20.145L14.6971 18.3543C13.9633 17.9461 13.4096 17.6381 12.8058 17.5139C12.2742 17.4045 11.7258 17.4045 11.1942 17.5139C10.5904 17.6381 10.0367 17.9461 9.30295 18.3543L6.07991 20.145C5.4762 20.4804 5.08346 20.6974 4.78211 20.8304C4.54113 20.9368 4.4498 20.9459 4.43694 20.9467C4.30103 20.9295 4.17815 20.8572 4.09704 20.7467C4.09156 20.7351 4.05515 20.6508 4.03109 20.3885C4.00101 20.0605 4 19.6118 4 18.9212V6.8C4 5.94342 4.00078 5.36113 4.03755 4.91104C4.07337 4.47262 4.1383 4.24842 4.21799 4.09202C4.40974 3.7157 4.7157 3.40973 5.09202 3.21799Z" fill="black"/>
</svg>
