<svg width="24" height="24" viewBox="0 0 24 24" fill="none" xmlns="http://www.w3.org/2000/svg">
<path d="M17.3999 7.2L18.9999 6H10C8.57473 6 7.58104 6.00121 6.81505 6.07913C6.06578 6.15535 5.64604 6.29662 5.33329 6.50559C5.00572 6.72446 4.72447 7.00572 4.50559 7.33329C4.29662 7.64604 4.15535 8.06578 4.07913 8.81505C4.00121 9.58104 4 10.5747 4 12H2L2 11.9461C1.99999 10.5874 1.99997 9.49173 2.0894 8.61264C2.18171 7.70523 2.3775 6.91829 2.84265 6.22215C3.20745 5.67619 3.6762 5.20744 4.22215 4.84265C4.91829 4.3775 5.70523 4.1817 6.61264 4.0894C7.49174 3.99997 8.58739 3.99998 9.94606 4L18.9999 4L17.3999 2.8C16.9581 2.46863 16.8685 1.84183 17.1999 1.4C17.5313 0.95817 18.1581 0.868627 18.5999 1.2L20.5183 2.6388C20.9624 2.97174 21.3792 3.28426 21.6757 3.5824C22.0013 3.90982 22.3333 4.36685 22.3333 5C22.3333 5.63315 22.0013 6.09018 21.6757 6.4176C21.3792 6.71574 20.9624 7.02825 20.5183 7.36119L18.5999 8.8C18.1581 9.13137 17.5313 9.04183 17.1999 8.6C16.8685 8.15817 16.9581 7.53137 17.3999 7.2Z" fill="black"/>
<path d="M4.99996 20H14.0539C15.4126 20 16.5083 20 17.3874 19.9106C18.2948 19.8183 19.0817 19.6225 19.7779 19.1573C20.3238 18.7926 20.7926 18.3238 21.1573 17.7778C21.6225 17.0817 21.8183 16.2948 21.9106 15.3874C22 14.5083 22 13.4126 22 12.0539V12H20C20 13.4253 19.9988 14.419 19.9209 15.1849C19.8446 15.9342 19.7034 16.354 19.4944 16.6667C19.2755 16.9943 18.9943 17.2755 18.6667 17.4944C18.354 17.7034 17.9342 17.8446 17.1849 17.9209C16.419 17.9988 15.4253 18 14 18H4.99996L6.59996 16.8C7.04179 16.4686 7.13133 15.8418 6.79996 15.4C6.46859 14.9582 5.84179 14.8686 5.39996 15.2L3.48155 16.6388C3.03747 16.9717 2.62064 17.2843 2.32419 17.5824C1.99862 17.9098 1.66663 18.3668 1.66663 19C1.66663 19.6332 1.99862 20.0902 2.32419 20.4176C2.62063 20.7157 3.03745 21.0282 3.48152 21.3612L5.39996 22.8C5.84179 23.1314 6.46859 23.0418 6.79996 22.6C7.13133 22.1582 7.04179 21.5314 6.59996 21.2L4.99996 20Z" fill="black"/>
</svg>
