<svg width="24" height="24" viewBox="0 0 24 24" fill="none" xmlns="http://www.w3.org/2000/svg">
<path d="M22.0523 6.48525C21.8578 5.68604 21.4805 4.9501 20.932 4.29385C20.4234 3.68682 19.7789 3.16182 19.0125 2.73291C17.5594 1.92197 15.7453 1.49307 13.7672 1.49307V2.76572V1.49072C12.6281 1.49072 11.468 1.63369 10.3148 1.91494C7.72968 2.54775 5.44921 3.82041 3.89062 5.50088C3.0914 6.36104 2.51952 7.28682 2.18906 8.25244C1.82577 9.31182 1.76718 10.3665 2.01796 11.3884C2.14218 11.897 2.3414 12.3798 2.60859 12.8321C2.02968 13.4017 1.72499 14.1095 1.76249 14.8431C1.78593 15.3212 1.95702 15.7899 2.25468 16.1954C2.50546 16.5353 2.84062 16.8282 3.25077 17.0673C3.97031 17.4868 4.90077 17.7165 5.87109 17.7165C5.97421 17.7165 6.07968 17.7142 6.18515 17.7095C6.41015 17.6978 6.63281 17.6743 6.85077 17.6392C6.96093 17.7001 7.07577 17.7587 7.19062 17.8173C7.7039 18.0751 8.02031 18.2884 8.15859 18.4735C8.23593 18.5767 8.27343 18.6845 8.25702 18.9704C8.21484 19.6876 7.69687 20.8384 6.90234 21.5181L7.72968 22.486C8.70234 21.654 9.45937 20.2056 9.52734 19.0478C9.54843 18.6728 9.52968 18.1853 9.18046 17.7142C9.02109 17.5009 8.80781 17.304 8.51249 17.1071C8.65781 17.0321 8.79609 16.9501 8.92734 16.861C9.15468 16.7087 9.3539 16.5399 9.52734 16.3595C9.78281 16.3735 10.043 16.3829 10.3078 16.3829C11.4469 16.3829 12.607 16.2399 13.7578 15.9587C16.343 15.3259 18.6234 14.0532 20.182 12.3728C20.9812 11.5126 21.5531 10.5868 21.8836 9.62119C22.2445 8.56182 22.3031 7.50713 22.0523 6.48525ZM3.03515 14.7821C3.01874 14.4634 3.14062 14.1587 3.36796 13.8868C3.56249 14.4306 3.8414 14.9462 4.19999 15.429C4.44843 15.7618 4.73437 16.0782 5.05546 16.3735C3.91171 16.1743 3.07265 15.5556 3.03515 14.7821ZM7.07109 16.2985C6.77109 16.1157 6.47109 15.9048 6.18515 15.6681C6.64921 15.8462 7.13906 15.9938 7.65234 16.1063C7.46952 16.1813 7.27499 16.247 7.07109 16.2985ZM8.91796 15.0282C7.08281 14.8079 5.50781 14.147 4.46718 13.1438V13.1415C4.89843 12.9681 5.39999 12.8579 5.9414 12.8298C6.02577 12.8251 6.10781 12.8228 6.19218 12.8228C7.73437 12.8228 8.98124 13.5399 9.02812 14.4868C9.03515 14.672 8.99765 14.8548 8.91796 15.0282ZM13.4508 14.7212C12.375 14.9837 11.3133 15.1103 10.3031 15.1103H10.2328C10.2867 14.8853 10.3101 14.6556 10.2984 14.4235C10.275 13.9454 10.1039 13.4767 9.80624 13.0712C9.55546 12.7313 9.2203 12.4384 8.81015 12.1993C8.09062 11.7798 7.16015 11.5501 6.18984 11.5501C6.08671 11.5501 5.98124 11.5524 5.87577 11.5571C5.07421 11.597 4.30781 11.7892 3.65859 12.1079C3.48046 11.7892 3.34218 11.4493 3.25546 11.0907C2.47265 7.89619 5.77031 4.34541 10.6195 3.15713C11.6953 2.88994 12.757 2.76572 13.7672 2.76572C17.3086 2.76572 20.2078 4.30088 20.8148 6.7876C21.5976 9.98213 18.3 13.5329 13.4508 14.7212Z" fill="black"/>
</svg>
