<svg width="24" height="24" viewBox="0 0 24 24" fill="none" xmlns="http://www.w3.org/2000/svg">
<path d="M12 0.999834C12.5522 0.999834 12.9999 1.44763 13 1.99983C13 2.55212 12.5523 2.99983 12 2.99983C7.0295 2.99983 3.0001 7.02935 3 11.9998C3 16.9704 7.02943 20.9998 12 20.9998C16.9706 20.9998 21 16.9704 21 11.9998C21.0001 11.4476 21.4478 10.9998 22 10.9998C22.5522 10.9998 22.9999 11.4476 23 11.9998C23 18.075 18.0751 22.9998 12 22.9998C5.92487 22.9998 1 18.075 1 11.9998C1.0001 5.92478 5.92493 0.999834 12 0.999834Z" fill="black"/>
<path d="M12 5.99983C12.5522 5.99983 12.9999 6.44763 13 6.99983C13 7.55212 12.5523 7.99983 12 7.99983C9.79092 7.99983 8.0001 9.79078 8 11.9998C8 14.209 9.79086 15.9998 12 15.9998C14.2091 15.9998 16 14.209 16 11.9998C16.0001 11.4476 16.4478 10.9998 17 10.9998C17.5522 10.9998 17.9999 11.4476 18 11.9998C18 15.3135 15.3137 17.9998 12 17.9998C8.68629 17.9998 6 15.3135 6 11.9998C6.0001 8.68621 8.68635 5.99983 12 5.99983Z" fill="black"/>
<path d="M18.6514 0.648272C18.893 0.406683 19.2416 0.305839 19.5752 0.379717C19.9087 0.453765 20.182 0.692541 20.2988 1.01351L21.082 3.1678L23.2363 3.95101L23.3525 4.00276C23.6144 4.13776 23.8063 4.38283 23.8711 4.67464C23.945 5.00821 23.8432 5.35687 23.6016 5.59847L19.4766 9.72249C19.2402 9.95887 18.901 10.0614 18.5732 9.99593L16.1514 9.51155L12.9951 12.6698C12.6047 13.0601 11.9716 13.0599 11.5811 12.6698C11.1905 12.2792 11.1905 11.6452 11.5811 11.2547L14.7373 8.09749L14.2539 5.67659C14.1884 5.34879 14.291 5.00965 14.5273 4.77327L18.6514 0.648272ZM16.3193 5.8094L16.6729 7.57698L18.4414 7.9305L21.0771 5.29476L19.96 4.88851C19.6822 4.78744 19.4625 4.56857 19.3613 4.29085L18.9551 3.17366L16.3193 5.8094Z" fill="black"/>
</svg>
