<svg width="24" height="24" viewBox="0 0 24 24" fill="none" xmlns="http://www.w3.org/2000/svg">
<circle cx="12" cy="12" r="11" fill="#2AACEF"/>
<path d="M5.43178 11.8733L12.4299 8.85892C15.7625 7.4728 16.4549 7.23203 16.9063 7.22408C17.0056 7.22233 17.2275 7.24693 17.3713 7.3636C17.4927 7.46209 17.5261 7.5952 17.5421 7.68856C17.5581 7.78192 17.578 7.99472 17.5621 8.16097C17.3815 10.0584 16.6001 14.6631 16.2026 16.7883C16.0344 17.6876 15.7034 17.9891 15.3825 18.0186C14.6856 18.0828 14.1565 17.5581 13.4815 17.1157L10.8035 15.3168C9.61872 14.5361 10.3868 14.1069 11.062 13.4057C11.2387 13.2221 14.3091 10.4293 14.3685 10.176C14.3757 10.1443 14.3828 10.0262 14.3126 9.96383C14.2425 9.90143 14.1389 9.92303 14.0642 9.93976C13.9583 9.9638 12.271 11.079 9.00252 13.2854C8.5236 13.6142 8.0898 13.7745 7.70117 13.7661C7.2727 13.7568 6.44851 13.5238 5.83582 13.3246C5.0843 13.0804 4.48702 12.9512 4.53905 12.5363C4.56612 12.3203 4.8637 12.0993 5.43175 11.8734L5.43178 11.8733Z" fill="white"/>
</svg>
