<svg width="24" height="24" viewBox="0 0 24 24" fill="none" xmlns="http://www.w3.org/2000/svg">
<path d="M13.5 1.86603C12.5718 1.33014 11.4282 1.33014 10.5 1.86604L3.97375 5.63398C3.04555 6.16988 2.47375 7.16026 2.47375 8.23206V15.768C2.47375 16.8398 3.04555 17.8301 3.97376 18.366L10.5 22.134C11.4282 22.6699 12.5718 22.6699 13.5 22.134L20.0263 18.366C20.9545 17.8301 21.5263 16.8398 21.5263 15.768V8.23206C21.5263 7.16026 20.9545 6.16988 20.0263 5.63398L13.5 1.86603ZM12.4387 6.8021L14.0511 9.7502C14.097 9.8341 14.1659 9.90308 14.2498 9.94896L17.1979 11.5613C17.5447 11.751 17.5447 12.249 17.1979 12.4387L14.2498 14.0511C14.1659 14.0969 14.097 14.1659 14.0511 14.2498L12.4387 17.1979C12.2491 17.5447 11.751 17.5447 11.5614 17.1979L9.94899 14.2498C9.9031 14.1659 9.83412 14.0969 9.75023 14.0511L6.80212 12.4387C6.45535 12.249 6.45535 11.751 6.80212 11.5613L9.75023 9.94896C9.83412 9.90308 9.9031 9.8341 9.94899 9.7502L11.5614 6.8021C11.751 6.45533 12.2491 6.45533 12.4387 6.8021Z" fill="black"/>
</svg>
