<svg width="24" height="24" viewBox="0 0 24 24" fill="none" xmlns="http://www.w3.org/2000/svg">
<path d="M8.96065 6.99996C8.76078 6.99983 8.52281 6.99968 8.31815 7.0272C8.07111 7.06041 7.72937 7.14932 7.43937 7.43931C7.14938 7.72931 7.06047 8.07104 7.02726 8.31809C6.99974 8.52275 6.99989 8.76072 7.00002 8.96059L7.00003 9.49997C7.00003 10.0523 7.44775 10.5 8.00003 10.5C8.55232 10.5 9.00003 10.0523 9.00003 9.49997C9.00003 9.31305 9.00003 9.21959 9.04023 9.14997C9.06656 9.10437 9.10443 9.0665 9.15003 9.04017C9.21965 8.99997 9.31311 8.99997 9.50003 8.99997H11V16C10.4477 16 10 16.4477 10 17C10 17.5523 10.4477 18 11 18H13C13.5523 18 14 17.5523 14 17C14 16.4477 13.5523 16 13 16V8.99997H14.5C14.687 8.99997 14.7804 8.99997 14.85 9.04017C14.8956 9.0665 14.9335 9.10437 14.9598 9.14997C15 9.21959 15 9.31305 15 9.49997C15 10.0523 15.4478 10.5 16 10.5C16.5523 10.5 17 10.0523 17 9.49997L17.0001 8.96059C17.0002 8.76072 17.0003 8.52273 16.9728 8.31809C16.9396 8.07104 16.8507 7.72931 16.5607 7.43931C16.2707 7.14932 15.929 7.06041 15.6819 7.0272C15.4773 6.99968 15.2393 6.99983 15.0394 6.99996H8.96065Z" fill="black"/>
<path fill-rule="evenodd" clip-rule="evenodd" d="M13.0732 2H10.9268C9.10339 1.99997 7.63362 1.99995 6.47767 2.15537C5.27752 2.31672 4.26702 2.66191 3.46447 3.46447C2.66191 4.26702 2.31672 5.27752 2.15537 6.47767C1.99995 7.63362 1.99997 9.10337 2 10.9268V13.0732C1.99997 14.8966 1.99995 16.3664 2.15537 17.5223C2.31672 18.7225 2.66191 19.733 3.46447 20.5355C4.26702 21.3381 5.27752 21.6833 6.47767 21.8446C7.63363 22.0001 9.1034 22 10.9269 22H13.0731C14.8966 22 16.3664 22.0001 17.5223 21.8446C18.7225 21.6833 19.733 21.3381 20.5355 20.5355C21.3381 19.733 21.6833 18.7225 21.8446 17.5223C22.0001 16.3664 22 14.8966 22 13.0731V10.9269C22 9.1034 22.0001 7.63363 21.8446 6.47767C21.6833 5.27752 21.3381 4.26702 20.5355 3.46447C19.733 2.66191 18.7225 2.31672 17.5223 2.15537C16.3664 1.99995 14.8966 1.99997 13.0732 2ZM4.87868 4.87868C5.2477 4.50966 5.7658 4.26907 6.74416 4.13753C7.7513 4.00213 9.08611 4 11 4H13C14.9139 4 16.2487 4.00213 17.2558 4.13753C18.2342 4.26907 18.7523 4.50966 19.1213 4.87868C19.4903 5.2477 19.7309 5.7658 19.8625 6.74416C19.9979 7.7513 20 9.08611 20 11V13C20 14.9139 19.9979 16.2487 19.8625 17.2558C19.7309 18.2342 19.4903 18.7523 19.1213 19.1213C18.7523 19.4903 18.2342 19.7309 17.2558 19.8625C16.2487 19.9979 14.9139 20 13 20H11C9.08611 20 7.7513 19.9979 6.74416 19.8625C5.76579 19.7309 5.2477 19.4903 4.87868 19.1213C4.50966 18.7523 4.26907 18.2342 4.13753 17.2558C4.00213 16.2487 4 14.9139 4 13V11C4 9.08611 4.00213 7.7513 4.13753 6.74416C4.26907 5.76579 4.50966 5.2477 4.87868 4.87868Z" fill="black"/>
</svg>
