<svg width="24" height="24" viewBox="0 0 24 24" fill="none" xmlns="http://www.w3.org/2000/svg">
<path d="M20.5 7.92943V16.0706C20.5 17.4247 20.5001 18.5413 20.3812 19.4251C20.2565 20.3529 19.9845 21.1723 19.3284 21.8284C18.6723 22.4845 17.8529 22.7565 16.9251 22.8813C16.0413 23.0001 14.9247 23 13.5705 23H10.4295C9.07532 23 7.9587 23.0001 7.07494 22.8813C6.14711 22.7565 5.32768 22.4845 4.67157 21.8284C4.01546 21.1723 3.7435 20.3529 3.61875 19.4251C3.49994 18.5413 3.49997 17.4247 3.5 16.0706L3.5 7.92943C3.49997 6.57531 3.49994 5.4587 3.61876 4.57494C3.7435 3.64711 4.01547 2.82768 4.67157 2.17158C5.32768 1.51547 6.14711 1.2435 7.07494 1.11875C7.9587 0.999936 9.07531 0.999966 10.4294 1L13.5706 1C14.9247 0.999966 16.0413 0.999937 16.9251 1.11875C17.8529 1.2435 18.6723 1.51547 19.3284 2.17158C19.9845 2.82768 20.2565 3.64711 20.3812 4.57494C20.5001 5.4587 20.5 6.57531 20.5 7.92943ZM18.3991 4.84143C18.3042 4.13538 18.1368 3.80836 17.9142 3.58579C17.6916 3.36322 17.3646 3.19585 16.6586 3.10092C15.9237 3.00213 14.9425 3 13.5 3L10.5 3C9.05752 3 8.07625 3.00213 7.34143 3.10092C6.63538 3.19585 6.30836 3.36322 6.08579 3.58579C5.86322 3.80836 5.69585 4.13538 5.60092 4.84143C5.50213 5.57625 5.5 6.55752 5.5 8L5.5 16C5.5 17.4425 5.50212 18.4237 5.60092 19.1586C5.69584 19.8646 5.86322 20.1916 6.08579 20.4142C6.30836 20.6368 6.63538 20.8042 7.34143 20.8991C8.07625 20.9979 9.05752 21 10.5 21H13.5C14.9425 21 15.9237 20.9979 16.6586 20.8991C17.3646 20.8042 17.6916 20.6368 17.9142 20.4142C18.1368 20.1916 18.3042 19.8646 18.3991 19.1586C18.4979 18.4237 18.5 17.4425 18.5 16V8C18.5 6.55752 18.4979 5.57625 18.3991 4.84143Z" fill="black"/>
</svg>
