<svg width="24" height="24" viewBox="0 0 24 24" fill="none" xmlns="http://www.w3.org/2000/svg">
<path d="M12 22C17.5229 22 22 17.5229 22 12C22 6.47715 17.5229 2 12 2C6.47715 2 2 6.47715 2 12C2 17.5229 6.47715 22 12 22Z" fill="#333333" stroke="#333333" stroke-width="2" stroke-linejoin="round"/>
<path d="M12.0045 6L12.0039 12.0044L16.2436 16.2441" stroke="white" stroke-width="2" stroke-linejoin="round"/>
<path d="M1 12C1 5.92487 5.92487 1 12 1C18.0751 1 23 5.92487 23 12C23 18.0751 18.0751 23 12 23C5.92487 23 1 18.0751 1 12ZM11.0043 5.99988L11.0037 12.0043C11.0036 12.2695 11.109 12.5239 11.2966 12.7115L15.5363 16.9512L16.9505 15.537L13.0037 11.5902L13.0043 6.00008L11.0043 5.99988Z" fill="black" fill-opacity="0.85"/>
</svg>
