<svg width="24" height="24" viewBox="0 0 24 24" fill="none" xmlns="http://www.w3.org/2000/svg">
<path d="M16.1898 20.9999C15.8164 21.0026 15.4444 20.9546 15.0848 20.8573C14.5824 20.72 14.1163 20.4799 13.7179 20.1533C13.3195 19.8268 12.9981 19.4213 12.7754 18.9642C11.4716 16.4402 14.1972 14.3832 16.3887 12.7326C17.28 12.0623 19.0995 10.6898 19.3021 10.0588C18.5065 10.1479 16.4955 11.4848 15.1437 12.3796C11.5158 14.7896 6.99643 17.7914 3.17323 15.3814C1.39054 14.2584 1.00749 12.8003 1.00012 11.7736C0.966972 7.52403 7.76254 2.88234 9.12534 1.99821L10.6539 1L12.7091 3.95899L11.1806 4.95364C8.44762 6.73616 4.66862 10.0909 4.68336 11.7486C4.68336 11.8627 4.68336 12.0802 5.18428 12.3939C6.94486 13.5026 10.3408 11.2495 13.0627 9.44202C16.2082 7.34934 19.4642 5.18893 21.792 7.41351C22.1929 7.7679 22.5086 8.20316 22.7167 8.68858C22.9249 9.174 23.0203 9.69773 22.9964 10.2228C22.8638 12.3618 20.7238 13.9875 18.6575 15.5454C17.8562 16.1175 17.098 16.7442 16.3887 17.4206C16.7781 17.3448 17.1516 17.2062 17.4936 17.0106L19.0553 16.0659L21.0075 19.089L19.4458 20.0338C18.4653 20.6235 17.3433 20.9564 16.1898 20.9999Z" fill="black" fill-opacity="0.85"/>
</svg>
