<svg width="24" height="24" viewBox="0 0 24 24" fill="none" xmlns="http://www.w3.org/2000/svg">
<path d="M12.4657 2.61508C12.1742 2.46164 11.8258 2.46164 11.5343 2.61508L2.03425 7.61508C1.7057 7.788 1.5 8.12872 1.5 8.5C1.5 8.87128 1.7057 9.212 2.03425 9.38492L4.5 10.6827V18.0194C4.5 18.6188 4.77456 19.2433 5.35111 19.6146C6.29869 20.2248 8.67323 21.5 12 21.5C15.3268 21.5 17.7013 20.2249 18.6488 19.6146C19.2254 19.2433 19.5 18.6188 19.5 18.0194V10.6827L21.9657 9.38492C22.2943 9.212 22.5 8.87128 22.5 8.5C22.5 8.12872 22.2943 7.788 21.9657 7.61508L12.4657 2.61508ZM17.5 11.7353V17.9751C16.7003 18.4779 14.7353 19.5 12 19.5C9.26467 19.5 7.29971 18.4779 6.5 17.9751V11.7353L11.5343 14.3849C11.8258 14.5384 12.1742 14.5384 12.4657 14.3849L17.5 11.7353ZM12 12.37L4.64709 8.5L12 4.63005L19.3529 8.5L12 12.37ZM6.50001 18.0198C6.50001 18.0198 6.50003 18.02 6.50001 18.0198V18.0198Z" fill="black"/>
<path d="M21.5 11C22.0523 11 22.5 11.4477 22.5 12V16C22.5 16.5523 22.0523 17 21.5 17C20.9477 17 20.5 16.5523 20.5 16V12C20.5 11.4477 20.9477 11 21.5 11Z" fill="black"/>
</svg>
