<svg width="24" height="24" viewBox="0 0 24 24" fill="none" xmlns="http://www.w3.org/2000/svg">
<path d="M3 5.25C3 4.69772 3.44772 4.25 4 4.25H20C20.5523 4.25 21 4.69772 21 5.25C21 5.80228 20.5523 6.25 20 6.25H4C3.44772 6.25 3 5.80228 3 5.25Z" fill="black"/>
<path d="M3 9.75C3 9.19772 3.44772 8.75 4 8.75H12C12.5523 8.75 13 9.19772 13 9.75C13 10.3023 12.5523 10.75 12 10.75H4C3.44772 10.75 3 10.3023 3 9.75Z" fill="black"/>
<path d="M3 14.25C3 13.6977 3.44772 13.25 4 13.25H12C12.5523 13.25 13 13.6977 13 14.25C13 14.8023 12.5523 15.25 12 15.25H4C3.44772 15.25 3 14.8023 3 14.25Z" fill="black"/>
<path d="M3 18.75C3 18.1977 3.44772 17.75 4 17.75H20C20.5523 17.75 21 18.1977 21 18.75C21 19.3023 20.5523 19.75 20 19.75H4C3.44772 19.75 3 19.3023 3 18.75Z" fill="black"/>
<path d="M16.53 8.652C16.2217 8.45933 15.8332 8.44913 15.5152 8.62536C15.1973 8.80158 15 9.13648 15 9.5V14.5C15 14.8635 15.1973 15.1984 15.5152 15.3746C15.8332 15.5509 16.2217 15.5407 16.53 15.348L20.53 12.848C20.8224 12.6653 21 12.3448 21 12C21 11.6552 20.8224 11.3347 20.53 11.152L16.53 8.652Z" fill="black"/>
</svg>
