<svg width="24" height="24" viewBox="0 0 24 24" fill="none" xmlns="http://www.w3.org/2000/svg">
<path d="M12 14C12.5523 14 13 14.4477 13 15V17C13 17.5523 12.5523 18 12 18C11.4477 18 11 17.5523 11 17V15C11 14.4477 11.4477 14 12 14Z" fill="black"/>
<path d="M12 3C9.79088 3 8 4.79086 8 7V9.00229C8.29722 9 8.61797 9 8.96446 9H15.0355C15.9373 8.99999 16.6647 8.99999 17.2567 9.04038C17.8654 9.08191 18.4037 9.16948 18.9134 9.3806C20.1386 9.88807 21.1119 10.8614 21.6194 12.0866C21.8305 12.5963 21.9181 13.1346 21.9596 13.7433C22 14.3353 22 15.0627 22 15.9645V16.0355C22 16.9373 22 17.6647 21.9596 18.2567C21.9181 18.8654 21.8305 19.4037 21.6194 19.9134C21.1119 21.1386 20.1386 22.1119 18.9134 22.6194C18.4037 22.8305 17.8654 22.9181 17.2567 22.9596C16.6647 23 15.9373 23 15.0355 23H8.96448C8.06272 23 7.33531 23 6.74331 22.9596C6.13456 22.9181 5.59628 22.8305 5.08658 22.6194C3.86144 22.1119 2.88807 21.1386 2.3806 19.9134C2.16948 19.4037 2.08191 18.8654 2.04038 18.2567C1.99999 17.6647 1.99999 16.9373 2 16.0355V15.9645C1.99999 15.0627 1.99999 14.3353 2.04038 13.7433C2.08191 13.1346 2.16948 12.5963 2.3806 12.0866C2.88807 10.8614 3.86144 9.88807 5.08658 9.3806C5.37901 9.25948 5.68085 9.17902 6 9.12459V7C6 3.68629 8.68632 1 12 1C13.6349 1 15.1188 1.65524 16.2 2.71519C16.5944 3.10182 16.6007 3.73495 16.2141 4.12934C15.8275 4.52372 15.1943 4.53001 14.8 4.14339C14.0774 3.43508 13.0905 3 12 3ZM5.85195 11.2284C5.11687 11.5328 4.53284 12.1169 4.22836 12.8519C4.135 13.0773 4.07033 13.3725 4.03574 13.8794C4.00054 14.3953 4 15.0544 4 16C4 16.9456 4.00054 17.6047 4.03574 18.1206C4.07033 18.6275 4.135 18.9227 4.22836 19.1481C4.53284 19.8831 5.11687 20.4672 5.85195 20.7716C6.07734 20.865 6.37254 20.9297 6.87945 20.9643C7.39534 20.9995 8.05443 21 9 21H15C15.9456 21 16.6047 20.9995 17.1206 20.9643C17.6275 20.9297 17.9227 20.865 18.1481 20.7716C18.8831 20.4672 19.4672 19.8831 19.7716 19.1481C19.865 18.9227 19.9297 18.6275 19.9643 18.1206C19.9995 17.6047 20 16.9456 20 16C20 15.0544 19.9995 14.3953 19.9643 13.8794C19.9297 13.3725 19.865 13.0773 19.7716 12.8519C19.4672 12.1169 18.8831 11.5328 18.1481 11.2284C17.9227 11.135 17.6275 11.0703 17.1206 11.0357C16.6047 11.0005 15.9456 11 15 11H9C8.05444 11 7.39534 11.0005 6.87945 11.0357C6.37254 11.0703 6.07734 11.135 5.85195 11.2284Z" fill="black"/>
</svg>
