<svg width="24" height="24" viewBox="0 0 24 24" fill="none" xmlns="http://www.w3.org/2000/svg">
<path d="M11 4.20693C10.6204 4.65484 10.1719 5.27992 9.55888 6.13813L7.81381 8.58123C7.4928 9.03064 6.86825 9.13473 6.41884 8.81372C5.96943 8.49271 5.86534 7.86816 6.18634 7.41875L7.97687 4.91202C8.67991 3.92766 9.27171 3.09907 9.82241 2.52662C10.401 1.92521 11.0881 1.44092 12.0001 1.44092C12.912 1.44092 13.5992 1.92521 14.1777 2.52662C14.7284 3.09907 15.3202 3.92765 16.0233 4.91201L17.8138 7.41875C18.1348 7.86816 18.0307 8.49271 17.5813 8.81372C17.1319 9.13473 16.5074 9.03064 16.1863 8.58123L14.4413 6.13813C13.8282 5.2798 13.3796 4.65467 13 4.20675L13 16C13 16.5523 12.5523 17 12 17C11.4477 17 11 16.5523 11 16L11 4.20693Z" fill="black"/>
<path d="M3 11C3.55229 11 4 11.4477 4 12V13C4 14.9139 4.00213 16.2487 4.13753 17.2558C4.26907 18.2342 4.50966 18.7523 4.87868 19.1213C5.2477 19.4903 5.7658 19.7309 6.74416 19.8625C7.7513 19.9979 9.08611 20 11 20H13C14.9139 20 16.2487 19.9979 17.2558 19.8625C18.2342 19.7309 18.7523 19.4903 19.1213 19.1213C19.4903 18.7523 19.7309 18.2342 19.8625 17.2558C19.9979 16.2487 20 14.9139 20 13V12C20 11.4477 20.4477 11 21 11C21.5523 11 22 11.4477 22 12V13.0731C22 14.8966 22.0001 16.3664 21.8446 17.5223C21.6833 18.7225 21.3381 19.733 20.5355 20.5355C19.733 21.3381 18.7225 21.6833 17.5223 21.8446C16.3664 22 14.8966 22 13.0732 22H10.9268C9.1034 22 7.63361 22 6.47767 21.8446C5.27752 21.6833 4.26702 21.3381 3.46447 20.5355C2.66191 19.733 2.31672 18.7225 2.15537 17.5223C1.99995 16.3664 1.99997 14.8966 2 13.0732V12C2 11.4477 2.44772 11 3 11Z" fill="black"/>
</svg>
