<svg width="24" height="24" viewBox="0 0 24 24" fill="none" xmlns="http://www.w3.org/2000/svg">
<path d="M4 7C4 5.34315 5.34315 4 7 4H17C18.6569 4 20 5.34315 20 7V8H22V7C22 4.23858 19.7614 2 17 2H7C4.23858 2 2 4.23858 2 7V18C2 20.2091 3.79086 22 6 22V20C4.89543 20 4 19.1046 4 18V7Z" fill="black" fill-opacity="0.85"/>
<path d="M8.5 7C7.1193 7 6 8.1193 6 9.5C6 10.8807 7.1193 12 8.5 12C9.8807 12 11 10.8807 11 9.5C11 8.1193 9.8807 7 8.5 7ZM8 9.5C8 9.22386 8.22386 9 8.5 9C8.77614 9 9 9.22386 9 9.5C9 9.77614 8.77614 10 8.5 10C8.22386 10 8 9.77614 8 9.5Z" fill="black" fill-opacity="0.85"/>
<g clip-path="url(#clip0_15903_199842)">
<path d="M12.4546 12.6819V14.5001H14.2728" stroke="#333333" stroke-width="2" stroke-linecap="square" stroke-linejoin="round"/>
<path d="M12 17C12 19.7614 14.2386 22 17 22C19.7614 22 22 19.7614 22 17C22 14.2386 19.7614 12 17 12C15.1495 12 13.5338 13.0053 12.6692 14.4995" stroke="#333333" stroke-width="2" stroke-linejoin="round"/>
<path d="M17.001 14.5L17.001 17.0022L18.5 18.5012" stroke="#333333" stroke-width="2" stroke-linejoin="round"/>
</g>
<defs>
<clipPath id="clip0_15903_199842">
<rect width="12" height="12" fill="white" transform="translate(11 11)"/>
</clipPath>
</defs>
</svg>
