<svg width="24" height="24" viewBox="0 0 24 24" fill="none" xmlns="http://www.w3.org/2000/svg">
<path d="M5.0062 5.78926C5.88584 5.40207 6.5 4.52276 6.5 3.5C6.5 2.11929 5.38071 1 4 1C2.61929 1 1.5 2.11929 1.5 3.5C1.5 4.52516 2.11705 5.4062 3 5.79198L3 12.0732C2.99997 13.8966 2.99995 15.3664 3.15537 16.5223C3.31672 17.7225 3.66191 18.733 4.46447 19.5355C5.26702 20.3381 6.27752 20.6833 7.47767 20.8446C8.63363 21 10.1034 21 11.9269 21H18.208C18.5938 21.883 19.4748 22.5 20.5 22.5C21.8807 22.5 23 21.3807 23 20C23 18.6193 21.8807 17.5 20.5 17.5C19.4748 17.5 18.5938 18.117 18.208 19H12C10.0861 19 8.7513 18.9979 7.74416 18.8625C6.76579 18.7309 6.2477 18.4903 5.87868 18.1213C5.50966 17.7523 5.26907 17.2342 5.13753 16.2558C5.00213 15.2487 5 13.9139 5 12V11.985C5.70183 12.4756 6.53071 12.7173 7.47767 12.8446C8.63362 13 10.1034 13 11.9268 13H18.208C18.5938 13.883 19.4748 14.5 20.5 14.5C21.8807 14.5 23 13.3807 23 12C23 10.6193 21.8807 9.5 20.5 9.5C19.4748 9.5 18.5938 10.117 18.208 11H12C10.0861 11 8.7513 10.9979 7.74416 10.8625C6.76579 10.7309 6.2477 10.4903 5.87868 10.1213C5.50966 9.7523 5.26907 9.23421 5.13753 8.25584C5.04898 7.59722 5.01743 6.79846 5.0062 5.78926Z" fill="black"/>
</svg>
