<svg width="24" height="24" viewBox="0 0 24 24" fill="none" xmlns="http://www.w3.org/2000/svg">
<path d="M8 7C6.34316 7 5 8.34316 5 10C5 11.6568 6.34316 13 8 13C9.65685 13 11 11.6568 11 10C11 8.34316 9.65685 7 8 7ZM7 10C7 9.44772 7.44773 9 8 9C8.55228 9 9 9.44772 9 10C9 10.5523 8.55228 11 8 11C7.44773 11 7 10.5523 7 10Z" fill="black"/>
<path d="M16.0523 3.14088C15.5326 2.99915 14.9319 2.99948 14.1231 2.99993L9.92684 2.99998C8.10338 2.99995 6.63362 2.99993 5.47767 3.15534C4.27752 3.3167 3.26702 3.66189 2.46447 4.46444C1.66191 5.267 1.31672 6.2775 1.15537 7.47764C0.999952 8.63359 0.999974 10.1033 1 11.9268V12.0731C0.999974 13.8966 0.999952 15.3664 1.15537 16.5223C1.31672 17.7225 1.66191 18.733 2.46447 19.5355C3.26702 20.3381 4.27752 20.6833 5.47767 20.8446C6.63363 21 8.1034 21 9.92686 21L14.163 21C14.9349 21.0004 15.5081 21.0007 16.0055 20.8715C17.41 20.5068 18.5068 19.41 18.8716 18.0055C18.9155 17.8364 18.9444 17.6586 18.9635 17.4672C19.3284 17.732 19.6626 17.9592 19.9624 18.1222C20.4541 18.3894 21.1607 18.6557 21.8944 18.2888C22.6281 17.922 22.8391 17.197 22.9203 16.6432C23.0002 16.0991 23.0001 15.3833 23 14.5755V9.53508C23.0001 8.80056 23.0002 8.13976 22.9248 7.63119C22.8462 7.10075 22.6439 6.42873 21.9695 6.05494C21.2951 5.68115 20.6181 5.86582 20.1266 6.08029C19.7865 6.22869 19.4001 6.45243 18.9772 6.71182C18.958 6.43288 18.923 6.18205 18.8591 5.94768C18.4865 4.5811 17.4189 3.51351 16.0523 3.14088ZM13.9832 4.99998C14.9944 4.99998 15.3004 5.00886 15.5262 5.07043C16.2094 5.25675 16.7432 5.79054 16.9296 6.47383C16.9911 6.69962 17 7.00563 17 8.01682L17 8.02721C17 8.06976 16.9999 8.13438 17.003 8.19251C17.006 8.24931 17.0147 8.39706 17.0773 8.56284C17.2847 9.11251 17.8597 9.43116 18.4357 9.31575C18.6095 9.28094 18.7394 9.21007 18.7892 9.18249C18.8401 9.15426 18.8948 9.12 18.9309 9.09742L19.47 8.76047C20.1753 8.31969 20.6081 8.05233 20.9265 7.91336L20.9436 7.90599L20.9464 7.92438C20.9973 8.26809 21 8.7768 21 9.60847V14.5C21 15.4067 20.9974 15.9721 20.9415 16.3529L20.938 16.376L20.9174 16.3649C20.5793 16.1811 20.1254 15.844 19.4 15.3L19.015 15.0112C18.9793 14.9844 18.9273 14.9454 18.8793 14.913C18.8356 14.8835 18.7102 14.7991 18.5377 14.7485C17.9343 14.5715 17.2966 14.8904 17.0762 15.4793C17.0132 15.6476 17.0054 15.7986 17.0028 15.8512C16.9999 15.909 17 15.9739 17 16.0187L17 16.0294C17 16.9944 16.9919 17.2866 16.9358 17.5027C16.7534 18.205 16.205 18.7534 15.5028 18.9358C15.2866 18.9919 14.9944 19 14.0294 19H10C8.08611 19 6.7513 18.9979 5.74416 18.8624C4.7658 18.7309 4.2477 18.4903 3.87868 18.1213C3.50966 17.7523 3.26907 17.2342 3.13753 16.2558C3.00213 15.2487 3 13.9139 3 12C3 10.0861 3.00213 8.75127 3.13753 7.74414C3.26907 6.76577 3.50966 6.24767 3.87868 5.87866C4.2477 5.50964 4.7658 5.26904 5.74416 5.13751C6.7513 5.0021 8.08611 4.99998 10 4.99998H13.9832ZM20.8815 16.6059C20.8814 16.6056 20.8827 16.6026 20.8857 16.5975C20.8832 16.6036 20.8816 16.6061 20.8815 16.6059ZM21.1466 16.4671C21.1524 16.4677 21.1556 16.4685 21.1558 16.4687C21.1559 16.469 21.153 16.4687 21.1466 16.4671Z" fill="black"/>
</svg>
