<svg width="24" height="24" viewBox="0 0 24 24" fill="none" xmlns="http://www.w3.org/2000/svg">
<path d="M16.0523 3.14088C15.5326 2.99915 14.9319 2.99948 14.1231 2.99993L9.92684 2.99998C8.10338 2.99995 6.63362 2.99993 5.47767 3.15534C4.27752 3.3167 3.26702 3.66189 2.46447 4.46444C1.66191 5.267 1.31672 6.2775 1.15537 7.47764C0.999952 8.63359 0.999974 10.1033 1 11.9268V12.0731C0.999974 13.8966 0.999952 15.3664 1.15537 16.5223C1.31672 17.7225 1.66191 18.733 2.46447 19.5355C3.26702 20.3381 4.27752 20.6833 5.47767 20.8446C6.63363 21 8.1034 21 9.92686 21L14.163 21C14.9349 21.0004 15.5081 21.0007 16.0055 20.8715C17.41 20.5068 18.5068 19.41 18.8716 18.0055C18.9155 17.8364 18.9444 17.6586 18.9635 17.4672C19.3284 17.732 19.6626 17.9592 19.9624 18.1222C20.4541 18.3894 21.1607 18.6557 21.8944 18.2888C22.6281 17.922 22.8391 17.197 22.9203 16.6432C23.0002 16.0991 23.0001 15.3833 23 14.5755V9.53508C23.0001 8.80056 23.0002 8.13976 22.9248 7.63119C22.8462 7.10075 22.6439 6.42873 21.9695 6.05494C21.2951 5.68115 20.6181 5.86582 20.1266 6.08029C19.7865 6.22869 19.4001 6.45243 18.9772 6.71182C18.958 6.43288 18.923 6.18205 18.8591 5.94768C18.4865 4.5811 17.4189 3.51351 16.0523 3.14088ZM5.5 10C5.5 8.6193 6.6193 7.5 8 7.5C9.3807 7.5 10.5 8.6193 10.5 10C10.5 11.3807 9.3807 12.5 8 12.5C6.6193 12.5 5.5 11.3807 5.5 10Z" fill="black"/>
</svg>
