<svg width="24" height="24" viewBox="0 0 24 24" fill="none" xmlns="http://www.w3.org/2000/svg">
<path d="M19.5 2.5C19.5 1.94772 19.0523 1.5 18.5 1.5C17.9477 1.5 17.5 1.94772 17.5 2.5V4.5H15.5C14.9477 4.5 14.5 4.94772 14.5 5.5C14.5 6.05228 14.9477 6.5 15.5 6.5H17.5V8.5C17.5 9.05228 17.9477 9.5 18.5 9.5C19.0523 9.5 19.5 9.05228 19.5 8.5V6.5H21.5C22.0523 6.5 22.5 6.05228 22.5 5.5C22.5 4.94772 22.0523 4.5 21.5 4.5H19.5V2.5Z" fill="black"/>
<path d="M12 3.99996C12 3.44767 11.5523 2.99994 11 2.99995L9.92684 2.99996C8.10339 2.99994 6.63362 2.99991 5.47767 3.15533C4.27752 3.31668 3.26702 3.66188 2.46447 4.46443C1.66191 5.26699 1.31672 6.27749 1.15537 7.47763C0.999955 8.63357 0.999975 10.1033 1 11.9267V12.0731C0.999975 13.8966 0.999955 15.3664 1.15537 16.5223C1.31672 17.7224 1.66191 18.7329 2.46447 19.5355C3.26702 20.3381 4.27752 20.6832 5.47767 20.8446C6.63363 21 8.1034 21 9.92687 21L14.163 21C14.9349 21.0004 15.5081 21.0007 16.0055 20.8715C17.41 20.5068 18.5068 19.41 18.8716 18.0055C18.9155 17.8364 18.9444 17.6586 18.9635 17.4672C19.3284 17.732 19.6626 17.9592 19.9624 18.1222C20.4541 18.3894 21.1607 18.6557 21.8944 18.2888C22.6281 17.922 22.8391 17.1969 22.9203 16.6432C23.0002 16.0991 23.0001 15.3832 23 14.5755V12C23 11.4477 22.5523 11 22 11C21.4477 11 21 11.4477 21 12V14.5C21 15.4067 20.9974 15.9721 20.9415 16.3529L20.938 16.376L20.9174 16.3649C20.5793 16.1811 20.1254 15.844 19.4 15.3L19.015 15.0112C18.9793 14.9844 18.9273 14.9454 18.8793 14.9129C18.8356 14.8835 18.7102 14.799 18.5377 14.7485C17.9343 14.5715 17.2966 14.8903 17.0762 15.4793C17.0132 15.6475 17.0054 15.7986 17.0028 15.8512C16.9999 15.909 17 15.9739 17 16.0186L17 16.0294C17 16.9943 16.9919 17.2866 16.9358 17.5027C16.7534 18.205 16.205 18.7534 15.5028 18.9357C15.2866 18.9919 14.9944 19 14.0294 19H10C8.08612 19 6.7513 18.9978 5.74416 18.8624C4.7658 18.7309 4.2477 18.4903 3.87868 18.1213C3.50967 17.7523 3.26907 17.2342 3.13753 16.2558C3.00213 15.2487 3 13.9139 3 12C3 10.0861 3.00213 8.75126 3.13753 7.74413C3.26907 6.76576 3.50967 6.24766 3.87868 5.87864C4.2477 5.50963 4.7658 5.26903 5.74416 5.13749C6.7513 5.00209 8.08612 4.99996 10 4.99996H11C11.5523 4.99996 12 4.55224 12 3.99996ZM20.8823 16.6038C20.8823 16.6038 20.8846 16.6002 20.8857 16.5975L20.884 16.6005L20.8823 16.6038ZM21.1466 16.4671C21.1524 16.4677 21.1558 16.4687 21.1558 16.4687C21.1558 16.4687 21.153 16.4686 21.1466 16.4671Z" fill="black"/>
<path d="M5 9.99999C5 8.34314 6.34316 6.99999 8 6.99999C9.65685 6.99999 11 8.34314 11 9.99999C11 11.6568 9.65685 13 8 13C6.34316 13 5 11.6568 5 9.99999ZM8 8.99999C7.44773 8.99999 7 9.44771 7 9.99999C7 10.5523 7.44773 11 8 11C8.55228 11 9 10.5523 9 9.99999C9 9.44771 8.55228 8.99999 8 8.99999Z" fill="black"/>
</svg>
