<svg width="24" height="24" viewBox="0 0 24 24" fill="none" xmlns="http://www.w3.org/2000/svg">
<path d="M12 1C5.92487 1 1 5.92487 1 12C1 18.0751 5.92487 23 12 23C18.0751 23 23 18.0751 23 12C23 5.92487 18.0751 1 12 1ZM14.5 8C13.6716 8 13 8.67157 13 9.5V14.5C13 16.433 11.433 18 9.5 18C7.567 18 6 16.433 6 14.5C6 12.567 7.567 11 9.5 11V13C8.67157 13 8 13.6716 8 14.5C8 15.3284 8.67157 16 9.5 16C10.3284 16 11 15.3284 11 14.5V9.5C11 7.567 12.567 6 14.5 6C16.433 6 18 7.567 18 9.5C18 11.433 16.433 13 14.5 13V11C15.3284 11 16 10.3284 16 9.5C16 8.67157 15.3284 8 14.5 8Z" fill="black" fill-opacity="0.85"/>
</svg>
