<svg width="24" height="24" viewBox="0 0 24 24" fill="none" xmlns="http://www.w3.org/2000/svg">
<path d="M18.547 14.4956C19.0447 14.4956 19.4482 14.0657 19.4482 13.5353C19.4482 13.005 19.0447 12.575 18.547 12.575C18.0493 12.575 17.6458 13.005 17.6458 13.5353C17.6458 14.0657 18.0493 14.4956 18.547 14.4956ZM14.147 14.4956C14.6447 14.4956 15.0482 14.0657 15.0482 13.5353C15.0482 13.005 14.6447 12.575 14.147 12.575C13.6493 12.575 13.2458 13.005 13.2458 13.5353C13.2458 14.0657 13.6493 14.4956 14.147 14.4956ZM11.6289 8.93141C11.0433 8.93141 10.5687 8.4256 10.5687 7.80162C10.5687 7.17766 11.0433 6.67183 11.6289 6.67183C12.2145 6.67183 12.6892 7.17766 12.6892 7.80162C12.6892 8.4256 12.2145 8.93141 11.6289 8.93141ZM6.3012 8.93141C5.71566 8.93141 5.24096 8.4256 5.24096 7.80162C5.24096 7.17766 5.71566 6.67183 6.3012 6.67183C6.88675 6.67183 7.36145 7.17766 7.36145 7.80162C7.36145 8.4256 6.88675 8.93141 6.3012 8.93141ZM18.9938 21.0247C18.8812 20.9552 18.7468 20.9394 18.6222 20.9795C17.9163 21.2069 17.1545 21.3309 16.3602 21.3309C12.6932 21.3309 9.72048 18.688 9.72048 15.4277C9.72048 12.1675 12.6932 9.52455 16.3602 9.52455C20.0273 9.52455 23 12.1675 23 15.4277C23 17.2285 22.093 18.841 20.6631 19.9237C20.5484 20.0106 20.4963 20.1642 20.532 20.3093L20.8446 21.5798C20.9382 21.9602 20.7534 22.1102 20.434 21.9132L18.9938 21.0247ZM6.28936 16.7388C7.12949 17.0054 8.03478 17.1507 8.97831 17.1507C9.12227 17.1507 9.26529 17.1473 9.40737 17.1406C9.23145 16.5868 9.13735 16.0028 9.13735 15.3995C9.13735 11.8429 12.4068 8.95966 16.4398 8.95966C16.5808 8.95966 16.7208 8.96319 16.8599 8.97014C16.2615 5.58751 12.9607 3 8.97831 3C4.572 3 1 6.16774 1 10.0753C1 12.2234 2.07943 14.1479 3.78348 15.4455C3.94392 15.5677 4.01739 15.7823 3.96634 15.9853L3.59133 17.4763C3.47815 17.9264 3.69447 18.1024 4.07205 17.8675L5.78044 16.8045C5.93433 16.7088 6.11855 16.6845 6.28936 16.7388Z" fill="black" fill-opacity="0.85"/>
</svg>
