<svg width="24" height="24" viewBox="0 0 24 24" fill="none" xmlns="http://www.w3.org/2000/svg">
<path d="M14.9084 6.91472L14.7982 7.16356C14.9294 7.58579 15 8.03464 15 8.5V8.92764C15.4227 8.85773 15.8603 8.77707 16.3085 8.6847C17.1237 8.51669 17.9742 8.30994 18.8349 8.05874C19.547 7.85089 20.243 8.31939 20.3895 9.10517C20.5038 9.71888 20.2491 10.3446 19.7928 10.6883C20.3995 11.0079 20.9447 11.4284 21.4062 11.9275C22.2128 11.0882 22.5658 9.86641 22.3556 8.73877C22.0229 6.95358 20.2767 5.55446 18.2745 6.13884C17.9522 6.23291 17.6312 6.32039 17.313 6.40159C17.4084 6.17929 17.5059 5.95066 17.6055 5.71569C18.027 4.72077 18.0041 3.53665 17.4445 2.54741C16.8698 1.53135 15.7842 0.852362 14.5379 0.897643C12.3043 0.978792 9.94645 1.56655 7.99627 2.23417C6.06444 2.8955 4.34104 3.70186 3.39136 4.33489C2.50281 4.92717 1.85464 5.73329 1.58124 6.69834C1.31049 7.65406 1.45537 8.6065 1.86826 9.37715C2.29427 10.1723 2.97962 10.711 3.75204 10.9528C4.46251 10.6342 5.23846 10.5094 6 10.5779V8.5L6.00009 8.47138C5.80607 8.59615 5.61595 8.72452 5.4299 8.8563C4.80065 9.30201 3.99534 9.11234 3.63118 8.43264C3.26702 7.75294 3.37041 6.75245 4.50066 5.99906C6.0004 4.99937 10.68 3.03913 14.6105 2.89632C15.0585 2.88005 15.4704 3.11959 15.7037 3.53208C15.9371 3.94458 15.9597 4.47335 15.764 4.93548C15.4586 5.65618 15.1728 6.31567 14.9084 6.91472Z" fill="black" fill-opacity="0.85"/>
<path d="M10.5 5C8.567 5 7 6.567 7 8.5V11.853C5.71831 11.2917 4.16894 11.5356 3.11985 12.5847C1.75302 13.9515 1.75302 16.1676 3.11985 17.5344L7.25443 21.669C7.26198 21.6766 7.26964 21.684 7.27741 21.6913C7.45946 21.8815 7.71589 22 8 22H19C20.6569 22 22 20.6569 22 19V16C22 13.2386 19.7614 11 17 11H14V8.5C14 6.567 12.433 5 10.5 5ZM19 20H8.41384L4.53407 16.1202C3.94828 15.5344 3.94828 14.5847 4.53407 13.9989C5.11985 13.4131 6.0696 13.4131 6.65539 13.9989L7.29289 14.6364C7.57889 14.9224 8.00901 15.008 8.38268 14.8532C8.75636 14.6984 9 14.3338 9 13.9293V8.5C9 7.67157 9.67157 7 10.5 7C11.3284 7 12 7.67157 12 8.5V12C12 12.5523 12.4477 13 13 13H17C18.6569 13 20 14.3431 20 16V19C20 19.5523 19.5523 20 19 20Z" fill="black" fill-opacity="0.85"/>
</svg>
