<svg width="24" height="24" viewBox="0 0 24 24" fill="none" xmlns="http://www.w3.org/2000/svg">
<path d="M18.1334 3.99999L17.1357 3.14151C16.7171 2.78129 16.6697 2.1499 17.03 1.73126C17.3902 1.31262 18.0216 1.26527 18.4402 1.62549L19.7643 2.76483C20.1345 3.08324 20.4881 3.38739 20.7401 3.67479C21.021 3.99511 21.2954 4.4253 21.2954 4.9998C21.2954 5.57429 21.021 6.00448 20.7401 6.32481C20.4881 6.61221 20.1345 6.91636 19.7643 7.23476L18.44 8.37427C18.0214 8.7345 17.39 8.68715 17.0298 8.26851C16.6696 7.84987 16.7169 7.21848 17.1356 6.85826L18.133 5.99999H7.75C6.23122 5.99999 5 7.23121 5 8.74999C5 10.2688 6.23122 11.5 7.75 11.5H16.25C18.8734 11.5 21 13.6266 21 16.25C21 18.8733 18.8734 21 16.25 21H6.73244C6.38663 21.5978 5.74028 22 5 22C3.89543 22 3 21.1046 3 20C3 18.8954 3.89543 18 5 18C5.74028 18 6.38663 18.4022 6.73244 19H16.25C17.7688 19 19 17.7688 19 16.25C19 14.7312 17.7688 13.5 16.25 13.5H7.75C5.12665 13.5 3 11.3733 3 8.74999C3 6.12664 5.12665 3.99999 7.75 3.99999H18.1334Z" fill="black"/>
</svg>
