<svg width="24" height="24" viewBox="0 0 24 24" fill="none" xmlns="http://www.w3.org/2000/svg">
<path d="M21 10C21 9.08796 20.8643 8.2076 20.6121 7.37801L20.4128 7.79465C20.0997 8.44908 19.5347 8.83703 18.923 8.95848C18.9737 9.29829 19 9.64608 19 10C19 12.5682 17.6175 14.8146 15.5513 16.0337C15.2031 16.2392 15 16.6105 15 17C15 18.1046 14.1046 19 13 19H11C9.89543 19 9 18.1046 9 17C9 16.6105 8.79691 16.2392 8.44866 16.0337C6.38249 14.8146 5 12.5682 5 10C5 6.13401 8.13401 3 12 3C13.0098 3 13.9696 3.2138 14.8367 3.59861C14.9983 3.34822 15.2182 3.12596 15.4963 2.95209L16.2019 2.51089L16.381 2.13641C15.0845 1.41253 13.5904 1 12 1C7.02944 1 3 5.02944 3 10C3 13.1353 4.60377 15.8951 7.03162 17.5054C7.28005 19.4759 8.96204 21 11 21H13C15.038 21 16.7199 19.4759 16.9684 17.5054C19.3962 15.8951 21 13.1353 21 10Z" fill="black"/>
<path d="M12.19 6.11973C12.1136 5.96009 11.8864 5.96009 11.81 6.11973L10.723 8.39118C10.7057 8.42726 10.6785 8.45768 10.6446 8.47889L8.59901 9.75747C8.467 9.83999 8.467 10.0322 8.59901 10.1148L10.6446 11.3934C10.6785 11.4146 10.7057 11.445 10.723 11.4811L11.81 13.7525C11.8864 13.9121 12.1136 13.9121 12.19 13.7525L13.277 11.4811C13.2943 11.445 13.3215 11.4146 13.3554 11.3934L15.401 10.1148C15.533 10.0322 15.533 9.83999 15.401 9.75747L13.3554 8.47889C13.3215 8.45768 13.2943 8.42726 13.277 8.39118L12.19 6.11973Z" fill="black"/>
<path d="M18.3914 2.56844C18.4351 2.47719 18.5649 2.47719 18.6086 2.56844L19.2297 3.86687C19.2396 3.88749 19.2551 3.90488 19.2745 3.917L20.4434 4.64788C20.5189 4.69505 20.5189 4.80495 20.4434 4.85212L19.2745 5.583C19.2551 5.59512 19.2396 5.61251 19.2297 5.63313L18.6086 6.93156C18.5649 7.02281 18.4351 7.02281 18.3914 6.93156L17.7703 5.63313C17.7604 5.61251 17.7449 5.59512 17.7255 5.583L16.5566 4.85212C16.4811 4.80495 16.4811 4.69505 16.5566 4.64788L17.7255 3.917C17.7449 3.90488 17.7604 3.88749 17.7703 3.86687L18.3914 2.56844Z" fill="black"/>
<path d="M9.31626 21.5513C8.79231 21.3767 8.22599 21.6599 8.05134 22.1838C7.8767 22.7077 8.15986 23.2741 8.6838 23.4487C10.8364 24.1662 13.1637 24.1662 15.3163 23.4487C15.8402 23.2741 16.1234 22.7077 15.9487 22.1838C15.7741 21.6599 15.2077 21.3767 14.6838 21.5513C12.9417 22.132 11.0583 22.132 9.31626 21.5513Z" fill="black"/>
</svg>
