<svg width="24" height="24" viewBox="0 0 24 24" fill="none" xmlns="http://www.w3.org/2000/svg">
<path d="M21.3689 1.63373C20.2383 0.502645 18.4046 0.502994 17.2745 1.63451L11.7881 7.12731C11.4434 7.47166 11.1382 7.77659 10.9296 8.15975C10.721 8.54291 10.6306 8.96478 10.5284 9.44119L10.0225 11.7893C9.95094 12.1212 10.0527 12.4667 10.2926 12.7068C10.5326 12.947 10.878 13.049 11.2099 12.9777L13.5683 12.4716C14.0462 12.3696 14.4694 12.2792 14.8537 12.07C15.2379 11.8608 15.5435 11.5544 15.8886 11.2084L21.3689 5.72559C22.4985 4.59551 22.4985 2.76381 21.3689 1.63373ZM18.6895 3.04787C19.0386 2.69833 19.6051 2.69822 19.9544 3.04763C20.3033 3.39674 20.3033 3.96258 19.9544 4.31168L14.5439 9.72449C14.0893 10.1794 13.9952 10.2602 13.8974 10.3134C13.7996 10.3667 13.6806 10.4018 13.0518 10.5368L12.3037 10.6974L12.4629 9.95897C12.5979 9.33214 12.6331 9.21352 12.6862 9.11602C12.7392 9.01853 12.8198 8.92464 13.2729 8.47095L18.6895 3.04787Z" fill="black"/>
<path d="M4.5 11C2.567 11 1 12.567 1 14.5C1 16.433 2.567 18 4.5 18H19.5C20.3284 18 21 18.6716 21 19.5C21 20.3284 20.3284 21 19.5 21H9C8.44772 21 8 21.4477 8 22C8 22.5523 8.44772 23 9 23H19.5C21.433 23 23 21.433 23 19.5C23 17.567 21.433 16 19.5 16H4.5C3.67158 16 3 15.3284 3 14.5C3 13.6716 3.67158 13 4.5 13H8C8.55228 13 9 12.5523 9 12C9 11.4477 8.55228 11 8 11H4.5Z" fill="black"/>
</svg>
