<svg width="24" height="24" viewBox="0 0 24 24" fill="none" xmlns="http://www.w3.org/2000/svg">
<path d="M4 7C4 5.34315 5.34315 4 7 4H17C18.6569 4 20 5.34315 20 7V8H22V7C22 4.23858 19.7614 2 17 2H7C4.23858 2 2 4.23858 2 7V18C2 20.2091 3.79086 22 6 22V20C4.89543 20 4 19.1046 4 18V7Z" fill="black"/>
<path d="M19.0984 10.293C18.9108 10.1054 18.6563 9.99995 18.3909 10C18.1256 10.0001 17.8711 10.1056 17.6836 10.2933L10.2925 17.6933C10.1052 17.8808 10 18.135 10 18.4V21C10 21.5523 10.4477 22 11 22H13.6133C13.8786 22 14.133 21.8946 14.3205 21.707L21.7073 14.317C22.0976 13.9265 22.0976 13.2936 21.7073 12.9031L19.0984 10.293ZM12 18.8138L18.3914 12.4148L19.5861 13.61L13.1989 20H12V18.8138Z" fill="black"/>
<path d="M15 10H7V8H15V10Z" fill="black"/>
<path d="M7 15H11V13H7V15Z" fill="black"/>
</svg>
