<svg width="32" height="16" viewBox="0 0 32 16" fill="none" xmlns="http://www.w3.org/2000/svg">
<g clip-path="url(#clip0_1315_42026)">
<path d="M14.6171 3.15799H8.84214V13.0504H10.2484L10.4359 14.2406L12.3484 13.0504H14.6078L14.6171 3.15799ZM12.175 11.8139L11.0546 12.5132L10.9421 11.8139H10.1359V4.40381H13.314V11.8139H12.175ZM7.77808 7.60865H5.68745C5.68745 7.39098 5.68745 7.16868 5.68745 6.93249V4.38528H8.08276V3.78322C8.08192 3.6214 8.01618 3.46651 7.89995 3.35251C7.83887 3.2915 7.76573 3.24357 7.68508 3.2117C7.60444 3.17983 7.51802 3.1647 7.4312 3.16726H3.6812C3.6812 3.12558 3.70933 3.08389 3.72339 3.05147C3.87808 2.66245 4.2812 1.5 4.2812 1.5C3.88027 1.49382 3.48671 1.60676 3.15151 1.82419C2.83089 2.03153 2.60407 2.35357 2.5187 2.72265C2.26558 3.39882 2.04995 4.0472 1.90464 4.43623C1.67495 5.05219 1.1312 6.13128 1.1312 6.13128C1.54152 6.1267 1.94544 6.0301 2.31245 5.84877C2.5623 5.71256 2.77822 5.52297 2.94446 5.29382C3.11071 5.06467 3.22308 4.80174 3.27339 4.52422L3.31558 4.38528H4.41245V6.93249C4.41245 7.16405 4.41245 7.39561 4.37964 7.60865H2.44839C2.11504 7.60895 1.79517 7.73869 1.55776 7.96989C1.44189 8.08319 1.34991 8.21808 1.28715 8.36673C1.22439 8.51539 1.1921 8.67487 1.19214 8.83594H4.25308C4.19222 9.41063 4.06966 9.97729 3.88745 10.5264C3.5711 11.4169 3.09472 12.2437 2.4812 12.967C2.01947 13.4608 1.52628 13.9248 1.00464 14.3564C1.00464 14.3564 2.47183 14.8983 3.54995 13.9165C4.2483 13.1543 4.76557 12.2476 5.06401 11.2627C5.31372 10.4729 5.48946 9.66214 5.58901 8.84057H8.40151V8.19683C8.40202 8.11946 8.38694 8.04277 8.35716 7.97121C8.32739 7.89965 8.28351 7.83466 8.22808 7.78001C8.16898 7.72247 8.09853 7.67757 8.02111 7.64809C7.9437 7.61861 7.86097 7.60519 7.77808 7.60865Z" fill="black" fill-opacity="0.85"/>
<path d="M6.28281 10.1465L5.21875 10.8411L7.5625 14.2915C7.72318 13.9696 7.82928 13.6238 7.87656 13.2679C7.9566 12.9282 7.91001 12.5714 7.74531 12.2629L6.28281 10.1465ZM25.1172 8.07164V3.7414C27.0766 3.64877 28.8672 3.55614 29.5422 3.51909L29.9406 3.49594C30.1847 3.07442 30.2972 2.59105 30.2641 2.10655C30.2266 1.99077 30.1609 1.79626 29.9641 1.8472C29.3036 2.00367 28.6334 2.11662 27.9578 2.18529C26.6641 2.33349 26.0828 2.37054 24.3016 2.50021C21.1562 2.71788 18.3438 2.8244 18.3438 2.8244C18.343 2.98395 18.3755 3.14194 18.4392 3.28855C18.5029 3.43515 18.5965 3.56723 18.7141 3.67656C18.8311 3.78665 18.9696 3.87215 19.1211 3.92787C19.2725 3.98359 19.4339 4.00838 19.5953 4.00075C20.6641 3.95907 22.2203 3.88497 23.8141 3.81087V8.07164H17.8234C17.8234 8.23381 17.8558 8.39438 17.9188 8.54415C17.9818 8.69392 18.074 8.82993 18.1903 8.94438C18.3066 9.05884 18.4446 9.14948 18.5964 9.21112C18.7482 9.27276 18.9109 9.30417 19.075 9.30356H23.8141V12.5779C23.8141 12.9901 23.5938 13.129 23.2375 13.1429H21.3953C21.4746 13.4066 21.6096 13.6507 21.7914 13.8591C21.9732 14.0674 22.1977 14.2353 22.45 14.3517C22.8589 14.4857 23.2927 14.5284 23.7203 14.4767C24.3578 14.4489 25.1266 14.0969 25.1266 12.8233V9.30356H30.3953C30.5554 9.30253 30.7086 9.23931 30.8219 9.12757C30.8779 9.07315 30.9226 9.00831 30.9531 8.93677C30.9837 8.86523 30.9996 8.78841 31 8.71076V8.07627L25.1172 8.07164Z" fill="black" fill-opacity="0.85"/>
<path d="M20.9734 5.14481C20.8037 4.91619 20.5497 4.76277 20.2664 4.7177C19.9831 4.67263 19.6932 4.73955 19.4594 4.90399L19.2812 5.02903L21.2781 7.73833L22.3281 6.98806L20.9734 5.13555V5.14481ZM27.8828 5.05682L26.4156 6.95564L27.4703 7.72444L29.5938 4.97809L29.4203 4.85304C29.3069 4.7666 29.1772 4.70326 29.0388 4.66669C28.9004 4.63012 28.756 4.62105 28.6141 4.64C28.3272 4.67933 28.0677 4.82917 27.8922 5.05682H27.8828Z" fill="black" fill-opacity="0.85"/>
</g>
<defs>
<clipPath id="clip0_1315_42026">
<rect width="30" height="13" fill="white" transform="translate(1 1.5)"/>
</clipPath>
</defs>
</svg>
