<svg width="24" height="24" viewBox="0 0 24 24" fill="none" xmlns="http://www.w3.org/2000/svg">
<path d="M9.5 3H5C3.89543 3 3 3.89543 3 5V9.5M14.5 3H19C20.1046 3 21 3.89543 21 5V9.5M21 14.5V19C21 20.1046 20.1046 21 19 21H14.5M9.5 21H5C3.89543 21 3 20.1046 3 19V14.5" stroke="black" stroke-width="2"/>
<path d="M2 5C2 3.34315 3.34315 2 5 2H9.5V4H5C4.44772 4 4 4.44772 4 5V9.5H2V5ZM19 4H14.5V2H19C20.6569 2 22 3.34315 22 5V9.5H20V5C20 4.44772 19.5523 4 19 4ZM4 14.5V19C4 19.5523 4.44772 20 5 20H9.5V22H5C3.34315 22 2 20.6569 2 19V14.5H4ZM20 19V14.5H22V19C22 20.6569 20.6569 22 19 22H14.5V20H19C19.5523 20 20 19.5523 20 19Z" fill="black"/>
</svg>
