<svg width="24" height="24" viewBox="0 0 24 24" fill="none" xmlns="http://www.w3.org/2000/svg">
<rect x="1" y="6.5" width="13" height="16" rx="4" transform="rotate(-15 1 6.5)" fill="white"/>
<rect x="1" y="6.5" width="13" height="16" rx="4" transform="rotate(-15 1 6.5)" fill="white"/>
<rect x="1" y="6.5" width="13" height="16" rx="4" transform="rotate(-15 1 6.5)" fill="white"/>
<rect x="1" y="6.5" width="13" height="16" rx="4" transform="rotate(-15 1 6.5)" fill="white"/>
<rect x="1" y="6.5" width="13" height="16" rx="4" transform="rotate(-15 1 6.5)" fill="white"/>
<rect x="1" y="6.5" width="13" height="16" rx="4" transform="rotate(-15 1 6.5)" stroke="black" stroke-width="2"/>
<rect x="7.5" y="3" width="14" height="18" rx="4" fill="white"/>
<rect x="7.5" y="3" width="14" height="18" rx="4" fill="white"/>
<rect x="7.5" y="3" width="14" height="18" rx="4" fill="white"/>
<rect x="7.5" y="3" width="14" height="18" rx="4" fill="white"/>
<rect x="7.5" y="3" width="14" height="18" rx="4" fill="white"/>
<rect x="7.5" y="3" width="14" height="18" rx="4" stroke="black" stroke-width="2"/>
<path d="M15.8189 6.88629C15.8909 6.73282 16.1091 6.73282 16.1811 6.88629L17.036 8.71005C17.0521 8.74435 17.0776 8.77338 17.1096 8.79376L18.7358 9.8314C18.859 9.91003 18.859 10.09 18.7358 10.1686L17.1096 11.2062C17.0776 11.2266 17.0521 11.2556 17.036 11.2899L16.1811 13.1137C16.1091 13.2672 15.8909 13.2672 15.8189 13.1137L14.964 11.2899C14.9479 11.2556 14.9224 11.2266 14.8904 11.2062L13.2642 10.1686C13.141 10.09 13.141 9.91003 13.2642 9.8314L14.8904 8.79376C14.9224 8.77338 14.9479 8.74435 14.964 8.71005L15.8189 6.88629Z" fill="black" fill-opacity="0.85"/>
<path d="M12.3168 12.9188C12.3867 12.759 12.6133 12.759 12.6832 12.9188L13.1841 14.0636C13.1991 14.0979 13.2235 14.1273 13.2545 14.1485L14.2585 14.8349C14.3747 14.9143 14.3747 15.0857 14.2585 15.1651L13.2545 15.8515C13.2235 15.8727 13.1991 15.9021 13.1841 15.9364L12.6832 17.0812C12.6133 17.241 12.3867 17.241 12.3168 17.0812L11.8159 15.9364C11.8009 15.9021 11.7765 15.8727 11.7455 15.8515L10.7415 15.1651C10.6253 15.0857 10.6253 14.9143 10.7415 14.8349L11.7455 14.1485C11.7765 14.1273 11.8009 14.0979 11.8159 14.0636L12.3168 12.9188Z" fill="black" fill-opacity="0.85"/>
<path d="M15.8188 6.8861C15.8908 6.73263 16.1091 6.73263 16.181 6.8861L17.036 8.70986C17.0521 8.74416 17.0776 8.77319 17.1095 8.79357L18.7357 9.83121C18.8589 9.90984 18.8589 10.0898 18.7357 10.1684L17.1095 11.2061C17.0776 11.2264 17.0521 11.2555 17.036 11.2898L16.181 13.1135C16.1091 13.267 15.8908 13.267 15.8188 13.1135L14.9639 11.2898C14.9478 11.2555 14.9223 11.2264 14.8904 11.2061L13.2642 10.1684C13.1409 10.0898 13.1409 9.90984 13.2642 9.83121L14.8904 8.79357C14.9223 8.77319 14.9478 8.74416 14.9639 8.70986L15.8188 6.8861Z" fill="black" fill-opacity="0.85"/>
<path d="M12.6831 12.9187C12.6132 12.7589 12.3866 12.7589 12.3167 12.9187L11.8158 14.0634C11.8008 14.0978 11.7764 14.1272 11.7455 14.1484L10.7414 14.8348C10.6253 14.9142 10.6253 15.0856 10.7414 15.165L11.7455 15.8514C11.7764 15.8725 11.8008 15.902 11.8158 15.9363L12.3167 17.0811C12.3866 17.2409 12.6132 17.2409 12.6831 17.0811L13.184 15.9363C13.1991 15.902 13.2234 15.8725 13.2544 15.8514L14.2584 15.165C14.3746 15.0856 14.3746 14.9142 14.2584 14.8348L13.2544 14.1484C13.2234 14.1272 13.1991 14.0978 13.184 14.0634L12.6831 12.9187Z" fill="black" fill-opacity="0.85"/>
<path fill-rule="evenodd" clip-rule="evenodd" d="M7.79289 3.64468L4.60485 4.49891C1.93752 5.21362 0.354608 7.9553 1.06932 10.6226L3.13987 18.35C3.85458 21.0174 6.59626 22.6003 9.26359 21.8856L9.86149 21.7254C10.3748 21.9033 10.9261 22 11.4999 22H17.4999C20.2614 22 22.4999 19.7614 22.4999 17V7C22.4999 4.23858 20.2614 2 17.4999 2H11.4999C10.0297 2 8.70776 2.63453 7.79289 3.64468ZM6.59262 6.03684C6.53181 6.34851 6.49994 6.67053 6.49994 7V17C6.49994 18.1356 6.87854 19.1828 7.51642 20.0223C6.37562 19.8474 5.38958 19.0187 5.07172 17.8324L3.00117 10.105C2.57234 8.5046 3.52209 6.85959 5.12249 6.43076L6.59262 6.03684ZM8.49994 7C8.49994 5.34315 9.84308 4 11.4999 4H17.4999C19.1568 4 20.4999 5.34315 20.4999 7V17C20.4999 18.6569 19.1568 20 17.4999 20H11.4999C9.84308 20 8.49994 18.6569 8.49994 17V7Z" fill="black" fill-opacity="0.85"/>
</svg>
